<?xml version="1.0" encoding="UTF-8" standalone="no"?>
<svg
   xmlns:dc="http://purl.org/dc/elements/1.1/"
   xmlns:cc="http://creativecommons.org/ns#"
   xmlns:rdf="http://www.w3.org/1999/02/22-rdf-syntax-ns#"
   xmlns:svg="http://www.w3.org/2000/svg"
   xmlns="http://www.w3.org/2000/svg"
   id="svg126"
   version="1.1"
   width="406.49mm"
   viewBox="0.0 0.0 406.49 328.46"
   height="328.46mm">
  <defs
     id="defs130" />
  <!--
DividerTray - Divider tray - rows and dividers

Created with Boxes.py (https://festi.info/boxes.py)
Creation date: 2021-01-16 01:36:56
Command line (remove spaces between dashes): boxes DividerTray - -FingerJoint_angle=90.0 - -FingerJoint_style=rectangular - -FingerJoint_surroundingspaces=2.0 - -FingerJoint_edge_width=1.0 - -FingerJoint_finger=2.0 - -FingerJoint_play=0.0 - -FingerJoint_space=2.0 - -FingerJoint_width=1.0 - -sx=287/3 - -sy=287/10 - -h=50 - -outside=0 - -outside=1 - -slot_depth=20 - -slot_angle=0 - -slot_radius=2 - -slot_extra_slack=.17 - -divider_bottom_margin=10 - -divider_upper_notch_radius=3 - -divider_lower_notch_radius=3 - -divider_notch_depth=6 - -left_wall=0 - -left_wall=1 - -right_wall=0 - -right_wall=1 - -bottom=0 - -thickness=3.0 - -format=svg - -tabs=0.0 - -debug=0 - -reference=0 - -burn=.08
Url: http://www.festi.info/DividerTray?FingerJoint_angle=90.0&FingerJoint_style=rectangular&FingerJoint_surroundingspaces=2.0&FingerJoint_edge_width=1.0&FingerJoint_finger=2.0&FingerJoint_play=0.0&FingerJoint_space=2.0&FingerJoint_width=1.0&sx=287%2F3&sy=287%2F10&h=50&outside=0&outside=1&slot_depth=20&slot_angle=0&slot_radius=2&slot_extra_slack=.17&divider_bottom_margin=10&divider_upper_notch_radius=3&divider_lower_notch_radius=3&divider_notch_depth=6&left_wall=0&left_wall=1&right_wall=0&right_wall=1&bottom=0&thickness=3.0&format=svg&tabs=0.0&debug=0&reference=0&burn=.08&render=1
SettingsUrl: http://www.festi.info/DividerTray?FingerJoint_angle=90.0&FingerJoint_style=rectangular&FingerJoint_surroundingspaces=2.0&FingerJoint_edge_width=1.0&FingerJoint_finger=2.0&FingerJoint_play=0.0&FingerJoint_space=2.0&FingerJoint_width=1.0&sx=287%2F3&sy=287%2F10&h=50&outside=0&outside=1&slot_depth=20&slot_angle=0&slot_radius=2&slot_extra_slack=.17&divider_bottom_margin=10&divider_upper_notch_radius=3&divider_lower_notch_radius=3&divider_notch_depth=6&left_wall=0&left_wall=1&right_wall=0&right_wall=1&bottom=0&thickness=3.0&format=svg&tabs=0.0&debug=0&reference=0&burn=.08
-->
  <title
     id="title71">DividerTray</title>
  <metadata
     id="metadata73">
    <rdf:RDF>
      <cc:Work>
        <dc:title>DividerTray</dc:title>
        <dc:date>2021-01-16 01:36:56</dc:date>
        <dc:source>http://www.festi.info/DividerTray?FingerJoint_angle=90.0&amp;FingerJoint_style=rectangular&amp;FingerJoint_surroundingspaces=2.0&amp;FingerJoint_edge_width=1.0&amp;FingerJoint_finger=2.0&amp;FingerJoint_play=0.0&amp;FingerJoint_space=2.0&amp;FingerJoint_width=1.0&amp;sx=287%2F3&amp;sy=287%2F10&amp;h=50&amp;outside=0&amp;outside=1&amp;slot_depth=20&amp;slot_angle=0&amp;slot_radius=2&amp;slot_extra_slack=.17&amp;divider_bottom_margin=10&amp;divider_upper_notch_radius=3&amp;divider_lower_notch_radius=3&amp;divider_notch_depth=6&amp;left_wall=0&amp;left_wall=1&amp;right_wall=0&amp;right_wall=1&amp;bottom=0&amp;thickness=3.0&amp;format=svg&amp;tabs=0.0&amp;debug=0&amp;reference=0&amp;burn=.08&amp;render=1</dc:source>
        <dc:description>Divider tray - rows and dividers

Created with Boxes.py (https://festi.info/boxes.py)
Command line: boxes DividerTray --FingerJoint_angle=90.0 --FingerJoint_style=rectangular --FingerJoint_surroundingspaces=2.0 --FingerJoint_edge_width=1.0 --FingerJoint_finger=2.0 --FingerJoint_play=0.0 --FingerJoint_space=2.0 --FingerJoint_width=1.0 --sx=287/3 --sy=287/10 --h=50 --outside=0 --outside=1 --slot_depth=20 --slot_angle=0 --slot_radius=2 --slot_extra_slack=.17 --divider_bottom_margin=10 --divider_upper_notch_radius=3 --divider_lower_notch_radius=3 --divider_notch_depth=6 --left_wall=0 --left_wall=1 --right_wall=0 --right_wall=1 --bottom=0 --thickness=3.0 --format=svg --tabs=0.0 --debug=0 --reference=0 --burn=.08
Url: http://www.festi.info/DividerTray?FingerJoint_angle=90.0&amp;FingerJoint_style=rectangular&amp;FingerJoint_surroundingspaces=2.0&amp;FingerJoint_edge_width=1.0&amp;FingerJoint_finger=2.0&amp;FingerJoint_play=0.0&amp;FingerJoint_space=2.0&amp;FingerJoint_width=1.0&amp;sx=287%2F3&amp;sy=287%2F10&amp;h=50&amp;outside=0&amp;outside=1&amp;slot_depth=20&amp;slot_angle=0&amp;slot_radius=2&amp;slot_extra_slack=.17&amp;divider_bottom_margin=10&amp;divider_upper_notch_radius=3&amp;divider_lower_notch_radius=3&amp;divider_notch_depth=6&amp;left_wall=0&amp;left_wall=1&amp;right_wall=0&amp;right_wall=1&amp;bottom=0&amp;thickness=3.0&amp;format=svg&amp;tabs=0.0&amp;debug=0&amp;reference=0&amp;burn=.08&amp;render=1
SettingsUrl: http://www.festi.info/DividerTray?FingerJoint_angle=90.0&amp;FingerJoint_style=rectangular&amp;FingerJoint_surroundingspaces=2.0&amp;FingerJoint_edge_width=1.0&amp;FingerJoint_finger=2.0&amp;FingerJoint_play=0.0&amp;FingerJoint_space=2.0&amp;FingerJoint_width=1.0&amp;sx=287%2F3&amp;sy=287%2F10&amp;h=50&amp;outside=0&amp;outside=1&amp;slot_depth=20&amp;slot_angle=0&amp;slot_radius=2&amp;slot_extra_slack=.17&amp;divider_bottom_margin=10&amp;divider_upper_notch_radius=3&amp;divider_lower_notch_radius=3&amp;divider_notch_depth=6&amp;left_wall=0&amp;left_wall=1&amp;right_wall=0&amp;right_wall=1&amp;bottom=0&amp;thickness=3.0&amp;format=svg&amp;tabs=0.0&amp;debug=0&amp;reference=0&amp;burn=.08
</dc:description>
        <dc:format>image/svg+xml</dc:format>
        <dc:type
           rdf:resource="http://purl.org/dc/dcmitype/StillImage" />
      </cc:Work>
    </rdf:RDF>
  </metadata>
  <g
     style="fill:none;stroke-linecap:round;stroke-linejoin:round;"
     id="p-0">
    <path
       id="path75"
       stroke-width="0.16"
       stroke="rgb(0,0,255)"
       d="M 107.667 305.380 V 308.300 C 107.667 308.380 107.747 308.300 107.667 308.300 H 104.827 C 104.747 308.300 104.827 308.380 104.827 308.300 V 302.460 C 104.827 302.380 104.747 302.460 104.827 302.460 H 107.667 C 107.747 302.460 107.667 302.380 107.667 302.460 V 305.380 Z" />
    <path
       id="path77"
       stroke-width="0.16"
       stroke="rgb(0,0,255)"
       d="M 107.667 293.380 V 296.300 C 107.667 296.380 107.747 296.300 107.667 296.300 H 104.827 C 104.747 296.300 104.827 296.380 104.827 296.300 V 290.460 C 104.827 290.380 104.747 290.460 104.827 290.460 H 107.667 C 107.747 290.460 107.667 290.380 107.667 290.460 V 293.380 Z" />
    <path
       id="path79"
       stroke-width="0.16"
       stroke="rgb(0,0,255)"
       d="M 107.667 281.380 V 284.300 C 107.667 284.380 107.747 284.300 107.667 284.300 H 104.827 C 104.747 284.300 104.827 284.380 104.827 284.300 V 278.460 C 104.827 278.380 104.747 278.460 104.827 278.460 H 107.667 C 107.747 278.460 107.667 278.380 107.667 278.460 V 281.380 Z" />
    <path
       id="path81"
       stroke-width="0.16"
       stroke="rgb(0,0,255)"
       d="M 202.333 305.380 V 308.300 C 202.333 308.380 202.413 308.300 202.333 308.300 H 199.493 C 199.413 308.300 199.493 308.380 199.493 308.300 V 302.460 C 199.493 302.380 199.413 302.460 199.493 302.460 H 202.333 C 202.413 302.460 202.333 302.380 202.333 302.460 V 305.380 Z" />
    <path
       id="path83"
       stroke-width="0.16"
       stroke="rgb(0,0,255)"
       d="M 202.333 293.380 V 296.300 C 202.333 296.380 202.413 296.300 202.333 296.300 H 199.493 C 199.413 296.300 199.493 296.380 199.493 296.300 V 290.460 C 199.493 290.380 199.413 290.460 199.493 290.460 H 202.333 C 202.413 290.460 202.333 290.380 202.333 290.460 V 293.380 Z" />
    <path
       id="path85"
       stroke-width="0.16"
       stroke="rgb(0,0,255)"
       d="M 202.333 281.380 V 284.300 C 202.333 284.380 202.413 284.300 202.333 284.300 H 199.493 C 199.413 284.300 199.493 284.380 199.493 284.300 V 278.460 C 199.493 278.380 199.413 278.460 199.493 278.460 H 202.333 C 202.413 278.460 202.333 278.380 202.333 278.460 V 281.380 Z" />
    <path
       id="path87"
       stroke-width="0.16"
       stroke="rgb(0,0,0)"
       d="M 13.080 318.460 H 294.080 H 297.080 C 297.124 318.460 297.160 318.424 297.160 318.380 V 308.380 C 297.160 308.336 297.124 308.300 297.080 308.300 H 294.160 C 294.080 308.300 294.160 308.380 294.160 308.300 V 302.460 C 294.160 302.380 294.080 302.460 294.160 302.460 H 297.080 C 297.124 302.460 297.160 302.424 297.160 302.380 V 296.380 C 297.160 296.336 297.124 296.300 297.080 296.300 H 294.160 C 294.080 296.300 294.160 296.380 294.160 296.300 V 290.460 C 294.160 290.380 294.080 290.460 294.160 290.460 H 297.080 C 297.124 290.460 297.160 290.424 297.160 290.380 V 284.380 C 297.160 284.336 297.124 284.300 297.080 284.300 H 294.160 C 294.080 284.300 294.160 284.380 294.160 284.300 V 278.460 C 294.160 278.380 294.080 278.460 294.160 278.460 H 297.080 C 297.124 278.460 297.160 278.424 297.160 278.380 V 268.380 C 297.160 268.336 297.124 268.300 297.080 268.300 H 294.080 H 13.080 H 10.080 C 10.036 268.300 10.000 268.336 10.000 268.380 V 278.380 C 10.000 278.424 10.036 278.460 10.080 278.460 H 13.000 C 13.080 278.460 13.000 278.380 13.000 278.460 V 284.300 C 13.000 284.380 13.080 284.300 13.000 284.300 H 10.080 C 10.036 284.300 10.000 284.336 10.000 284.380 V 290.380 C 10.000 290.424 10.036 290.460 10.080 290.460 H 13.000 C 13.080 290.460 13.000 290.380 13.000 290.460 V 296.300 C 13.000 296.380 13.080 296.300 13.000 296.300 H 10.080 C 10.036 296.300 10.000 296.336 10.000 296.380 V 302.380 C 10.000 302.424 10.036 302.460 10.080 302.460 H 13.000 C 13.080 302.460 13.000 302.380 13.000 302.460 V 308.300 C 13.000 308.380 13.080 308.300 13.000 308.300 H 10.080 C 10.036 308.300 10.000 308.336 10.000 308.380 V 318.380 C 10.000 318.424 10.036 318.460 10.080 318.460 H 13.080 Z" />
  </g>
  <g
     style="fill:none;stroke-linecap:round;stroke-linejoin:round;"
     id="p-1">
    <path
       id="path90"
       stroke-width="0.16"
       stroke="rgb(0,0,255)"
       d="M 107.667 253.720 V 256.640 C 107.667 256.720 107.747 256.640 107.667 256.640 H 104.827 C 104.747 256.640 104.827 256.720 104.827 256.640 V 250.800 C 104.827 250.720 104.747 250.800 104.827 250.800 H 107.667 C 107.747 250.800 107.667 250.720 107.667 250.800 V 253.720 Z" />
    <path
       id="path92"
       stroke-width="0.16"
       stroke="rgb(0,0,255)"
       d="M 107.667 241.720 V 244.640 C 107.667 244.720 107.747 244.640 107.667 244.640 H 104.827 C 104.747 244.640 104.827 244.720 104.827 244.640 V 238.800 C 104.827 238.720 104.747 238.800 104.827 238.800 H 107.667 C 107.747 238.800 107.667 238.720 107.667 238.800 V 241.720 Z" />
    <path
       id="path94"
       stroke-width="0.16"
       stroke="rgb(0,0,255)"
       d="M 107.667 229.720 V 232.640 C 107.667 232.720 107.747 232.640 107.667 232.640 H 104.827 C 104.747 232.640 104.827 232.720 104.827 232.640 V 226.800 C 104.827 226.720 104.747 226.800 104.827 226.800 H 107.667 C 107.747 226.800 107.667 226.720 107.667 226.800 V 229.720 Z" />
    <path
       id="path96"
       stroke-width="0.16"
       stroke="rgb(0,0,255)"
       d="M 202.333 253.720 V 256.640 C 202.333 256.720 202.413 256.640 202.333 256.640 H 199.493 C 199.413 256.640 199.493 256.720 199.493 256.640 V 250.800 C 199.493 250.720 199.413 250.800 199.493 250.800 H 202.333 C 202.413 250.800 202.333 250.720 202.333 250.800 V 253.720 Z" />
    <path
       id="path98"
       stroke-width="0.16"
       stroke="rgb(0,0,255)"
       d="M 202.333 241.720 V 244.640 C 202.333 244.720 202.413 244.640 202.333 244.640 H 199.493 C 199.413 244.640 199.493 244.720 199.493 244.640 V 238.800 C 199.493 238.720 199.413 238.800 199.493 238.800 H 202.333 C 202.413 238.800 202.333 238.720 202.333 238.800 V 241.720 Z" />
    <path
       id="path100"
       stroke-width="0.16"
       stroke="rgb(0,0,255)"
       d="M 202.333 229.720 V 232.640 C 202.333 232.720 202.413 232.640 202.333 232.640 H 199.493 C 199.413 232.640 199.493 232.720 199.493 232.640 V 226.800 C 199.493 226.720 199.413 226.800 199.493 226.800 H 202.333 C 202.413 226.800 202.333 226.720 202.333 226.800 V 229.720 Z" />
    <path
       id="path102"
       stroke-width="0.16"
       stroke="rgb(0,0,0)"
       d="M 13.080 266.800 H 294.080 H 297.080 C 297.124 266.800 297.160 266.764 297.160 266.720 V 256.720 C 297.160 256.676 297.124 256.640 297.080 256.640 H 294.160 C 294.080 256.640 294.160 256.720 294.160 256.640 V 250.800 C 294.160 250.720 294.080 250.800 294.160 250.800 H 297.080 C 297.124 250.800 297.160 250.764 297.160 250.720 V 244.720 C 297.160 244.676 297.124 244.640 297.080 244.640 H 294.160 C 294.080 244.640 294.160 244.720 294.160 244.640 V 238.800 C 294.160 238.720 294.080 238.800 294.160 238.800 H 297.080 C 297.124 238.800 297.160 238.764 297.160 238.720 V 232.720 C 297.160 232.676 297.124 232.640 297.080 232.640 H 294.160 C 294.080 232.640 294.160 232.720 294.160 232.640 V 226.800 C 294.160 226.720 294.080 226.800 294.160 226.800 H 297.080 C 297.124 226.800 297.160 226.764 297.160 226.720 V 216.720 C 297.160 216.676 297.124 216.640 297.080 216.640 H 294.080 H 13.080 H 10.080 C 10.036 216.640 10.000 216.676 10.000 216.720 V 226.720 C 10.000 226.764 10.036 226.800 10.080 226.800 H 13.000 C 13.080 226.800 13.000 226.720 13.000 226.800 V 232.640 C 13.000 232.720 13.080 232.640 13.000 232.640 H 10.080 C 10.036 232.640 10.000 232.676 10.000 232.720 V 238.720 C 10.000 238.764 10.036 238.800 10.080 238.800 H 13.000 C 13.080 238.800 13.000 238.720 13.000 238.800 V 244.640 C 13.000 244.720 13.080 244.640 13.000 244.640 H 10.080 C 10.036 244.640 10.000 244.676 10.000 244.720 V 250.720 C 10.000 250.764 10.036 250.800 10.080 250.800 H 13.000 C 13.080 250.800 13.000 250.720 13.000 250.800 V 256.640 C 13.000 256.720 13.080 256.640 13.000 256.640 H 10.080 C 10.036 256.640 10.000 256.676 10.000 256.720 V 266.720 C 10.000 266.764 10.036 266.800 10.080 266.800 H 13.080 Z" />
  </g>
  <g
     style="fill:none;stroke-linecap:round;stroke-linejoin:round;"
     id="p-2">
    <path
       id="path105"
       stroke-width="0.16"
       stroke="rgb(0,0,0)"
       d="M 13.080 215.140 H 294.080 C 294.124 215.140 294.160 215.104 294.160 215.060 V 205.140 C 294.160 205.060 294.080 205.140 294.160 205.140 H 297.080 C 297.124 205.140 297.160 205.104 297.160 205.060 V 199.060 C 297.160 199.016 297.124 198.980 297.080 198.980 H 294.160 C 294.080 198.980 294.160 199.060 294.160 198.980 V 193.140 C 294.160 193.060 294.080 193.140 294.160 193.140 H 297.080 C 297.124 193.140 297.160 193.104 297.160 193.060 V 187.060 C 297.160 187.016 297.124 186.980 297.080 186.980 H 294.160 C 294.080 186.980 294.160 187.060 294.160 186.980 V 181.140 C 294.160 181.060 294.080 181.140 294.160 181.140 H 297.080 C 297.124 181.140 297.160 181.104 297.160 181.060 V 175.060 C 297.160 175.016 297.124 174.980 297.080 174.980 H 294.160 C 294.080 174.980 294.160 175.060 294.160 174.980 V 165.060 C 294.160 165.016 294.124 164.980 294.080 164.980 H 270.833 C 270.468 164.980 270.109 165.076 269.793 165.259 C 269.477 165.441 269.214 165.704 269.032 166.020 C 268.849 166.336 268.753 166.695 268.753 167.060 V 184.980 C 268.753 185.060 268.833 184.980 268.753 184.980 H 265.743 C 265.663 184.980 265.743 185.060 265.743 184.980 V 167.060 C 265.743 166.695 265.647 166.336 265.464 166.020 C 265.282 165.704 265.019 165.441 264.703 165.259 C 264.387 165.076 264.028 164.980 263.663 164.980 H 242.416 C 242.051 164.980 241.692 165.076 241.376 165.259 C 241.060 165.441 240.797 165.704 240.615 166.020 C 240.432 166.336 240.336 166.695 240.336 167.060 V 184.980 C 240.336 185.060 240.416 184.980 240.336 184.980 H 237.326 C 237.246 184.980 237.326 185.060 237.326 184.980 V 167.060 C 237.326 166.695 237.230 166.336 237.047 166.020 C 236.865 165.704 236.602 165.441 236.286 165.259 C 235.970 165.076 235.611 164.980 235.246 164.980 H 213.999 C 213.634 164.980 213.275 165.076 212.959 165.259 C 212.643 165.441 212.380 165.704 212.198 166.020 C 212.015 166.336 211.919 166.695 211.919 167.060 V 184.980 C 211.919 185.060 211.999 184.980 211.919 184.980 H 208.909 C 208.829 184.980 208.909 185.060 208.909 184.980 V 167.060 C 208.909 166.695 208.813 166.336 208.630 166.020 C 208.448 165.704 208.185 165.441 207.869 165.259 C 207.553 165.076 207.194 164.980 206.829 164.980 H 185.582 C 185.217 164.980 184.858 165.076 184.542 165.259 C 184.226 165.441 183.963 165.704 183.781 166.020 C 183.598 166.336 183.502 166.695 183.502 167.060 V 184.980 C 183.502 185.060 183.582 184.980 183.502 184.980 H 180.492 C 180.412 184.980 180.492 185.060 180.492 184.980 V 167.060 C 180.492 166.695 180.396 166.336 180.213 166.020 C 180.031 165.704 179.768 165.441 179.452 165.259 C 179.136 165.076 178.777 164.980 178.412 164.980 H 157.165 C 156.800 164.980 156.441 165.076 156.125 165.259 C 155.809 165.441 155.546 165.704 155.364 166.020 C 155.181 166.336 155.085 166.695 155.085 167.060 V 184.980 C 155.085 185.060 155.165 184.980 155.085 184.980 H 152.075 C 151.995 184.980 152.075 185.060 152.075 184.980 V 167.060 C 152.075 166.695 151.979 166.336 151.796 166.020 C 151.614 165.704 151.351 165.441 151.035 165.259 C 150.719 165.076 150.360 164.980 149.995 164.980 H 128.748 C 128.383 164.980 128.024 165.076 127.708 165.259 C 127.392 165.441 127.129 165.704 126.947 166.020 C 126.764 166.336 126.668 166.695 126.668 167.060 V 184.980 C 126.668 185.060 126.748 184.980 126.668 184.980 H 123.658 C 123.578 184.980 123.658 185.060 123.658 184.980 V 167.060 C 123.658 166.695 123.562 166.336 123.379 166.020 C 123.197 165.704 122.934 165.441 122.618 165.259 C 122.302 165.076 121.943 164.980 121.578 164.980 H 100.331 C 99.966 164.980 99.607 165.076 99.291 165.259 C 98.975 165.441 98.712 165.704 98.530 166.020 C 98.347 166.336 98.251 166.695 98.251 167.060 V 184.980 C 98.251 185.060 98.331 184.980 98.251 184.980 H 95.241 C 95.161 184.980 95.241 185.060 95.241 184.980 V 167.060 C 95.241 166.695 95.145 166.336 94.962 166.020 C 94.780 165.704 94.517 165.441 94.201 165.259 C 93.885 165.076 93.526 164.980 93.161 164.980 H 71.914 C 71.549 164.980 71.190 165.076 70.874 165.259 C 70.558 165.441 70.295 165.704 70.113 166.020 C 69.930 166.336 69.834 166.695 69.834 167.060 V 184.980 C 69.834 185.060 69.914 184.980 69.834 184.980 H 66.824 C 66.744 184.980 66.824 185.060 66.824 184.980 V 167.060 C 66.824 166.695 66.728 166.336 66.545 166.020 C 66.363 165.704 66.100 165.441 65.784 165.259 C 65.468 165.076 65.109 164.980 64.744 164.980 H 43.497 C 43.132 164.980 42.773 165.076 42.457 165.259 C 42.141 165.441 41.878 165.704 41.696 166.020 C 41.513 166.336 41.417 166.695 41.417 167.060 V 184.980 C 41.417 185.060 41.497 184.980 41.417 184.980 H 38.407 C 38.327 184.980 38.407 185.060 38.407 184.980 V 167.060 C 38.407 166.695 38.311 166.336 38.128 166.020 C 37.946 165.704 37.683 165.441 37.367 165.259 C 37.051 165.076 36.692 164.980 36.327 164.980 H 13.080 C 13.036 164.980 13.000 165.016 13.000 165.060 V 174.980 C 13.000 175.060 13.080 174.980 13.000 174.980 H 10.080 C 10.036 174.980 10.000 175.016 10.000 175.060 V 181.060 C 10.000 181.104 10.036 181.140 10.080 181.140 H 13.000 C 13.080 181.140 13.000 181.060 13.000 181.140 V 186.980 C 13.000 187.060 13.080 186.980 13.000 186.980 H 10.080 C 10.036 186.980 10.000 187.016 10.000 187.060 V 193.060 C 10.000 193.104 10.036 193.140 10.080 193.140 H 13.000 C 13.080 193.140 13.000 193.060 13.000 193.140 V 198.980 C 13.000 199.060 13.080 198.980 13.000 198.980 H 10.080 C 10.036 198.980 10.000 199.016 10.000 199.060 V 205.060 C 10.000 205.104 10.036 205.140 10.080 205.140 H 13.000 C 13.080 205.140 13.000 205.060 13.000 205.140 V 215.060 C 13.000 215.104 13.036 215.140 13.080 215.140 Z" />
  </g>
  <g
     style="fill:none;stroke-linecap:round;stroke-linejoin:round;"
     id="p-3">
    <path
       id="path108"
       stroke-width="0.16"
       stroke="rgb(0,0,0)"
       d="M 13.080 163.480 H 294.080 C 294.124 163.480 294.160 163.444 294.160 163.400 V 153.480 C 294.160 153.400 294.080 153.480 294.160 153.480 H 297.080 C 297.124 153.480 297.160 153.444 297.160 153.400 V 147.400 C 297.160 147.356 297.124 147.320 297.080 147.320 H 294.160 C 294.080 147.320 294.160 147.400 294.160 147.320 V 141.480 C 294.160 141.400 294.080 141.480 294.160 141.480 H 297.080 C 297.124 141.480 297.160 141.444 297.160 141.400 V 135.400 C 297.160 135.356 297.124 135.320 297.080 135.320 H 294.160 C 294.080 135.320 294.160 135.400 294.160 135.320 V 129.480 C 294.160 129.400 294.080 129.480 294.160 129.480 H 297.080 C 297.124 129.480 297.160 129.444 297.160 129.400 V 123.400 C 297.160 123.356 297.124 123.320 297.080 123.320 H 294.160 C 294.080 123.320 294.160 123.400 294.160 123.320 V 113.400 C 294.160 113.356 294.124 113.320 294.080 113.320 H 270.833 C 270.468 113.320 270.109 113.416 269.793 113.599 C 269.477 113.781 269.214 114.044 269.032 114.360 C 268.849 114.676 268.753 115.035 268.753 115.400 V 133.320 C 268.753 133.400 268.833 133.320 268.753 133.320 H 265.743 C 265.663 133.320 265.743 133.400 265.743 133.320 V 115.400 C 265.743 115.035 265.647 114.676 265.464 114.360 C 265.282 114.044 265.019 113.781 264.703 113.599 C 264.387 113.416 264.028 113.320 263.663 113.320 H 242.416 C 242.051 113.320 241.692 113.416 241.376 113.599 C 241.060 113.781 240.797 114.044 240.615 114.360 C 240.432 114.676 240.336 115.035 240.336 115.400 V 133.320 C 240.336 133.400 240.416 133.320 240.336 133.320 H 237.326 C 237.246 133.320 237.326 133.400 237.326 133.320 V 115.400 C 237.326 115.035 237.230 114.676 237.047 114.360 C 236.865 114.044 236.602 113.781 236.286 113.599 C 235.970 113.416 235.611 113.320 235.246 113.320 H 213.999 C 213.634 113.320 213.275 113.416 212.959 113.599 C 212.643 113.781 212.380 114.044 212.198 114.360 C 212.015 114.676 211.919 115.035 211.919 115.400 V 133.320 C 211.919 133.400 211.999 133.320 211.919 133.320 H 208.909 C 208.829 133.320 208.909 133.400 208.909 133.320 V 115.400 C 208.909 115.035 208.813 114.676 208.630 114.360 C 208.448 114.044 208.185 113.781 207.869 113.599 C 207.553 113.416 207.194 113.320 206.829 113.320 H 185.582 C 185.217 113.320 184.858 113.416 184.542 113.599 C 184.226 113.781 183.963 114.044 183.781 114.360 C 183.598 114.676 183.502 115.035 183.502 115.400 V 133.320 C 183.502 133.400 183.582 133.320 183.502 133.320 H 180.492 C 180.412 133.320 180.492 133.400 180.492 133.320 V 115.400 C 180.492 115.035 180.396 114.676 180.213 114.360 C 180.031 114.044 179.768 113.781 179.452 113.599 C 179.136 113.416 178.777 113.320 178.412 113.320 H 157.165 C 156.800 113.320 156.441 113.416 156.125 113.599 C 155.809 113.781 155.546 114.044 155.364 114.360 C 155.181 114.676 155.085 115.035 155.085 115.400 V 133.320 C 155.085 133.400 155.165 133.320 155.085 133.320 H 152.075 C 151.995 133.320 152.075 133.400 152.075 133.320 V 115.400 C 152.075 115.035 151.979 114.676 151.796 114.360 C 151.614 114.044 151.351 113.781 151.035 113.599 C 150.719 113.416 150.360 113.320 149.995 113.320 H 128.748 C 128.383 113.320 128.024 113.416 127.708 113.599 C 127.392 113.781 127.129 114.044 126.947 114.360 C 126.764 114.676 126.668 115.035 126.668 115.400 V 133.320 C 126.668 133.400 126.748 133.320 126.668 133.320 H 123.658 C 123.578 133.320 123.658 133.400 123.658 133.320 V 115.400 C 123.658 115.035 123.562 114.676 123.379 114.360 C 123.197 114.044 122.934 113.781 122.618 113.599 C 122.302 113.416 121.943 113.320 121.578 113.320 H 100.331 C 99.966 113.320 99.607 113.416 99.291 113.599 C 98.975 113.781 98.712 114.044 98.530 114.360 C 98.347 114.676 98.251 115.035 98.251 115.400 V 133.320 C 98.251 133.400 98.331 133.320 98.251 133.320 H 95.241 C 95.161 133.320 95.241 133.400 95.241 133.320 V 115.400 C 95.241 115.035 95.145 114.676 94.962 114.360 C 94.780 114.044 94.517 113.781 94.201 113.599 C 93.885 113.416 93.526 113.320 93.161 113.320 H 71.914 C 71.549 113.320 71.190 113.416 70.874 113.599 C 70.558 113.781 70.295 114.044 70.113 114.360 C 69.930 114.676 69.834 115.035 69.834 115.400 V 133.320 C 69.834 133.400 69.914 133.320 69.834 133.320 H 66.824 C 66.744 133.320 66.824 133.400 66.824 133.320 V 115.400 C 66.824 115.035 66.728 114.676 66.545 114.360 C 66.363 114.044 66.100 113.781 65.784 113.599 C 65.468 113.416 65.109 113.320 64.744 113.320 H 43.497 C 43.132 113.320 42.773 113.416 42.457 113.599 C 42.141 113.781 41.878 114.044 41.696 114.360 C 41.513 114.676 41.417 115.035 41.417 115.400 V 133.320 C 41.417 133.400 41.497 133.320 41.417 133.320 H 38.407 C 38.327 133.320 38.407 133.400 38.407 133.320 V 115.400 C 38.407 115.035 38.311 114.676 38.128 114.360 C 37.946 114.044 37.683 113.781 37.367 113.599 C 37.051 113.416 36.692 113.320 36.327 113.320 H 13.080 C 13.036 113.320 13.000 113.356 13.000 113.400 V 123.320 C 13.000 123.400 13.080 123.320 13.000 123.320 H 10.080 C 10.036 123.320 10.000 123.356 10.000 123.400 V 129.400 C 10.000 129.444 10.036 129.480 10.080 129.480 H 13.000 C 13.080 129.480 13.000 129.400 13.000 129.480 V 135.320 C 13.000 135.400 13.080 135.320 13.000 135.320 H 10.080 C 10.036 135.320 10.000 135.356 10.000 135.400 V 141.400 C 10.000 141.444 10.036 141.480 10.080 141.480 H 13.000 C 13.080 141.480 13.000 141.400 13.000 141.480 V 147.320 C 13.000 147.400 13.080 147.320 13.000 147.320 H 10.080 C 10.036 147.320 10.000 147.356 10.000 147.400 V 153.400 C 10.000 153.444 10.036 153.480 10.080 153.480 H 13.000 C 13.080 153.480 13.000 153.400 13.000 153.480 V 163.400 C 13.000 163.444 13.036 163.480 13.080 163.480 Z" />
  </g>
  <g
     style="fill:none;stroke-linecap:round;stroke-linejoin:round;"
     id="p-4">
    <path
       id="path111"
       stroke-width="0.16"
       stroke="rgb(0,0,0)"
       d="M 13.080 111.820 H 294.080 C 294.124 111.820 294.160 111.784 294.160 111.740 V 101.820 C 294.160 101.740 294.080 101.820 294.160 101.820 H 297.080 C 297.124 101.820 297.160 101.784 297.160 101.740 V 95.740 C 297.160 95.696 297.124 95.660 297.080 95.660 H 294.160 C 294.080 95.660 294.160 95.740 294.160 95.660 V 89.820 C 294.160 89.740 294.080 89.820 294.160 89.820 H 297.080 C 297.124 89.820 297.160 89.784 297.160 89.740 V 83.740 C 297.160 83.696 297.124 83.660 297.080 83.660 H 294.160 C 294.080 83.660 294.160 83.740 294.160 83.660 V 77.820 C 294.160 77.740 294.080 77.820 294.160 77.820 H 297.080 C 297.124 77.820 297.160 77.784 297.160 77.740 V 71.740 C 297.160 71.696 297.124 71.660 297.080 71.660 H 294.160 C 294.080 71.660 294.160 71.740 294.160 71.660 V 61.740 C 294.160 61.696 294.124 61.660 294.080 61.660 H 270.833 C 270.468 61.660 270.109 61.756 269.793 61.939 C 269.477 62.121 269.214 62.384 269.032 62.700 C 268.849 63.016 268.753 63.375 268.753 63.740 V 81.660 C 268.753 81.740 268.833 81.660 268.753 81.660 H 265.743 C 265.663 81.660 265.743 81.740 265.743 81.660 V 63.740 C 265.743 63.375 265.647 63.016 265.464 62.700 C 265.282 62.384 265.019 62.121 264.703 61.939 C 264.387 61.756 264.028 61.660 263.663 61.660 H 242.416 C 242.051 61.660 241.692 61.756 241.376 61.939 C 241.060 62.121 240.797 62.384 240.615 62.700 C 240.432 63.016 240.336 63.375 240.336 63.740 V 81.660 C 240.336 81.740 240.416 81.660 240.336 81.660 H 237.326 C 237.246 81.660 237.326 81.740 237.326 81.660 V 63.740 C 237.326 63.375 237.230 63.016 237.047 62.700 C 236.865 62.384 236.602 62.121 236.286 61.939 C 235.970 61.756 235.611 61.660 235.246 61.660 H 213.999 C 213.634 61.660 213.275 61.756 212.959 61.939 C 212.643 62.121 212.380 62.384 212.198 62.700 C 212.015 63.016 211.919 63.375 211.919 63.740 V 81.660 C 211.919 81.740 211.999 81.660 211.919 81.660 H 208.909 C 208.829 81.660 208.909 81.740 208.909 81.660 V 63.740 C 208.909 63.375 208.813 63.016 208.630 62.700 C 208.448 62.384 208.185 62.121 207.869 61.939 C 207.553 61.756 207.194 61.660 206.829 61.660 H 185.582 C 185.217 61.660 184.858 61.756 184.542 61.939 C 184.226 62.121 183.963 62.384 183.781 62.700 C 183.598 63.016 183.502 63.375 183.502 63.740 V 81.660 C 183.502 81.740 183.582 81.660 183.502 81.660 H 180.492 C 180.412 81.660 180.492 81.740 180.492 81.660 V 63.740 C 180.492 63.375 180.396 63.016 180.213 62.700 C 180.031 62.384 179.768 62.121 179.452 61.939 C 179.136 61.756 178.777 61.660 178.412 61.660 H 157.165 C 156.800 61.660 156.441 61.756 156.125 61.939 C 155.809 62.121 155.546 62.384 155.364 62.700 C 155.181 63.016 155.085 63.375 155.085 63.740 V 81.660 C 155.085 81.740 155.165 81.660 155.085 81.660 H 152.075 C 151.995 81.660 152.075 81.740 152.075 81.660 V 63.740 C 152.075 63.375 151.979 63.016 151.796 62.700 C 151.614 62.384 151.351 62.121 151.035 61.939 C 150.719 61.756 150.360 61.660 149.995 61.660 H 128.748 C 128.383 61.660 128.024 61.756 127.708 61.939 C 127.392 62.121 127.129 62.384 126.947 62.700 C 126.764 63.016 126.668 63.375 126.668 63.740 V 81.660 C 126.668 81.740 126.748 81.660 126.668 81.660 H 123.658 C 123.578 81.660 123.658 81.740 123.658 81.660 V 63.740 C 123.658 63.375 123.562 63.016 123.379 62.700 C 123.197 62.384 122.934 62.121 122.618 61.939 C 122.302 61.756 121.943 61.660 121.578 61.660 H 100.331 C 99.966 61.660 99.607 61.756 99.291 61.939 C 98.975 62.121 98.712 62.384 98.530 62.700 C 98.347 63.016 98.251 63.375 98.251 63.740 V 81.660 C 98.251 81.740 98.331 81.660 98.251 81.660 H 95.241 C 95.161 81.660 95.241 81.740 95.241 81.660 V 63.740 C 95.241 63.375 95.145 63.016 94.962 62.700 C 94.780 62.384 94.517 62.121 94.201 61.939 C 93.885 61.756 93.526 61.660 93.161 61.660 H 71.914 C 71.549 61.660 71.190 61.756 70.874 61.939 C 70.558 62.121 70.295 62.384 70.113 62.700 C 69.930 63.016 69.834 63.375 69.834 63.740 V 81.660 C 69.834 81.740 69.914 81.660 69.834 81.660 H 66.824 C 66.744 81.660 66.824 81.740 66.824 81.660 V 63.740 C 66.824 63.375 66.728 63.016 66.545 62.700 C 66.363 62.384 66.100 62.121 65.784 61.939 C 65.468 61.756 65.109 61.660 64.744 61.660 H 43.497 C 43.132 61.660 42.773 61.756 42.457 61.939 C 42.141 62.121 41.878 62.384 41.696 62.700 C 41.513 63.016 41.417 63.375 41.417 63.740 V 81.660 C 41.417 81.740 41.497 81.660 41.417 81.660 H 38.407 C 38.327 81.660 38.407 81.740 38.407 81.660 V 63.740 C 38.407 63.375 38.311 63.016 38.128 62.700 C 37.946 62.384 37.683 62.121 37.367 61.939 C 37.051 61.756 36.692 61.660 36.327 61.660 H 13.080 C 13.036 61.660 13.000 61.696 13.000 61.740 V 71.660 C 13.000 71.740 13.080 71.660 13.000 71.660 H 10.080 C 10.036 71.660 10.000 71.696 10.000 71.740 V 77.740 C 10.000 77.784 10.036 77.820 10.080 77.820 H 13.000 C 13.080 77.820 13.000 77.740 13.000 77.820 V 83.660 C 13.000 83.740 13.080 83.660 13.000 83.660 H 10.080 C 10.036 83.660 10.000 83.696 10.000 83.740 V 89.740 C 10.000 89.784 10.036 89.820 10.080 89.820 H 13.000 C 13.080 89.820 13.000 89.740 13.000 89.820 V 95.660 C 13.000 95.740 13.080 95.660 13.000 95.660 H 10.080 C 10.036 95.660 10.000 95.696 10.000 95.740 V 101.740 C 10.000 101.784 10.036 101.820 10.080 101.820 H 13.000 C 13.080 101.820 13.000 101.740 13.000 101.820 V 111.740 C 13.000 111.784 13.036 111.820 13.080 111.820 Z" />
  </g>
  <g
     style="fill:none;stroke-linecap:round;stroke-linejoin:round;"
     id="p-5">
    <path
       id="path114"
       stroke-width="0.16"
       stroke="rgb(0,0,0)"
       d="M 13.080 60.160 H 294.080 C 294.124 60.160 294.160 60.124 294.160 60.080 V 50.160 C 294.160 50.080 294.080 50.160 294.160 50.160 H 297.080 C 297.124 50.160 297.160 50.124 297.160 50.080 V 44.080 C 297.160 44.036 297.124 44.000 297.080 44.000 H 294.160 C 294.080 44.000 294.160 44.080 294.160 44.000 V 38.160 C 294.160 38.080 294.080 38.160 294.160 38.160 H 297.080 C 297.124 38.160 297.160 38.124 297.160 38.080 V 32.080 C 297.160 32.036 297.124 32.000 297.080 32.000 H 294.160 C 294.080 32.000 294.160 32.080 294.160 32.000 V 26.160 C 294.160 26.080 294.080 26.160 294.160 26.160 H 297.080 C 297.124 26.160 297.160 26.124 297.160 26.080 V 20.080 C 297.160 20.036 297.124 20.000 297.080 20.000 H 294.160 C 294.080 20.000 294.160 20.080 294.160 20.000 V 10.080 C 294.160 10.036 294.124 10.000 294.080 10.000 H 270.833 C 270.468 10.000 270.109 10.096 269.793 10.279 C 269.477 10.461 269.214 10.724 269.032 11.040 C 268.849 11.356 268.753 11.715 268.753 12.080 V 30.000 C 268.753 30.080 268.833 30.000 268.753 30.000 H 265.743 C 265.663 30.000 265.743 30.080 265.743 30.000 V 12.080 C 265.743 11.715 265.647 11.356 265.464 11.040 C 265.282 10.724 265.019 10.461 264.703 10.279 C 264.387 10.096 264.028 10.000 263.663 10.000 H 242.416 C 242.051 10.000 241.692 10.096 241.376 10.279 C 241.060 10.461 240.797 10.724 240.615 11.040 C 240.432 11.356 240.336 11.715 240.336 12.080 V 30.000 C 240.336 30.080 240.416 30.000 240.336 30.000 H 237.326 C 237.246 30.000 237.326 30.080 237.326 30.000 V 12.080 C 237.326 11.715 237.230 11.356 237.047 11.040 C 236.865 10.724 236.602 10.461 236.286 10.279 C 235.970 10.096 235.611 10.000 235.246 10.000 H 213.999 C 213.634 10.000 213.275 10.096 212.959 10.279 C 212.643 10.461 212.380 10.724 212.198 11.040 C 212.015 11.356 211.919 11.715 211.919 12.080 V 30.000 C 211.919 30.080 211.999 30.000 211.919 30.000 H 208.909 C 208.829 30.000 208.909 30.080 208.909 30.000 V 12.080 C 208.909 11.715 208.813 11.356 208.630 11.040 C 208.448 10.724 208.185 10.461 207.869 10.279 C 207.553 10.096 207.194 10.000 206.829 10.000 H 185.582 C 185.217 10.000 184.858 10.096 184.542 10.279 C 184.226 10.461 183.963 10.724 183.781 11.040 C 183.598 11.356 183.502 11.715 183.502 12.080 V 30.000 C 183.502 30.080 183.582 30.000 183.502 30.000 H 180.492 C 180.412 30.000 180.492 30.080 180.492 30.000 V 12.080 C 180.492 11.715 180.396 11.356 180.213 11.040 C 180.031 10.724 179.768 10.461 179.452 10.279 C 179.136 10.096 178.777 10.000 178.412 10.000 H 157.165 C 156.800 10.000 156.441 10.096 156.125 10.279 C 155.809 10.461 155.546 10.724 155.364 11.040 C 155.181 11.356 155.085 11.715 155.085 12.080 V 30.000 C 155.085 30.080 155.165 30.000 155.085 30.000 H 152.075 C 151.995 30.000 152.075 30.080 152.075 30.000 V 12.080 C 152.075 11.715 151.979 11.356 151.796 11.040 C 151.614 10.724 151.351 10.461 151.035 10.279 C 150.719 10.096 150.360 10.000 149.995 10.000 H 128.748 C 128.383 10.000 128.024 10.096 127.708 10.279 C 127.392 10.461 127.129 10.724 126.947 11.040 C 126.764 11.356 126.668 11.715 126.668 12.080 V 30.000 C 126.668 30.080 126.748 30.000 126.668 30.000 H 123.658 C 123.578 30.000 123.658 30.080 123.658 30.000 V 12.080 C 123.658 11.715 123.562 11.356 123.379 11.040 C 123.197 10.724 122.934 10.461 122.618 10.279 C 122.302 10.096 121.943 10.000 121.578 10.000 H 100.331 C 99.966 10.000 99.607 10.096 99.291 10.279 C 98.975 10.461 98.712 10.724 98.530 11.040 C 98.347 11.356 98.251 11.715 98.251 12.080 V 30.000 C 98.251 30.080 98.331 30.000 98.251 30.000 H 95.241 C 95.161 30.000 95.241 30.080 95.241 30.000 V 12.080 C 95.241 11.715 95.145 11.356 94.962 11.040 C 94.780 10.724 94.517 10.461 94.201 10.279 C 93.885 10.096 93.526 10.000 93.161 10.000 H 71.914 C 71.549 10.000 71.190 10.096 70.874 10.279 C 70.558 10.461 70.295 10.724 70.113 11.040 C 69.930 11.356 69.834 11.715 69.834 12.080 V 30.000 C 69.834 30.080 69.914 30.000 69.834 30.000 H 66.824 C 66.744 30.000 66.824 30.080 66.824 30.000 V 12.080 C 66.824 11.715 66.728 11.356 66.545 11.040 C 66.363 10.724 66.100 10.461 65.784 10.279 C 65.468 10.096 65.109 10.000 64.744 10.000 H 43.497 C 43.132 10.000 42.773 10.096 42.457 10.279 C 42.141 10.461 41.878 10.724 41.696 11.040 C 41.513 11.356 41.417 11.715 41.417 12.080 V 30.000 C 41.417 30.080 41.497 30.000 41.417 30.000 H 38.407 C 38.327 30.000 38.407 30.080 38.407 30.000 V 12.080 C 38.407 11.715 38.311 11.356 38.128 11.040 C 37.946 10.724 37.683 10.461 37.367 10.279 C 37.051 10.096 36.692 10.000 36.327 10.000 H 13.080 C 13.036 10.000 13.000 10.036 13.000 10.080 V 20.000 C 13.000 20.080 13.080 20.000 13.000 20.000 H 10.080 C 10.036 20.000 10.000 20.036 10.000 20.080 V 26.080 C 10.000 26.124 10.036 26.160 10.080 26.160 H 13.000 C 13.080 26.160 13.000 26.080 13.000 26.160 V 32.000 C 13.000 32.080 13.080 32.000 13.000 32.000 H 10.080 C 10.036 32.000 10.000 32.036 10.000 32.080 V 38.080 C 10.000 38.124 10.036 38.160 10.080 38.160 H 13.000 C 13.080 38.160 13.000 38.080 13.000 38.160 V 44.000 C 13.000 44.080 13.080 44.000 13.000 44.000 H 10.080 C 10.036 44.000 10.000 44.036 10.000 44.080 V 50.080 C 10.000 50.124 10.036 50.160 10.080 50.160 H 13.000 C 13.080 50.160 13.000 50.080 13.000 50.160 V 60.080 C 13.000 60.124 13.036 60.160 13.080 60.160 Z" />
  </g>
  <g
     style="fill:none;stroke-linecap:round;stroke-linejoin:round;"
     id="p-6">
    <path
       id="path117"
       stroke-width="0.16"
       stroke="rgb(0,0,0)"
       d="M 298.740 318.460 H 301.740 H 328.296 C 328.836 318.460 329.367 318.318 329.836 318.047 C 330.304 317.777 330.693 317.388 330.963 316.920 C 331.233 316.452 331.376 315.921 331.376 315.380 C 331.376 314.867 331.510 314.364 331.767 313.920 C 332.023 313.476 332.392 313.107 332.836 312.851 C 333.279 312.595 333.783 312.460 334.296 312.460 H 360.851 C 361.364 312.460 361.867 312.595 362.311 312.851 C 362.755 313.107 363.124 313.476 363.380 313.920 C 363.636 314.364 363.771 314.867 363.771 315.380 C 363.771 315.921 363.913 316.452 364.184 316.920 C 364.454 317.388 364.843 317.777 365.311 318.047 C 365.779 318.318 366.310 318.460 366.851 318.460 H 393.407 H 396.407 C 396.451 318.460 396.487 318.424 396.487 318.380 V 298.380 C 396.487 298.336 396.451 298.300 396.407 298.300 H 393.487 C 393.407 298.300 393.487 298.380 393.487 298.300 V 278.380 C 393.487 278.336 393.451 278.300 393.407 278.300 H 301.740 C 301.696 278.300 301.660 278.336 301.660 278.380 V 298.300 C 301.660 298.380 301.740 298.300 301.660 298.300 H 298.740 C 298.696 298.300 298.660 298.336 298.660 298.380 V 318.380" />
  </g>
  <g
     style="fill:none;stroke-linecap:round;stroke-linejoin:round;"
     id="p-7">
    <path
       id="path120"
       stroke-width="0.16"
       stroke="rgb(0,0,0)"
       d="M 298.740 276.800 H 301.740 H 328.296 C 328.836 276.800 329.367 276.658 329.836 276.387 C 330.304 276.117 330.693 275.728 330.963 275.260 C 331.233 274.792 331.376 274.261 331.376 273.720 C 331.376 273.207 331.510 272.704 331.767 272.260 C 332.023 271.816 332.392 271.447 332.836 271.191 C 333.279 270.935 333.783 270.800 334.296 270.800 H 360.851 C 361.364 270.800 361.867 270.935 362.311 271.191 C 362.755 271.447 363.124 271.816 363.380 272.260 C 363.636 272.704 363.771 273.207 363.771 273.720 C 363.771 274.261 363.913 274.792 364.184 275.260 C 364.454 275.728 364.843 276.117 365.311 276.387 C 365.779 276.658 366.310 276.800 366.851 276.800 H 393.407 H 396.407 C 396.451 276.800 396.487 276.764 396.487 276.720 V 256.720 C 396.487 256.676 396.451 256.640 396.407 256.640 H 393.487 C 393.407 256.640 393.487 256.720 393.487 256.640 V 236.720 C 393.487 236.676 393.451 236.640 393.407 236.640 H 301.740 C 301.696 236.640 301.660 236.676 301.660 236.720 V 256.640 C 301.660 256.720 301.740 256.640 301.660 256.640 H 298.740 C 298.696 256.640 298.660 256.676 298.660 256.720 V 276.720" />
  </g>
  <g
     style="fill:none;stroke-linecap:round;stroke-linejoin:round;"
     id="p-8">
    <path
       id="path123"
       stroke-width="0.16"
       stroke="rgb(0,0,0)"
       d="M 298.740 235.140 H 301.740 H 328.296 C 328.836 235.140 329.367 234.998 329.836 234.727 C 330.304 234.457 330.693 234.068 330.963 233.600 C 331.233 233.132 331.376 232.601 331.376 232.060 C 331.376 231.547 331.510 231.044 331.767 230.600 C 332.023 230.156 332.392 229.787 332.836 229.531 C 333.279 229.275 333.783 229.140 334.296 229.140 H 360.851 C 361.364 229.140 361.867 229.275 362.311 229.531 C 362.755 229.787 363.124 230.156 363.380 230.600 C 363.636 231.044 363.771 231.547 363.771 232.060 C 363.771 232.601 363.913 233.132 364.184 233.600 C 364.454 234.068 364.843 234.457 365.311 234.727 C 365.779 234.998 366.310 235.140 366.851 235.140 H 393.407 H 396.407 C 396.451 235.140 396.487 235.104 396.487 235.060 V 215.060 C 396.487 215.016 396.451 214.980 396.407 214.980 H 393.487 C 393.407 214.980 393.487 215.060 393.487 214.980 V 195.060 C 393.487 195.016 393.451 194.980 393.407 194.980 H 301.740 C 301.696 194.980 301.660 195.016 301.660 195.060 V 214.980 C 301.660 215.060 301.740 214.980 301.660 214.980 H 298.740 C 298.696 214.980 298.660 215.016 298.660 215.060 V 235.060" />
  </g>
</svg>
