<?xml version="1.0" encoding="UTF-8" standalone="no"?>
<svg
   xmlns:dc="http://purl.org/dc/elements/1.1/"
   xmlns:cc="http://creativecommons.org/ns#"
   xmlns:rdf="http://www.w3.org/1999/02/22-rdf-syntax-ns#"
   xmlns:svg="http://www.w3.org/2000/svg"
   xmlns="http://www.w3.org/2000/svg"
   xmlns:sodipodi="http://sodipodi.sourceforge.net/DTD/sodipodi-0.dtd"
   xmlns:inkscape="http://www.inkscape.org/namespaces/inkscape"
   sodipodi:docname="Divider.svg.2021_02_06_17_37_49.0.svg"
   inkscape:version="1.0 (4035a4fb49, 2020-05-01)"
   id="svg8"
   version="1.1"
   viewBox="0 0 406.4 304.80001"
   height="12in"
   width="16in">
  <defs
     id="defs2">
    <inkscape:path-effect
       hide_knots="false"
       only_selected="true"
       apply_with_radius="true"
       apply_no_radius="true"
       use_knot_distance="true"
       flexible="false"
       chamfer_steps="1"
       radius="12"
       mode="F"
       method="auto"
       unit="px"
       satellites_param="F,0,0,1,0,0,0,1 @ F,0,0,1,0,3.175,0,1 @ F,0,0,1,0,3.175,0,1 @ F,0,0,1,0,3.175,0,1 @ F,0,0,1,0,3.175,0,1 @ F,0,1,1,0,0,0,1 @ F,0,0,1,0,0,0,1 | F,0,0,1,0,0,0,1 @ F,0,0,1,0,3.175,0,1 @ F,0,0,1,0,3.175,0,1 @ F,0,0,1,0,0,0,1 @ F,0,0,1,0,0,0,1"
       lpeversion="1"
       is_visible="true"
       id="path-effect714"
       effect="fillet_chamfer" />
    <inkscape:path-effect
       effect="fillet_chamfer"
       id="path-effect427"
       is_visible="true"
       lpeversion="1"
       satellites_param="F,0,0,1,0,0,0,1 @ F,0,0,1,0,0,0,1 | F,0,0,1,0,0,0,1 @ F,0,0,1,0,0,0,1 | F,0,0,1,0,0,0,1 @ F,0,0,1,0,0,0,1 | F,0,0,1,0,0,0,1 @ F,0,0,1,0,0,0,1 | F,0,0,1,0,0,0,1 @ F,0,0,1,0,0,0,1 | F,0,0,1,0,0,0,1 @ F,0,0,1,0,0,0,1 | F,0,0,1,0,0,0,1 @ F,0,0,1,0,0,0,1 | F,0,0,1,0,0,0,1 @ F,0,0,1,0,0,0,1 | F,0,0,1,0,0,0,1 @ F,0,0,1,0,0,0,1 | F,0,0,1,0,0,0,1 @ F,0,0,1,0,0,0,1 | F,0,0,1,0,0,0,1 @ F,0,0,1,0,0,0,1 | F,0,0,1,0,0,0,1 @ F,0,0,1,0,0,0,1 | F,0,0,1,0,0,0,1 @ F,0,0,1,0,0,0,1 | F,0,0,1,0,0,0,1 @ F,0,0,1,0,0,0,1 | F,0,0,1,0,0,0,1 @ F,0,0,1,0,0,0,1 | F,0,0,1,0,0,0,1 @ F,0,0,1,0,0,0,1 | F,0,0,1,0,0,0,1 @ F,0,0,1,0,0,0,1 | F,0,0,1,0,0,0,1 @ F,0,0,1,0,0,0,1 | F,0,0,1,0,0,0,1 @ F,0,0,1,0,0,0,1 | F,0,0,1,0,0,0,1 @ F,0,0,1,0,0,0,1 @ C,0,0,1,0,0,0,1 | F,0,0,1,0,0,0,1 @ F,0,0,1,0,0,0,1 @ C,0,0,1,0,0,0,1"
       unit="px"
       method="auto"
       mode="C"
       radius="12"
       chamfer_steps="1"
       flexible="false"
       use_knot_distance="true"
       apply_no_radius="true"
       apply_with_radius="true"
       only_selected="false"
       hide_knots="false" />
    <inkscape:path-effect
       effect="fillet_chamfer"
       id="path-effect46"
       is_visible="true"
       lpeversion="1"
       satellites_param="F,0,0,1,0,0,0,1 @ F,0,0,1,0,3.175,0,1 @ F,0,0,1,0,3.175,0,1 @ F,0,0,1,0,3.175,0,1 @ F,0,0,1,0,3.175,0,1 @ F,0,0,1,0,0,0,1 | F,0,0,1,0,0,0,1 @ F,0,0,1,0,0,0,1 | F,0,0,1,0,0,0,1 @ F,0,0,1,0,0,0,1 | F,0,0,1,0,0,0,1 @ F,0,0,1,0,3.175,0,1 @ F,0,0,1,0,3.175,0,1 @ F,0,0,1,0,0,0,1 | F,0,0,1,0,0,0,1 @ F,0,0,1,0,3.175,0,1 @ F,0,0,1,0,3.175,0,1 @ F,0,0,1,0,0,0,1 | F,0,0,1,0,0,0,1 @ F,0,0,1,0,3.175,0,1 @ F,0,0,1,0,3.175,0,1 @ F,0,0,1,0,0,0,1 | F,0,0,1,0,0,0,1 @ F,0,0,1,0,3.175,0,1 @ F,0,0,1,0,3.175,0,1 @ F,0,0,1,0,0,0,1 | F,0,0,1,0,0,0,1 @ F,0,0,1,0,3.175,0,1 @ F,0,0,1,0,3.175,0,1 @ F,0,0,1,0,3.175,0,1 @ F,0,0,1,0,3.175,0,1 @ F,0,0,1,0,0,0,1 | F,0,0,1,0,0,0,1 @ F,0,0,1,0,0,0,1 | F,0,0,1,0,0,0,1 @ F,0,0,1,0,0,0,1"
       unit="px"
       method="auto"
       mode="F"
       radius="12"
       chamfer_steps="1"
       flexible="false"
       use_knot_distance="true"
       apply_no_radius="true"
       apply_with_radius="true"
       only_selected="true"
       hide_knots="false" />
    <inkscape:path-effect
       effect="fillet_chamfer"
       id="path-effect44"
       is_visible="true"
       lpeversion="1"
       satellites_param="F,0,0,1,0,0,0,1 @ F,0,0,1,0,0,0,1 @ F,0,0,1,0,0,0,1 @ F,0,0,1,0,0,0,1 @ F,0,0,1,0,0,0,1 @ F,0,0,1,0,0,0,1 | F,0,0,1,0,0,0,1 @ F,0,0,1,0,0,0,1 | F,0,0,1,0,0,0,1 @ F,0,0,1,0,0,0,1 | F,0,0,1,0,0,0,1 @ F,0,0,1,0,0,0,1 @ F,0,0,1,0,0,0,1 @ F,0,0,1,0,0,0,1 | F,0,0,1,0,0,0,1 @ F,0,0,1,0,0,0,1 @ F,0,0,1,0,0,0,1 @ F,0,0,1,0,0,0,1 | F,0,0,1,0,0,0,1 @ F,0,0,1,0,0,0,1 @ F,0,0,1,0,0,0,1 @ F,0,0,1,0,0,0,1 | F,0,0,1,0,0,0,1 @ F,0,0,1,0,0,0,1 @ F,0,0,1,0,0,0,1 @ F,0,0,1,0,0,0,1 | F,0,0,1,0,0,0,1 @ F,0,0,1,0,0,0,1 @ F,0,0,1,0,0,0,1 @ F,0,0,1,0,0,0,1 @ F,0,0,1,0,0,0,1 @ F,0,0,1,0,0,0,1 | F,0,0,1,0,0,0,1 @ F,0,0,1,0,0,0,1 | F,0,0,1,0,0,0,1 @ F,0,0,1,0,0,0,1"
       unit="px"
       method="auto"
       mode="F"
       radius="12"
       chamfer_steps="1"
       flexible="false"
       use_knot_distance="true"
       apply_no_radius="true"
       apply_with_radius="true"
       only_selected="true"
       hide_knots="false" />
    <filter
       inkscape:collect="always"
       style="color-interpolation-filters:sRGB"
       id="filter587"
       x="-9.8588328e-07"
       width="0.99495608"
       y="-1.5329246e-06"
       height="1.0002675">
      <feGaussianBlur
         inkscape:collect="always"
         stdDeviation="0.00014212771"
         id="feGaussianBlur589" />
    </filter>
  </defs>
  <sodipodi:namedview
     inkscape:window-maximized="1"
     inkscape:window-y="-8"
     inkscape:window-x="-8"
     inkscape:window-height="1057"
     inkscape:window-width="1920"
     units="in"
     inkscape:snap-object-midpoints="false"
     showguides="true"
     showgrid="false"
     inkscape:document-rotation="0"
     inkscape:current-layer="layer1"
     inkscape:document-units="mm"
     inkscape:cy="562.35931"
     inkscape:cx="993.99907"
     inkscape:zoom="0.98994949"
     inkscape:pageshadow="2"
     inkscape:pageopacity="0.0"
     borderopacity="1.0"
     bordercolor="#666666"
     pagecolor="#ffffff"
     id="base" />
  <metadata
     id="metadata5">
    <rdf:RDF>
      <cc:Work
         rdf:about="">
        <dc:format>image/svg+xml</dc:format>
        <dc:type
           rdf:resource="http://purl.org/dc/dcmitype/StillImage" />
        <dc:title />
      </cc:Work>
    </rdf:RDF>
  </metadata>
  <g
     inkscape:label="Layer 3"
     id="layer3"
     inkscape:groupmode="layer"
     style="display:inline">
    <path
       id="path109"
       style="fill:none;stroke:#000000;stroke-width:0.264583px;stroke-linecap:butt;stroke-linejoin:miter;stroke-opacity:1"
       d="m 43.808337,0.20252308 -17.64827,0.1490384 A 3.2026749,3.2026749 134.76478 0 0 22.984437,3.5533731 L 22.919103,282.86999 a 3.1793661,3.1793661 45.05277 0 0 3.174253,3.18011 l 14.481666,0.0233 c 1.753502,0.003 4.751369,0.0106 6.103568,-1.05148 3.956695,-3.10785 5.533909,-12.15362 11.313602,-14.60091 1.603946,-0.67916 4.579746,-0.68817 6.192634,-0.0291 7.147805,2.92086 7.881473,15.74006 13.998034,15.70741 m 41.8703,-285.96696682 -20.913503,0.20793 m 97.114193,-0.09967 -20.86936,0.0295 m -76.244831,0.07017 -17.72352,-0.0991657 C 79.662663,0.23130653 76.664816,0.2178322 75.312616,1.2799399 71.355917,4.3877939 69.778704,13.433561 63.999013,15.88085 62.395069,16.560007 59.419268,16.569019 57.80638,15.909932 50.658575,12.989069 49.924902,0.16987072 43.808339,0.20252318 m 131.576151,0.06759 -17.72353,-0.0991657 c -1.75348,-0.009811 -4.76207,-0.026528 -6.09126,1.06075262 -3.85706,3.1550648 -5.13802,12.2922939 -11.31031,14.6403189 -1.63001,0.620077 -4.58837,0.628147 -6.21808,0.0079 C 126.57538,13.038665 126.19823,0.09954854 120.05316,0.13235318 M 175.29704,285.9997 l 17.72352,0.0992 c 1.75348,0.01 4.75303,0.0239 6.10165,-1.04221 3.9347,-3.11048 5.46041,-12.1479 11.22139,-14.59622 1.60298,-0.68123 4.57992,-0.69368 6.19333,-0.0358 7.04371,2.87233 7.43656,15.41078 14.09143,15.71278 m -131.576139,-0.0676 17.723529,0.0992 c 1.75348,0.01 4.76207,0.0265 6.09126,-1.06076 3.85705,-3.15507 5.13802,-12.29229 11.3103,-14.64032 1.63001,-0.62007 4.58837,-0.62814 6.21808,-0.008 7.46593,2.84129 7.84308,15.7804 13.98815,15.7476 m 76.24482,-0.0702 17.78181,-0.008 a 3.1763638,3.1763638 134.9877 0 0 3.175,-3.17636 V 3.5533732 a 3.1928143,3.1928143 45.160287 0 0 -3.17495,-3.19276432 l -14.54858,-0.0814014 c -1.75348,-0.009811 -4.75132,-0.0232845 -6.10352,1.03882432 -3.9567,3.1078558 -5.53391,12.1536202 -11.31361,14.6009082 -1.60394,0.679157 -4.57974,0.688169 -6.19263,0.02908 -7.1478,-2.920863 -7.88147,-15.74006128 -13.99803,-15.70740882 M 154.38354,286.20766 l 20.9135,-0.20791 m -97.114179,0.0997 20.869359,-0.0295"
       sodipodi:nodetypes="cccccccccccccccccccccccccccccccccccc"
       inkscape:path-effect="#path-effect46"
       inkscape:original-d="M 43.808337,0.20252308 22.98518,0.37837318 22.91836,286.04499 l 20.831658,0.0335 c 7.239473,0.006 7.346765,-16.22016 17.335159,-16.27397 10.14778,0 10.194826,16.33165 17.097683,16.2948 m 41.8703,-285.96696682 -20.913503,0.20793 m 97.114193,-0.09967 -20.86936,0.0295 m -76.244831,0.07017 -20.89847,-0.11693 c -7.23948,-0.006 -7.34677,16.22015882 -17.33516,16.27396882 -10.14778,0 -10.19483,-16.33164882 -17.09769,-16.29479882 m 131.576151,0.06759 -20.89848,-0.11693 c -7.23948,-0.006 -6.70427,16.21668882 -17.33517,16.27396882 -10.57015,0 -10.19482,-16.33164882 -17.09768,-16.29479882 M 175.29704,285.9997 l 20.89847,0.11693 c 7.23948,0.006 7.25228,-16.22016 17.24067,-16.27397 10.14778,0 9.67511,15.95367 17.19218,16.2948 m -131.576139,-0.0676 20.898479,0.11693 c 7.23947,0.006 6.70426,-16.21669 17.33516,-16.27397 10.57015,0 10.19482,16.33165 17.09768,16.2948 m 76.24482,-0.0702 20.95681,-0.009 V 0.37837318 l -20.89848,-0.11693 c -7.23947,-0.006 -7.34677,16.22015882 -17.33516,16.27396882 -10.14778,0 -10.19482,-16.33164882 -17.09768,-16.29479882 M 154.38354,286.20766 l 20.9135,-0.20791 m -97.114179,0.0997 20.869359,-0.0295" />
    <path
       inkscape:original-d="m 273.76269,0.26172831 -20.82316,0.17585 -0.0668,285.66661169 20.83166,0.0335 c 7.23947,0.006 7.34676,-16.22015 17.33516,-16.27397 10.14778,0 10.19482,16.33168 17.09768,16.29482 h 20.95508 M 273.76271,0.26172831 c 6.90286,-0.03685 6.94991,16.29480169 17.09769,16.29480169 9.98839,-0.05381 10.09568,-16.27997169 17.33516,-16.27397169 l 20.89847,0.11693 -0.002,285.75905169"
       inkscape:path-effect="#path-effect714"
       sodipodi:nodetypes="cccccccccccc"
       d="m 273.76269,0.26172831 -17.64827,0.14903832 a 3.2026747,3.2026747 134.76478 0 0 -3.17563,3.20181157 l -0.0653,279.3166118 a 3.1793664,3.1793664 45.052768 0 0 3.17426,3.18011 l 14.48166,0.0233 c 1.75351,0.003 4.75137,0.0106 6.10357,-1.05148 3.95669,-3.10785 5.53391,-12.15362 11.31361,-14.60091 1.60394,-0.67915 4.57974,-0.68817 6.19263,-0.0291 7.1478,2.92087 7.88147,15.74009 13.99803,15.70743 h 20.95508 M 273.76271,0.26172831 c 6.11659,-0.0326526 6.85024,12.78667069 13.99814,15.70745369 1.61285,0.659041 4.5887,0.65004 6.19273,-0.02921 5.77961,-2.447446 7.3568,-11.4932666 11.31358,-14.6009617 1.35214,-1.06199199 4.34987,-1.04850164 6.10335,-1.03869068 l 17.72352,0.0991657 -0.002,285.75905169"
       style="display:inline;fill:none;stroke:#000000;stroke-width:0.264583px;stroke-linecap:butt;stroke-linejoin:miter;stroke-opacity:1"
       id="path109-1" />
  </g>
  <g
     inkscape:groupmode="layer"
     id="layer1"
     inkscape:label="Layer 4"
     style="display:inline;filter:url(#filter587)">
    <path
       id="path66-3-1-4-1-2"
       style="fill:none;stroke:#000000;stroke-width:0.216893px;stroke-linecap:butt;stroke-linejoin:miter;stroke-opacity:1"
       d="m 29.330806,247.65001 c -0.0521,3.55873 -2.97806,4.98456 -6.40906,4.98456 M 29.32307,38.1 c -0.0521,-3.55873 -2.97806,-4.98456 -6.40906,-4.98456 M 245.18006,38.1 c 0.0521,-3.55873 2.97806,-4.98456 6.40906,-4.98456 M 92.823071,38.099999 c 0.06934,-8.664889 12.562959,-8.665485 12.562959,-0.06076 m -12.562959,0.06076 V 76.138407 M 168.98005,38.1 c -0.16452,-8.63148 12.7,-8.60473 12.7,0 m -76.28927,209.46039 c 0.16452,8.63148 -12.7,8.60473 -12.7,0 m 76.28927,-37.94879 v 38.03841 m -63.50001,-38.03841 -0.0893,37.94879 m 76.28927,0.0896 c 0.16452,8.63148 -12.7,8.60473 -12.7,0 m 0,-209.54999 V 76.138408 M 92.69078,209.52198 v 38.03841 m 88.98927,-37.94879 v 38.03841 m 0,-209.55001 V 76.138408 M 245.18006,209.6116 v 38.03841 m 0,-209.55001 v 38.038408 m 0,171.511602 c 0.0521,3.55873 2.97806,4.98456 6.40906,4.98456 m 0,-219.51913 4e-5,219.51913 M 22.91401,33.11544 22.92171,252.63457 M 29.323071,38.1 v 38.038407 l 14.180626,-0.0242 M 105.38603,38.039244 v 38.038408 l 15.27208,-2.33e-4"
       inkscape:path-effect="#path-effect427"
       inkscape:original-d="m 29.330806,247.65001 c -0.0521,3.55873 -2.97806,4.98456 -6.40906,4.98456 M 29.32307,38.1 c -0.0521,-3.55873 -2.97806,-4.98456 -6.40906,-4.98456 M 245.18006,38.1 c 0.0521,-3.55873 2.97806,-4.98456 6.40906,-4.98456 M 92.823071,38.099999 c 0.06934,-8.664889 12.562959,-8.665485 12.562959,-0.06076 m -12.562959,0.06076 V 76.138407 M 168.98005,38.1 c -0.16452,-8.63148 12.7,-8.60473 12.7,0 m -76.28927,209.46039 c 0.16452,8.63148 -12.7,8.60473 -12.7,0 m 76.28927,-37.94879 v 38.03841 m -63.50001,-38.03841 -0.0893,37.94879 m 76.28927,0.0896 c 0.16452,8.63148 -12.7,8.60473 -12.7,0 m 0,-209.54999 V 76.138408 M 92.69078,209.52198 v 38.03841 m 88.98927,-37.94879 v 38.03841 m 0,-209.55001 V 76.138408 M 245.18006,209.6116 v 38.03841 m 0,-209.55001 v 38.038408 m 0,171.511602 c 0.0521,3.55873 2.97806,4.98456 6.40906,4.98456 m 0,-219.51913 4e-5,219.51913 M 22.91401,33.11544 22.92171,252.63457 M 29.323071,38.1 v 38.038407 l 14.180626,-0.0242 M 105.38603,38.039244 v 38.038408 l 15.27208,-2.33e-4"
       sodipodi:nodetypes="cccccccccccccccccccccccccccccccccccccccccccc" />
    <path
       style="fill:none;stroke:#000000;stroke-width:0.264583px;stroke-linecap:butt;stroke-linejoin:miter;stroke-opacity:1"
       d="m 78.263463,76.114205 14.559606,0.02421"
       id="path447" />
    <path
       style="display:inline;fill:none;stroke:#000000;stroke-width:0.324118px;stroke-linecap:butt;stroke-linejoin:miter;stroke-opacity:1"
       d="m 43.503697,76.114206 c 1.186009,0 1.334439,0.745456 1.334439,1.375045 0,40.054109 31.672542,40.448369 31.672542,0.232237 0,-0.942245 0.4324,-1.607282 1.752786,-1.607282"
       id="path429"
       sodipodi:nodetypes="cssc" />
    <path
       style="display:inline;fill:none;stroke:#000000;stroke-width:0.324117px;stroke-linecap:butt;stroke-linejoin:miter;stroke-opacity:1"
       d="m 196.85812,76.077419 c 1.18601,0 1.33444,0.745457 1.33444,1.375045 0,40.054106 31.67255,40.448366 31.67255,0.232237 0,-0.942245 0.43239,-1.607282 1.75279,-1.607282"
       id="path429-5-7"
       sodipodi:nodetypes="cssc" />
    <path
       id="path465-8"
       d="m 231.6179,76.077418 13.56216,0.06099"
       style="display:inline;fill:none;stroke:#000000;stroke-width:0.264583px;stroke-linecap:butt;stroke-linejoin:miter;stroke-opacity:1" />
    <path
       style="fill:none;stroke:#000000;stroke-width:0.264583px;stroke-linecap:butt;stroke-linejoin:miter;stroke-opacity:1"
       d="m 196.85812,76.077418 -15.17807,0.06099"
       id="path485" />
    <path
       sodipodi:nodetypes="cssc"
       id="path429-5-7-7"
       d="m 230.00199,209.6726 c -1.18601,0 -1.33444,-0.74545 -1.33444,-1.37504 0,-40.0541 -31.67255,-40.44837 -31.67255,-0.23224 0,0.94225 -0.43239,1.60728 -1.75279,1.60728"
       style="display:inline;fill:none;stroke:#000000;stroke-width:0.324117px;stroke-linecap:butt;stroke-linejoin:miter;stroke-opacity:1" />
    <path
       style="display:inline;fill:none;stroke:#000000;stroke-width:0.264583px;stroke-linecap:butt;stroke-linejoin:miter;stroke-opacity:1"
       d="m 195.24221,209.6726 -13.56216,-0.061"
       id="path465-8-4" />
    <path
       id="path485-2"
       d="m 230.00199,209.6726 15.17807,-0.061"
       style="display:inline;fill:none;stroke:#000000;stroke-width:0.264583px;stroke-linecap:butt;stroke-linejoin:miter;stroke-opacity:1" />
    <path
       sodipodi:nodetypes="cssc"
       id="path429-5-7-5"
       d="m 153.99097,209.6726 c -1.18601,0 -1.33444,-0.74545 -1.33444,-1.37504 0,-40.05411 -31.67255,-40.44837 -31.67255,-0.23224 0,0.94225 -0.43239,1.60728 -1.75279,1.60728"
       style="display:inline;fill:none;stroke:#000000;stroke-width:0.324117px;stroke-linecap:butt;stroke-linejoin:miter;stroke-opacity:1" />
    <path
       sodipodi:nodetypes="cssc"
       id="path429-5-7-2"
       d="m 77.5127,209.58298 c -1.18601,0 -1.33444,-0.74546 -1.33444,-1.37504 0,-40.05411 -31.67254,-40.44837 -31.67254,-0.23224 0,0.94224 -0.43239,1.60728 -1.7528,1.60728"
       style="display:inline;fill:none;stroke:#000000;stroke-width:0.324117px;stroke-linecap:butt;stroke-linejoin:miter;stroke-opacity:1" />
    <path
       style="display:inline;fill:none;stroke:#000000;stroke-width:0.264583px;stroke-linecap:butt;stroke-linejoin:miter;stroke-opacity:1"
       d="m 42.75292,209.58298 -13.56216,-0.061"
       id="path465-8-7" />
    <path
       id="path485-9"
       d="m 77.5127,209.58298 15.17808,-0.061"
       style="display:inline;fill:none;stroke:#000000;stroke-width:0.264583px;stroke-linecap:butt;stroke-linejoin:miter;stroke-opacity:1" />
    <path
       style="fill:none;stroke:#000000;stroke-width:0.264583px;stroke-linecap:butt;stroke-linejoin:miter;stroke-opacity:1"
       d="m 29.190759,209.52198 0.140047,38.12803"
       id="path528" />
    <path
       style="fill:none;stroke:#000000;stroke-width:0.264583px;stroke-linecap:butt;stroke-linejoin:miter;stroke-opacity:1"
       d="m 168.98005,209.6116 -14.98908,0.061"
       id="path591" />
    <path
       style="fill:none;stroke:#000000;stroke-width:0.264583px;stroke-linecap:butt;stroke-linejoin:miter;stroke-opacity:1"
       d="m 119.23119,209.6726 -13.75115,-0.061"
       id="path593" />
    <path
       style="display:inline;fill:none;stroke:#000000;stroke-width:1.22501px;stroke-linecap:butt;stroke-linejoin:miter;stroke-opacity:1;filter:url(#filter587)"
       d="m 183.35062,120.01896 c -4.48256,0 -5.04356,-2.81745 -5.04356,-5.197 0,-151.385615 -119.707273,-152.875732 -119.707273,-0.87776 0,3.56126 -1.63423,6.07476 -6.624718,6.07476"
       id="path429-5-7-5-3"
       sodipodi:nodetypes="cssc"
       transform="matrix(-0.26458333,0,0,-0.26458333,168.9806,107.83242)" />
    <path
       id="path593-8"
       d="M 51.975069,120.01896 0.00221797,119.78841"
       style="display:inline;fill:none;stroke:#000000;stroke-width:0.999999px;stroke-linecap:butt;stroke-linejoin:miter;stroke-opacity:1;filter:url(#filter587)"
       transform="matrix(-0.26458333,0,0,-0.26458333,168.9806,107.83242)" />
    <path
       sodipodi:nodetypes="cssc"
       id="path429-5-7-6"
       d="m 57.367944,0.61250458 c 4.482557,0 5.043552,2.81747532 5.043552,5.19702052 0,151.3855949 119.707274,152.8757149 119.707274,0.8777462 0,-3.561241 1.63423,-6.07476672 6.62472,-6.07476672"
       style="display:inline;fill:none;stroke:#000000;stroke-width:1.22501px;stroke-linecap:butt;stroke-linejoin:miter;stroke-opacity:1;filter:url(#filter587)"
       transform="matrix(0.26458333,0,0,0.26458333,259.30736,75.407624)" />
    <path
       style="display:inline;fill:none;stroke:#000000;stroke-width:0.999999px;stroke-linecap:butt;stroke-linejoin:miter;stroke-opacity:1;filter:url(#filter587)"
       d="m 188.74349,0.6125008 51.25856,0.23051339"
       id="path465-8-1"
       transform="matrix(0.26458333,0,0,0.26458333,259.30736,75.407626)" />
    <path
       id="path485-1"
       d="M 57.367944,0.6125008 0.00200913,0.84301419"
       style="display:inline;fill:none;stroke:#000000;stroke-width:0.999999px;stroke-linecap:butt;stroke-linejoin:miter;stroke-opacity:1;filter:url(#filter587)"
       transform="matrix(0.26458333,0,0,0.26458333,259.30736,75.407625)" />
  </g>
  <g
     inkscape:groupmode="layer"
     id="layer2"
     inkscape:label="Layer 5"
     style="display:inline">
    <path
       style="fill:none;stroke:#000000;stroke-width:0.347545px;stroke-linecap:butt;stroke-linejoin:miter;stroke-opacity:1"
       d="m 194.16543,93.353307 v -6.176232 h -37.92624 v 6.180642"
       id="path531"
       sodipodi:nodetypes="cccc" />
    <path
       style="fill:none;stroke:#000000;stroke-width:0.300639px;stroke-linecap:butt;stroke-linejoin:miter;stroke-opacity:1"
       d="m 156.23919,93.357717 h 12.7"
       id="path533" />
    <path
       style="fill:none;stroke:#000000;stroke-width:0.269408px;stroke-linecap:butt;stroke-linejoin:miter;stroke-opacity:1"
       d="m 194.16543,93.353307 h -12.7"
       id="path535"
       sodipodi:nodetypes="cc" />
    <path
       style="fill:none;stroke:#000000;stroke-width:0.299531px;stroke-linecap:butt;stroke-linejoin:miter;stroke-opacity:1"
       d="M 168.93919,93.357717 V 188.60771"
       id="path539" />
    <path
       id="path539-8"
       d="M 181.46543,93.353307 V 188.6033"
       style="fill:none;stroke:#000000;stroke-width:0.299532px;stroke-linecap:butt;stroke-linejoin:miter;stroke-opacity:1" />
    <path
       sodipodi:nodetypes="cccc"
       id="path531-4"
       d="m 156.23919,188.60771 v 6.17623 h 37.92624 v -6.18064"
       style="fill:none;stroke:#000000;stroke-width:0.347546px;stroke-linecap:butt;stroke-linejoin:miter;stroke-opacity:1" />
    <path
       id="path533-4"
       d="m 194.16543,188.6033 h -12.7"
       style="fill:none;stroke:#000000;stroke-width:0.300638px;stroke-linecap:butt;stroke-linejoin:miter;stroke-opacity:1" />
    <path
       sodipodi:nodetypes="cc"
       id="path535-9"
       d="m 156.23919,188.60771 h 12.7"
       style="fill:none;stroke:#000000;stroke-width:0.269407px;stroke-linecap:butt;stroke-linejoin:miter;stroke-opacity:1" />
  </g>
  <g
     inkscape:groupmode="layer"
     id="layer4"
     inkscape:label="Layer 6"
     style="display:inline">
    <path
       style="display:inline;fill:none;stroke:#000000;stroke-width:0.264583px;stroke-linecap:butt;stroke-linejoin:miter;stroke-opacity:1;filter:url(#filter587)"
       d="M 314.47619,36.800878 V 74.839286"
       id="path115-1-1" />
    <path
       style="display:inline;fill:none;stroke:#000000;stroke-width:0.241691px;stroke-linecap:butt;stroke-linejoin:miter;stroke-opacity:1;filter:url(#filter587)"
       d="M 308.32859,74.884602 H 371.8286"
       id="path119-3-0" />
    <path
       style="display:inline;fill:none;stroke:#000000;stroke-width:0.216893px;stroke-linecap:butt;stroke-linejoin:miter;stroke-opacity:1;filter:url(#filter587)"
       d="m 267.48065,39.020412 c 0.0521,-3.55873 2.97806,-4.98456 6.40906,-4.98456"
       id="path66-3-1-4-17"
       sodipodi:nodetypes="cc"
       transform="matrix(-1,0,0,1,526.78854,-0.96885204)" />
    <path
       style="fill:none;stroke:#000000;stroke-width:0.264583px;stroke-linecap:butt;stroke-linejoin:miter;stroke-opacity:1"
       d="M 259.30789,38.05156 V 75.630673"
       id="path234"
       sodipodi:nodetypes="cc" />
  </g>
</svg>
