<?xml version="1.0" encoding="UTF-8" standalone="no"?>
<svg
   xmlns:dc="http://purl.org/dc/elements/1.1/"
   xmlns:cc="http://creativecommons.org/ns#"
   xmlns:rdf="http://www.w3.org/1999/02/22-rdf-syntax-ns#"
   xmlns:svg="http://www.w3.org/2000/svg"
   xmlns="http://www.w3.org/2000/svg"
   id="svg492"
   version="1.1"
   width="408.33mm"
   viewBox="0.0 0.0 408.33 327.98"
   height="327.98mm">
  <defs
     id="defs496" />
  <!--
DividerTray - Divider tray - rows and dividers

Created with Boxes.py (https://festi.info/boxes.py)
Creation date: 2021-01-31 18:21:45
Command line (remove spaces between dashes): boxes DividerTray - -FingerJoint_angle=90.0 - -FingerJoint_style=rectangular - -FingerJoint_surroundingspaces=2.0 - -FingerJoint_edge_width=1.0 - -FingerJoint_finger=2.0 - -FingerJoint_play=0.0 - -FingerJoint_space=2.0 - -FingerJoint_width=1.0 - -sx=288.5/3 - -sy=288.5/10 - -h=50 - -outside=0 - -outside=1 - -slot_depth=20 - -slot_angle=0 - -slot_radius=2 - -slot_extra_slack=0.2 - -divider_bottom_margin=10 - -divider_upper_notch_radius=1 - -divider_lower_notch_radius=3 - -divider_notch_depth=6 - -left_wall=0 - -left_wall=1 - -right_wall=0 - -right_wall=1 - -bottom=0 - -thickness=3.0 - -format=svg - -tabs=0.0 - -debug=0 - -reference=0 - -burn=0.04
Url: http://www.festi.info/DividerTray?FingerJoint_angle=90.0&FingerJoint_style=rectangular&FingerJoint_surroundingspaces=2.0&FingerJoint_edge_width=1.0&FingerJoint_finger=2.0&FingerJoint_play=0.0&FingerJoint_space=2.0&FingerJoint_width=1.0&sx=288.5%2F3&sy=288.5%2F10&h=50&outside=0&outside=1&slot_depth=20&slot_angle=0&slot_radius=2&slot_extra_slack=0.2&divider_bottom_margin=10&divider_upper_notch_radius=1&divider_lower_notch_radius=3&divider_notch_depth=6&left_wall=0&left_wall=1&right_wall=0&right_wall=1&bottom=0&thickness=3.0&format=svg&tabs=0.0&debug=0&reference=0&burn=0.04&render=1
SettingsUrl: http://www.festi.info/DividerTray?FingerJoint_angle=90.0&FingerJoint_style=rectangular&FingerJoint_surroundingspaces=2.0&FingerJoint_edge_width=1.0&FingerJoint_finger=2.0&FingerJoint_play=0.0&FingerJoint_space=2.0&FingerJoint_width=1.0&sx=288.5%2F3&sy=288.5%2F10&h=50&outside=0&outside=1&slot_depth=20&slot_angle=0&slot_radius=2&slot_extra_slack=0.2&divider_bottom_margin=10&divider_upper_notch_radius=1&divider_lower_notch_radius=3&divider_notch_depth=6&left_wall=0&left_wall=1&right_wall=0&right_wall=1&bottom=0&thickness=3.0&format=svg&tabs=0.0&debug=0&reference=0&burn=0.04
-->
  <title
     id="title437">DividerTray</title>
  <metadata
     id="metadata439">
    <rdf:RDF>
      <cc:Work>
        <dc:title>DividerTray</dc:title>
        <dc:date>2021-01-31 18:21:45</dc:date>
        <dc:source>http://www.festi.info/DividerTray?FingerJoint_angle=90.0&amp;FingerJoint_style=rectangular&amp;FingerJoint_surroundingspaces=2.0&amp;FingerJoint_edge_width=1.0&amp;FingerJoint_finger=2.0&amp;FingerJoint_play=0.0&amp;FingerJoint_space=2.0&amp;FingerJoint_width=1.0&amp;sx=288.5%2F3&amp;sy=288.5%2F10&amp;h=50&amp;outside=0&amp;outside=1&amp;slot_depth=20&amp;slot_angle=0&amp;slot_radius=2&amp;slot_extra_slack=0.2&amp;divider_bottom_margin=10&amp;divider_upper_notch_radius=1&amp;divider_lower_notch_radius=3&amp;divider_notch_depth=6&amp;left_wall=0&amp;left_wall=1&amp;right_wall=0&amp;right_wall=1&amp;bottom=0&amp;thickness=3.0&amp;format=svg&amp;tabs=0.0&amp;debug=0&amp;reference=0&amp;burn=0.04&amp;render=1</dc:source>
        <dc:description>Divider tray - rows and dividers

Created with Boxes.py (https://festi.info/boxes.py)
Command line: boxes DividerTray --FingerJoint_angle=90.0 --FingerJoint_style=rectangular --FingerJoint_surroundingspaces=2.0 --FingerJoint_edge_width=1.0 --FingerJoint_finger=2.0 --FingerJoint_play=0.0 --FingerJoint_space=2.0 --FingerJoint_width=1.0 --sx=288.5/3 --sy=288.5/10 --h=50 --outside=0 --outside=1 --slot_depth=20 --slot_angle=0 --slot_radius=2 --slot_extra_slack=0.2 --divider_bottom_margin=10 --divider_upper_notch_radius=1 --divider_lower_notch_radius=3 --divider_notch_depth=6 --left_wall=0 --left_wall=1 --right_wall=0 --right_wall=1 --bottom=0 --thickness=3.0 --format=svg --tabs=0.0 --debug=0 --reference=0 --burn=0.04
Url: http://www.festi.info/DividerTray?FingerJoint_angle=90.0&amp;FingerJoint_style=rectangular&amp;FingerJoint_surroundingspaces=2.0&amp;FingerJoint_edge_width=1.0&amp;FingerJoint_finger=2.0&amp;FingerJoint_play=0.0&amp;FingerJoint_space=2.0&amp;FingerJoint_width=1.0&amp;sx=288.5%2F3&amp;sy=288.5%2F10&amp;h=50&amp;outside=0&amp;outside=1&amp;slot_depth=20&amp;slot_angle=0&amp;slot_radius=2&amp;slot_extra_slack=0.2&amp;divider_bottom_margin=10&amp;divider_upper_notch_radius=1&amp;divider_lower_notch_radius=3&amp;divider_notch_depth=6&amp;left_wall=0&amp;left_wall=1&amp;right_wall=0&amp;right_wall=1&amp;bottom=0&amp;thickness=3.0&amp;format=svg&amp;tabs=0.0&amp;debug=0&amp;reference=0&amp;burn=0.04&amp;render=1
SettingsUrl: http://www.festi.info/DividerTray?FingerJoint_angle=90.0&amp;FingerJoint_style=rectangular&amp;FingerJoint_surroundingspaces=2.0&amp;FingerJoint_edge_width=1.0&amp;FingerJoint_finger=2.0&amp;FingerJoint_play=0.0&amp;FingerJoint_space=2.0&amp;FingerJoint_width=1.0&amp;sx=288.5%2F3&amp;sy=288.5%2F10&amp;h=50&amp;outside=0&amp;outside=1&amp;slot_depth=20&amp;slot_angle=0&amp;slot_radius=2&amp;slot_extra_slack=0.2&amp;divider_bottom_margin=10&amp;divider_upper_notch_radius=1&amp;divider_lower_notch_radius=3&amp;divider_notch_depth=6&amp;left_wall=0&amp;left_wall=1&amp;right_wall=0&amp;right_wall=1&amp;bottom=0&amp;thickness=3.0&amp;format=svg&amp;tabs=0.0&amp;debug=0&amp;reference=0&amp;burn=0.04
</dc:description>
        <dc:format>image/svg+xml</dc:format>
        <dc:type
           rdf:resource="http://purl.org/dc/dcmitype/StillImage" />
      </cc:Work>
    </rdf:RDF>
  </metadata>
  <g
     style="fill:none;stroke-linecap:round;stroke-linejoin:round;"
     id="p-0">
    <path
       id="path441"
       stroke-width="0.08"
       stroke="rgb(0,0,255)"
       d="M 108.167 304.940 V 307.900 C 108.167 307.940 108.207 307.900 108.167 307.900 H 105.247 C 105.207 307.900 105.247 307.940 105.247 307.900 V 301.980 C 105.247 301.940 105.207 301.980 105.247 301.980 H 108.167 C 108.207 301.980 108.167 301.940 108.167 301.980 V 304.940 Z" />
    <path
       id="path443"
       stroke-width="0.08"
       stroke="rgb(0,0,255)"
       d="M 108.167 292.940 V 295.900 C 108.167 295.940 108.207 295.900 108.167 295.900 H 105.247 C 105.207 295.900 105.247 295.940 105.247 295.900 V 289.980 C 105.247 289.940 105.207 289.980 105.247 289.980 H 108.167 C 108.207 289.980 108.167 289.940 108.167 289.980 V 292.940 Z" />
    <path
       id="path445"
       stroke-width="0.08"
       stroke="rgb(0,0,255)"
       d="M 108.167 280.940 V 283.900 C 108.167 283.940 108.207 283.900 108.167 283.900 H 105.247 C 105.207 283.900 105.247 283.940 105.247 283.900 V 277.980 C 105.247 277.940 105.207 277.980 105.247 277.980 H 108.167 C 108.207 277.980 108.167 277.940 108.167 277.980 V 280.940 Z" />
    <path
       id="path447"
       stroke-width="0.08"
       stroke="rgb(0,0,255)"
       d="M 203.333 304.940 V 307.900 C 203.333 307.940 203.373 307.900 203.333 307.900 H 200.413 C 200.373 307.900 200.413 307.940 200.413 307.900 V 301.980 C 200.413 301.940 200.373 301.980 200.413 301.980 H 203.333 C 203.373 301.980 203.333 301.940 203.333 301.980 V 304.940 Z" />
    <path
       id="path449"
       stroke-width="0.08"
       stroke="rgb(0,0,255)"
       d="M 203.333 292.940 V 295.900 C 203.333 295.940 203.373 295.900 203.333 295.900 H 200.413 C 200.373 295.900 200.413 295.940 200.413 295.900 V 289.980 C 200.413 289.940 200.373 289.980 200.413 289.980 H 203.333 C 203.373 289.980 203.333 289.940 203.333 289.980 V 292.940 Z" />
    <path
       id="path451"
       stroke-width="0.08"
       stroke="rgb(0,0,255)"
       d="M 203.333 280.940 V 283.900 C 203.333 283.940 203.373 283.900 203.333 283.900 H 200.413 C 200.373 283.900 200.413 283.940 200.413 283.900 V 277.980 C 200.413 277.940 200.373 277.980 200.413 277.980 H 203.333 C 203.373 277.980 203.333 277.940 203.333 277.980 V 280.940 Z" />
    <path
       id="path453"
       stroke-width="0.08"
       stroke="rgb(0,0,0)"
       d="M 13.040 317.980 H 295.540 H 298.540 C 298.562 317.980 298.580 317.962 298.580 317.940 V 307.940 C 298.580 307.918 298.562 307.900 298.540 307.900 H 295.580 C 295.540 307.900 295.580 307.940 295.580 307.900 V 301.980 C 295.580 301.940 295.540 301.980 295.580 301.980 H 298.540 C 298.562 301.980 298.580 301.962 298.580 301.940 V 295.940 C 298.580 295.918 298.562 295.900 298.540 295.900 H 295.580 C 295.540 295.900 295.580 295.940 295.580 295.900 V 289.980 C 295.580 289.940 295.540 289.980 295.580 289.980 H 298.540 C 298.562 289.980 298.580 289.962 298.580 289.940 V 283.940 C 298.580 283.918 298.562 283.900 298.540 283.900 H 295.580 C 295.540 283.900 295.580 283.940 295.580 283.900 V 277.980 C 295.580 277.940 295.540 277.980 295.580 277.980 H 298.540 C 298.562 277.980 298.580 277.962 298.580 277.940 V 267.940 C 298.580 267.918 298.562 267.900 298.540 267.900 H 295.540 H 13.040 H 10.040 C 10.018 267.900 10.000 267.918 10.000 267.940 V 277.940 C 10.000 277.962 10.018 277.980 10.040 277.980 H 13.000 C 13.040 277.980 13.000 277.940 13.000 277.980 V 283.900 C 13.000 283.940 13.040 283.900 13.000 283.900 H 10.040 C 10.018 283.900 10.000 283.918 10.000 283.940 V 289.940 C 10.000 289.962 10.018 289.980 10.040 289.980 H 13.000 C 13.040 289.980 13.000 289.940 13.000 289.980 V 295.900 C 13.000 295.940 13.040 295.900 13.000 295.900 H 10.040 C 10.018 295.900 10.000 295.918 10.000 295.940 V 301.940 C 10.000 301.962 10.018 301.980 10.040 301.980 H 13.000 C 13.040 301.980 13.000 301.940 13.000 301.980 V 307.900 C 13.000 307.940 13.040 307.900 13.000 307.900 H 10.040 C 10.018 307.900 10.000 307.918 10.000 307.940 V 317.940 C 10.000 317.962 10.018 317.980 10.040 317.980 H 13.040 Z" />
  </g>
  <g
     style="fill:none;stroke-linecap:round;stroke-linejoin:round;"
     id="p-1">
    <path
       id="path456"
       stroke-width="0.08"
       stroke="rgb(0,0,255)"
       d="M 108.167 253.360 V 256.320 C 108.167 256.360 108.207 256.320 108.167 256.320 H 105.247 C 105.207 256.320 105.247 256.360 105.247 256.320 V 250.400 C 105.247 250.360 105.207 250.400 105.247 250.400 H 108.167 C 108.207 250.400 108.167 250.360 108.167 250.400 V 253.360 Z" />
    <path
       id="path458"
       stroke-width="0.08"
       stroke="rgb(0,0,255)"
       d="M 108.167 241.360 V 244.320 C 108.167 244.360 108.207 244.320 108.167 244.320 H 105.247 C 105.207 244.320 105.247 244.360 105.247 244.320 V 238.400 C 105.247 238.360 105.207 238.400 105.247 238.400 H 108.167 C 108.207 238.400 108.167 238.360 108.167 238.400 V 241.360 Z" />
    <path
       id="path460"
       stroke-width="0.08"
       stroke="rgb(0,0,255)"
       d="M 108.167 229.360 V 232.320 C 108.167 232.360 108.207 232.320 108.167 232.320 H 105.247 C 105.207 232.320 105.247 232.360 105.247 232.320 V 226.400 C 105.247 226.360 105.207 226.400 105.247 226.400 H 108.167 C 108.207 226.400 108.167 226.360 108.167 226.400 V 229.360 Z" />
    <path
       id="path462"
       stroke-width="0.08"
       stroke="rgb(0,0,255)"
       d="M 203.333 253.360 V 256.320 C 203.333 256.360 203.373 256.320 203.333 256.320 H 200.413 C 200.373 256.320 200.413 256.360 200.413 256.320 V 250.400 C 200.413 250.360 200.373 250.400 200.413 250.400 H 203.333 C 203.373 250.400 203.333 250.360 203.333 250.400 V 253.360 Z" />
    <path
       id="path464"
       stroke-width="0.08"
       stroke="rgb(0,0,255)"
       d="M 203.333 241.360 V 244.320 C 203.333 244.360 203.373 244.320 203.333 244.320 H 200.413 C 200.373 244.320 200.413 244.360 200.413 244.320 V 238.400 C 200.413 238.360 200.373 238.400 200.413 238.400 H 203.333 C 203.373 238.400 203.333 238.360 203.333 238.400 V 241.360 Z" />
    <path
       id="path466"
       stroke-width="0.08"
       stroke="rgb(0,0,255)"
       d="M 203.333 229.360 V 232.320 C 203.333 232.360 203.373 232.320 203.333 232.320 H 200.413 C 200.373 232.320 200.413 232.360 200.413 232.320 V 226.400 C 200.413 226.360 200.373 226.400 200.413 226.400 H 203.333 C 203.373 226.400 203.333 226.360 203.333 226.400 V 229.360 Z" />
    <path
       id="path468"
       stroke-width="0.08"
       stroke="rgb(0,0,0)"
       d="M 13.040 266.400 H 295.540 H 298.540 C 298.562 266.400 298.580 266.382 298.580 266.360 V 256.360 C 298.580 256.338 298.562 256.320 298.540 256.320 H 295.580 C 295.540 256.320 295.580 256.360 295.580 256.320 V 250.400 C 295.580 250.360 295.540 250.400 295.580 250.400 H 298.540 C 298.562 250.400 298.580 250.382 298.580 250.360 V 244.360 C 298.580 244.338 298.562 244.320 298.540 244.320 H 295.580 C 295.540 244.320 295.580 244.360 295.580 244.320 V 238.400 C 295.580 238.360 295.540 238.400 295.580 238.400 H 298.540 C 298.562 238.400 298.580 238.382 298.580 238.360 V 232.360 C 298.580 232.338 298.562 232.320 298.540 232.320 H 295.580 C 295.540 232.320 295.580 232.360 295.580 232.320 V 226.400 C 295.580 226.360 295.540 226.400 295.580 226.400 H 298.540 C 298.562 226.400 298.580 226.382 298.580 226.360 V 216.360 C 298.580 216.338 298.562 216.320 298.540 216.320 H 295.540 H 13.040 H 10.040 C 10.018 216.320 10.000 216.338 10.000 216.360 V 226.360 C 10.000 226.382 10.018 226.400 10.040 226.400 H 13.000 C 13.040 226.400 13.000 226.360 13.000 226.400 V 232.320 C 13.000 232.360 13.040 232.320 13.000 232.320 H 10.040 C 10.018 232.320 10.000 232.338 10.000 232.360 V 238.360 C 10.000 238.382 10.018 238.400 10.040 238.400 H 13.000 C 13.040 238.400 13.000 238.360 13.000 238.400 V 244.320 C 13.000 244.360 13.040 244.320 13.000 244.320 H 10.040 C 10.018 244.320 10.000 244.338 10.000 244.360 V 250.360 C 10.000 250.382 10.018 250.400 10.040 250.400 H 13.000 C 13.040 250.400 13.000 250.360 13.000 250.400 V 256.320 C 13.000 256.360 13.040 256.320 13.000 256.320 H 10.040 C 10.018 256.320 10.000 256.338 10.000 256.360 V 266.360 C 10.000 266.382 10.018 266.400 10.040 266.400 H 13.040 Z" />
  </g>
  <g
     style="fill:none;stroke-linecap:round;stroke-linejoin:round;"
     id="p-2">
    <path
       id="path471"
       stroke-width="0.08"
       stroke="rgb(0,0,0)"
       d="M 13.040 214.820 H 295.540 C 295.562 214.820 295.580 214.802 295.580 214.780 V 204.820 C 295.580 204.780 295.540 204.820 295.580 204.820 H 298.540 C 298.562 204.820 298.580 204.802 298.580 204.780 V 198.780 C 298.580 198.758 298.562 198.740 298.540 198.740 H 295.580 C 295.540 198.740 295.580 198.780 295.580 198.740 V 192.820 C 295.580 192.780 295.540 192.820 295.580 192.820 H 298.540 C 298.562 192.820 298.580 192.802 298.580 192.780 V 186.780 C 298.580 186.758 298.562 186.740 298.540 186.740 H 295.580 C 295.540 186.740 295.580 186.780 295.580 186.740 V 180.820 C 295.580 180.780 295.540 180.820 295.580 180.820 H 298.540 C 298.562 180.820 298.580 180.802 298.580 180.780 V 174.780 C 298.580 174.758 298.562 174.740 298.540 174.740 H 295.580 C 295.540 174.740 295.580 174.780 295.580 174.740 V 164.780 C 295.580 164.758 295.562 164.740 295.540 164.740 H 272.170 C 271.812 164.740 271.460 164.834 271.150 165.013 C 270.840 165.192 270.582 165.450 270.403 165.760 C 270.224 166.070 270.130 166.422 270.130 166.780 V 184.740 C 270.130 184.780 270.170 184.740 270.130 184.740 H 267.010 C 266.970 184.740 267.010 184.780 267.010 184.740 V 166.780 C 267.010 166.422 266.916 166.070 266.737 165.760 C 266.558 165.450 266.300 165.192 265.990 165.013 C 265.680 164.834 265.328 164.740 264.970 164.740 H 243.600 C 243.242 164.740 242.890 164.834 242.580 165.013 C 242.270 165.192 242.012 165.450 241.833 165.760 C 241.654 166.070 241.560 166.422 241.560 166.780 V 184.740 C 241.560 184.780 241.600 184.740 241.560 184.740 H 238.440 C 238.400 184.740 238.440 184.780 238.440 184.740 V 166.780 C 238.440 166.422 238.346 166.070 238.167 165.760 C 237.988 165.450 237.730 165.192 237.420 165.013 C 237.110 164.834 236.758 164.740 236.400 164.740 H 215.030 C 214.672 164.740 214.320 164.834 214.010 165.013 C 213.700 165.192 213.442 165.450 213.263 165.760 C 213.084 166.070 212.990 166.422 212.990 166.780 V 184.740 C 212.990 184.780 213.030 184.740 212.990 184.740 H 209.870 C 209.830 184.740 209.870 184.780 209.870 184.740 V 166.780 C 209.870 166.422 209.776 166.070 209.597 165.760 C 209.418 165.450 209.160 165.192 208.850 165.013 C 208.540 164.834 208.188 164.740 207.830 164.740 H 186.460 C 186.102 164.740 185.750 164.834 185.440 165.013 C 185.130 165.192 184.872 165.450 184.693 165.760 C 184.514 166.070 184.420 166.422 184.420 166.780 V 184.740 C 184.420 184.780 184.460 184.740 184.420 184.740 H 181.300 C 181.260 184.740 181.300 184.780 181.300 184.740 V 166.780 C 181.300 166.422 181.206 166.070 181.027 165.760 C 180.848 165.450 180.590 165.192 180.280 165.013 C 179.970 164.834 179.618 164.740 179.260 164.740 H 157.890 C 157.532 164.740 157.180 164.834 156.870 165.013 C 156.560 165.192 156.302 165.450 156.123 165.760 C 155.944 166.070 155.850 166.422 155.850 166.780 V 184.740 C 155.850 184.780 155.890 184.740 155.850 184.740 H 152.730 C 152.690 184.740 152.730 184.780 152.730 184.740 V 166.780 C 152.730 166.422 152.636 166.070 152.457 165.760 C 152.278 165.450 152.020 165.192 151.710 165.013 C 151.400 164.834 151.048 164.740 150.690 164.740 H 129.320 C 128.962 164.740 128.610 164.834 128.300 165.013 C 127.990 165.192 127.732 165.450 127.553 165.760 C 127.374 166.070 127.280 166.422 127.280 166.780 V 184.740 C 127.280 184.780 127.320 184.740 127.280 184.740 H 124.160 C 124.120 184.740 124.160 184.780 124.160 184.740 V 166.780 C 124.160 166.422 124.066 166.070 123.887 165.760 C 123.708 165.450 123.450 165.192 123.140 165.013 C 122.830 164.834 122.478 164.740 122.120 164.740 H 100.750 C 100.392 164.740 100.040 164.834 99.730 165.013 C 99.420 165.192 99.162 165.450 98.983 165.760 C 98.804 166.070 98.710 166.422 98.710 166.780 V 184.740 C 98.710 184.780 98.750 184.740 98.710 184.740 H 95.590 C 95.550 184.740 95.590 184.780 95.590 184.740 V 166.780 C 95.590 166.422 95.496 166.070 95.317 165.760 C 95.138 165.450 94.880 165.192 94.570 165.013 C 94.260 164.834 93.908 164.740 93.550 164.740 H 72.180 C 71.822 164.740 71.470 164.834 71.160 165.013 C 70.850 165.192 70.592 165.450 70.413 165.760 C 70.234 166.070 70.140 166.422 70.140 166.780 V 184.740 C 70.140 184.780 70.180 184.740 70.140 184.740 H 67.020 C 66.980 184.740 67.020 184.780 67.020 184.740 V 166.780 C 67.020 166.422 66.926 166.070 66.747 165.760 C 66.568 165.450 66.310 165.192 66.000 165.013 C 65.690 164.834 65.338 164.740 64.980 164.740 H 43.610 C 43.252 164.740 42.900 164.834 42.590 165.013 C 42.280 165.192 42.022 165.450 41.843 165.760 C 41.664 166.070 41.570 166.422 41.570 166.780 V 184.740 C 41.570 184.780 41.610 184.740 41.570 184.740 H 38.450 C 38.410 184.740 38.450 184.780 38.450 184.740 V 166.780 C 38.450 166.422 38.356 166.070 38.177 165.760 C 37.998 165.450 37.740 165.192 37.430 165.013 C 37.120 164.834 36.768 164.740 36.410 164.740 H 13.040 C 13.018 164.740 13.000 164.758 13.000 164.780 V 174.740 C 13.000 174.780 13.040 174.740 13.000 174.740 H 10.040 C 10.018 174.740 10.000 174.758 10.000 174.780 V 180.780 C 10.000 180.802 10.018 180.820 10.040 180.820 H 13.000 C 13.040 180.820 13.000 180.780 13.000 180.820 V 186.740 C 13.000 186.780 13.040 186.740 13.000 186.740 H 10.040 C 10.018 186.740 10.000 186.758 10.000 186.780 V 192.780 C 10.000 192.802 10.018 192.820 10.040 192.820 H 13.000 C 13.040 192.820 13.000 192.780 13.000 192.820 V 198.740 C 13.000 198.780 13.040 198.740 13.000 198.740 H 10.040 C 10.018 198.740 10.000 198.758 10.000 198.780 V 204.780 C 10.000 204.802 10.018 204.820 10.040 204.820 H 13.000 C 13.040 204.820 13.000 204.780 13.000 204.820 V 214.780 C 13.000 214.802 13.018 214.820 13.040 214.820 Z" />
  </g>
  <g
     style="fill:none;stroke-linecap:round;stroke-linejoin:round;"
     id="p-3">
    <path
       id="path474"
       stroke-width="0.08"
       stroke="rgb(0,0,0)"
       d="M 13.040 163.240 H 295.540 C 295.562 163.240 295.580 163.222 295.580 163.200 V 153.240 C 295.580 153.200 295.540 153.240 295.580 153.240 H 298.540 C 298.562 153.240 298.580 153.222 298.580 153.200 V 147.200 C 298.580 147.178 298.562 147.160 298.540 147.160 H 295.580 C 295.540 147.160 295.580 147.200 295.580 147.160 V 141.240 C 295.580 141.200 295.540 141.240 295.580 141.240 H 298.540 C 298.562 141.240 298.580 141.222 298.580 141.200 V 135.200 C 298.580 135.178 298.562 135.160 298.540 135.160 H 295.580 C 295.540 135.160 295.580 135.200 295.580 135.160 V 129.240 C 295.580 129.200 295.540 129.240 295.580 129.240 H 298.540 C 298.562 129.240 298.580 129.222 298.580 129.200 V 123.200 C 298.580 123.178 298.562 123.160 298.540 123.160 H 295.580 C 295.540 123.160 295.580 123.200 295.580 123.160 V 113.200 C 295.580 113.178 295.562 113.160 295.540 113.160 H 272.170 C 271.812 113.160 271.460 113.254 271.150 113.433 C 270.840 113.612 270.582 113.870 270.403 114.180 C 270.224 114.490 270.130 114.842 270.130 115.200 V 133.160 C 270.130 133.200 270.170 133.160 270.130 133.160 H 267.010 C 266.970 133.160 267.010 133.200 267.010 133.160 V 115.200 C 267.010 114.842 266.916 114.490 266.737 114.180 C 266.558 113.870 266.300 113.612 265.990 113.433 C 265.680 113.254 265.328 113.160 264.970 113.160 H 243.600 C 243.242 113.160 242.890 113.254 242.580 113.433 C 242.270 113.612 242.012 113.870 241.833 114.180 C 241.654 114.490 241.560 114.842 241.560 115.200 V 133.160 C 241.560 133.200 241.600 133.160 241.560 133.160 H 238.440 C 238.400 133.160 238.440 133.200 238.440 133.160 V 115.200 C 238.440 114.842 238.346 114.490 238.167 114.180 C 237.988 113.870 237.730 113.612 237.420 113.433 C 237.110 113.254 236.758 113.160 236.400 113.160 H 215.030 C 214.672 113.160 214.320 113.254 214.010 113.433 C 213.700 113.612 213.442 113.870 213.263 114.180 C 213.084 114.490 212.990 114.842 212.990 115.200 V 133.160 C 212.990 133.200 213.030 133.160 212.990 133.160 H 209.870 C 209.830 133.160 209.870 133.200 209.870 133.160 V 115.200 C 209.870 114.842 209.776 114.490 209.597 114.180 C 209.418 113.870 209.160 113.612 208.850 113.433 C 208.540 113.254 208.188 113.160 207.830 113.160 H 186.460 C 186.102 113.160 185.750 113.254 185.440 113.433 C 185.130 113.612 184.872 113.870 184.693 114.180 C 184.514 114.490 184.420 114.842 184.420 115.200 V 133.160 C 184.420 133.200 184.460 133.160 184.420 133.160 H 181.300 C 181.260 133.160 181.300 133.200 181.300 133.160 V 115.200 C 181.300 114.842 181.206 114.490 181.027 114.180 C 180.848 113.870 180.590 113.612 180.280 113.433 C 179.970 113.254 179.618 113.160 179.260 113.160 H 157.890 C 157.532 113.160 157.180 113.254 156.870 113.433 C 156.560 113.612 156.302 113.870 156.123 114.180 C 155.944 114.490 155.850 114.842 155.850 115.200 V 133.160 C 155.850 133.200 155.890 133.160 155.850 133.160 H 152.730 C 152.690 133.160 152.730 133.200 152.730 133.160 V 115.200 C 152.730 114.842 152.636 114.490 152.457 114.180 C 152.278 113.870 152.020 113.612 151.710 113.433 C 151.400 113.254 151.048 113.160 150.690 113.160 H 129.320 C 128.962 113.160 128.610 113.254 128.300 113.433 C 127.990 113.612 127.732 113.870 127.553 114.180 C 127.374 114.490 127.280 114.842 127.280 115.200 V 133.160 C 127.280 133.200 127.320 133.160 127.280 133.160 H 124.160 C 124.120 133.160 124.160 133.200 124.160 133.160 V 115.200 C 124.160 114.842 124.066 114.490 123.887 114.180 C 123.708 113.870 123.450 113.612 123.140 113.433 C 122.830 113.254 122.478 113.160 122.120 113.160 H 100.750 C 100.392 113.160 100.040 113.254 99.730 113.433 C 99.420 113.612 99.162 113.870 98.983 114.180 C 98.804 114.490 98.710 114.842 98.710 115.200 V 133.160 C 98.710 133.200 98.750 133.160 98.710 133.160 H 95.590 C 95.550 133.160 95.590 133.200 95.590 133.160 V 115.200 C 95.590 114.842 95.496 114.490 95.317 114.180 C 95.138 113.870 94.880 113.612 94.570 113.433 C 94.260 113.254 93.908 113.160 93.550 113.160 H 72.180 C 71.822 113.160 71.470 113.254 71.160 113.433 C 70.850 113.612 70.592 113.870 70.413 114.180 C 70.234 114.490 70.140 114.842 70.140 115.200 V 133.160 C 70.140 133.200 70.180 133.160 70.140 133.160 H 67.020 C 66.980 133.160 67.020 133.200 67.020 133.160 V 115.200 C 67.020 114.842 66.926 114.490 66.747 114.180 C 66.568 113.870 66.310 113.612 66.000 113.433 C 65.690 113.254 65.338 113.160 64.980 113.160 H 43.610 C 43.252 113.160 42.900 113.254 42.590 113.433 C 42.280 113.612 42.022 113.870 41.843 114.180 C 41.664 114.490 41.570 114.842 41.570 115.200 V 133.160 C 41.570 133.200 41.610 133.160 41.570 133.160 H 38.450 C 38.410 133.160 38.450 133.200 38.450 133.160 V 115.200 C 38.450 114.842 38.356 114.490 38.177 114.180 C 37.998 113.870 37.740 113.612 37.430 113.433 C 37.120 113.254 36.768 113.160 36.410 113.160 H 13.040 C 13.018 113.160 13.000 113.178 13.000 113.200 V 123.160 C 13.000 123.200 13.040 123.160 13.000 123.160 H 10.040 C 10.018 123.160 10.000 123.178 10.000 123.200 V 129.200 C 10.000 129.222 10.018 129.240 10.040 129.240 H 13.000 C 13.040 129.240 13.000 129.200 13.000 129.240 V 135.160 C 13.000 135.200 13.040 135.160 13.000 135.160 H 10.040 C 10.018 135.160 10.000 135.178 10.000 135.200 V 141.200 C 10.000 141.222 10.018 141.240 10.040 141.240 H 13.000 C 13.040 141.240 13.000 141.200 13.000 141.240 V 147.160 C 13.000 147.200 13.040 147.160 13.000 147.160 H 10.040 C 10.018 147.160 10.000 147.178 10.000 147.200 V 153.200 C 10.000 153.222 10.018 153.240 10.040 153.240 H 13.000 C 13.040 153.240 13.000 153.200 13.000 153.240 V 163.200 C 13.000 163.222 13.018 163.240 13.040 163.240 Z" />
  </g>
  <g
     style="fill:none;stroke-linecap:round;stroke-linejoin:round;"
     id="p-4">
    <path
       id="path477"
       stroke-width="0.08"
       stroke="rgb(0,0,0)"
       d="M 13.040 111.660 H 295.540 C 295.562 111.660 295.580 111.642 295.580 111.620 V 101.660 C 295.580 101.620 295.540 101.660 295.580 101.660 H 298.540 C 298.562 101.660 298.580 101.642 298.580 101.620 V 95.620 C 298.580 95.598 298.562 95.580 298.540 95.580 H 295.580 C 295.540 95.580 295.580 95.620 295.580 95.580 V 89.660 C 295.580 89.620 295.540 89.660 295.580 89.660 H 298.540 C 298.562 89.660 298.580 89.642 298.580 89.620 V 83.620 C 298.580 83.598 298.562 83.580 298.540 83.580 H 295.580 C 295.540 83.580 295.580 83.620 295.580 83.580 V 77.660 C 295.580 77.620 295.540 77.660 295.580 77.660 H 298.540 C 298.562 77.660 298.580 77.642 298.580 77.620 V 71.620 C 298.580 71.598 298.562 71.580 298.540 71.580 H 295.580 C 295.540 71.580 295.580 71.620 295.580 71.580 V 61.620 C 295.580 61.598 295.562 61.580 295.540 61.580 H 272.170 C 271.812 61.580 271.460 61.674 271.150 61.853 C 270.840 62.032 270.582 62.290 270.403 62.600 C 270.224 62.910 270.130 63.262 270.130 63.620 V 81.580 C 270.130 81.620 270.170 81.580 270.130 81.580 H 267.010 C 266.970 81.580 267.010 81.620 267.010 81.580 V 63.620 C 267.010 63.262 266.916 62.910 266.737 62.600 C 266.558 62.290 266.300 62.032 265.990 61.853 C 265.680 61.674 265.328 61.580 264.970 61.580 H 243.600 C 243.242 61.580 242.890 61.674 242.580 61.853 C 242.270 62.032 242.012 62.290 241.833 62.600 C 241.654 62.910 241.560 63.262 241.560 63.620 V 81.580 C 241.560 81.620 241.600 81.580 241.560 81.580 H 238.440 C 238.400 81.580 238.440 81.620 238.440 81.580 V 63.620 C 238.440 63.262 238.346 62.910 238.167 62.600 C 237.988 62.290 237.730 62.032 237.420 61.853 C 237.110 61.674 236.758 61.580 236.400 61.580 H 215.030 C 214.672 61.580 214.320 61.674 214.010 61.853 C 213.700 62.032 213.442 62.290 213.263 62.600 C 213.084 62.910 212.990 63.262 212.990 63.620 V 81.580 C 212.990 81.620 213.030 81.580 212.990 81.580 H 209.870 C 209.830 81.580 209.870 81.620 209.870 81.580 V 63.620 C 209.870 63.262 209.776 62.910 209.597 62.600 C 209.418 62.290 209.160 62.032 208.850 61.853 C 208.540 61.674 208.188 61.580 207.830 61.580 H 186.460 C 186.102 61.580 185.750 61.674 185.440 61.853 C 185.130 62.032 184.872 62.290 184.693 62.600 C 184.514 62.910 184.420 63.262 184.420 63.620 V 81.580 C 184.420 81.620 184.460 81.580 184.420 81.580 H 181.300 C 181.260 81.580 181.300 81.620 181.300 81.580 V 63.620 C 181.300 63.262 181.206 62.910 181.027 62.600 C 180.848 62.290 180.590 62.032 180.280 61.853 C 179.970 61.674 179.618 61.580 179.260 61.580 H 157.890 C 157.532 61.580 157.180 61.674 156.870 61.853 C 156.560 62.032 156.302 62.290 156.123 62.600 C 155.944 62.910 155.850 63.262 155.850 63.620 V 81.580 C 155.850 81.620 155.890 81.580 155.850 81.580 H 152.730 C 152.690 81.580 152.730 81.620 152.730 81.580 V 63.620 C 152.730 63.262 152.636 62.910 152.457 62.600 C 152.278 62.290 152.020 62.032 151.710 61.853 C 151.400 61.674 151.048 61.580 150.690 61.580 H 129.320 C 128.962 61.580 128.610 61.674 128.300 61.853 C 127.990 62.032 127.732 62.290 127.553 62.600 C 127.374 62.910 127.280 63.262 127.280 63.620 V 81.580 C 127.280 81.620 127.320 81.580 127.280 81.580 H 124.160 C 124.120 81.580 124.160 81.620 124.160 81.580 V 63.620 C 124.160 63.262 124.066 62.910 123.887 62.600 C 123.708 62.290 123.450 62.032 123.140 61.853 C 122.830 61.674 122.478 61.580 122.120 61.580 H 100.750 C 100.392 61.580 100.040 61.674 99.730 61.853 C 99.420 62.032 99.162 62.290 98.983 62.600 C 98.804 62.910 98.710 63.262 98.710 63.620 V 81.580 C 98.710 81.620 98.750 81.580 98.710 81.580 H 95.590 C 95.550 81.580 95.590 81.620 95.590 81.580 V 63.620 C 95.590 63.262 95.496 62.910 95.317 62.600 C 95.138 62.290 94.880 62.032 94.570 61.853 C 94.260 61.674 93.908 61.580 93.550 61.580 H 72.180 C 71.822 61.580 71.470 61.674 71.160 61.853 C 70.850 62.032 70.592 62.290 70.413 62.600 C 70.234 62.910 70.140 63.262 70.140 63.620 V 81.580 C 70.140 81.620 70.180 81.580 70.140 81.580 H 67.020 C 66.980 81.580 67.020 81.620 67.020 81.580 V 63.620 C 67.020 63.262 66.926 62.910 66.747 62.600 C 66.568 62.290 66.310 62.032 66.000 61.853 C 65.690 61.674 65.338 61.580 64.980 61.580 H 43.610 C 43.252 61.580 42.900 61.674 42.590 61.853 C 42.280 62.032 42.022 62.290 41.843 62.600 C 41.664 62.910 41.570 63.262 41.570 63.620 V 81.580 C 41.570 81.620 41.610 81.580 41.570 81.580 H 38.450 C 38.410 81.580 38.450 81.620 38.450 81.580 V 63.620 C 38.450 63.262 38.356 62.910 38.177 62.600 C 37.998 62.290 37.740 62.032 37.430 61.853 C 37.120 61.674 36.768 61.580 36.410 61.580 H 13.040 C 13.018 61.580 13.000 61.598 13.000 61.620 V 71.580 C 13.000 71.620 13.040 71.580 13.000 71.580 H 10.040 C 10.018 71.580 10.000 71.598 10.000 71.620 V 77.620 C 10.000 77.642 10.018 77.660 10.040 77.660 H 13.000 C 13.040 77.660 13.000 77.620 13.000 77.660 V 83.580 C 13.000 83.620 13.040 83.580 13.000 83.580 H 10.040 C 10.018 83.580 10.000 83.598 10.000 83.620 V 89.620 C 10.000 89.642 10.018 89.660 10.040 89.660 H 13.000 C 13.040 89.660 13.000 89.620 13.000 89.660 V 95.580 C 13.000 95.620 13.040 95.580 13.000 95.580 H 10.040 C 10.018 95.580 10.000 95.598 10.000 95.620 V 101.620 C 10.000 101.642 10.018 101.660 10.040 101.660 H 13.000 C 13.040 101.660 13.000 101.620 13.000 101.660 V 111.620 C 13.000 111.642 13.018 111.660 13.040 111.660 Z" />
  </g>
  <g
     style="fill:none;stroke-linecap:round;stroke-linejoin:round;"
     id="p-5">
    <path
       id="path480"
       stroke-width="0.08"
       stroke="rgb(0,0,0)"
       d="M 13.040 60.080 H 295.540 C 295.562 60.080 295.580 60.062 295.580 60.040 V 50.080 C 295.580 50.040 295.540 50.080 295.580 50.080 H 298.540 C 298.562 50.080 298.580 50.062 298.580 50.040 V 44.040 C 298.580 44.018 298.562 44.000 298.540 44.000 H 295.580 C 295.540 44.000 295.580 44.040 295.580 44.000 V 38.080 C 295.580 38.040 295.540 38.080 295.580 38.080 H 298.540 C 298.562 38.080 298.580 38.062 298.580 38.040 V 32.040 C 298.580 32.018 298.562 32.000 298.540 32.000 H 295.580 C 295.540 32.000 295.580 32.040 295.580 32.000 V 26.080 C 295.580 26.040 295.540 26.080 295.580 26.080 H 298.540 C 298.562 26.080 298.580 26.062 298.580 26.040 V 20.040 C 298.580 20.018 298.562 20.000 298.540 20.000 H 295.580 C 295.540 20.000 295.580 20.040 295.580 20.000 V 10.040 C 295.580 10.018 295.562 10.000 295.540 10.000 H 272.170 C 271.812 10.000 271.460 10.094 271.150 10.273 C 270.840 10.452 270.582 10.710 270.403 11.020 C 270.224 11.330 270.130 11.682 270.130 12.040 V 30.000 C 270.130 30.040 270.170 30.000 270.130 30.000 H 267.010 C 266.970 30.000 267.010 30.040 267.010 30.000 V 12.040 C 267.010 11.682 266.916 11.330 266.737 11.020 C 266.558 10.710 266.300 10.452 265.990 10.273 C 265.680 10.094 265.328 10.000 264.970 10.000 H 243.600 C 243.242 10.000 242.890 10.094 242.580 10.273 C 242.270 10.452 242.012 10.710 241.833 11.020 C 241.654 11.330 241.560 11.682 241.560 12.040 V 30.000 C 241.560 30.040 241.600 30.000 241.560 30.000 H 238.440 C 238.400 30.000 238.440 30.040 238.440 30.000 V 12.040 C 238.440 11.682 238.346 11.330 238.167 11.020 C 237.988 10.710 237.730 10.452 237.420 10.273 C 237.110 10.094 236.758 10.000 236.400 10.000 H 215.030 C 214.672 10.000 214.320 10.094 214.010 10.273 C 213.700 10.452 213.442 10.710 213.263 11.020 C 213.084 11.330 212.990 11.682 212.990 12.040 V 30.000 C 212.990 30.040 213.030 30.000 212.990 30.000 H 209.870 C 209.830 30.000 209.870 30.040 209.870 30.000 V 12.040 C 209.870 11.682 209.776 11.330 209.597 11.020 C 209.418 10.710 209.160 10.452 208.850 10.273 C 208.540 10.094 208.188 10.000 207.830 10.000 H 186.460 C 186.102 10.000 185.750 10.094 185.440 10.273 C 185.130 10.452 184.872 10.710 184.693 11.020 C 184.514 11.330 184.420 11.682 184.420 12.040 V 30.000 C 184.420 30.040 184.460 30.000 184.420 30.000 H 181.300 C 181.260 30.000 181.300 30.040 181.300 30.000 V 12.040 C 181.300 11.682 181.206 11.330 181.027 11.020 C 180.848 10.710 180.590 10.452 180.280 10.273 C 179.970 10.094 179.618 10.000 179.260 10.000 H 157.890 C 157.532 10.000 157.180 10.094 156.870 10.273 C 156.560 10.452 156.302 10.710 156.123 11.020 C 155.944 11.330 155.850 11.682 155.850 12.040 V 30.000 C 155.850 30.040 155.890 30.000 155.850 30.000 H 152.730 C 152.690 30.000 152.730 30.040 152.730 30.000 V 12.040 C 152.730 11.682 152.636 11.330 152.457 11.020 C 152.278 10.710 152.020 10.452 151.710 10.273 C 151.400 10.094 151.048 10.000 150.690 10.000 H 129.320 C 128.962 10.000 128.610 10.094 128.300 10.273 C 127.990 10.452 127.732 10.710 127.553 11.020 C 127.374 11.330 127.280 11.682 127.280 12.040 V 30.000 C 127.280 30.040 127.320 30.000 127.280 30.000 H 124.160 C 124.120 30.000 124.160 30.040 124.160 30.000 V 12.040 C 124.160 11.682 124.066 11.330 123.887 11.020 C 123.708 10.710 123.450 10.452 123.140 10.273 C 122.830 10.094 122.478 10.000 122.120 10.000 H 100.750 C 100.392 10.000 100.040 10.094 99.730 10.273 C 99.420 10.452 99.162 10.710 98.983 11.020 C 98.804 11.330 98.710 11.682 98.710 12.040 V 30.000 C 98.710 30.040 98.750 30.000 98.710 30.000 H 95.590 C 95.550 30.000 95.590 30.040 95.590 30.000 V 12.040 C 95.590 11.682 95.496 11.330 95.317 11.020 C 95.138 10.710 94.880 10.452 94.570 10.273 C 94.260 10.094 93.908 10.000 93.550 10.000 H 72.180 C 71.822 10.000 71.470 10.094 71.160 10.273 C 70.850 10.452 70.592 10.710 70.413 11.020 C 70.234 11.330 70.140 11.682 70.140 12.040 V 30.000 C 70.140 30.040 70.180 30.000 70.140 30.000 H 67.020 C 66.980 30.000 67.020 30.040 67.020 30.000 V 12.040 C 67.020 11.682 66.926 11.330 66.747 11.020 C 66.568 10.710 66.310 10.452 66.000 10.273 C 65.690 10.094 65.338 10.000 64.980 10.000 H 43.610 C 43.252 10.000 42.900 10.094 42.590 10.273 C 42.280 10.452 42.022 10.710 41.843 11.020 C 41.664 11.330 41.570 11.682 41.570 12.040 V 30.000 C 41.570 30.040 41.610 30.000 41.570 30.000 H 38.450 C 38.410 30.000 38.450 30.040 38.450 30.000 V 12.040 C 38.450 11.682 38.356 11.330 38.177 11.020 C 37.998 10.710 37.740 10.452 37.430 10.273 C 37.120 10.094 36.768 10.000 36.410 10.000 H 13.040 C 13.018 10.000 13.000 10.018 13.000 10.040 V 20.000 C 13.000 20.040 13.040 20.000 13.000 20.000 H 10.040 C 10.018 20.000 10.000 20.018 10.000 20.040 V 26.040 C 10.000 26.062 10.018 26.080 10.040 26.080 H 13.000 C 13.040 26.080 13.000 26.040 13.000 26.080 V 32.000 C 13.000 32.040 13.040 32.000 13.000 32.000 H 10.040 C 10.018 32.000 10.000 32.018 10.000 32.040 V 38.040 C 10.000 38.062 10.018 38.080 10.040 38.080 H 13.000 C 13.040 38.080 13.000 38.040 13.000 38.080 V 44.000 C 13.000 44.040 13.040 44.000 13.000 44.000 H 10.040 C 10.018 44.000 10.000 44.018 10.000 44.040 V 50.040 C 10.000 50.062 10.018 50.080 10.040 50.080 H 13.000 C 13.040 50.080 13.000 50.040 13.000 50.080 V 60.040 C 13.000 60.062 13.018 60.080 13.040 60.080 Z" />
  </g>
  <g
     style="fill:none;stroke-linecap:round;stroke-linejoin:round;"
     id="p-6">
    <path
       id="path483"
       stroke-width="0.08"
       stroke="rgb(0,0,0)"
       d="M 300.120 317.980 H 303.120 H 331.176 C 331.358 317.980 331.537 317.932 331.696 317.841 C 331.854 317.749 331.985 317.618 332.076 317.460 C 332.168 317.302 332.216 317.123 332.216 316.940 V 314.940 C 332.216 314.420 332.352 313.910 332.612 313.460 C 332.872 313.010 333.246 312.636 333.696 312.377 C 334.146 312.117 334.656 311.980 335.176 311.980 H 363.231 C 363.751 311.980 364.261 312.117 364.711 312.377 C 365.161 312.636 365.535 313.010 365.795 313.460 C 366.054 313.910 366.191 314.420 366.191 314.940 V 316.940 C 366.191 317.123 366.239 317.302 366.330 317.460 C 366.422 317.618 366.553 317.749 366.711 317.841 C 366.869 317.932 367.049 317.980 367.231 317.980 H 395.287 H 398.287 C 398.309 317.980 398.327 317.962 398.327 317.940 V 297.940 C 398.327 297.918 398.309 297.900 398.287 297.900 H 395.327 C 395.287 297.900 395.327 297.940 395.327 297.900 V 277.940 C 395.327 277.918 395.309 277.900 395.287 277.900 H 303.120 C 303.098 277.900 303.080 277.918 303.080 277.940 V 297.900 C 303.080 297.940 303.120 297.900 303.080 297.900 H 300.120 C 300.098 297.900 300.080 297.918 300.080 297.940 V 317.940" />
  </g>
  <g
     style="fill:none;stroke-linecap:round;stroke-linejoin:round;"
     id="p-7">
    <path
       id="path486"
       stroke-width="0.08"
       stroke="rgb(0,0,0)"
       d="M 300.120 276.400 H 303.120 H 331.176 C 331.358 276.400 331.537 276.352 331.696 276.261 C 331.854 276.169 331.985 276.038 332.076 275.880 C 332.168 275.722 332.216 275.543 332.216 275.360 V 273.360 C 332.216 272.840 332.352 272.330 332.612 271.880 C 332.872 271.430 333.246 271.056 333.696 270.797 C 334.146 270.537 334.656 270.400 335.176 270.400 H 363.231 C 363.751 270.400 364.261 270.537 364.711 270.797 C 365.161 271.056 365.535 271.430 365.795 271.880 C 366.054 272.330 366.191 272.840 366.191 273.360 V 275.360 C 366.191 275.543 366.239 275.722 366.330 275.880 C 366.422 276.038 366.553 276.169 366.711 276.261 C 366.869 276.352 367.049 276.400 367.231 276.400 H 395.287 H 398.287 C 398.309 276.400 398.327 276.382 398.327 276.360 V 256.360 C 398.327 256.338 398.309 256.320 398.287 256.320 H 395.327 C 395.287 256.320 395.327 256.360 395.327 256.320 V 236.360 C 395.327 236.338 395.309 236.320 395.287 236.320 H 303.120 C 303.098 236.320 303.080 236.338 303.080 236.360 V 256.320 C 303.080 256.360 303.120 256.320 303.080 256.320 H 300.120 C 300.098 256.320 300.080 256.338 300.080 256.360 V 276.360" />
  </g>
  <g
     style="fill:none;stroke-linecap:round;stroke-linejoin:round;"
     id="p-8">
    <path
       id="path489"
       stroke-width="0.08"
       stroke="rgb(0,0,0)"
       d="M 300.120 234.820 H 303.120 H 331.176 C 331.358 234.820 331.537 234.772 331.696 234.681 C 331.854 234.589 331.985 234.458 332.076 234.300 C 332.168 234.142 332.216 233.963 332.216 233.780 V 231.780 C 332.216 231.260 332.352 230.750 332.612 230.300 C 332.872 229.850 333.246 229.476 333.696 229.217 C 334.146 228.957 334.656 228.820 335.176 228.820 H 363.231 C 363.751 228.820 364.261 228.957 364.711 229.217 C 365.161 229.476 365.535 229.850 365.795 230.300 C 366.054 230.750 366.191 231.260 366.191 231.780 V 233.780 C 366.191 233.963 366.239 234.142 366.330 234.300 C 366.422 234.458 366.553 234.589 366.711 234.681 C 366.869 234.772 367.049 234.820 367.231 234.820 H 395.287 H 398.287 C 398.309 234.820 398.327 234.802 398.327 234.780 V 214.780 C 398.327 214.758 398.309 214.740 398.287 214.740 H 395.327 C 395.287 214.740 395.327 214.780 395.327 214.740 V 194.780 C 395.327 194.758 395.309 194.740 395.287 194.740 H 303.120 C 303.098 194.740 303.080 194.758 303.080 194.780 V 214.740 C 303.080 214.780 303.120 214.740 303.080 214.740 H 300.120 C 300.098 214.740 300.080 214.758 300.080 214.780 V 234.780" />
  </g>
</svg>
