<?xml version="1.0" encoding="UTF-8" standalone="no"?>
<svg
   xmlns:dc="http://purl.org/dc/elements/1.1/"
   xmlns:cc="http://creativecommons.org/ns#"
   xmlns:rdf="http://www.w3.org/1999/02/22-rdf-syntax-ns#"
   xmlns:svg="http://www.w3.org/2000/svg"
   xmlns="http://www.w3.org/2000/svg"
   xmlns:sodipodi="http://sodipodi.sourceforge.net/DTD/sodipodi-0.dtd"
   xmlns:inkscape="http://www.inkscape.org/namespaces/inkscape"
   width="12in"
   height="12in"
   viewBox="0 0 304.8 304.80001"
   version="1.1"
   id="svg8"
   inkscape:version="1.0 (4035a4fb49, 2020-05-01)"
   sodipodi:docname="LAzySusanToCut.svg">
  <defs
     id="defs2">
    <inkscape:path-effect
       hide_knots="false"
       only_selected="false"
       apply_with_radius="true"
       apply_no_radius="true"
       use_knot_distance="true"
       flexible="false"
       chamfer_steps="1"
       radius="12"
       mode="F"
       method="auto"
       unit="px"
       satellites_param="F,0,0,1,0,0,0,1 @ F,0,0,1,0,0,0,1 | F,0,0,1,0,0,0,1 @ F,0,0,1,0,0,0,1 | F,0,0,1,0,0,0,1 @ F,0,0,1,0,0,0,1 | F,0,0,1,0,0,0,1 @ F,0,0,1,0,0,0,1 | F,0,0,1,0,0,0,1 @ F,0,0,1,0,0,0,1 | F,0,0,1,0,0,0,1 @ F,0,0,1,0,0,0,1 | F,0,0,1,0,0,0,1 @ F,0,0,1,0,0,0,1 | F,0,0,1,0,0,0,1 @ F,0,0,1,0,0,0,1 | F,0,0,1,0,0,0,1 @ F,0,0,1,0,0,0,1 | F,0,0,1,0,0,0,1 @ F,0,0,1,0,0,0,1 | F,0,0,1,0,0,0,1 @ F,0,0,1,0,0,0,1 | F,0,0,1,0,0,0,1 @ F,0,0,1,0,0,0,1 | F,0,0,1,0,0,0,1 @ F,0,0,1,0,0,0,1 | F,0,0,1,0,0,0,1 @ F,0,0,1,0,0,0,1 | F,0,0,1,0,0,0,1 @ F,0,0,1,0,0,0,1 | F,0,0,1,0,0,0,1 @ F,0,0,1,0,0,0,1 | F,0,0,1,0,0,0,1 @ F,0,0,1,0,0,0,1 | F,0,0,1,0,0,0,1 @ F,0,0,1,0,0,0,1 | F,0,0,1,0,0,0,1 @ F,0,0,1,0,0,0,1 | F,0,0,1,0,0,0,1 @ F,0,0,1,0,0,0,1 | F,0,0,1,0,0,0,1 @ F,0,0,1,0,0,0,1 | F,0,0,1,0,0,0,1 @ F,0,0,1,0,0,0,1 | F,0,0,1,0,0,0,1 @ F,0,0,1,0,0,0,1 @ F,0,0,1,0,0,0,1 | F,0,0,1,0,0,0,1 @ F,0,0,1,0,0,0,1 | F,0,0,1,0,0,0,1 @ F,0,0,1,0,0,0,1 | F,0,0,1,0,0,0,1 @ F,0,0,1,0,0,0,1 | F,0,0,1,0,0,0,1 @ F,0,0,1,0,0,0,1"
       lpeversion="1"
       is_visible="true"
       id="path-effect427"
       effect="fillet_chamfer" />
    <inkscape:path-effect
       hide_knots="false"
       only_selected="true"
       apply_with_radius="true"
       apply_no_radius="true"
       use_knot_distance="true"
       flexible="false"
       chamfer_steps="1"
       radius="12"
       mode="F"
       method="auto"
       unit="px"
       satellites_param="F,0,0,1,0,0,0,1 @ F,0,0,1,0,3.175,0,1 @ F,0,0,1,0,3.175,0,1 @ F,0,0,1,0,3.175,0,1 @ F,0,0,1,0,3.175,0,1 @ F,0,0,1,0,3.175,0,1 | F,0,0,1,0,0,0,1 @ F,0,0,1,0,3.175,0,1 | F,0,0,1,0,0,0,1 @ F,0,0,1,0,3.175,0,1 | F,0,0,1,0,0,0,1 @ F,0,0,1,0,3.175,0,1 @ F,0,0,1,0,3.175,0,1 @ F,0,0,1,0,3.175,0,1 | F,0,0,1,0,0,0,1 @ F,0,0,1,0,3.175,0,1 @ F,0,0,1,0,3.175,0,1 @ F,0,0,1,0,3.175,0,1 | F,0,0,1,0,0,0,1 @ F,0,0,1,0,3.175,0,1 @ F,0,0,1,0,3.175,0,1 @ F,0,0,1,0,3.175,0,1 | F,0,0,1,0,0,0,1 @ F,0,0,1,0,3.175,0,1 @ F,0,0,1,0,3.175,0,1 @ F,0,0,1,0,3.175,0,1 | F,0,0,1,0,0,0,1 @ F,0,0,1,0,3.175,0,1 @ F,0,0,1,0,3.175,0,1 @ F,0,0,1,0,3.175,0,1 @ F,0,0,1,0,3.175,0,1 @ F,0,0,1,0,3.175,0,1 | F,0,0,1,0,0,0,1 @ F,0,0,1,0,3.175,0,1 | F,0,0,1,0,0,0,1 @ F,0,0,1,0,3.175,0,1"
       lpeversion="1"
       is_visible="true"
       id="path-effect46"
       effect="fillet_chamfer" />
    <inkscape:path-effect
       hide_knots="false"
       only_selected="true"
       apply_with_radius="true"
       apply_no_radius="true"
       use_knot_distance="true"
       flexible="false"
       chamfer_steps="1"
       radius="12"
       mode="F"
       method="auto"
       unit="px"
       satellites_param="F,0,0,1,0,0,0,1 @ F,0,0,1,0,0,0,1 @ F,0,0,1,0,0,0,1 @ F,0,0,1,0,0,0,1 @ F,0,0,1,0,0,0,1 @ F,0,0,1,0,0,0,1 | F,0,0,1,0,0,0,1 @ F,0,0,1,0,0,0,1 | F,0,0,1,0,0,0,1 @ F,0,0,1,0,0,0,1 | F,0,0,1,0,0,0,1 @ F,0,0,1,0,0,0,1 @ F,0,0,1,0,0,0,1 @ F,0,0,1,0,0,0,1 | F,0,0,1,0,0,0,1 @ F,0,0,1,0,0,0,1 @ F,0,0,1,0,0,0,1 @ F,0,0,1,0,0,0,1 | F,0,0,1,0,0,0,1 @ F,0,0,1,0,0,0,1 @ F,0,0,1,0,0,0,1 @ F,0,0,1,0,0,0,1 | F,0,0,1,0,0,0,1 @ F,0,0,1,0,0,0,1 @ F,0,0,1,0,0,0,1 @ F,0,0,1,0,0,0,1 | F,0,0,1,0,0,0,1 @ F,0,0,1,0,0,0,1 @ F,0,0,1,0,0,0,1 @ F,0,0,1,0,0,0,1 @ F,0,0,1,0,0,0,1 @ F,0,0,1,0,0,0,1 | F,0,0,1,0,0,0,1 @ F,0,0,1,0,0,0,1 | F,0,0,1,0,0,0,1 @ F,0,0,1,0,0,0,1"
       lpeversion="1"
       is_visible="true"
       id="path-effect44"
       effect="fillet_chamfer" />
  </defs>
  <sodipodi:namedview
     id="base"
     pagecolor="#ffffff"
     bordercolor="#666666"
     borderopacity="1.0"
     inkscape:pageopacity="0.0"
     inkscape:pageshadow="2"
     inkscape:zoom="0.98994949"
     inkscape:cx="394.50046"
     inkscape:cy="572.34345"
     inkscape:document-units="mm"
     inkscape:current-layer="layer1"
     inkscape:document-rotation="0"
     showgrid="false"
     showguides="true"
     inkscape:snap-object-midpoints="false"
     units="in"
     inkscape:window-width="1920"
     inkscape:window-height="1057"
     inkscape:window-x="-8"
     inkscape:window-y="-8"
     inkscape:window-maximized="1" />
  <metadata
     id="metadata5">
    <rdf:RDF>
      <cc:Work
         rdf:about="">
        <dc:format>image/svg+xml</dc:format>
        <dc:type
           rdf:resource="http://purl.org/dc/dcmitype/StillImage" />
        <dc:title></dc:title>
      </cc:Work>
    </rdf:RDF>
  </metadata>
  <g
     style="display:none"
     inkscape:groupmode="layer"
     id="layer3"
     inkscape:label="Layer 3">
    <path
       inkscape:original-d="M 43.808337,0.20252308 22.98518,0.37837318 22.91836,286.04499 l 20.831658,0.0335 c 7.239473,0.006 7.346765,-16.22016 17.335159,-16.27397 10.14778,0 10.194826,16.33165 17.097683,16.2948 m 41.8703,-285.96696682 -20.913503,0.20793 m 97.114193,-0.09967 -20.86936,0.0295 m -76.244831,0.07017 -20.89847,-0.11693 c -7.23948,-0.006 -7.34677,16.22015882 -17.33516,16.27396882 -10.14778,0 -10.19483,-16.33164882 -17.09769,-16.29479882 m 131.576151,0.06759 -20.89848,-0.11693 c -7.23948,-0.006 -6.70427,16.21668882 -17.33517,16.27396882 -10.57015,0 -10.19482,-16.33164882 -17.09768,-16.29479882 M 175.29704,285.9997 l 20.89847,0.11693 c 7.23948,0.006 7.25228,-16.22016 17.24067,-16.27397 10.14778,0 9.67511,15.95367 17.19218,16.2948 m -131.576139,-0.0676 20.898479,0.11693 c 7.23947,0.006 6.70426,-16.21669 17.33516,-16.27397 10.57015,0 10.19482,16.33165 17.09768,16.2948 m 76.24482,-0.0702 20.95681,-0.009 V 0.37837318 l -20.89848,-0.11693 c -7.23947,-0.006 -7.34677,16.22015882 -17.33516,16.27396882 -10.14778,0 -10.19482,-16.33164882 -17.09768,-16.29479882 M 154.38354,286.20766 l 20.9135,-0.20791 m -97.114179,0.0997 20.869359,-0.0295"
       inkscape:path-effect="#path-effect46"
       sodipodi:nodetypes="cccccccccccccccccccccccccccccccccccc"
       d="m 43.808337,0.20252308 -17.64827,0.1490384 A 3.2026749,3.2026749 134.76478 0 0 22.984437,3.5533731 L 22.919103,282.86999 a 3.1793661,3.1793661 45.05277 0 0 3.174253,3.18011 l 14.481666,0.0233 c 1.753502,0.003 4.751369,0.0106 6.103568,-1.05148 3.956695,-3.10785 5.533909,-12.15362 11.313602,-14.60091 1.603946,-0.67916 4.579746,-0.68817 6.192634,-0.0291 7.147805,2.92086 7.881473,15.74006 13.998034,15.70741 m 41.8703,-285.96696682 -20.913503,0.20793 m 97.114193,-0.09967 -20.86936,0.0295 m -76.244831,0.07017 -17.72352,-0.0991657 C 79.662663,0.23130653 76.664816,0.2178322 75.312616,1.2799399 71.355917,4.3877939 69.778704,13.433561 63.999013,15.88085 62.395069,16.560007 59.419268,16.569019 57.80638,15.909932 50.658575,12.989069 49.924902,0.16987072 43.808339,0.20252318 m 131.576151,0.06759 -17.72353,-0.0991657 c -1.75348,-0.009811 -4.76207,-0.026528 -6.09126,1.06075262 -3.85706,3.1550648 -5.13802,12.2922939 -11.31031,14.6403189 -1.63001,0.620077 -4.58837,0.628147 -6.21808,0.0079 C 126.57538,13.038665 126.19823,0.09954854 120.05316,0.13235318 M 175.29704,285.9997 l 17.72352,0.0992 c 1.75348,0.01 4.75303,0.0239 6.10165,-1.04221 3.9347,-3.11048 5.46041,-12.1479 11.22139,-14.59622 1.60298,-0.68123 4.57992,-0.69368 6.19333,-0.0358 7.04371,2.87233 7.43656,15.41078 14.09143,15.71278 m -131.576139,-0.0676 17.723529,0.0992 c 1.75348,0.01 4.76207,0.0265 6.09126,-1.06076 3.85705,-3.15507 5.13802,-12.29229 11.3103,-14.64032 1.63001,-0.62007 4.58837,-0.62814 6.21808,-0.008 7.46593,2.84129 7.84308,15.7804 13.98815,15.7476 m 76.24482,-0.0702 17.78181,-0.008 a 3.1763638,3.1763638 134.9877 0 0 3.175,-3.17636 V 3.5533732 a 3.1928143,3.1928143 45.160287 0 0 -3.17495,-3.19276432 l -14.54858,-0.0814014 c -1.75348,-0.009811 -4.75132,-0.0232845 -6.10352,1.03882432 -3.9567,3.1078558 -5.53391,12.1536202 -11.31361,14.6009082 -1.60394,0.679157 -4.57974,0.688169 -6.19263,0.02908 -7.1478,-2.920863 -7.88147,-15.74006128 -13.99803,-15.70740882 M 154.38354,286.20766 l 20.9135,-0.20791 m -97.114179,0.0997 20.869359,-0.0295"
       style="fill:none;stroke:#000000;stroke-width:0.264583px;stroke-linecap:butt;stroke-linejoin:miter;stroke-opacity:1"
       id="path109" />
  </g>
  <g
     inkscape:label="Layer 4"
     id="layer1"
     inkscape:groupmode="layer">
    <path
       inkscape:original-d="m 29.330806,247.65001 c -0.0521,3.55873 -2.97806,4.98456 -6.40906,4.98456 M 29.32307,38.1 c -0.0521,-3.55873 -2.97806,-4.98456 -6.40906,-4.98456 M 245.18006,38.1 c 0.0521,-3.55873 2.97806,-4.98456 6.40906,-4.98456 M 92.823071,38.099999 c 0.06934,-8.664889 12.562959,-8.665485 12.562959,-0.06076 m -12.562959,0.06076 V 76.138407 M 168.98005,38.1 c -0.16452,-8.63148 12.7,-8.60473 12.7,0 m -76.28927,209.46039 c 0.16452,8.63148 -12.7,8.60473 -12.7,0 m 12.7,-38.03841 63.58927,0.0896 m 0,2e-5 v 38.03841 m -63.58927,-38.12803 v 38.03841 m 76.28927,0.0896 c 0.16452,8.63148 -12.7,8.60473 -12.7,0 M 105.38603,76.077652 h 63.60023 M 105.38603,38.039244 V 76.077652 M 168.98005,38.1 V 76.138408 M 92.69078,209.52198 v 38.03841 m 88.98927,-37.94879 v 38.03841 m 0,-209.55001 v 38.038408 m 0,133.473192 h 63.50001 m 0,0 v 38.03841 M 181.68005,76.138408 h 63.50001 m 0,-38.038408 v 38.038408 m -215.856989,-10e-7 h 63.5 M 29.330806,247.65001 V 209.52198 H 92.69078 M 29.323071,38.1 V 76.138407 M 245.18006,247.65001 c 0.0521,3.55873 2.97806,4.98456 6.40906,4.98456 m 0,-219.51913 4e-5,219.51913 M 22.91401,33.11544 l 0.0077,219.51913"
       inkscape:path-effect="#path-effect427"
       d="m 29.330806,247.65001 c -0.0521,3.55873 -2.97806,4.98456 -6.40906,4.98456 M 29.32307,38.1 c -0.0521,-3.55873 -2.97806,-4.98456 -6.40906,-4.98456 M 245.18006,38.1 c 0.0521,-3.55873 2.97806,-4.98456 6.40906,-4.98456 M 92.823071,38.099999 c 0.06934,-8.664889 12.562959,-8.665485 12.562959,-0.06076 m -12.562959,0.06076 V 76.138407 M 168.98005,38.1 c -0.16452,-8.63148 12.7,-8.60473 12.7,0 m -76.28927,209.46039 c 0.16452,8.63148 -12.7,8.60473 -12.7,0 m 12.7,-38.03841 63.58927,0.0896 m 0,2e-5 v 38.03841 m -63.58927,-38.12803 v 38.03841 m 76.28927,0.0896 c 0.16452,8.63148 -12.7,8.60473 -12.7,0 M 105.38603,76.077652 h 63.60023 M 105.38603,38.039244 V 76.077652 M 168.98005,38.1 V 76.138408 M 92.69078,209.52198 v 38.03841 m 88.98927,-37.94879 v 38.03841 m 0,-209.55001 v 38.038408 m 0,133.473192 h 63.50001 m 0,0 v 38.03841 M 181.68005,76.138408 h 63.50001 m 0,-38.038408 v 38.038408 m -215.856989,-10e-7 h 63.5 M 29.330806,247.65001 V 209.52198 H 92.69078 M 29.323071,38.1 V 76.138407 M 245.18006,247.65001 c 0.0521,3.55873 2.97806,4.98456 6.40906,4.98456 m 0,-219.51913 4e-5,219.51913 M 22.91401,33.11544 l 0.0077,219.51913"
       style="fill:none;stroke:#000000;stroke-width:0.216893px;stroke-linecap:butt;stroke-linejoin:miter;stroke-opacity:1"
       id="path66-3-1-4-1-2" />
    <path
       id="path119-3-0"
       d="m 305.40476,75.595238 h 63.50001"
       style="fill:none;stroke:#000000;stroke-width:0.241691px;stroke-linecap:butt;stroke-linejoin:miter;stroke-opacity:1" />
    <path
       id="path115-1-1"
       d="M 314.47619,36.800878 V 74.839286"
       style="fill:none;stroke:#000000;stroke-width:0.264583px;stroke-linecap:butt;stroke-linejoin:miter;stroke-opacity:1" />
    <path
       sodipodi:nodetypes="cc"
       id="path66-3-1-4-17"
       d="m 324.55505,46.390948 c 0.0521,-3.55873 2.97806,-4.98456 6.40906,-4.98456"
       style="fill:none;stroke:#000000;stroke-width:0.216893px;stroke-linecap:butt;stroke-linejoin:miter;stroke-opacity:1" />
  </g>
</svg>
