<?xml version="1.0" encoding="UTF-8" standalone="no"?>
<svg
   xmlns:dc="http://purl.org/dc/elements/1.1/"
   xmlns:cc="http://creativecommons.org/ns#"
   xmlns:rdf="http://www.w3.org/1999/02/22-rdf-syntax-ns#"
   xmlns:svg="http://www.w3.org/2000/svg"
   xmlns="http://www.w3.org/2000/svg"
   xmlns:sodipodi="http://sodipodi.sourceforge.net/DTD/sodipodi-0.dtd"
   xmlns:inkscape="http://www.inkscape.org/namespaces/inkscape"
   sodipodi:docname="LAzySusanTheSequal.svg"
   inkscape:version="1.0 (4035a4fb49, 2020-05-01)"
   id="svg8"
   version="1.1"
   viewBox="0 0 406.4 304.80001"
   height="12in"
   width="16in">
  <defs
     id="defs2">
    <inkscape:path-effect
       effect="fillet_chamfer"
       id="path-effect248"
       is_visible="true"
       lpeversion="1"
       satellites_param="F,0,1,1,0,3.175,0,1 @ F,0,0,1,0,0,0,1 @ F,0,0,1,0,0,0,1 @ F,0,1,1,0,3.175,0,1 @ F,0,0,1,0,0,0,1 @ F,0,0,1,0,0,0,1 @ F,0,0,1,0,0,0,1 @ F,0,0,1,0,0,0,1 @ F,0,0,1,0,0,0,1 @ F,0,0,1,0,0,0,1 @ F,0,0,1,0,0,0,1 @ F,0,0,1,0,0,0,1 @ F,0,0,1,0,0,0,1 @ F,0,0,1,0,0,0,1 @ F,0,0,1,0,0,0,1 @ F,0,0,1,0,0,0,1 @ F,0,0,1,0,0,0,1 @ F,0,0,1,0,0,0,1 @ F,0,0,1,0,0,0,1 @ F,0,0,1,0,0,0,1 @ F,0,0,1,0,0,0,1 @ F,0,0,1,0,0,0,1 @ F,0,0,1,0,0,0,1 @ F,0,0,1,0,0,0,1 @ F,0,0,1,0,0,0,1 @ F,0,0,1,0,0,0,1 @ F,0,0,1,0,0,0,1 @ F,0,0,1,0,0,0,1"
       unit="px"
       method="auto"
       mode="F"
       radius="12"
       chamfer_steps="1"
       flexible="false"
       use_knot_distance="true"
       apply_no_radius="true"
       apply_with_radius="true"
       only_selected="true"
       hide_knots="false" />
    <inkscape:path-effect
       effect="fillet_chamfer"
       id="path-effect246"
       is_visible="true"
       lpeversion="1"
       satellites_param="F,0,0,1,0,0,0,1 @ F,0,0,1,0,0,0,1 @ F,0,0,1,0,0,0,1 @ F,0,0,1,0,0,0,1 @ F,0,0,1,0,0,0,1 @ F,0,0,1,0,0,0,1 @ F,0,0,1,0,0,0,1 @ F,0,0,1,0,0,0,1 @ F,0,0,1,0,0,0,1 @ F,0,0,1,0,0,0,1 @ F,0,1,1,0,3.175,0,1 @ F,0,1,1,0,3.175,0,1 @ F,0,0,1,0,0,0,1 @ F,0,0,1,0,0,0,1 @ F,0,0,1,0,0,0,1 @ F,0,0,1,0,0,0,1 @ F,0,1,1,0,3.175,0,1 @ F,0,1,1,0,3.175,0,1 @ F,0,0,1,0,0,0,1 @ F,0,0,1,0,0,0,1 @ F,0,0,1,0,0,0,1 @ F,0,0,1,0,0,0,1 @ F,0,0,1,0,0,0,1 @ F,0,0,1,0,0,0,1"
       unit="px"
       method="auto"
       mode="F"
       radius="12"
       chamfer_steps="1"
       flexible="false"
       use_knot_distance="true"
       apply_no_radius="true"
       apply_with_radius="true"
       only_selected="true"
       hide_knots="false" />
    <inkscape:path-effect
       effect="fillet_chamfer"
       id="path-effect244"
       is_visible="true"
       lpeversion="1"
       satellites_param="F,0,0,1,0,0,0,1 @ F,0,0,1,0,0,0,1 @ F,0,0,1,0,0,0,1 @ F,0,0,1,0,0,0,1 @ F,0,0,1,0,0,0,1 @ F,0,0,1,0,0,0,1 @ F,0,0,1,0,3.175,0,1 @ F,0,0,1,0,3.175,0,1 @ F,0,1,1,0,0,0,1 @ F,0,1,1,0,0,0,1 @ F,0,0,1,0,0,0,1 @ F,0,0,1,0,0,0,1 @ F,0,0,1,0,0,0,1 @ F,0,0,1,0,0,0,1 @ F,0,1,1,0,0,0,1 @ F,0,1,1,0,0,0,1 @ F,0,0,1,0,3.175,0,1 @ F,0,0,1,0,3.175,0,1 @ F,0,0,1,0,0,0,1 @ F,0,0,1,0,0,0,1"
       unit="px"
       method="auto"
       mode="F"
       radius="12"
       chamfer_steps="1"
       flexible="false"
       use_knot_distance="true"
       apply_no_radius="true"
       apply_with_radius="true"
       only_selected="true"
       hide_knots="false" />
    <inkscape:path-effect
       effect="fillet_chamfer"
       id="path-effect166"
       is_visible="true"
       lpeversion="1"
       satellites_param="F,0,1,1,0,3.175,0,1 @ F,0,0,1,0,0,0,1 @ F,0,0,1,0,0,0,1 @ F,0,1,1,0,3.175,0,1 @ F,0,0,1,0,0,0,1 @ F,0,0,1,0,0,0,1 @ F,0,0,1,0,0,0,1 @ F,0,0,1,0,0,0,1 @ F,0,0,1,0,0,0,1 @ F,0,0,1,0,0,0,1 @ F,0,0,1,0,0,0,1 @ F,0,0,1,0,0,0,1 @ F,0,0,1,0,0,0,1 @ F,0,0,1,0,0,0,1 @ F,0,0,1,0,0,0,1 @ F,0,0,1,0,0,0,1 @ F,0,0,1,0,0,0,1 @ F,0,0,1,0,0,0,1 @ F,0,0,1,0,0,0,1 @ F,0,0,1,0,0,0,1 @ F,0,0,1,0,0,0,1 @ F,0,0,1,0,0,0,1 @ F,0,0,1,0,0,0,1 @ F,0,0,1,0,0,0,1 @ F,0,0,1,0,0,0,1 @ F,0,0,1,0,0,0,1 @ F,0,0,1,0,0,0,1 @ F,0,0,1,0,0,0,1"
       unit="px"
       method="auto"
       mode="F"
       radius="12"
       chamfer_steps="1"
       flexible="false"
       use_knot_distance="true"
       apply_no_radius="true"
       apply_with_radius="true"
       only_selected="true"
       hide_knots="false" />
    <inkscape:path-effect
       effect="fillet_chamfer"
       id="path-effect164"
       is_visible="true"
       lpeversion="1"
       satellites_param="F,0,0,1,0,0,0,1 @ F,0,0,1,0,0,0,1 @ F,0,0,1,0,0,0,1 @ F,0,0,1,0,0,0,1 @ F,0,0,1,0,0,0,1 @ F,0,0,1,0,0,0,1 @ F,0,0,1,0,0,0,1 @ F,0,0,1,0,0,0,1 @ F,0,0,1,0,0,0,1 @ F,0,0,1,0,0,0,1 @ F,0,1,1,0,3.175,0,1 @ F,0,1,1,0,3.175,0,1 @ F,0,0,1,0,0,0,1 @ F,0,0,1,0,0,0,1 @ F,0,0,1,0,0,0,1 @ F,0,0,1,0,0,0,1 @ F,0,1,1,0,3.175,0,1 @ F,0,1,1,0,3.175,0,1 @ F,0,0,1,0,0,0,1 @ F,0,0,1,0,0,0,1 @ F,0,0,1,0,0,0,1 @ F,0,0,1,0,0,0,1 @ F,0,0,1,0,0,0,1 @ F,0,0,1,0,0,0,1"
       unit="px"
       method="auto"
       mode="F"
       radius="12"
       chamfer_steps="1"
       flexible="false"
       use_knot_distance="true"
       apply_no_radius="true"
       apply_with_radius="true"
       only_selected="true"
       hide_knots="false" />
    <inkscape:path-effect
       effect="fillet_chamfer"
       id="path-effect162"
       is_visible="true"
       lpeversion="1"
       satellites_param="F,0,0,1,0,0,0,1 @ F,0,0,1,0,0,0,1 @ F,0,0,1,0,0,0,1 @ F,0,0,1,0,0,0,1 @ F,0,0,1,0,0,0,1 @ F,0,0,1,0,0,0,1 @ F,0,0,1,0,3.175,0,1 @ F,0,0,1,0,3.175,0,1 @ F,0,1,1,0,0,0,1 @ F,0,1,1,0,0,0,1 @ F,0,0,1,0,0,0,1 @ F,0,0,1,0,0,0,1 @ F,0,0,1,0,0,0,1 @ F,0,0,1,0,0,0,1 @ F,0,1,1,0,0,0,1 @ F,0,1,1,0,0,0,1 @ F,0,0,1,0,3.175,0,1 @ F,0,0,1,0,3.175,0,1 @ F,0,0,1,0,0,0,1 @ F,0,0,1,0,0,0,1"
       unit="px"
       method="auto"
       mode="F"
       radius="12"
       chamfer_steps="1"
       flexible="false"
       use_knot_distance="true"
       apply_no_radius="true"
       apply_with_radius="true"
       only_selected="true"
       hide_knots="false" />
    <inkscape:path-effect
       hide_knots="false"
       only_selected="true"
       apply_with_radius="true"
       apply_no_radius="true"
       use_knot_distance="true"
       flexible="false"
       chamfer_steps="1"
       radius="12"
       mode="F"
       method="auto"
       unit="px"
       satellites_param="F,0,1,1,0,3.175,0,1 @ F,0,0,1,0,0,0,1 @ F,0,0,1,0,0,0,1 @ F,0,1,1,0,3.175,0,1 @ F,0,0,1,0,0,0,1 @ F,0,0,1,0,0,0,1 @ F,0,0,1,0,0,0,1 @ F,0,0,1,0,0,0,1 @ F,0,0,1,0,0,0,1 @ F,0,0,1,0,0,0,1 @ F,0,0,1,0,0,0,1 @ F,0,0,1,0,0,0,1 @ F,0,0,1,0,0,0,1 @ F,0,0,1,0,0,0,1 @ F,0,0,1,0,0,0,1 @ F,0,0,1,0,0,0,1 @ F,0,0,1,0,0,0,1 @ F,0,0,1,0,0,0,1 @ F,0,0,1,0,0,0,1 @ F,0,0,1,0,0,0,1 @ F,0,0,1,0,0,0,1 @ F,0,0,1,0,0,0,1 @ F,0,0,1,0,0,0,1 @ F,0,0,1,0,0,0,1 @ F,0,0,1,0,0,0,1 @ F,0,0,1,0,0,0,1 @ F,0,0,1,0,0,0,1 @ F,0,0,1,0,0,0,1"
       lpeversion="1"
       is_visible="true"
       id="path-effect139"
       effect="fillet_chamfer" />
    <inkscape:path-effect
       hide_knots="false"
       only_selected="true"
       apply_with_radius="true"
       apply_no_radius="true"
       use_knot_distance="true"
       flexible="false"
       chamfer_steps="1"
       radius="12"
       mode="F"
       method="auto"
       unit="px"
       satellites_param="F,0,0,1,0,0,0,1 @ F,0,0,1,0,0,0,1 @ F,0,0,1,0,0,0,1 @ F,0,0,1,0,0,0,1 @ F,0,0,1,0,0,0,1 @ F,0,0,1,0,0,0,1 @ F,0,0,1,0,0,0,1 @ F,0,0,1,0,0,0,1 @ F,0,0,1,0,0,0,1 @ F,0,0,1,0,0,0,1 @ F,0,1,1,0,3.175,0,1 @ F,0,1,1,0,3.175,0,1 @ F,0,0,1,0,0,0,1 @ F,0,0,1,0,0,0,1 @ F,0,0,1,0,0,0,1 @ F,0,0,1,0,0,0,1 @ F,0,1,1,0,3.175,0,1 @ F,0,1,1,0,3.175,0,1 @ F,0,0,1,0,0,0,1 @ F,0,0,1,0,0,0,1 @ F,0,0,1,0,0,0,1 @ F,0,0,1,0,0,0,1 @ F,0,0,1,0,0,0,1 @ F,0,0,1,0,0,0,1"
       lpeversion="1"
       is_visible="true"
       id="path-effect137"
       effect="fillet_chamfer" />
    <inkscape:path-effect
       hide_knots="false"
       only_selected="true"
       apply_with_radius="true"
       apply_no_radius="true"
       use_knot_distance="true"
       flexible="false"
       chamfer_steps="1"
       radius="12"
       mode="F"
       method="auto"
       unit="px"
       satellites_param="F,0,0,1,0,0,0,1 @ F,0,0,1,0,0,0,1 @ F,0,0,1,0,0,0,1 @ F,0,0,1,0,0,0,1 @ F,0,0,1,0,0,0,1 @ F,0,0,1,0,0,0,1 @ F,0,0,1,0,3.175,0,1 @ F,0,0,1,0,3.175,0,1 @ F,0,1,1,0,0,0,1 @ F,0,1,1,0,0,0,1 @ F,0,0,1,0,0,0,1 @ F,0,0,1,0,0,0,1 @ F,0,0,1,0,0,0,1 @ F,0,0,1,0,0,0,1 @ F,0,1,1,0,0,0,1 @ F,0,1,1,0,0,0,1 @ F,0,0,1,0,3.175,0,1 @ F,0,0,1,0,3.175,0,1 @ F,0,0,1,0,0,0,1 @ F,0,0,1,0,0,0,1"
       lpeversion="1"
       is_visible="true"
       id="path-effect135"
       effect="fillet_chamfer" />
    <inkscape:path-effect
       hide_knots="false"
       only_selected="true"
       apply_with_radius="true"
       apply_no_radius="true"
       use_knot_distance="true"
       flexible="false"
       chamfer_steps="1"
       radius="12"
       mode="F"
       method="auto"
       unit="px"
       satellites_param="F,0,0,1,0,0,0,1 @ F,0,0,1,0,0,0,1 @ F,0,0,1,0,0,0,1 @ F,0,0,1,0,0,0,1 @ F,0,0,1,0,0,0,1 @ F,0,0,1,0,0,0,1 @ F,0,0,1,0,0,0,1 @ F,0,0,1,0,0,0,1 @ F,0,0,1,0,0,0,1 @ F,0,0,1,0,0,0,1 @ F,0,0,1,0,0,0,1 @ F,0,0,1,0,0,0,1 @ F,0,0,1,0,0,0,1 @ F,0,0,1,0,0,0,1 @ F,0,0,1,0,0,0,1 @ F,0,0,1,0,0,0,1 @ F,0,0,1,0,0,0,1 @ F,0,0,1,0,3.175,0,1 @ F,0,0,1,0,0,0,1 @ F,0,0,1,0,0,0,1"
       lpeversion="1"
       is_visible="true"
       id="path-effect133"
       effect="fillet_chamfer" />
    <inkscape:path-effect
       hide_knots="false"
       only_selected="true"
       apply_with_radius="true"
       apply_no_radius="true"
       use_knot_distance="true"
       flexible="false"
       chamfer_steps="1"
       radius="12"
       mode="F"
       method="auto"
       unit="px"
       satellites_param="F,0,0,1,0,0,0,1 @ F,0,0,1,0,0,0,1 @ F,0,0,1,0,0,0,1 @ F,0,0,1,0,0,0,1 @ F,0,0,1,0,0,0,1 @ F,0,0,1,0,0,0,1 @ F,0,0,1,0,0,0,1 @ F,0,0,1,0,0,0,1 @ F,0,0,1,0,0,0,1 @ F,0,0,1,0,0,0,1 @ F,0,0,1,0,0,0,1 @ F,0,0,1,0,0,0,1 @ F,0,0,1,0,0,0,1 @ F,0,0,1,0,0,0,1 @ F,0,0,1,0,0,0,1 @ F,0,0,1,0,0,0,1 @ F,0,0,1,0,0,0,1 @ F,0,0,1,0,0,0,1 @ F,0,0,1,0,0,0,1 @ F,0,0,1,0,0,0,1"
       lpeversion="1"
       is_visible="true"
       id="path-effect131"
       effect="fillet_chamfer" />
    <inkscape:path-effect
       hide_knots="false"
       only_selected="true"
       apply_with_radius="true"
       apply_no_radius="true"
       use_knot_distance="true"
       flexible="false"
       chamfer_steps="1"
       radius="12"
       mode="F"
       method="auto"
       unit="px"
       satellites_param="F,0,0,1,0,0,0,1 @ F,0,0,1,0,0,0,1 @ F,0,0,1,0,0,0,1 @ F,0,0,1,0,0,0,1 @ F,0,0,1,0,0,0,1 @ F,0,0,1,0,0,0,1 @ F,0,0,1,0,0,0,1 @ F,0,0,1,0,0,0,1 @ F,0,1,1,0,0,0,1 @ F,0,0,1,0,0,0,1 @ F,0,0,1,0,0,0,1 @ F,0,0,1,0,0,0,1 @ F,0,0,1,0,0,0,1 @ F,0,0,1,0,0,0,1 @ F,0,0,1,0,0,0,1 @ F,0,1,1,0,0,0,1 @ F,0,0,1,0,0,0,1 @ F,0,0,1,0,0,0,1 @ F,0,0,1,0,0,0,1 @ F,0,0,1,0,0,0,1"
       lpeversion="1"
       is_visible="true"
       id="path-effect129"
       effect="fillet_chamfer" />
    <inkscape:path-effect
       hide_knots="false"
       only_selected="true"
       apply_with_radius="true"
       apply_no_radius="true"
       use_knot_distance="true"
       flexible="false"
       chamfer_steps="1"
       radius="12"
       mode="F"
       method="auto"
       unit="px"
       satellites_param="F,0,0,1,0,0,0,1 @ F,0,0,1,0,0,0,1 @ F,0,0,1,0,0,0,1 @ F,0,0,1,0,0,0,1 @ F,0,0,1,0,0,0,1 @ F,0,0,1,0,0,0,1 @ F,0,0,1,0,0,0,1 @ F,0,0,1,0,0,0,1 @ F,0,0,1,0,0,0,1 @ F,0,0,1,0,0,0,1 @ F,0,0,1,0,0,0,1 @ F,0,0,1,0,0,0,1 @ F,0,0,1,0,0,0,1 @ F,0,0,1,0,0,0,1 @ F,0,0,1,0,0,0,1 @ F,0,0,1,0,0,0,1"
       lpeversion="1"
       is_visible="true"
       id="path-effect77"
       effect="fillet_chamfer" />
    <inkscape:path-effect
       hide_knots="false"
       only_selected="true"
       apply_with_radius="true"
       apply_no_radius="true"
       use_knot_distance="true"
       flexible="false"
       chamfer_steps="1"
       radius="12"
       mode="F"
       method="auto"
       unit="px"
       satellites_param="F,0,0,1,0,0,0,1 @ F,0,0,1,0,0,0,1 @ F,0,0,1,0,0,0,1 @ F,0,0,1,0,0,0,1 @ F,0,0,1,0,3.175,0,1 @ F,0,1,1,0,0,0,1 @ F,0,1,1,0,0,0,1 @ F,0,1,1,0,0,0,1 @ F,0,1,1,0,0,0,1 @ F,0,1,1,0,0,0,1 | F,0,1,1,0,0,0,1 @ F,0,1,1,0,0,0,1 @ F,0,0,1,0,0,0,1 @ F,0,0,1,0,0,0,1"
       lpeversion="1"
       is_visible="true"
       id="path-effect75"
       effect="fillet_chamfer" />
    <inkscape:path-effect
       hide_knots="false"
       only_selected="true"
       apply_with_radius="true"
       apply_no_radius="true"
       use_knot_distance="true"
       flexible="false"
       chamfer_steps="1"
       radius="12"
       mode="F"
       method="auto"
       unit="px"
       satellites_param="F,0,0,1,0,0,0,1 @ F,0,0,1,0,0,0,1 @ F,0,0,1,0,0,0,1 @ F,0,0,1,0,0,0,1 @ F,0,0,1,0,0,0,1 @ F,0,0,1,0,0,0,1 @ C,0,1,1,0,0,0,1 @ C,0,1,1,0,0,0,1 @ F,0,0,1,0,0,0,1 @ F,0,0,1,0,0,0,1 @ F,0,0,1,0,0,0,1 @ F,0,0,1,0,0,0,1 @ F,0,0,1,0,0,0,1 @ F,0,0,1,0,0,0,1 @ C,0,1,1,0,0,0,1 @ C,0,1,1,0,0,0,1"
       lpeversion="1"
       is_visible="true"
       id="path-effect73"
       effect="fillet_chamfer" />
    <inkscape:path-effect
       hide_knots="false"
       only_selected="true"
       apply_with_radius="true"
       apply_no_radius="true"
       use_knot_distance="true"
       flexible="false"
       chamfer_steps="1"
       radius="12"
       mode="F"
       method="auto"
       unit="px"
       satellites_param="F,0,0,1,0,0,0,1 @ F,0,0,1,0,0,0,1 @ F,0,0,1,0,0,0,1 @ F,0,0,1,0,0,0,1 @ F,0,0,1,0,0,0,1 @ F,0,0,1,0,0,0,1 @ C,0,0,1,0,0,0,1 @ C,0,0,1,0,0,0,1 @ F,0,0,1,0,0,0,1 @ F,0,0,1,0,0,0,1 @ F,0,0,1,0,0,0,1 @ F,0,0,1,0,0,0,1 @ F,0,0,1,0,0,0,1 @ F,0,0,1,0,0,0,1 @ C,0,0,1,0,0,0,1 @ C,0,0,1,0,0,0,1"
       lpeversion="1"
       is_visible="true"
       id="path-effect71"
       effect="fillet_chamfer" />
    <inkscape:path-effect
       hide_knots="false"
       only_selected="true"
       apply_with_radius="true"
       apply_no_radius="true"
       use_knot_distance="true"
       flexible="false"
       chamfer_steps="1"
       radius="12"
       mode="F"
       method="auto"
       unit="px"
       satellites_param="F,0,0,1,0,0,0,1 @ F,0,0,1,0,0,0,1 @ F,0,0,1,0,0,0,1 @ F,0,0,1,0,0,0,1 @ F,0,0,1,0,0,0,1 @ F,0,0,1,0,0,0,1 @ F,0,0,1,0,0,0,1 @ F,0,0,1,0,0,0,1 @ F,0,0,1,0,0,0,1 @ F,0,0,1,0,0,0,1 @ F,0,0,1,0,0,0,1 @ F,0,0,1,0,0,0,1 @ F,0,0,1,0,0,0,1 @ F,0,0,1,0,0,0,1 @ F,0,0,1,0,0,0,1 @ F,0,0,1,0,0,0,1"
       lpeversion="1"
       is_visible="true"
       id="path-effect69"
       effect="fillet_chamfer" />
    <inkscape:path-effect
       hide_knots="false"
       only_selected="false"
       apply_with_radius="true"
       apply_no_radius="true"
       use_knot_distance="true"
       flexible="false"
       chamfer_steps="1"
       radius="12"
       mode="F"
       method="auto"
       unit="px"
       satellites_param="F,0,0,1,0,0,0,1 @ F,0,0,1,0,0,0,1 | F,0,0,1,0,0,0,1 @ F,0,0,1,0,3.175,0,1 @ F,0,0,1,0,0,0,1 | F,0,0,1,0,0,0,1 @ F,0,0,1,0,0,0,1 | F,0,0,1,0,0,0,1 @ F,0,0,1,0,0,0,1 | F,0,0,1,0,0,0,1 @ F,0,0,1,0,3.175,0,1 @ F,0,0,1,0,0,0,1"
       lpeversion="1"
       is_visible="true"
       id="path-effect505"
       effect="fillet_chamfer" />
    <inkscape:path-effect
       effect="fillet_chamfer"
       id="path-effect486"
       is_visible="true"
       lpeversion="1"
       satellites_param="F,0,0,1,0,0,0,1 @ F,0,0,1,0,0,0,1 | F,0,0,1,0,0,0,1 @ F,0,0,1,0,0,0,1 | F,0,0,1,0,0,0,1 @ F,0,0,1,0,3.175,0,1 @ F,0,0,1,0,3.175,0,1 @ F,0,0,1,0,0,0,1 | C,0,1,1,0,0,0,1 @ F,0,0,1,0,0,0,1 | F,0,0,1,0,0,0,1 @ F,0,0,1,0,0,0,1 | F,0,0,1,0,0,0,1 @ C,0,1,1,0,0,0,1 | F,0,0,1,0,0,0,1 @ F,0,0,1,0,0,0,1 | F,0,0,1,0,0,0,1 @ F,0,0,1,0,3.175,0,1 @ F,0,0,1,0,3.175,0,1 @ F,0,0,1,0,0,0,1"
       unit="px"
       method="auto"
       mode="F"
       radius="12"
       chamfer_steps="1"
       flexible="false"
       use_knot_distance="false"
       apply_no_radius="false"
       apply_with_radius="true"
       only_selected="true"
       hide_knots="false" />
    <inkscape:path-effect
       effect="fillet_chamfer"
       id="path-effect478"
       is_visible="true"
       lpeversion="1"
       satellites_param="F,0,0,1,0,0,0,1 @ F,0,0,1,0,0,0,1 @ F,0,0,1,0,0,0,1 @ F,0,0,1,0,0,0,1 @ F,0,0,1,0,0,0,1 @ F,0,0,1,0,0,0,1 @ F,0,0,1,0,0,0,1 @ F,0,0,1,0,0,0,1 @ F,0,0,1,0,0,0,1 @ F,0,1,1,0,0,0,1 | F,0,0,1,0,0,0,1 @ F,0,0,1,0,0,0,1 @ F,0,0,1,0,0,0,1 @ F,0,0,1,0,0,0,1 @ F,0,0,1,0,0,0,1 @ F,0,0,1,0,0,0,1 @ F,0,0,1,0,0,0,1 @ F,0,0,1,0,0,0,1 @ F,0,0,1,0,0,0,1 @ F,0,0,1,0,0,0,1 @ F,0,0,1,0,0,0,1 @ F,0,0,1,0,0,0,1 @ F,0,0,1,0,0,0,1 @ F,0,0,1,0,0,0,1 @ F,0,0,1,0,0,0,1 @ F,0,1,1,0,0,0,1 @ F,0,1,1,0,0,0,1"
       unit="px"
       method="auto"
       mode="F"
       radius="0"
       chamfer_steps="1"
       flexible="false"
       use_knot_distance="true"
       apply_no_radius="true"
       apply_with_radius="true"
       only_selected="true"
       hide_knots="false" />
    <inkscape:path-effect
       effect="fillet_chamfer"
       id="path-effect474"
       is_visible="true"
       lpeversion="1"
       satellites_param="F,0,0,1,0,0,0,1 @ F,0,0,1,0,3.175,0,1 @ F,0,0,1,0,3.175,0,1 @ F,0,0,1,0,3.175,0,1 @ F,0,0,1,0,3.175,0,1 @ F,0,0,1,0,3.175,0,1 @ F,0,0,1,0,3.175,0,1 @ F,0,0,1,0,3.175,0,1 @ F,0,0,1,0,3.175,0,1 @ F,0,0,1,0,3.175,0,1 @ F,0,0,1,0,3.175,0,1 | F,0,0,1,0,0,0,1 @ F,0,0,1,0,3.175,0,1 @ F,0,0,1,0,3.175,0,1 @ F,0,0,1,0,3.175,0,1 @ F,0,0,1,0,3.175,0,1 @ F,0,0,1,0,3.175,0,1 @ F,0,0,1,0,3.175,0,1"
       unit="px"
       method="auto"
       mode="F"
       radius="12"
       chamfer_steps="1"
       flexible="false"
       use_knot_distance="true"
       apply_no_radius="true"
       apply_with_radius="true"
       only_selected="false"
       hide_knots="false" />
    <inkscape:path-effect
       effect="fillet_chamfer"
       id="path-effect471"
       is_visible="true"
       lpeversion="1"
       satellites_param="F,0,0,1,0,0,0,1 @ F,0,0,1,0,0,0,1 @ F,0,0,1,0,0,0,1 @ F,0,0,1,0,0,0,1 @ F,0,0,1,0,0,0,1 @ F,0,0,1,0,0,0,1 @ F,0,0,1,0,0,0,1 @ F,0,0,1,0,0,0,1 @ F,0,0,1,0,0,0,1 @ F,0,0,1,0,0,0,1 @ F,0,0,1,0,0,0,1 | F,0,0,1,0,0,0,1 @ F,0,0,1,0,0,0,1 @ F,0,0,1,0,0,0,1 @ F,0,0,1,0,0,0,1 @ F,0,0,1,0,0,0,1 @ F,0,0,1,0,0,0,1 @ F,0,0,1,0,0,0,1"
       unit="px"
       method="auto"
       mode="F"
       radius="12"
       chamfer_steps="1"
       flexible="false"
       use_knot_distance="true"
       apply_no_radius="true"
       apply_with_radius="true"
       only_selected="false"
       hide_knots="false" />
    <inkscape:path-effect
       hide_knots="false"
       only_selected="true"
       apply_with_radius="true"
       apply_no_radius="true"
       use_knot_distance="true"
       flexible="false"
       chamfer_steps="1"
       radius="12"
       mode="F"
       method="auto"
       unit="px"
       satellites_param="F,0,0,1,0,0,0,1 @ F,0,0,1,0,3.175,0,1 @ F,0,0,1,0,3.175,0,1 @ F,0,0,1,0,3.175,0,1 @ F,0,0,1,0,3.175,0,1 @ F,0,1,1,0,0,0,1 @ F,0,0,1,0,0,0,1 | F,0,0,1,0,0,0,1 @ F,0,0,1,0,3.175,0,1 @ F,0,0,1,0,3.175,0,1 @ F,0,0,1,0,0,0,1 @ F,0,0,1,0,0,0,1"
       lpeversion="1"
       is_visible="true"
       id="path-effect714"
       effect="fillet_chamfer" />
    <inkscape:path-effect
       effect="fillet_chamfer"
       id="path-effect427"
       is_visible="true"
       lpeversion="1"
       satellites_param="F,0,0,1,0,0,0,1 @ F,0,0,1,0,0,0,1 | F,0,0,1,0,0,0,1 @ F,0,0,1,0,0,0,1 | F,0,0,1,0,0,0,1 @ F,0,0,1,0,0,0,1 | F,0,0,1,0,0,0,1 @ F,0,0,1,0,0,0,1 | F,0,0,1,0,0,0,1 @ F,0,0,1,0,0,0,1 | F,0,0,1,0,0,0,1 @ F,0,0,1,0,0,0,1 | F,0,0,1,0,0,0,1 @ F,0,0,1,0,0,0,1 | F,0,0,1,0,0,0,1 @ F,0,0,1,0,0,0,1 | F,0,0,1,0,0,0,1 @ F,0,0,1,0,0,0,1 | F,0,0,1,0,0,0,1 @ F,0,0,1,0,0,0,1 | F,0,0,1,0,0,0,1 @ F,0,0,1,0,0,0,1 | F,0,0,1,0,0,0,1 @ F,0,0,1,0,0,0,1 | F,0,0,1,0,0,0,1 @ F,0,0,1,0,0,0,1 | F,0,0,1,0,0,0,1 @ F,0,0,1,0,0,0,1 | F,0,0,1,0,0,0,1 @ F,0,0,1,0,0,0,1 | F,0,0,1,0,0,0,1 @ F,0,0,1,0,0,0,1 | F,0,0,1,0,0,0,1 @ F,0,0,1,0,0,0,1 | F,0,0,1,0,0,0,1 @ F,0,0,1,0,0,0,1 | F,0,0,1,0,0,0,1 @ F,0,0,1,0,0,0,1 | F,0,0,1,0,0,0,1 @ F,0,0,1,0,0,0,1 @ C,0,0,1,0,0,0,1 | F,0,0,1,0,0,0,1 @ F,0,0,1,0,0,0,1 @ C,0,0,1,0,0,0,1"
       unit="px"
       method="auto"
       mode="C"
       radius="12"
       chamfer_steps="1"
       flexible="false"
       use_knot_distance="true"
       apply_no_radius="true"
       apply_with_radius="true"
       only_selected="false"
       hide_knots="false" />
    <inkscape:path-effect
       effect="fillet_chamfer"
       id="path-effect46"
       is_visible="true"
       lpeversion="1"
       satellites_param="F,0,0,1,0,0,0,1 @ F,0,0,1,0,3.175,0,1 @ F,0,0,1,0,3.175,0,1 @ F,0,0,1,0,3.175,0,1 @ F,0,0,1,0,3.175,0,1 @ F,0,0,1,0,0,0,1 | F,0,0,1,0,0,0,1 @ F,0,0,1,0,0,0,1 | F,0,0,1,0,0,0,1 @ F,0,0,1,0,0,0,1 | F,0,0,1,0,0,0,1 @ F,0,0,1,0,3.175,0,1 @ F,0,0,1,0,3.175,0,1 @ F,0,0,1,0,0,0,1 | F,0,0,1,0,0,0,1 @ F,0,0,1,0,3.175,0,1 @ F,0,0,1,0,3.175,0,1 @ F,0,0,1,0,0,0,1 | F,0,0,1,0,0,0,1 @ F,0,0,1,0,3.175,0,1 @ F,0,0,1,0,3.175,0,1 @ F,0,0,1,0,0,0,1 | F,0,0,1,0,0,0,1 @ F,0,0,1,0,3.175,0,1 @ F,0,0,1,0,3.175,0,1 @ F,0,0,1,0,0,0,1 | F,0,0,1,0,0,0,1 @ F,0,0,1,0,1.91806,0,1 @ F,0,0,1,0,2.0872204,0,1 @ F,0,0,1,0,3.175,0,1 @ F,0,0,1,0,3.175,0,1 @ F,0,0,1,0,0,0,1 | F,0,0,1,0,0,0,1 @ F,0,0,1,0,0,0,1 | F,0,0,1,0,0,0,1 @ F,0,0,1,0,0,0,1"
       unit="px"
       method="auto"
       mode="F"
       radius="12"
       chamfer_steps="1"
       flexible="false"
       use_knot_distance="true"
       apply_no_radius="true"
       apply_with_radius="true"
       only_selected="true"
       hide_knots="false" />
    <inkscape:path-effect
       effect="fillet_chamfer"
       id="path-effect44"
       is_visible="true"
       lpeversion="1"
       satellites_param="F,0,0,1,0,0,0,1 @ F,0,0,1,0,0,0,1 @ F,0,0,1,0,0,0,1 @ F,0,0,1,0,0,0,1 @ F,0,0,1,0,0,0,1 @ F,0,0,1,0,0,0,1 | F,0,0,1,0,0,0,1 @ F,0,0,1,0,0,0,1 | F,0,0,1,0,0,0,1 @ F,0,0,1,0,0,0,1 | F,0,0,1,0,0,0,1 @ F,0,0,1,0,0,0,1 @ F,0,0,1,0,0,0,1 @ F,0,0,1,0,0,0,1 | F,0,0,1,0,0,0,1 @ F,0,0,1,0,0,0,1 @ F,0,0,1,0,0,0,1 @ F,0,0,1,0,0,0,1 | F,0,0,1,0,0,0,1 @ F,0,0,1,0,0,0,1 @ F,0,0,1,0,0,0,1 @ F,0,0,1,0,0,0,1 | F,0,0,1,0,0,0,1 @ F,0,0,1,0,0,0,1 @ F,0,0,1,0,0,0,1 @ F,0,0,1,0,0,0,1 | F,0,0,1,0,0,0,1 @ F,0,0,1,0,0,0,1 @ F,0,0,1,0,0,0,1 @ F,0,0,1,0,0,0,1 @ F,0,0,1,0,0,0,1 @ F,0,0,1,0,0,0,1 | F,0,0,1,0,0,0,1 @ F,0,0,1,0,0,0,1 | F,0,0,1,0,0,0,1 @ F,0,0,1,0,0,0,1"
       unit="px"
       method="auto"
       mode="F"
       radius="12"
       chamfer_steps="1"
       flexible="false"
       use_knot_distance="true"
       apply_no_radius="true"
       apply_with_radius="true"
       only_selected="true"
       hide_knots="false" />
    <filter
       inkscape:collect="always"
       style="color-interpolation-filters:sRGB"
       id="filter587"
       x="-9.8588328e-07"
       width="0.99495608"
       y="-1.5329246e-06"
       height="1.0002675">
      <feGaussianBlur
         inkscape:collect="always"
         stdDeviation="0.00014212771"
         id="feGaussianBlur589" />
    </filter>
  </defs>
  <sodipodi:namedview
     inkscape:window-maximized="1"
     inkscape:window-y="-8"
     inkscape:window-x="-8"
     inkscape:window-height="1057"
     inkscape:window-width="1920"
     units="in"
     inkscape:snap-object-midpoints="false"
     showguides="true"
     showgrid="false"
     inkscape:document-rotation="0"
     inkscape:current-layer="layer3"
     inkscape:document-units="mm"
     inkscape:cy="908.64848"
     inkscape:cx="1540.2197"
     inkscape:zoom="0.98994949"
     inkscape:pageshadow="2"
     inkscape:pageopacity="0.0"
     borderopacity="1.0"
     bordercolor="#666666"
     pagecolor="#ffffff"
     id="base" />
  <metadata
     id="metadata5">
    <rdf:RDF>
      <cc:Work
         rdf:about="">
        <dc:format>image/svg+xml</dc:format>
        <dc:type
           rdf:resource="http://purl.org/dc/dcmitype/StillImage" />
        <dc:title></dc:title>
      </cc:Work>
    </rdf:RDF>
  </metadata>
  <g
     inkscape:label="Layer 3"
     id="layer3"
     inkscape:groupmode="layer"
     style="display:inline">
    <path
       id="path109"
       style="fill:none;stroke:#000000;stroke-width:0.264583px;stroke-linecap:butt;stroke-linejoin:miter;stroke-opacity:1"
       d="m 43.808337,0.20252308 -17.64827,0.1490384 A 3.2026749,3.2026749 134.76478 0 0 22.984437,3.5533731 L 22.919103,282.86999 a 3.1793661,3.1793661 45.05277 0 0 3.174253,3.18011 l 14.481666,0.0233 c 1.753502,0.003 4.751369,0.0106 6.103568,-1.05148 3.956695,-3.10785 5.533909,-12.15362 11.313602,-14.60091 1.603946,-0.67916 4.579746,-0.68817 6.192634,-0.0291 7.147805,2.92086 7.881473,15.74006 13.998034,15.70741 m 41.8703,-285.96696682 -20.913503,0.20793 m 97.114193,-0.09967 -20.86936,0.0295 m -76.244831,0.07017 -17.72352,-0.0991657 C 79.662663,0.23130653 76.664816,0.2178322 75.312616,1.2799399 71.355917,4.3877939 69.778704,13.433561 63.999013,15.88085 62.395069,16.560007 59.419268,16.569019 57.80638,15.909932 50.658575,12.989069 49.924902,0.16987072 43.808339,0.20252318 m 131.576151,0.06759 -17.72353,-0.0991657 c -1.75348,-0.009811 -4.76207,-0.026528 -6.09126,1.06075262 -3.85706,3.1550648 -5.13802,12.2922939 -11.31031,14.6403189 -1.63001,0.620077 -4.58837,0.628147 -6.21808,0.0079 C 126.57538,13.038665 126.19823,0.09954854 120.05316,0.13235318 M 175.29704,285.9997 l 17.72352,0.0992 c 1.75348,0.01 4.75303,0.0239 6.10165,-1.04221 3.9347,-3.11048 5.46041,-12.1479 11.22139,-14.59622 1.60298,-0.68123 4.57992,-0.69368 6.19333,-0.0358 7.04371,2.87233 7.43656,15.41078 14.09143,15.71278 m -131.576139,-0.0676 17.723529,0.0992 c 1.75348,0.01 4.76207,0.0265 6.09126,-1.06076 3.85705,-3.15507 5.13802,-12.29229 11.3103,-14.64032 1.63001,-0.62007 4.58837,-0.62814 6.21808,-0.008 7.46593,2.84129 7.84308,15.7804 13.98815,15.7476 m 76.24482,-0.0702 19.03875,-0.008 a 1.9188839,1.9188839 134.9877 0 0 1.91806,-1.91888 V 2.4655936 a 2.0989314,2.0989314 45.160287 0 0 -2.08719,-2.09889854 l -15.63634,-0.0874876 c -1.75348,-0.009811 -4.75132,-0.0232845 -6.10352,1.03882432 -3.9567,3.1078558 -5.53391,12.1536202 -11.31361,14.6009082 -1.60394,0.679157 -4.57974,0.688169 -6.19263,0.02908 -7.1478,-2.920863 -7.88147,-15.74006128 -13.99803,-15.70740882 M 154.38354,286.20766 l 20.9135,-0.20791 m -97.114179,0.0997 20.869359,-0.0295"
       sodipodi:nodetypes="cccccccccccccccccccccccccccccccccccc"
       inkscape:path-effect="#path-effect46"
       inkscape:original-d="M 43.808337,0.20252308 22.98518,0.37837318 22.91836,286.04499 l 20.831658,0.0335 c 7.239473,0.006 7.346765,-16.22016 17.335159,-16.27397 10.14778,0 10.194826,16.33165 17.097683,16.2948 m 41.8703,-285.96696682 -20.913503,0.20793 m 97.114193,-0.09967 -20.86936,0.0295 m -76.244831,0.07017 -20.89847,-0.11693 c -7.23948,-0.006 -7.34677,16.22015882 -17.33516,16.27396882 -10.14778,0 -10.19483,-16.33164882 -17.09769,-16.29479882 m 131.576151,0.06759 -20.89848,-0.11693 c -7.23948,-0.006 -6.70427,16.21668882 -17.33517,16.27396882 -10.57015,0 -10.19482,-16.33164882 -17.09768,-16.29479882 M 175.29704,285.9997 l 20.89847,0.11693 c 7.23948,0.006 7.25228,-16.22016 17.24067,-16.27397 10.14778,0 9.67511,15.95367 17.19218,16.2948 m -131.576139,-0.0676 20.898479,0.11693 c 7.23947,0.006 6.70426,-16.21669 17.33516,-16.27397 10.57015,0 10.19482,16.33165 17.09768,16.2948 m 76.24482,-0.0702 20.95681,-0.009 V 0.37837318 l -20.89848,-0.11693 c -7.23947,-0.006 -7.34677,16.22015882 -17.33516,16.27396882 -10.14778,0 -10.19482,-16.33164882 -17.09768,-16.29479882 M 154.38354,286.20766 l 20.9135,-0.20791 m -97.114179,0.0997 20.869359,-0.0295" />
    <path
       id="path109-1"
       style="display:inline;fill:none;stroke:#000000;stroke-width:0.264583px;stroke-linecap:butt;stroke-linejoin:miter;stroke-opacity:1"
       d="m 273.76271,0.26172831 c 5.2664,-0.028114 6.54229,9.47126229 11.35761,13.97687269 1.27319,1.191302 4.01601,2.227838 5.75934,2.21774 1.72147,-0.01 4.43203,-1.075142 5.69366,-2.279011 2.8873,-2.755105 4.52779,-7.3161315 6.6155,-10.4565684 0.9665,-1.4538555 3.35112,-3.13076377 5.07419,-3.31336995 1.70771,-0.18097474 4.52896,-0.0979676 6.28245,-0.0893077 l 12.88552,0.0636371 c 1.16578,0.005757 1.66304,0.68044385 1.66303,1.63361245 l -0.002,282.3391565 M 273.76269,0.26172831 255.81665,0.38395495 c -3.01592,0 -2.8786,1.93877935 -2.8786,1.93877935 l -0.0638,279.9827957 c -4e-4,1.7535 0.0435,2.38477 1.4559,3.29705 0.83083,0.53662 3.13911,0.50901 4.89262,0.51183 l 8.13166,0.0131 c 1.75351,0.003 4.60429,0.0782 6.34583,-0.11765 1.68837,-0.18988 4.04479,-1.85689 5.01143,-3.31113 2.08762,-3.14065 3.72818,-7.70162 6.61567,-10.45643 1.26144,-1.20348 3.9898,-2.27434 5.73292,-2.27852 1.72166,-0.004 4.44635,1.02668 5.71956,2.21805 3.79194,3.54822 5.389,10.19314 8.46843,12.84332 1.2991,1.11801 4.3105,1.13341 6.064,1.13341 h 15.97601 c 1.43386,0 1.80373,-0.97613 1.80373,-1.80407"
       sodipodi:nodetypes="cssssssscccccssscssscssssc" />
    <path
       sodipodi:nodetypes="cssssccssssssccccccssscssscssccssscssssc"
       d="m 350.72765,0.28235242 c 5.2664,-0.0281 6.54229,9.57983808 11.35761,14.08544858 1.27319,1.19131 4.01601,2.22784 5.75934,2.21774 1.72147,-0.01 4.43203,-1.07514 5.69366,-2.27901 2.8873,-2.7551 4.52779,-7.4247085 6.6155,-10.5651486 0.9665,-1.45385 3.35112,-3.13075998 5.07419,-3.31335998 1.70771,-0.18098 41.74334,-0.1402695 41.74334,-0.1402695 5.2664,-0.02811 6.54229,9.47126258 11.3576,13.97687308 1.2732,1.191302 4.01602,2.227838 5.75935,2.21774 1.72147,-0.01 4.43203,-1.075142 5.69365,-2.279011 2.8873,-2.755105 4.5278,-7.3161315 6.61551,-10.4565681 0.9665,-1.453856 3.35112,-3.13076398 5.07419,-3.31336998 1.70771,-0.180975 4.52897,-0.099245 6.28245,-0.08931 l 11.23179,0.06364 c 1.16578,0.0058 1.66304,0.68044398 1.66303,1.63361298 l -0.002,282.3391701 M 350.72763,0.28233242 l -17.94604,0.12223 c -3.01592,0 -2.8786,2.04735818 -2.8786,2.04735818 l -0.0638,279.9828094 c -4e-4,1.7535 0.0435,2.38477 1.4559,3.29705 0.83083,0.5366 3.13911,0.509 4.89262,0.51181 l 8.13166,0.013 c 1.75351,0.003 4.60429,0.0782 6.34583,-0.11763 1.68837,-0.18989 4.04479,-1.8569 5.01143,-3.31113 2.08762,-3.14066 3.72818,-7.70162 6.61567,-10.45644 1.26144,-1.20348 3.9898,-2.27433 5.73292,-2.27851 1.72166,-0.004 4.44635,1.02666 5.71956,2.21806 3.79194,3.54822 5.389,10.19312 8.46843,12.84329 1.2991,1.11803 4.3105,1.13343 6.064,1.13343 l 32.2858,-0.0161 c 1.75351,0.003 4.60429,0.0782 6.34583,-0.11763 1.68837,-0.18989 4.04479,-1.97502 5.01143,-3.42925 2.08762,-3.14066 3.72818,-7.70162 6.61567,-10.45644 1.26144,-1.20348 3.9898,-2.27433 5.73292,-2.27851 1.72166,-0.004 4.44635,1.02666 5.71956,2.21806 3.79194,3.54822 5.389,10.19312 8.46843,12.84329 1.2991,1.11803 4.3105,1.21611 6.064,1.21611 h 14.32228 c 1.43386,0 1.80373,-1.05881 1.80373,-1.88675"
       style="display:inline;fill:none;stroke:#000000;stroke-width:0.264583px;stroke-linecap:butt;stroke-linejoin:miter;stroke-opacity:1"
       id="path109-1-6" />
  </g>
  <g
     inkscape:groupmode="layer"
     id="layer1"
     inkscape:label="Layer 4"
     style="display:inline;filter:url(#filter587)">
    <path
       sodipodi:nodetypes="cccssccccccccccccssccsscccccccsccccssccccccccccccssccssccccccccccccccccc"
       id="path482"
       style="fill:none;stroke:#000000;stroke-width:0.264583px;stroke-linecap:butt;stroke-linejoin:miter;stroke-opacity:1"
       d="m 251.58912,33.11544 4e-5,219.51913 M 120.46908,80.941642 c 1.18601,0 1.33444,0.74545 1.33444,1.375039 0,40.054109 31.67255,40.448369 31.67255,0.232241 0,-0.94225 0.43239,-1.60728 1.75279,-1.60728 M 79.50585,204.2913 l 13.538477,-0.061 v 74.90588 c 0,8.60473 14.282703,8.63148 14.118183,0 l 0.0893,-74.81626 11.97938,0.061 m -74.485119,-0.0896 -11.790397,-0.061 0.140046,74.9955 c 0,3.08655 -5.514551,4.98456 -10.173974,4.98456 M 79.50585,204.2913 c -1.18601,0 -1.334439,-0.74546 -1.334439,-1.37504 0,-40.05411 -31.67254,-40.44837 -31.67254,-0.23224 0,0.94224 -0.432391,1.60728 -1.7528,1.60728 m 109.244899,0.0896 c -1.18601,0 -1.33444,-0.74545 -1.33444,-1.37504 0,-40.05411 -31.67255,-40.44837 -31.67255,-0.23224 0,0.94225 -0.43239,1.60728 -1.75279,1.60728 m 108.77065,-2e-5 13.53846,-0.061 4e-5,74.90592 c 0.0521,3.55873 6.61782,4.98456 10.04882,4.98456 m -58.3471,-79.82948 -11.79039,-0.061 v 74.9059 c 0,8.63305 -14.11127,8.60471 -14.11127,-2e-5 l 4e-5,-74.90584 -13.34947,0.061 m 74.01087,-4e-5 c -1.18602,0 -1.33444,-0.74545 -1.33444,-1.37504 0,-40.0541 -31.67255,-40.44837 -31.67255,-0.23224 0,0.94225 -0.43239,1.60726 -1.75279,1.60726 m 1.61591,-123.439264 -13.34725,0.06101 V 7.4501537 c 0,-8.60473 -14.47524,-8.63148 -14.31072,0 V 81.002642 l -11.97114,-0.061 m 74.38889,-4.6e-5 11.84996,0.06101 V 8.4524144 c 0.057,-3.8947013 6.69041,-5.9868208 10.12141,-5.9868208 M 194.85797,80.941596 c 1.18601,0 1.33444,0.745457 1.33444,1.375045 0,40.054109 31.67255,40.448369 31.67255,0.232237 0,-0.942245 0.43239,-1.607282 1.75279,-1.607282 m -184.120903,0.03679 c 1.186009,0 1.334439,0.745456 1.334439,1.375045 0,40.054109 31.672542,40.448369 31.672542,0.232237 0,-0.942245 0.4324,-1.607282 1.752786,-1.607282 m -10e-7,-10e-7 12.746084,0.02422 V 7.4501526 c 0.06934,-8.664889 14.214153,-8.6654798 14.214153,-0.060755 M 32.98168,8.4895881 c 0,-3.6049428 -6.636669,-6.0239947 -10.067669,-6.0239947 m 228.675149,0.2672696 4e-5,281.477497 M 22.914011,2.4655936 22.92171,284.21036 M 32.98168,8.4895881 V 81.002645 l 12.515168,-0.0242 M 107.21685,7.3893977 V 80.94189 l 13.44126,-2.33e-4" />
  </g>
  <g
     inkscape:groupmode="layer"
     id="layer5"
     inkscape:label="Layer 7"
     style="display:inline">
    <path
       sodipodi:nodetypes="cccccccsccccssccccccccsccccssccccc"
       id="path467"
       style="fill:none;stroke:#000000;stroke-width:0.264583px;stroke-linecap:butt;stroke-linejoin:miter;stroke-opacity:1"
       d="m 252.89883,2.4509286 -0.0104,281.7446514 m 76.20092,0.104 0.0531,-282.6132704 m -56.27281,202.7672704 -9.84705,-0.061 m 0,0 v 74.21326 c 0,4.67985 -6.65063,5.58973 -10.13408,5.58973 m 54.74091,-79.742 15.79391,-0.061 m -15.79391,0.061 c -1.18601,0 -1.33444,-0.74546 -1.33444,-1.37505 0,-40.05411 -31.67255,-40.44837 -31.67255,-0.23224 0,0.94225 -0.43239,1.60729 -1.75279,1.60729 m 50.55369,75.12674 c 0.0521,3.55873 2.23506,4.71927 5.66606,4.71927 m -5.66606,-4.71927 2.7e-4,-75.18774 m -12.79405,-123.510924 12.79405,0.06099 m 0,0 V 7.2760426 c 0,-4.679852 2.23542,-5.589732 5.71887,-5.589732 m -53.27271,79.1953554 -12.84735,0.06099 m 12.84735,-0.06099 c 1.186,0 1.33443,0.745457 1.33443,1.375044 0,40.0541 31.67255,40.44836 31.67255,0.232238 0,-0.942245 0.4324,-1.607282 1.75279,-1.607282 M 263.02241,7.4354886 c -0.0521,-3.55873 -6.69258,-4.98456 -10.12358,-4.98456 m 10.12358,4.98456 1.8e-4,73.5071664" />
    <path
       sodipodi:nodetypes="cccccccccccssccccccccsccccssccccccsccccssccccccccccssccccc"
       d="M 480.63626,283.53598 480.68936,0.92268262 M 424.41655,204.42405 l -9.84705,-0.061 m 0,0.0305 v 75.80324 c 0,7.73235 -14.14201,7.69677 -14.14201,0 l 2.7e-4,-75.80323 m 58.74857,0.0305 15.79391,-0.061 m -15.79391,0.061 c -1.18602,0 -1.33444,-0.74546 -1.33444,-1.37505 0,-40.05411 -31.67255,-40.44837 -31.67255,-0.23224 0,0.94225 -0.43239,1.60729 -1.75279,1.60729 m 50.55369,74.39263 c 0.0521,3.55875 2.23506,4.7193 5.66606,4.7193 m -5.66606,-4.7193 2.6e-4,-74.45363 m -12.79386,-123.480519 12.79405,0.06099 m 0,0 -1.9e-4,-74.4311155 c -1e-5,-4.6798519 2.23542,-5.58973188 5.71887,-5.58973188 M 427.41686,80.88256 414.5695,80.94355 m 12.84736,-0.06099 c 1.186,0 1.33443,0.745458 1.33443,1.375044 0,40.054096 31.67254,40.448356 31.67254,0.232238 0,-0.942244 0.43241,-1.607282 1.7528,-1.607282 M 329.90299,2.4519196 329.89259,284.19658 m 19.98121,-79.74201 -9.84705,-0.061 m 0,0 v 74.21326 c 0,4.67985 -6.65063,5.58972 -10.13408,5.58972 m 54.74091,-79.74199 15.79391,-0.061 m -15.79391,0.061 c -1.18601,0 -1.33444,-0.74546 -1.33444,-1.37505 0,-40.05411 -31.67255,-40.44837 -31.67255,-0.23224 0,0.94225 -0.43239,1.60729 -1.75279,1.60729 m 37.75991,-123.571921 12.79405,0.06099 m 0,-7.9e-5 V 6.8605495 c 0,-8.0948532 14.14155,-8.3819141 14.14155,0 l 1.9e-4,74.0830005 m -61.69558,-0.06089 -12.84735,0.06099 m 12.84735,-0.06099 c 1.186,0 1.33443,0.745458 1.33443,1.375044 0,40.054096 31.67255,40.448356 31.67255,0.232238 0,-0.942244 0.4324,-1.607282 1.75279,-1.607282 M 340.02657,7.4364805 c -0.0521,-3.55873 -6.69258,-4.9845599 -10.12358,-4.9845599 m 10.12358,4.9845599 1.8e-4,73.5071675"
       style="display:inline;fill:none;stroke:#000000;stroke-width:0.264583px;stroke-linecap:butt;stroke-linejoin:miter;stroke-opacity:1"
       id="path467-3-5" />
  </g>
  <g
     inkscape:groupmode="layer"
     id="layer2"
     inkscape:label="Layer 5"
     style="display:none">
    <a
       transform="translate(0.5655135,-6.000372)"
       id="a66" />
    <path
       inkscape:original-d="M 181.42083,89.111536 V 7.3118697 c 0,-7.9302312 -14.12678,-8.29618814 -14.12678,0.100227 V 89.111573 l -8.0703,0.04042 c -1.7535,0 -3.175,1.421496 -3.175,3.175 v 4.272938 h 11.2453 v 92.604419 h -11.2453 v 4.51313 c 0,1.7535 1.4215,3.175 3.175,3.175 h 29.57635 c 1.7535,0 3.175,-1.4215 3.175,-3.175 v -4.51754 H 181.4209 V 96.595931 h 10.55427 l -7e-5,-4.268932 c -3e-5,-1.753504 -1.4215,-3.175 -3.175,-3.175 z"
       inkscape:path-effect="#path-effect135;#path-effect137;#path-effect139"
       sodipodi:nodetypes="cssccsccccssssccccscc"
       d="M 181.42083,85.936536 V 7.3118697 c 0,-7.9302312 -14.12678,-8.29618814 -14.12678,0.100227 V 85.936573 a 3.1909418,3.1909418 134.85652 0 1 -3.17496,3.190902 l -4.89534,0.02452 c -1.7535,0 -3.175,1.421496 -3.175,3.175 v 1.097938 c 0,1.753504 1.4215,3.175 3.175,3.175 h 4.8953 c 1.7535,0 3.175,1.421496 3.175,3.175 v 86.254419 c 0,1.7535 -1.4215,3.175 -3.175,3.175 h -4.8953 c -1.7535,0 -3.175,1.4215 -3.175,3.175 v 1.33813 c 0,1.7535 1.4215,3.175 3.175,3.175 h 29.57635 c 1.7535,0 3.175,-1.4215 3.175,-3.175 l 0,-1.34254 c 0,-1.7535 -1.4215,-3.175 -3.175,-3.175 h -4.2042 c -1.7535,0 -3.175,-1.4215 -3.175,-3.175 l 0,-86.254009 c 0,-1.753504 1.4215,-3.175 3.175,-3.175 h 4.20427 c 1.7535,0 3.17498,-1.421504 3.17495,-3.175 l -2e-5,-1.093932 c -3e-5,-1.753504 -1.4215,-3.175 -3.175,-3.175 l -4.20432,-0.02305 a 3.1924573,3.1924573 45.157084 0 1 -3.17495,-3.192409 z"
       style="fill:none;stroke:#000000;stroke-width:0.264583px;stroke-linecap:butt;stroke-linejoin:miter;stroke-opacity:1"
       id="path79" />
    <path
       sodipodi:nodetypes="cccsscscsssssssssssssssssssssscssc"
       d="M 362.43068,22.387625 V 218.1911 M 372.49429,107.20358 V 28.578921 c 0,-7.930231 -20.1262,-8.296188 -20.1262,0.100227 v 78.524472 c 0,1.75606 -1.41891,3.1821 -3.17496,3.19089 l -4.89534,0.0245 c -1.7535,0 -3.175,1.4215 -3.175,3.175 v 1.09794 c 0,1.7535 1.4215,3.175 3.175,3.175 h 4.8953 c 1.7535,0 3.175,1.4215 3.175,3.175 v 86.25443 c 0,1.7535 -1.4215,3.175 -3.175,3.175 h -4.8953 c -1.7535,0 -3.175,1.4215 -3.175,3.175 v 1.33813 c 0,1.7535 1.4215,3.175 3.175,3.175 h 35.57577 c 1.7535,0 3.175,-1.4215 3.175,-3.175 v -1.34254 c 0,-1.7535 -1.42149,-3.175 -3.175,-3.175 h -4.2042 c -1.7535,0 -3.175,-1.4215 -3.175,-3.175 v -86.25401 c 0,-1.7535 1.4215,-3.175 3.175,-3.175 h 4.20428 c 1.75349,0 3.17498,-1.4215 3.17494,-3.175 l -2e-5,-1.09393 c -3e-5,-1.75351 -1.42149,-3.175 -3.175,-3.175 l -4.20432,-0.023 c -1.75628,-0.01 -3.17495,-1.43609 -3.17495,-3.1924 z"
       style="fill:none;stroke:#000000;stroke-width:0.264583px;stroke-linecap:butt;stroke-linejoin:miter;stroke-opacity:1"
       id="path168" />
    <path
       id="path79-4"
       style="display:inline;fill:none;stroke:#000000;stroke-width:0.264583px;stroke-linecap:butt;stroke-linejoin:miter;stroke-opacity:1"
       d="M 557.74223,101.01956 V 22.394895 c 0,-7.93023 -14.12678,-8.296187 -14.12678,0.100227 V 101.0196 a 3.1909339,3.1909339 134.85659 0 1 -3.17496,3.19089 l -4.89534,0.0245 c -1.7535,0 -3.175,1.42149 -3.175,3.175 v 1.09793 c 0,1.7535 1.4215,3.175 3.175,3.175 h 4.8953 c 1.7535,0 3.175,1.4215 3.175,3.175 v 86.25443 c 0,1.7535 -1.4215,3.175 -3.175,3.175 h -4.8953 c -1.7535,0 -3.175,1.4215 -3.175,3.175 v 1.33813 c 0,1.7535 1.4215,3.175 3.175,3.175 h 29.57635 c 1.7535,0 3.175,-1.4215 3.175,-3.175 v -1.34254 c 0,-1.7535 -1.4215,-3.175 -3.175,-3.175 h -4.2042 c -1.7535,0 -3.175,-1.4215 -3.175,-3.175 v -86.25402 c 0,-1.7535 1.4215,-3.175 3.175,-3.175 h 4.20427 c 1.7535,0 3.17498,-1.4215 3.17495,-3.175 l -2e-5,-1.09393 c -3e-5,-1.7535 -1.4215,-3.175 -3.175,-3.175 l -4.20432,-0.023 a 3.1924474,3.1924474 45.156995 0 1 -3.17495,-3.1924 z"
       sodipodi:nodetypes="cssccsccccssssccccscc"
       inkscape:path-effect="#path-effect244;#path-effect246;#path-effect248"
       inkscape:original-d="M 557.74223,104.19456 V 22.394895 c 0,-7.93023 -14.12678,-8.296187 -14.12678,0.100227 V 104.1946 l -8.0703,0.0404 c -1.7535,0 -3.175,1.42149 -3.175,3.175 v 4.27293 h 11.2453 v 92.60443 h -11.2453 v 4.51313 c 0,1.7535 1.4215,3.175 3.175,3.175 h 29.57635 c 1.7535,0 3.175,-1.4215 3.175,-3.175 v -4.51754 h -10.5542 v -92.60402 h 10.55427 l -7e-5,-4.26893 c -3e-5,-1.7535 -1.4215,-3.175 -3.175,-3.175 z" />
  </g>
  <g
     inkscape:groupmode="layer"
     id="layer4"
     inkscape:label="Layer 6"
     style="display:none">
    <path
       style="display:inline;fill:none;stroke:#000000;stroke-width:0.264583px;stroke-linecap:butt;stroke-linejoin:miter;stroke-opacity:1;filter:url(#filter587)"
       d="M 314.47619,36.800878 V 74.839286"
       id="path115-1-1" />
  </g>
</svg>
