<?xml version="1.0" encoding="UTF-8" standalone="no"?>
<svg
   xmlns:dc="http://purl.org/dc/elements/1.1/"
   xmlns:cc="http://creativecommons.org/ns#"
   xmlns:rdf="http://www.w3.org/1999/02/22-rdf-syntax-ns#"
   xmlns:svg="http://www.w3.org/2000/svg"
   xmlns="http://www.w3.org/2000/svg"
   width="16in"
   height="12in"
   viewBox="0 0 406.4 304.80001"
   version="1.1"
   id="svg8">
  <defs
     id="defs2">
    <filter
       height="1.0002675"
       y="-1.5329246e-06"
       width="0.99495608"
       x="-9.8588328e-07"
       id="filter587"
       style="color-interpolation-filters:sRGB">
      <feGaussianBlur
         id="feGaussianBlur589"
         stdDeviation="0.00014212771" />
    </filter>
  </defs>
  <metadata
     id="metadata5">
    <rdf:RDF>
      <cc:Work
         rdf:about="">
        <dc:format>image/svg+xml</dc:format>
        <dc:type
           rdf:resource="http://purl.org/dc/dcmitype/StillImage" />
        <dc:title></dc:title>
      </cc:Work>
    </rdf:RDF>
  </metadata>
  <g
     style="display:none"
     id="layer3">
    <path
       d="m 43.808337,0.20252308 -17.64827,0.1490384 A 3.2026749,3.2026749 134.76478 0 0 22.984437,3.5533731 L 22.919103,282.86999 a 3.1793661,3.1793661 45.05277 0 0 3.174253,3.18011 l 14.481666,0.0233 c 1.753502,0.003 4.751369,0.0106 6.103568,-1.05148 3.956695,-3.10785 5.533909,-12.15362 11.313602,-14.60091 1.603946,-0.67916 4.579746,-0.68817 6.192634,-0.0291 7.147805,2.92086 7.881473,15.74006 13.998034,15.70741 m 41.8703,-285.96696682 -20.913503,0.20793 m 97.114193,-0.09967 -20.86936,0.0295 m -76.244831,0.07017 -17.72352,-0.0991657 C 79.662663,0.23130653 76.664816,0.2178322 75.312616,1.2799399 71.355917,4.3877939 69.778704,13.433561 63.999013,15.88085 62.395069,16.560007 59.419268,16.569019 57.80638,15.909932 50.658575,12.989069 49.924902,0.16987072 43.808339,0.20252318 m 131.576151,0.06759 -17.72353,-0.0991657 c -1.75348,-0.009811 -4.76207,-0.026528 -6.09126,1.06075262 -3.85706,3.1550648 -5.13802,12.2922939 -11.31031,14.6403189 -1.63001,0.620077 -4.58837,0.628147 -6.21808,0.0079 C 126.57538,13.038665 126.19823,0.09954854 120.05316,0.13235318 M 175.29704,285.9997 l 17.72352,0.0992 c 1.75348,0.01 4.75303,0.0239 6.10165,-1.04221 3.9347,-3.11048 5.46041,-12.1479 11.22139,-14.59622 1.60298,-0.68123 4.57992,-0.69368 6.19333,-0.0358 7.04371,2.87233 7.43656,15.41078 14.09143,15.71278 m -131.576139,-0.0676 17.723529,0.0992 c 1.75348,0.01 4.76207,0.0265 6.09126,-1.06076 3.85705,-3.15507 5.13802,-12.29229 11.3103,-14.64032 1.63001,-0.62007 4.58837,-0.62814 6.21808,-0.008 7.46593,2.84129 7.84308,15.7804 13.98815,15.7476 m 76.24482,-0.0702 17.78181,-0.008 a 3.1763638,3.1763638 134.9877 0 0 3.175,-3.17636 V 3.5533732 a 3.1928143,3.1928143 45.160287 0 0 -3.17495,-3.19276432 l -14.54858,-0.0814014 c -1.75348,-0.009811 -4.75132,-0.0232845 -6.10352,1.03882432 -3.9567,3.1078558 -5.53391,12.1536202 -11.31361,14.6009082 -1.60394,0.679157 -4.57974,0.688169 -6.19263,0.02908 -7.1478,-2.920863 -7.88147,-15.74006128 -13.99803,-15.70740882 M 154.38354,286.20766 l 20.9135,-0.20791 m -97.114179,0.0997 20.869359,-0.0295"
       style="fill:none;stroke:#000000;stroke-width:0.264583px;stroke-linecap:butt;stroke-linejoin:miter;stroke-opacity:1"
       id="path109" />
    <path
       d="m 273.76271,0.26172831 c 5.2664,-0.028114 6.54229,9.47126229 11.35761,13.97687269 1.27319,1.191302 4.01601,2.227838 5.75934,2.21774 1.72147,-0.01 4.43203,-1.075142 5.69366,-2.279011 2.8873,-2.755105 4.52779,-7.3161315 6.6155,-10.4565684 0.9665,-1.4538555 3.35112,-3.13076377 5.07419,-3.31336995 1.70771,-0.18097474 4.52897,-0.0991187 6.28245,-0.0893077 l 11.37362,0.0636371 c 1.75634,0.009826 3.17494,1.43639675 3.17493,3.19276425 l -0.002,279.9614947 M 273.76269,0.26172831 259.28931,0.38395495 c -1.75344,0.0148077 -4.93172,0.0832512 -5.84252,1.49784225 -0.53931,0.8376274 -0.50833,3.1522769 -0.50874,4.9057809 l -0.0638,272.9666119 c -4.1e-4,1.7535 0.0435,4.93611 1.4559,5.84839 0.83083,0.53662 3.13911,0.50901 4.89262,0.51183 l 8.13166,0.0131 c 1.75351,0.003 4.60429,0.0782 6.34583,-0.11765 1.68837,-0.18988 4.04479,-1.85689 5.01143,-3.31113 2.08762,-3.14065 3.72818,-7.70162 6.61567,-10.45643 1.26144,-1.20348 3.9898,-2.27434 5.73292,-2.27852 1.72166,-0.004 4.44635,1.02668 5.71956,2.21805 3.79194,3.54822 5.389,10.19314 8.46843,12.84332 1.2991,1.11801 4.3105,1.13341 6.064,1.13341 l 14.80671,0 c 1.68442,0 2.97303,-1.79464 2.97303,-2.62258"
       style="display:inline;fill:none;stroke:#000000;stroke-width:0.264583px;stroke-linecap:butt;stroke-linejoin:miter;stroke-opacity:1"
       id="path109-1" />
  </g>
  <g
     style="display:none;filter:url(#filter587)"
     id="layer1">
    <path
       d="m 29.330806,247.65001 c -0.0521,3.55873 -2.97806,4.98456 -6.40906,4.98456 M 29.32307,38.1 c -0.0521,-3.55873 -2.97806,-4.98456 -6.40906,-4.98456 M 245.18006,38.1 c 0.0521,-3.55873 2.97806,-4.98456 6.40906,-4.98456 M 92.823071,38.099999 c 0.06934,-8.664889 12.562959,-8.665485 12.562959,-0.06076 m -12.562959,0.06076 V 76.138407 M 168.98005,38.1 c -0.16452,-8.63148 12.7,-8.60473 12.7,0 m -76.28927,209.46039 c 0.16452,8.63148 -12.7,8.60473 -12.7,0 m 76.28927,-37.94879 v 38.03841 m -63.50001,-38.03841 -0.0893,37.94879 m 76.28927,0.0896 c 0.16452,8.63148 -12.7,8.60473 -12.7,0 m 0,-209.54999 V 76.138408 M 92.69078,209.52198 v 38.03841 m 88.98927,-37.94879 v 38.03841 m 0,-209.55001 V 76.138408 M 245.18006,209.6116 v 38.03841 m 0,-209.55001 v 38.038408 m 0,171.511602 c 0.0521,3.55873 2.97806,4.98456 6.40906,4.98456 m 0,-219.51913 4e-5,219.51913 M 22.91401,33.11544 22.92171,252.63457 M 29.323071,38.1 v 38.038407 l 14.180626,-0.0242 M 105.38603,38.039244 v 38.038408 l 15.27208,-2.33e-4"
       style="fill:none;stroke:#000000;stroke-width:0.216893px;stroke-linecap:butt;stroke-linejoin:miter;stroke-opacity:1"
       id="path66-3-1-4-1-2" />
    <path
       id="path447"
       d="m 78.263463,76.114205 14.559606,0.02421"
       style="fill:none;stroke:#000000;stroke-width:0.264583px;stroke-linecap:butt;stroke-linejoin:miter;stroke-opacity:1" />
    <path
       id="path429"
       d="m 43.503697,76.114206 c 1.186009,0 1.334439,0.745456 1.334439,1.375045 0,40.054109 31.672542,40.448369 31.672542,0.232237 0,-0.942245 0.4324,-1.607282 1.752786,-1.607282"
       style="display:inline;fill:none;stroke:#000000;stroke-width:0.324118px;stroke-linecap:butt;stroke-linejoin:miter;stroke-opacity:1" />
    <path
       id="path429-5-7"
       d="m 196.85812,76.077419 c 1.18601,0 1.33444,0.745457 1.33444,1.375045 0,40.054106 31.67255,40.448366 31.67255,0.232237 0,-0.942245 0.43239,-1.607282 1.75279,-1.607282"
       style="display:inline;fill:none;stroke:#000000;stroke-width:0.324117px;stroke-linecap:butt;stroke-linejoin:miter;stroke-opacity:1" />
    <path
       style="display:inline;fill:none;stroke:#000000;stroke-width:0.264583px;stroke-linecap:butt;stroke-linejoin:miter;stroke-opacity:1"
       d="m 231.6179,76.077418 13.56216,0.06099"
       id="path465-8" />
    <path
       id="path485"
       d="m 196.85812,76.077418 -15.17807,0.06099"
       style="fill:none;stroke:#000000;stroke-width:0.264583px;stroke-linecap:butt;stroke-linejoin:miter;stroke-opacity:1" />
    <path
       style="display:inline;fill:none;stroke:#000000;stroke-width:0.324117px;stroke-linecap:butt;stroke-linejoin:miter;stroke-opacity:1"
       d="m 230.00199,209.6726 c -1.18601,0 -1.33444,-0.74545 -1.33444,-1.37504 0,-40.0541 -31.67255,-40.44837 -31.67255,-0.23224 0,0.94225 -0.43239,1.60728 -1.75279,1.60728"
       id="path429-5-7-7" />
    <path
       id="path465-8-4"
       d="m 195.24221,209.6726 -13.56216,-0.061"
       style="display:inline;fill:none;stroke:#000000;stroke-width:0.264583px;stroke-linecap:butt;stroke-linejoin:miter;stroke-opacity:1" />
    <path
       style="display:inline;fill:none;stroke:#000000;stroke-width:0.264583px;stroke-linecap:butt;stroke-linejoin:miter;stroke-opacity:1"
       d="m 230.00199,209.6726 15.17807,-0.061"
       id="path485-2" />
    <path
       style="display:inline;fill:none;stroke:#000000;stroke-width:0.324117px;stroke-linecap:butt;stroke-linejoin:miter;stroke-opacity:1"
       d="m 153.99097,209.6726 c -1.18601,0 -1.33444,-0.74545 -1.33444,-1.37504 0,-40.05411 -31.67255,-40.44837 -31.67255,-0.23224 0,0.94225 -0.43239,1.60728 -1.75279,1.60728"
       id="path429-5-7-5" />
    <path
       style="display:inline;fill:none;stroke:#000000;stroke-width:0.324117px;stroke-linecap:butt;stroke-linejoin:miter;stroke-opacity:1"
       d="m 77.5127,209.58298 c -1.18601,0 -1.33444,-0.74546 -1.33444,-1.37504 0,-40.05411 -31.67254,-40.44837 -31.67254,-0.23224 0,0.94224 -0.43239,1.60728 -1.7528,1.60728"
       id="path429-5-7-2" />
    <path
       id="path465-8-7"
       d="m 42.75292,209.58298 -13.56216,-0.061"
       style="display:inline;fill:none;stroke:#000000;stroke-width:0.264583px;stroke-linecap:butt;stroke-linejoin:miter;stroke-opacity:1" />
    <path
       style="display:inline;fill:none;stroke:#000000;stroke-width:0.264583px;stroke-linecap:butt;stroke-linejoin:miter;stroke-opacity:1"
       d="m 77.5127,209.58298 15.17808,-0.061"
       id="path485-9" />
    <path
       id="path528"
       d="m 29.190759,209.52198 0.140047,38.12803"
       style="fill:none;stroke:#000000;stroke-width:0.264583px;stroke-linecap:butt;stroke-linejoin:miter;stroke-opacity:1" />
    <path
       id="path591"
       d="m 168.98005,209.6116 -14.98908,0.061"
       style="fill:none;stroke:#000000;stroke-width:0.264583px;stroke-linecap:butt;stroke-linejoin:miter;stroke-opacity:1" />
    <path
       id="path593"
       d="m 119.23119,209.6726 -13.75115,-0.061"
       style="fill:none;stroke:#000000;stroke-width:0.264583px;stroke-linecap:butt;stroke-linejoin:miter;stroke-opacity:1" />
    <path
       transform="matrix(-0.26458333,0,0,-0.26458333,168.9806,107.83242)"
       id="path429-5-7-5-3"
       d="m 183.35062,120.01896 c -4.48256,0 -5.04356,-2.81745 -5.04356,-5.197 0,-151.385615 -119.707273,-152.875732 -119.707273,-0.87776 0,3.56126 -1.63423,6.07476 -6.624718,6.07476"
       style="display:inline;fill:none;stroke:#000000;stroke-width:1.22501px;stroke-linecap:butt;stroke-linejoin:miter;stroke-opacity:1;filter:url(#filter587)" />
    <path
       transform="matrix(-0.26458333,0,0,-0.26458333,168.9806,107.83242)"
       style="display:inline;fill:none;stroke:#000000;stroke-width:0.999999px;stroke-linecap:butt;stroke-linejoin:miter;stroke-opacity:1;filter:url(#filter587)"
       d="M 51.975069,120.01896 0.00221797,119.78841"
       id="path593-8" />
  </g>
  <g
     style="display:inline"
     id="layer5">
    <path
       d="m 252.89883,33.067 -1.30966,219.56757 m 76.24357,-0.76461 1.30966,-219.567579 m -57.65656,177.064889 -13.56216,-0.061 m 0,0 v 37.73856 c 0,4.67985 -2.85106,5.58973 -6.33451,5.58973 m 54.65645,-43.2673 15.17807,-0.061 m -15.17807,0.061 c -1.18601,0 -1.33444,-0.74546 -1.33444,-1.37505 0,-40.05411 -31.67255,-40.44837 -31.67255,-0.23224 0,0.94225 -0.43239,1.60729 -1.75279,1.60729 m 49.93785,37.51812 c 0.0521,3.55873 2.97806,4.98456 6.40906,4.98456 m -6.40906,-4.98457 v -37.57911 m -12.17795,-133.736596 13.56216,0.06099 m 10e-6,-3e-6 V 37.892114 c 0,-4.679852 2.85106,-5.589732 6.33451,-5.589732 m -54.65646,43.267302 -15.17807,0.06099 m 15.17807,-0.06099 c 1.18601,0 1.33444,0.745457 1.33444,1.375044 0,40.054104 31.67255,40.448364 31.67255,0.232238 0,-0.942245 0.43239,-1.607282 1.75279,-1.607282 M 259.30789,38.05156 c -0.0521,-3.55873 -2.97806,-4.98456 -6.40906,-4.98456 m 6.40906,4.98456 v 37.579113"
       style="fill:none;stroke:#000000;stroke-width:0.264583px;stroke-linecap:butt;stroke-linejoin:miter;stroke-opacity:1"
       id="path467" />
  </g>
  <g
     style="display:none"
     id="layer2">
    <path
       id="path531"
       d="m 194.16543,93.353307 v -6.176232 h -37.92624 v 6.180642"
       style="fill:none;stroke:#000000;stroke-width:0.347545px;stroke-linecap:butt;stroke-linejoin:miter;stroke-opacity:1" />
    <path
       id="path533"
       d="m 156.23919,93.357717 h 12.7"
       style="fill:none;stroke:#000000;stroke-width:0.300639px;stroke-linecap:butt;stroke-linejoin:miter;stroke-opacity:1" />
    <path
       id="path535"
       d="m 194.16543,93.353307 h -12.7"
       style="fill:none;stroke:#000000;stroke-width:0.269408px;stroke-linecap:butt;stroke-linejoin:miter;stroke-opacity:1" />
    <path
       id="path539"
       d="M 168.93919,93.357717 V 188.60771"
       style="fill:none;stroke:#000000;stroke-width:0.299531px;stroke-linecap:butt;stroke-linejoin:miter;stroke-opacity:1" />
    <path
       style="fill:none;stroke:#000000;stroke-width:0.299532px;stroke-linecap:butt;stroke-linejoin:miter;stroke-opacity:1"
       d="M 181.46543,93.353307 V 188.6033"
       id="path539-8" />
    <path
       style="fill:none;stroke:#000000;stroke-width:0.347546px;stroke-linecap:butt;stroke-linejoin:miter;stroke-opacity:1"
       d="m 156.23919,188.60771 v 6.17623 h 37.92624 v -6.18064"
       id="path531-4" />
    <path
       style="fill:none;stroke:#000000;stroke-width:0.300638px;stroke-linecap:butt;stroke-linejoin:miter;stroke-opacity:1"
       d="m 194.16543,188.6033 h -12.7"
       id="path533-4" />
    <path
       style="fill:none;stroke:#000000;stroke-width:0.269407px;stroke-linecap:butt;stroke-linejoin:miter;stroke-opacity:1"
       d="m 156.23919,188.60771 h 12.7"
       id="path535-9" />
  </g>
  <g
     style="display:none"
     id="layer4">
    <path
       id="path115-1-1"
       d="M 314.47619,36.800878 V 74.839286"
       style="display:inline;fill:none;stroke:#000000;stroke-width:0.264583px;stroke-linecap:butt;stroke-linejoin:miter;stroke-opacity:1;filter:url(#filter587)" />
  </g>
</svg>
