<?xml version="1.0" encoding="UTF-8" standalone="no"?>
<svg
   xmlns:dc="http://purl.org/dc/elements/1.1/"
   xmlns:cc="http://creativecommons.org/ns#"
   xmlns:rdf="http://www.w3.org/1999/02/22-rdf-syntax-ns#"
   xmlns:svg="http://www.w3.org/2000/svg"
   xmlns="http://www.w3.org/2000/svg"
   id="svg126"
   version="1.1"
   width="411.52mm"
   viewBox="0.0 0.0 411.52 297.98"
   height="297.98mm">
  <defs
     id="defs130" />
  <!--
DividerTray - Divider tray - rows and dividers

Created with Boxes.py (https://festi.info/boxes.py)
Creation date: 2021-02-05 00:25:24
Command line (remove spaces between dashes): boxes DividerTray - -FingerJoint_angle=90.0 - -FingerJoint_style=rectangular - -FingerJoint_surroundingspaces=2.0 - -FingerJoint_edge_width=1.0 - -FingerJoint_finger=2.0 - -FingerJoint_play=0.0 - -FingerJoint_space=2.0 - -FingerJoint_width=1.0 - -sx=99.5:89.5:99.5 - -sy=26:26:25:25:20:22:22:20.5:25:25:26:26 - -h=45 - -outside=0 - -outside=1 - -slot_depth=20 - -slot_angle=0 - -slot_radius=2 - -slot_extra_slack=0.2 - -divider_bottom_margin=7 - -divider_upper_notch_radius=1 - -divider_lower_notch_radius=3 - -divider_notch_depth=8 - -left_wall=0 - -left_wall=1 - -right_wall=0 - -right_wall=1 - -bottom=0 - -thickness=3.0 - -format=svg - -tabs=0.0 - -debug=0 - -reference=0 - -burn=.04
Url: http://www.festi.info/DividerTray?FingerJoint_angle=90.0&FingerJoint_style=rectangular&FingerJoint_surroundingspaces=2.0&FingerJoint_edge_width=1.0&FingerJoint_finger=2.0&FingerJoint_play=0.0&FingerJoint_space=2.0&FingerJoint_width=1.0&sx=99.5%3A89.5%3A99.5&sy=26%3A26%3A25%3A25%3A20%3A22%3A22%3A20.5%3A25%3A25%3A26%3A26&h=45&outside=0&outside=1&slot_depth=20&slot_angle=0&slot_radius=2&slot_extra_slack=0.2&divider_bottom_margin=7&divider_upper_notch_radius=1&divider_lower_notch_radius=3&divider_notch_depth=8&left_wall=0&left_wall=1&right_wall=0&right_wall=1&bottom=0&thickness=3.0&format=svg&tabs=0.0&debug=0&reference=0&burn=.04&render=1
SettingsUrl: http://www.festi.info/DividerTray?FingerJoint_angle=90.0&FingerJoint_style=rectangular&FingerJoint_surroundingspaces=2.0&FingerJoint_edge_width=1.0&FingerJoint_finger=2.0&FingerJoint_play=0.0&FingerJoint_space=2.0&FingerJoint_width=1.0&sx=99.5%3A89.5%3A99.5&sy=26%3A26%3A25%3A25%3A20%3A22%3A22%3A20.5%3A25%3A25%3A26%3A26&h=45&outside=0&outside=1&slot_depth=20&slot_angle=0&slot_radius=2&slot_extra_slack=0.2&divider_bottom_margin=7&divider_upper_notch_radius=1&divider_lower_notch_radius=3&divider_notch_depth=8&left_wall=0&left_wall=1&right_wall=0&right_wall=1&bottom=0&thickness=3.0&format=svg&tabs=0.0&debug=0&reference=0&burn=.04
-->
  <title
     id="title71">DividerTray</title>
  <metadata
     id="metadata73">
    <rdf:RDF>
      <cc:Work>
        <dc:title>DividerTray</dc:title>
        <dc:date>2021-02-05 00:25:24</dc:date>
        <dc:source>http://www.festi.info/DividerTray?FingerJoint_angle=90.0&amp;FingerJoint_style=rectangular&amp;FingerJoint_surroundingspaces=2.0&amp;FingerJoint_edge_width=1.0&amp;FingerJoint_finger=2.0&amp;FingerJoint_play=0.0&amp;FingerJoint_space=2.0&amp;FingerJoint_width=1.0&amp;sx=99.5%3A89.5%3A99.5&amp;sy=26%3A26%3A25%3A25%3A20%3A22%3A22%3A20.5%3A25%3A25%3A26%3A26&amp;h=45&amp;outside=0&amp;outside=1&amp;slot_depth=20&amp;slot_angle=0&amp;slot_radius=2&amp;slot_extra_slack=0.2&amp;divider_bottom_margin=7&amp;divider_upper_notch_radius=1&amp;divider_lower_notch_radius=3&amp;divider_notch_depth=8&amp;left_wall=0&amp;left_wall=1&amp;right_wall=0&amp;right_wall=1&amp;bottom=0&amp;thickness=3.0&amp;format=svg&amp;tabs=0.0&amp;debug=0&amp;reference=0&amp;burn=.04&amp;render=1</dc:source>
        <dc:description>Divider tray - rows and dividers

Created with Boxes.py (https://festi.info/boxes.py)
Command line: boxes DividerTray --FingerJoint_angle=90.0 --FingerJoint_style=rectangular --FingerJoint_surroundingspaces=2.0 --FingerJoint_edge_width=1.0 --FingerJoint_finger=2.0 --FingerJoint_play=0.0 --FingerJoint_space=2.0 --FingerJoint_width=1.0 --sx=99.5:89.5:99.5 --sy=26:26:25:25:20:22:22:20.5:25:25:26:26 --h=45 --outside=0 --outside=1 --slot_depth=20 --slot_angle=0 --slot_radius=2 --slot_extra_slack=0.2 --divider_bottom_margin=7 --divider_upper_notch_radius=1 --divider_lower_notch_radius=3 --divider_notch_depth=8 --left_wall=0 --left_wall=1 --right_wall=0 --right_wall=1 --bottom=0 --thickness=3.0 --format=svg --tabs=0.0 --debug=0 --reference=0 --burn=.04
Url: http://www.festi.info/DividerTray?FingerJoint_angle=90.0&amp;FingerJoint_style=rectangular&amp;FingerJoint_surroundingspaces=2.0&amp;FingerJoint_edge_width=1.0&amp;FingerJoint_finger=2.0&amp;FingerJoint_play=0.0&amp;FingerJoint_space=2.0&amp;FingerJoint_width=1.0&amp;sx=99.5%3A89.5%3A99.5&amp;sy=26%3A26%3A25%3A25%3A20%3A22%3A22%3A20.5%3A25%3A25%3A26%3A26&amp;h=45&amp;outside=0&amp;outside=1&amp;slot_depth=20&amp;slot_angle=0&amp;slot_radius=2&amp;slot_extra_slack=0.2&amp;divider_bottom_margin=7&amp;divider_upper_notch_radius=1&amp;divider_lower_notch_radius=3&amp;divider_notch_depth=8&amp;left_wall=0&amp;left_wall=1&amp;right_wall=0&amp;right_wall=1&amp;bottom=0&amp;thickness=3.0&amp;format=svg&amp;tabs=0.0&amp;debug=0&amp;reference=0&amp;burn=.04&amp;render=1
SettingsUrl: http://www.festi.info/DividerTray?FingerJoint_angle=90.0&amp;FingerJoint_style=rectangular&amp;FingerJoint_surroundingspaces=2.0&amp;FingerJoint_edge_width=1.0&amp;FingerJoint_finger=2.0&amp;FingerJoint_play=0.0&amp;FingerJoint_space=2.0&amp;FingerJoint_width=1.0&amp;sx=99.5%3A89.5%3A99.5&amp;sy=26%3A26%3A25%3A25%3A20%3A22%3A22%3A20.5%3A25%3A25%3A26%3A26&amp;h=45&amp;outside=0&amp;outside=1&amp;slot_depth=20&amp;slot_angle=0&amp;slot_radius=2&amp;slot_extra_slack=0.2&amp;divider_bottom_margin=7&amp;divider_upper_notch_radius=1&amp;divider_lower_notch_radius=3&amp;divider_notch_depth=8&amp;left_wall=0&amp;left_wall=1&amp;right_wall=0&amp;right_wall=1&amp;bottom=0&amp;thickness=3.0&amp;format=svg&amp;tabs=0.0&amp;debug=0&amp;reference=0&amp;burn=.04
</dc:description>
        <dc:format>image/svg+xml</dc:format>
        <dc:type
           rdf:resource="http://purl.org/dc/dcmitype/StillImage" />
      </cc:Work>
    </rdf:RDF>
  </metadata>
  <g
     style="fill:none;stroke-linecap:round;stroke-linejoin:round;"
     id="p-0">
    <path
       id="path75"
       stroke-width="0.08"
       stroke="rgb(0,0,255)"
       d="M 111.361 277.440 V 280.400 C 111.361 280.440 111.401 280.400 111.361 280.400 H 108.441 C 108.401 280.400 108.441 280.440 108.441 280.400 V 274.480 C 108.441 274.440 108.401 274.480 108.441 274.480 H 111.361 C 111.401 274.480 111.361 274.440 111.361 274.480 V 277.440 Z" />
    <path
       id="path77"
       stroke-width="0.08"
       stroke="rgb(0,0,255)"
       d="M 111.361 265.440 V 268.400 C 111.361 268.440 111.401 268.400 111.361 268.400 H 108.441 C 108.401 268.400 108.441 268.440 108.441 268.400 V 262.480 C 108.441 262.440 108.401 262.480 108.441 262.480 H 111.361 C 111.401 262.480 111.361 262.440 111.361 262.480 V 265.440 Z" />
    <path
       id="path79"
       stroke-width="0.08"
       stroke="rgb(0,0,255)"
       d="M 111.361 253.440 V 256.400 C 111.361 256.440 111.401 256.400 111.361 256.400 H 108.441 C 108.401 256.400 108.441 256.440 108.441 256.400 V 250.480 C 108.441 250.440 108.401 250.480 108.441 250.480 H 111.361 C 111.401 250.480 111.361 250.440 111.361 250.480 V 253.440 Z" />
    <path
       id="path81"
       stroke-width="0.08"
       stroke="rgb(0,0,255)"
       d="M 200.139 277.440 V 280.400 C 200.139 280.440 200.179 280.400 200.139 280.400 H 197.219 C 197.179 280.400 197.219 280.440 197.219 280.400 V 274.480 C 197.219 274.440 197.179 274.480 197.219 274.480 H 200.139 C 200.179 274.480 200.139 274.440 200.139 274.480 V 277.440 Z" />
    <path
       id="path83"
       stroke-width="0.08"
       stroke="rgb(0,0,255)"
       d="M 200.139 265.440 V 268.400 C 200.139 268.440 200.179 268.400 200.139 268.400 H 197.219 C 197.179 268.400 197.219 268.440 197.219 268.400 V 262.480 C 197.219 262.440 197.179 262.480 197.219 262.480 H 200.139 C 200.179 262.480 200.139 262.440 200.139 262.480 V 265.440 Z" />
    <path
       id="path85"
       stroke-width="0.08"
       stroke="rgb(0,0,255)"
       d="M 200.139 253.440 V 256.400 C 200.139 256.440 200.179 256.400 200.139 256.400 H 197.219 C 197.179 256.400 197.219 256.440 197.219 256.400 V 250.480 C 197.219 250.440 197.179 250.480 197.219 250.480 H 200.139 C 200.179 250.480 200.139 250.440 200.139 250.480 V 253.440 Z" />
    <path
       id="path87"
       stroke-width="0.08"
       stroke="rgb(0,0,0)"
       d="M 13.040 287.980 H 295.540 H 298.540 C 298.562 287.980 298.580 287.962 298.580 287.940 V 280.440 C 298.580 280.418 298.562 280.400 298.540 280.400 H 295.580 C 295.540 280.400 295.580 280.440 295.580 280.400 V 274.480 C 295.580 274.440 295.540 274.480 295.580 274.480 H 298.540 C 298.562 274.480 298.580 274.462 298.580 274.440 V 268.440 C 298.580 268.418 298.562 268.400 298.540 268.400 H 295.580 C 295.540 268.400 295.580 268.440 295.580 268.400 V 262.480 C 295.580 262.440 295.540 262.480 295.580 262.480 H 298.540 C 298.562 262.480 298.580 262.462 298.580 262.440 V 256.440 C 298.580 256.418 298.562 256.400 298.540 256.400 H 295.580 C 295.540 256.400 295.580 256.440 295.580 256.400 V 250.480 C 295.580 250.440 295.540 250.480 295.580 250.480 H 298.540 C 298.562 250.480 298.580 250.462 298.580 250.440 V 242.940 C 298.580 242.918 298.562 242.900 298.540 242.900 H 295.540 H 13.040 H 10.040 C 10.018 242.900 10.000 242.918 10.000 242.940 V 250.440 C 10.000 250.462 10.018 250.480 10.040 250.480 H 13.000 C 13.040 250.480 13.000 250.440 13.000 250.480 V 256.400 C 13.000 256.440 13.040 256.400 13.000 256.400 H 10.040 C 10.018 256.400 10.000 256.418 10.000 256.440 V 262.440 C 10.000 262.462 10.018 262.480 10.040 262.480 H 13.000 C 13.040 262.480 13.000 262.440 13.000 262.480 V 268.400 C 13.000 268.440 13.040 268.400 13.000 268.400 H 10.040 C 10.018 268.400 10.000 268.418 10.000 268.440 V 274.440 C 10.000 274.462 10.018 274.480 10.040 274.480 H 13.000 C 13.040 274.480 13.000 274.440 13.000 274.480 V 280.400 C 13.000 280.440 13.040 280.400 13.000 280.400 H 10.040 C 10.018 280.400 10.000 280.418 10.000 280.440 V 287.940 C 10.000 287.962 10.018 287.980 10.040 287.980 H 13.040 Z" />
  </g>
  <g
     style="fill:none;stroke-linecap:round;stroke-linejoin:round;"
     id="p-1">
    <path
       id="path90"
       stroke-width="0.08"
       stroke="rgb(0,0,255)"
       d="M 111.361 230.860 V 233.820 C 111.361 233.860 111.401 233.820 111.361 233.820 H 108.441 C 108.401 233.820 108.441 233.860 108.441 233.820 V 227.900 C 108.441 227.860 108.401 227.900 108.441 227.900 H 111.361 C 111.401 227.900 111.361 227.860 111.361 227.900 V 230.860 Z" />
    <path
       id="path92"
       stroke-width="0.08"
       stroke="rgb(0,0,255)"
       d="M 111.361 218.860 V 221.820 C 111.361 221.860 111.401 221.820 111.361 221.820 H 108.441 C 108.401 221.820 108.441 221.860 108.441 221.820 V 215.900 C 108.441 215.860 108.401 215.900 108.441 215.900 H 111.361 C 111.401 215.900 111.361 215.860 111.361 215.900 V 218.860 Z" />
    <path
       id="path94"
       stroke-width="0.08"
       stroke="rgb(0,0,255)"
       d="M 111.361 206.860 V 209.820 C 111.361 209.860 111.401 209.820 111.361 209.820 H 108.441 C 108.401 209.820 108.441 209.860 108.441 209.820 V 203.900 C 108.441 203.860 108.401 203.900 108.441 203.900 H 111.361 C 111.401 203.900 111.361 203.860 111.361 203.900 V 206.860 Z" />
    <path
       id="path96"
       stroke-width="0.08"
       stroke="rgb(0,0,255)"
       d="M 200.139 230.860 V 233.820 C 200.139 233.860 200.179 233.820 200.139 233.820 H 197.219 C 197.179 233.820 197.219 233.860 197.219 233.820 V 227.900 C 197.219 227.860 197.179 227.900 197.219 227.900 H 200.139 C 200.179 227.900 200.139 227.860 200.139 227.900 V 230.860 Z" />
    <path
       id="path98"
       stroke-width="0.08"
       stroke="rgb(0,0,255)"
       d="M 200.139 218.860 V 221.820 C 200.139 221.860 200.179 221.820 200.139 221.820 H 197.219 C 197.179 221.820 197.219 221.860 197.219 221.820 V 215.900 C 197.219 215.860 197.179 215.900 197.219 215.900 H 200.139 C 200.179 215.900 200.139 215.860 200.139 215.900 V 218.860 Z" />
    <path
       id="path100"
       stroke-width="0.08"
       stroke="rgb(0,0,255)"
       d="M 200.139 206.860 V 209.820 C 200.139 209.860 200.179 209.820 200.139 209.820 H 197.219 C 197.179 209.820 197.219 209.860 197.219 209.820 V 203.900 C 197.219 203.860 197.179 203.900 197.219 203.900 H 200.139 C 200.179 203.900 200.139 203.860 200.139 203.900 V 206.860 Z" />
    <path
       id="path102"
       stroke-width="0.08"
       stroke="rgb(0,0,0)"
       d="M 13.040 241.400 H 295.540 H 298.540 C 298.562 241.400 298.580 241.382 298.580 241.360 V 233.860 C 298.580 233.838 298.562 233.820 298.540 233.820 H 295.580 C 295.540 233.820 295.580 233.860 295.580 233.820 V 227.900 C 295.580 227.860 295.540 227.900 295.580 227.900 H 298.540 C 298.562 227.900 298.580 227.882 298.580 227.860 V 221.860 C 298.580 221.838 298.562 221.820 298.540 221.820 H 295.580 C 295.540 221.820 295.580 221.860 295.580 221.820 V 215.900 C 295.580 215.860 295.540 215.900 295.580 215.900 H 298.540 C 298.562 215.900 298.580 215.882 298.580 215.860 V 209.860 C 298.580 209.838 298.562 209.820 298.540 209.820 H 295.580 C 295.540 209.820 295.580 209.860 295.580 209.820 V 203.900 C 295.580 203.860 295.540 203.900 295.580 203.900 H 298.540 C 298.562 203.900 298.580 203.882 298.580 203.860 V 196.360 C 298.580 196.338 298.562 196.320 298.540 196.320 H 295.540 H 13.040 H 10.040 C 10.018 196.320 10.000 196.338 10.000 196.360 V 203.860 C 10.000 203.882 10.018 203.900 10.040 203.900 H 13.000 C 13.040 203.900 13.000 203.860 13.000 203.900 V 209.820 C 13.000 209.860 13.040 209.820 13.000 209.820 H 10.040 C 10.018 209.820 10.000 209.838 10.000 209.860 V 215.860 C 10.000 215.882 10.018 215.900 10.040 215.900 H 13.000 C 13.040 215.900 13.000 215.860 13.000 215.900 V 221.820 C 13.000 221.860 13.040 221.820 13.000 221.820 H 10.040 C 10.018 221.820 10.000 221.838 10.000 221.860 V 227.860 C 10.000 227.882 10.018 227.900 10.040 227.900 H 13.000 C 13.040 227.900 13.000 227.860 13.000 227.900 V 233.820 C 13.000 233.860 13.040 233.820 13.000 233.820 H 10.040 C 10.018 233.820 10.000 233.838 10.000 233.860 V 241.360 C 10.000 241.382 10.018 241.400 10.040 241.400 H 13.040 Z" />
  </g>
  <g
     style="fill:none;stroke-linecap:round;stroke-linejoin:round;"
     id="p-2">
    <path
       id="path105"
       stroke-width="0.08"
       stroke="rgb(0,0,0)"
       d="M 13.040 194.820 H 295.540 C 295.562 194.820 295.580 194.802 295.580 194.780 V 187.320 C 295.580 187.280 295.540 187.320 295.580 187.320 H 298.540 C 298.562 187.320 298.580 187.302 298.580 187.280 V 181.280 C 298.580 181.258 298.562 181.240 298.540 181.240 H 295.580 C 295.540 181.240 295.580 181.280 295.580 181.240 V 175.320 C 295.580 175.280 295.540 175.320 295.580 175.320 H 298.540 C 298.562 175.320 298.580 175.302 298.580 175.280 V 169.280 C 298.580 169.258 298.562 169.240 298.540 169.240 H 295.580 C 295.540 169.240 295.580 169.280 295.580 169.240 V 163.320 C 295.580 163.280 295.540 163.320 295.580 163.320 H 298.540 C 298.562 163.320 298.580 163.302 298.580 163.280 V 157.280 C 298.580 157.258 298.562 157.240 298.540 157.240 H 295.580 C 295.540 157.240 295.580 157.280 295.580 157.240 V 149.780 C 295.580 149.758 295.562 149.740 295.540 149.740 H 275.253 C 274.895 149.740 274.543 149.834 274.233 150.013 C 273.923 150.192 273.665 150.450 273.486 150.760 C 273.307 151.070 273.213 151.422 273.213 151.780 V 169.740 C 273.213 169.780 273.253 169.740 273.213 169.740 H 270.093 C 270.053 169.740 270.093 169.780 270.093 169.740 V 151.780 C 270.093 151.422 269.999 151.070 269.820 150.760 C 269.641 150.450 269.383 150.192 269.073 150.013 C 268.763 149.834 268.411 149.740 268.053 149.740 H 249.766 C 249.408 149.740 249.056 149.834 248.746 150.013 C 248.436 150.192 248.178 150.450 247.999 150.760 C 247.820 151.070 247.726 151.422 247.726 151.780 V 169.740 C 247.726 169.780 247.766 169.740 247.726 169.740 H 244.606 C 244.566 169.740 244.606 169.780 244.606 169.740 V 151.780 C 244.606 151.422 244.512 151.070 244.333 150.760 C 244.154 150.450 243.896 150.192 243.586 150.013 C 243.276 149.834 242.924 149.740 242.566 149.740 H 225.136 C 224.778 149.740 224.426 149.834 224.116 150.013 C 223.806 150.192 223.549 150.450 223.369 150.760 C 223.190 151.070 223.096 151.422 223.096 151.780 V 169.740 C 223.096 169.780 223.136 169.740 223.096 169.740 H 219.976 C 219.936 169.740 219.976 169.780 219.976 169.740 V 151.780 C 219.976 151.422 219.882 151.070 219.703 150.760 C 219.524 150.450 219.266 150.192 218.956 150.013 C 218.646 149.834 218.294 149.740 217.936 149.740 H 200.506 C 200.148 149.740 199.796 149.834 199.486 150.013 C 199.176 150.192 198.919 150.450 198.740 150.760 C 198.561 151.070 198.466 151.422 198.466 151.780 V 169.740 C 198.466 169.780 198.506 169.740 198.466 169.740 H 195.346 C 195.306 169.740 195.346 169.780 195.346 169.740 V 151.780 C 195.346 151.422 195.252 151.070 195.073 150.760 C 194.894 150.450 194.636 150.192 194.326 150.013 C 194.016 149.834 193.664 149.740 193.306 149.740 H 180.163 C 179.804 149.740 179.453 149.834 179.143 150.013 C 178.832 150.192 178.575 150.450 178.396 150.760 C 178.217 151.070 178.123 151.422 178.123 151.780 V 169.740 C 178.123 169.780 178.163 169.740 178.123 169.740 H 175.003 C 174.963 169.740 175.003 169.780 175.003 169.740 V 151.780 C 175.003 151.422 174.908 151.070 174.729 150.760 C 174.550 150.450 174.293 150.192 173.983 150.013 C 173.672 149.834 173.321 149.740 172.963 149.740 H 158.104 C 157.746 149.740 157.394 149.834 157.084 150.013 C 156.774 150.192 156.517 150.450 156.338 150.760 C 156.159 151.070 156.064 151.422 156.064 151.780 V 169.740 C 156.064 169.780 156.104 169.740 156.064 169.740 H 152.944 C 152.904 169.740 152.944 169.780 152.944 169.740 V 151.780 C 152.944 151.422 152.850 151.070 152.671 150.760 C 152.492 150.450 152.234 150.192 151.924 150.013 C 151.614 149.834 151.262 149.740 150.904 149.740 H 136.046 C 135.688 149.740 135.336 149.834 135.026 150.013 C 134.716 150.192 134.458 150.450 134.279 150.760 C 134.100 151.070 134.006 151.422 134.006 151.780 V 169.740 C 134.006 169.780 134.046 169.740 134.006 169.740 H 130.886 C 130.846 169.740 130.886 169.780 130.886 169.740 V 151.780 C 130.886 151.422 130.792 151.070 130.613 150.760 C 130.434 150.450 130.176 150.192 129.866 150.013 C 129.556 149.834 129.204 149.740 128.846 149.740 H 115.274 C 114.916 149.740 114.564 149.834 114.254 150.013 C 113.944 150.192 113.686 150.450 113.507 150.760 C 113.328 151.070 113.234 151.422 113.234 151.780 V 169.740 C 113.234 169.780 113.274 169.740 113.234 169.740 H 110.114 C 110.074 169.740 110.114 169.780 110.114 169.740 V 151.780 C 110.114 151.422 110.019 151.070 109.840 150.760 C 109.661 150.450 109.404 150.192 109.094 150.013 C 108.784 149.834 108.432 149.740 108.074 149.740 H 90.644 C 90.286 149.740 89.934 149.834 89.624 150.013 C 89.314 150.192 89.056 150.450 88.877 150.760 C 88.698 151.070 88.604 151.422 88.604 151.780 V 169.740 C 88.604 169.780 88.644 169.740 88.604 169.740 H 85.484 C 85.444 169.740 85.484 169.780 85.484 169.740 V 151.780 C 85.484 151.422 85.390 151.070 85.211 150.760 C 85.031 150.450 84.774 150.192 84.464 150.013 C 84.154 149.834 83.802 149.740 83.444 149.740 H 66.014 C 65.656 149.740 65.304 149.834 64.994 150.013 C 64.684 150.192 64.426 150.450 64.247 150.760 C 64.068 151.070 63.974 151.422 63.974 151.780 V 169.740 C 63.974 169.780 64.014 169.740 63.974 169.740 H 60.854 C 60.814 169.740 60.854 169.780 60.854 169.740 V 151.780 C 60.854 151.422 60.760 151.070 60.581 150.760 C 60.402 150.450 60.144 150.192 59.834 150.013 C 59.524 149.834 59.172 149.740 58.814 149.740 H 40.527 C 40.169 149.740 39.817 149.834 39.507 150.013 C 39.197 150.192 38.939 150.450 38.760 150.760 C 38.581 151.070 38.487 151.422 38.487 151.780 V 169.740 C 38.487 169.780 38.527 169.740 38.487 169.740 H 35.367 C 35.327 169.740 35.367 169.780 35.367 169.740 V 151.780 C 35.367 151.422 35.273 151.070 35.094 150.760 C 34.915 150.450 34.657 150.192 34.347 150.013 C 34.037 149.834 33.685 149.740 33.327 149.740 H 13.040 C 13.018 149.740 13.000 149.758 13.000 149.780 V 157.240 C 13.000 157.280 13.040 157.240 13.000 157.240 H 10.040 C 10.018 157.240 10.000 157.258 10.000 157.280 V 163.280 C 10.000 163.302 10.018 163.320 10.040 163.320 H 13.000 C 13.040 163.320 13.000 163.280 13.000 163.320 V 169.240 C 13.000 169.280 13.040 169.240 13.000 169.240 H 10.040 C 10.018 169.240 10.000 169.258 10.000 169.280 V 175.280 C 10.000 175.302 10.018 175.320 10.040 175.320 H 13.000 C 13.040 175.320 13.000 175.280 13.000 175.320 V 181.240 C 13.000 181.280 13.040 181.240 13.000 181.240 H 10.040 C 10.018 181.240 10.000 181.258 10.000 181.280 V 187.280 C 10.000 187.302 10.018 187.320 10.040 187.320 H 13.000 C 13.040 187.320 13.000 187.280 13.000 187.320 V 194.780 C 13.000 194.802 13.018 194.820 13.040 194.820 Z" />
  </g>
  <g
     style="fill:none;stroke-linecap:round;stroke-linejoin:round;"
     id="p-3">
    <path
       id="path108"
       stroke-width="0.08"
       stroke="rgb(0,0,0)"
       d="M 13.040 148.240 H 295.540 C 295.562 148.240 295.580 148.222 295.580 148.200 V 140.740 C 295.580 140.700 295.540 140.740 295.580 140.740 H 298.540 C 298.562 140.740 298.580 140.722 298.580 140.700 V 134.700 C 298.580 134.678 298.562 134.660 298.540 134.660 H 295.580 C 295.540 134.660 295.580 134.700 295.580 134.660 V 128.740 C 295.580 128.700 295.540 128.740 295.580 128.740 H 298.540 C 298.562 128.740 298.580 128.722 298.580 128.700 V 122.700 C 298.580 122.678 298.562 122.660 298.540 122.660 H 295.580 C 295.540 122.660 295.580 122.700 295.580 122.660 V 116.740 C 295.580 116.700 295.540 116.740 295.580 116.740 H 298.540 C 298.562 116.740 298.580 116.722 298.580 116.700 V 110.700 C 298.580 110.678 298.562 110.660 298.540 110.660 H 295.580 C 295.540 110.660 295.580 110.700 295.580 110.660 V 103.200 C 295.580 103.178 295.562 103.160 295.540 103.160 H 275.253 C 274.895 103.160 274.543 103.254 274.233 103.433 C 273.923 103.612 273.665 103.870 273.486 104.180 C 273.307 104.490 273.213 104.842 273.213 105.200 V 123.160 C 273.213 123.200 273.253 123.160 273.213 123.160 H 270.093 C 270.053 123.160 270.093 123.200 270.093 123.160 V 105.200 C 270.093 104.842 269.999 104.490 269.820 104.180 C 269.641 103.870 269.383 103.612 269.073 103.433 C 268.763 103.254 268.411 103.160 268.053 103.160 H 249.766 C 249.408 103.160 249.056 103.254 248.746 103.433 C 248.436 103.612 248.178 103.870 247.999 104.180 C 247.820 104.490 247.726 104.842 247.726 105.200 V 123.160 C 247.726 123.200 247.766 123.160 247.726 123.160 H 244.606 C 244.566 123.160 244.606 123.200 244.606 123.160 V 105.200 C 244.606 104.842 244.512 104.490 244.333 104.180 C 244.154 103.870 243.896 103.612 243.586 103.433 C 243.276 103.254 242.924 103.160 242.566 103.160 H 225.136 C 224.778 103.160 224.426 103.254 224.116 103.433 C 223.806 103.612 223.549 103.870 223.369 104.180 C 223.190 104.490 223.096 104.842 223.096 105.200 V 123.160 C 223.096 123.200 223.136 123.160 223.096 123.160 H 219.976 C 219.936 123.160 219.976 123.200 219.976 123.160 V 105.200 C 219.976 104.842 219.882 104.490 219.703 104.180 C 219.524 103.870 219.266 103.612 218.956 103.433 C 218.646 103.254 218.294 103.160 217.936 103.160 H 200.506 C 200.148 103.160 199.796 103.254 199.486 103.433 C 199.176 103.612 198.919 103.870 198.740 104.180 C 198.561 104.490 198.466 104.842 198.466 105.200 V 123.160 C 198.466 123.200 198.506 123.160 198.466 123.160 H 195.346 C 195.306 123.160 195.346 123.200 195.346 123.160 V 105.200 C 195.346 104.842 195.252 104.490 195.073 104.180 C 194.894 103.870 194.636 103.612 194.326 103.433 C 194.016 103.254 193.664 103.160 193.306 103.160 H 180.163 C 179.804 103.160 179.453 103.254 179.143 103.433 C 178.832 103.612 178.575 103.870 178.396 104.180 C 178.217 104.490 178.123 104.842 178.123 105.200 V 123.160 C 178.123 123.200 178.163 123.160 178.123 123.160 H 175.003 C 174.963 123.160 175.003 123.200 175.003 123.160 V 105.200 C 175.003 104.842 174.908 104.490 174.729 104.180 C 174.550 103.870 174.293 103.612 173.983 103.433 C 173.672 103.254 173.321 103.160 172.963 103.160 H 158.104 C 157.746 103.160 157.394 103.254 157.084 103.433 C 156.774 103.612 156.517 103.870 156.338 104.180 C 156.159 104.490 156.064 104.842 156.064 105.200 V 123.160 C 156.064 123.200 156.104 123.160 156.064 123.160 H 152.944 C 152.904 123.160 152.944 123.200 152.944 123.160 V 105.200 C 152.944 104.842 152.850 104.490 152.671 104.180 C 152.492 103.870 152.234 103.612 151.924 103.433 C 151.614 103.254 151.262 103.160 150.904 103.160 H 136.046 C 135.688 103.160 135.336 103.254 135.026 103.433 C 134.716 103.612 134.458 103.870 134.279 104.180 C 134.100 104.490 134.006 104.842 134.006 105.200 V 123.160 C 134.006 123.200 134.046 123.160 134.006 123.160 H 130.886 C 130.846 123.160 130.886 123.200 130.886 123.160 V 105.200 C 130.886 104.842 130.792 104.490 130.613 104.180 C 130.434 103.870 130.176 103.612 129.866 103.433 C 129.556 103.254 129.204 103.160 128.846 103.160 H 115.274 C 114.916 103.160 114.564 103.254 114.254 103.433 C 113.944 103.612 113.686 103.870 113.507 104.180 C 113.328 104.490 113.234 104.842 113.234 105.200 V 123.160 C 113.234 123.200 113.274 123.160 113.234 123.160 H 110.114 C 110.074 123.160 110.114 123.200 110.114 123.160 V 105.200 C 110.114 104.842 110.019 104.490 109.840 104.180 C 109.661 103.870 109.404 103.612 109.094 103.433 C 108.784 103.254 108.432 103.160 108.074 103.160 H 90.644 C 90.286 103.160 89.934 103.254 89.624 103.433 C 89.314 103.612 89.056 103.870 88.877 104.180 C 88.698 104.490 88.604 104.842 88.604 105.200 V 123.160 C 88.604 123.200 88.644 123.160 88.604 123.160 H 85.484 C 85.444 123.160 85.484 123.200 85.484 123.160 V 105.200 C 85.484 104.842 85.390 104.490 85.211 104.180 C 85.031 103.870 84.774 103.612 84.464 103.433 C 84.154 103.254 83.802 103.160 83.444 103.160 H 66.014 C 65.656 103.160 65.304 103.254 64.994 103.433 C 64.684 103.612 64.426 103.870 64.247 104.180 C 64.068 104.490 63.974 104.842 63.974 105.200 V 123.160 C 63.974 123.200 64.014 123.160 63.974 123.160 H 60.854 C 60.814 123.160 60.854 123.200 60.854 123.160 V 105.200 C 60.854 104.842 60.760 104.490 60.581 104.180 C 60.402 103.870 60.144 103.612 59.834 103.433 C 59.524 103.254 59.172 103.160 58.814 103.160 H 40.527 C 40.169 103.160 39.817 103.254 39.507 103.433 C 39.197 103.612 38.939 103.870 38.760 104.180 C 38.581 104.490 38.487 104.842 38.487 105.200 V 123.160 C 38.487 123.200 38.527 123.160 38.487 123.160 H 35.367 C 35.327 123.160 35.367 123.200 35.367 123.160 V 105.200 C 35.367 104.842 35.273 104.490 35.094 104.180 C 34.915 103.870 34.657 103.612 34.347 103.433 C 34.037 103.254 33.685 103.160 33.327 103.160 H 13.040 C 13.018 103.160 13.000 103.178 13.000 103.200 V 110.660 C 13.000 110.700 13.040 110.660 13.000 110.660 H 10.040 C 10.018 110.660 10.000 110.678 10.000 110.700 V 116.700 C 10.000 116.722 10.018 116.740 10.040 116.740 H 13.000 C 13.040 116.740 13.000 116.700 13.000 116.740 V 122.660 C 13.000 122.700 13.040 122.660 13.000 122.660 H 10.040 C 10.018 122.660 10.000 122.678 10.000 122.700 V 128.700 C 10.000 128.722 10.018 128.740 10.040 128.740 H 13.000 C 13.040 128.740 13.000 128.700 13.000 128.740 V 134.660 C 13.000 134.700 13.040 134.660 13.000 134.660 H 10.040 C 10.018 134.660 10.000 134.678 10.000 134.700 V 140.700 C 10.000 140.722 10.018 140.740 10.040 140.740 H 13.000 C 13.040 140.740 13.000 140.700 13.000 140.740 V 148.200 C 13.000 148.222 13.018 148.240 13.040 148.240 Z" />
  </g>
  <g
     style="fill:none;stroke-linecap:round;stroke-linejoin:round;"
     id="p-4">
    <path
       id="path111"
       stroke-width="0.08"
       stroke="rgb(0,0,0)"
       d="M 13.040 101.660 H 295.540 C 295.562 101.660 295.580 101.642 295.580 101.620 V 94.160 C 295.580 94.120 295.540 94.160 295.580 94.160 H 298.540 C 298.562 94.160 298.580 94.142 298.580 94.120 V 88.120 C 298.580 88.098 298.562 88.080 298.540 88.080 H 295.580 C 295.540 88.080 295.580 88.120 295.580 88.080 V 82.160 C 295.580 82.120 295.540 82.160 295.580 82.160 H 298.540 C 298.562 82.160 298.580 82.142 298.580 82.120 V 76.120 C 298.580 76.098 298.562 76.080 298.540 76.080 H 295.580 C 295.540 76.080 295.580 76.120 295.580 76.080 V 70.160 C 295.580 70.120 295.540 70.160 295.580 70.160 H 298.540 C 298.562 70.160 298.580 70.142 298.580 70.120 V 64.120 C 298.580 64.098 298.562 64.080 298.540 64.080 H 295.580 C 295.540 64.080 295.580 64.120 295.580 64.080 V 56.620 C 295.580 56.598 295.562 56.580 295.540 56.580 H 275.253 C 274.895 56.580 274.543 56.674 274.233 56.853 C 273.923 57.032 273.665 57.290 273.486 57.600 C 273.307 57.910 273.213 58.262 273.213 58.620 V 76.580 C 273.213 76.620 273.253 76.580 273.213 76.580 H 270.093 C 270.053 76.580 270.093 76.620 270.093 76.580 V 58.620 C 270.093 58.262 269.999 57.910 269.820 57.600 C 269.641 57.290 269.383 57.032 269.073 56.853 C 268.763 56.674 268.411 56.580 268.053 56.580 H 249.766 C 249.408 56.580 249.056 56.674 248.746 56.853 C 248.436 57.032 248.178 57.290 247.999 57.600 C 247.820 57.910 247.726 58.262 247.726 58.620 V 76.580 C 247.726 76.620 247.766 76.580 247.726 76.580 H 244.606 C 244.566 76.580 244.606 76.620 244.606 76.580 V 58.620 C 244.606 58.262 244.512 57.910 244.333 57.600 C 244.154 57.290 243.896 57.032 243.586 56.853 C 243.276 56.674 242.924 56.580 242.566 56.580 H 225.136 C 224.778 56.580 224.426 56.674 224.116 56.853 C 223.806 57.032 223.549 57.290 223.369 57.600 C 223.190 57.910 223.096 58.262 223.096 58.620 V 76.580 C 223.096 76.620 223.136 76.580 223.096 76.580 H 219.976 C 219.936 76.580 219.976 76.620 219.976 76.580 V 58.620 C 219.976 58.262 219.882 57.910 219.703 57.600 C 219.524 57.290 219.266 57.032 218.956 56.853 C 218.646 56.674 218.294 56.580 217.936 56.580 H 200.506 C 200.148 56.580 199.796 56.674 199.486 56.853 C 199.176 57.032 198.919 57.290 198.740 57.600 C 198.561 57.910 198.466 58.262 198.466 58.620 V 76.580 C 198.466 76.620 198.506 76.580 198.466 76.580 H 195.346 C 195.306 76.580 195.346 76.620 195.346 76.580 V 58.620 C 195.346 58.262 195.252 57.910 195.073 57.600 C 194.894 57.290 194.636 57.032 194.326 56.853 C 194.016 56.674 193.664 56.580 193.306 56.580 H 180.163 C 179.804 56.580 179.453 56.674 179.143 56.853 C 178.832 57.032 178.575 57.290 178.396 57.600 C 178.217 57.910 178.123 58.262 178.123 58.620 V 76.580 C 178.123 76.620 178.163 76.580 178.123 76.580 H 175.003 C 174.963 76.580 175.003 76.620 175.003 76.580 V 58.620 C 175.003 58.262 174.908 57.910 174.729 57.600 C 174.550 57.290 174.293 57.032 173.983 56.853 C 173.672 56.674 173.321 56.580 172.963 56.580 H 158.104 C 157.746 56.580 157.394 56.674 157.084 56.853 C 156.774 57.032 156.517 57.290 156.338 57.600 C 156.159 57.910 156.064 58.262 156.064 58.620 V 76.580 C 156.064 76.620 156.104 76.580 156.064 76.580 H 152.944 C 152.904 76.580 152.944 76.620 152.944 76.580 V 58.620 C 152.944 58.262 152.850 57.910 152.671 57.600 C 152.492 57.290 152.234 57.032 151.924 56.853 C 151.614 56.674 151.262 56.580 150.904 56.580 H 136.046 C 135.688 56.580 135.336 56.674 135.026 56.853 C 134.716 57.032 134.458 57.290 134.279 57.600 C 134.100 57.910 134.006 58.262 134.006 58.620 V 76.580 C 134.006 76.620 134.046 76.580 134.006 76.580 H 130.886 C 130.846 76.580 130.886 76.620 130.886 76.580 V 58.620 C 130.886 58.262 130.792 57.910 130.613 57.600 C 130.434 57.290 130.176 57.032 129.866 56.853 C 129.556 56.674 129.204 56.580 128.846 56.580 H 115.274 C 114.916 56.580 114.564 56.674 114.254 56.853 C 113.944 57.032 113.686 57.290 113.507 57.600 C 113.328 57.910 113.234 58.262 113.234 58.620 V 76.580 C 113.234 76.620 113.274 76.580 113.234 76.580 H 110.114 C 110.074 76.580 110.114 76.620 110.114 76.580 V 58.620 C 110.114 58.262 110.019 57.910 109.840 57.600 C 109.661 57.290 109.404 57.032 109.094 56.853 C 108.784 56.674 108.432 56.580 108.074 56.580 H 90.644 C 90.286 56.580 89.934 56.674 89.624 56.853 C 89.314 57.032 89.056 57.290 88.877 57.600 C 88.698 57.910 88.604 58.262 88.604 58.620 V 76.580 C 88.604 76.620 88.644 76.580 88.604 76.580 H 85.484 C 85.444 76.580 85.484 76.620 85.484 76.580 V 58.620 C 85.484 58.262 85.390 57.910 85.211 57.600 C 85.031 57.290 84.774 57.032 84.464 56.853 C 84.154 56.674 83.802 56.580 83.444 56.580 H 66.014 C 65.656 56.580 65.304 56.674 64.994 56.853 C 64.684 57.032 64.426 57.290 64.247 57.600 C 64.068 57.910 63.974 58.262 63.974 58.620 V 76.580 C 63.974 76.620 64.014 76.580 63.974 76.580 H 60.854 C 60.814 76.580 60.854 76.620 60.854 76.580 V 58.620 C 60.854 58.262 60.760 57.910 60.581 57.600 C 60.402 57.290 60.144 57.032 59.834 56.853 C 59.524 56.674 59.172 56.580 58.814 56.580 H 40.527 C 40.169 56.580 39.817 56.674 39.507 56.853 C 39.197 57.032 38.939 57.290 38.760 57.600 C 38.581 57.910 38.487 58.262 38.487 58.620 V 76.580 C 38.487 76.620 38.527 76.580 38.487 76.580 H 35.367 C 35.327 76.580 35.367 76.620 35.367 76.580 V 58.620 C 35.367 58.262 35.273 57.910 35.094 57.600 C 34.915 57.290 34.657 57.032 34.347 56.853 C 34.037 56.674 33.685 56.580 33.327 56.580 H 13.040 C 13.018 56.580 13.000 56.598 13.000 56.620 V 64.080 C 13.000 64.120 13.040 64.080 13.000 64.080 H 10.040 C 10.018 64.080 10.000 64.098 10.000 64.120 V 70.120 C 10.000 70.142 10.018 70.160 10.040 70.160 H 13.000 C 13.040 70.160 13.000 70.120 13.000 70.160 V 76.080 C 13.000 76.120 13.040 76.080 13.000 76.080 H 10.040 C 10.018 76.080 10.000 76.098 10.000 76.120 V 82.120 C 10.000 82.142 10.018 82.160 10.040 82.160 H 13.000 C 13.040 82.160 13.000 82.120 13.000 82.160 V 88.080 C 13.000 88.120 13.040 88.080 13.000 88.080 H 10.040 C 10.018 88.080 10.000 88.098 10.000 88.120 V 94.120 C 10.000 94.142 10.018 94.160 10.040 94.160 H 13.000 C 13.040 94.160 13.000 94.120 13.000 94.160 V 101.620 C 13.000 101.642 13.018 101.660 13.040 101.660 Z" />
  </g>
  <g
     style="fill:none;stroke-linecap:round;stroke-linejoin:round;"
     id="p-5">
    <path
       id="path114"
       stroke-width="0.08"
       stroke="rgb(0,0,0)"
       d="M 13.040 55.080 H 295.540 C 295.562 55.080 295.580 55.062 295.580 55.040 V 47.580 C 295.580 47.540 295.540 47.580 295.580 47.580 H 298.540 C 298.562 47.580 298.580 47.562 298.580 47.540 V 41.540 C 298.580 41.518 298.562 41.500 298.540 41.500 H 295.580 C 295.540 41.500 295.580 41.540 295.580 41.500 V 35.580 C 295.580 35.540 295.540 35.580 295.580 35.580 H 298.540 C 298.562 35.580 298.580 35.562 298.580 35.540 V 29.540 C 298.580 29.518 298.562 29.500 298.540 29.500 H 295.580 C 295.540 29.500 295.580 29.540 295.580 29.500 V 23.580 C 295.580 23.540 295.540 23.580 295.580 23.580 H 298.540 C 298.562 23.580 298.580 23.562 298.580 23.540 V 17.540 C 298.580 17.518 298.562 17.500 298.540 17.500 H 295.580 C 295.540 17.500 295.580 17.540 295.580 17.500 V 10.040 C 295.580 10.018 295.562 10.000 295.540 10.000 H 275.253 C 274.895 10.000 274.543 10.094 274.233 10.273 C 273.923 10.452 273.665 10.710 273.486 11.020 C 273.307 11.330 273.213 11.682 273.213 12.040 V 30.000 C 273.213 30.040 273.253 30.000 273.213 30.000 H 270.093 C 270.053 30.000 270.093 30.040 270.093 30.000 V 12.040 C 270.093 11.682 269.999 11.330 269.820 11.020 C 269.641 10.710 269.383 10.452 269.073 10.273 C 268.763 10.094 268.411 10.000 268.053 10.000 H 249.766 C 249.408 10.000 249.056 10.094 248.746 10.273 C 248.436 10.452 248.178 10.710 247.999 11.020 C 247.820 11.330 247.726 11.682 247.726 12.040 V 30.000 C 247.726 30.040 247.766 30.000 247.726 30.000 H 244.606 C 244.566 30.000 244.606 30.040 244.606 30.000 V 12.040 C 244.606 11.682 244.512 11.330 244.333 11.020 C 244.154 10.710 243.896 10.452 243.586 10.273 C 243.276 10.094 242.924 10.000 242.566 10.000 H 225.136 C 224.778 10.000 224.426 10.094 224.116 10.273 C 223.806 10.452 223.549 10.710 223.369 11.020 C 223.190 11.330 223.096 11.682 223.096 12.040 V 30.000 C 223.096 30.040 223.136 30.000 223.096 30.000 H 219.976 C 219.936 30.000 219.976 30.040 219.976 30.000 V 12.040 C 219.976 11.682 219.882 11.330 219.703 11.020 C 219.524 10.710 219.266 10.452 218.956 10.273 C 218.646 10.094 218.294 10.000 217.936 10.000 H 200.506 C 200.148 10.000 199.796 10.094 199.486 10.273 C 199.176 10.452 198.919 10.710 198.740 11.020 C 198.561 11.330 198.466 11.682 198.466 12.040 V 30.000 C 198.466 30.040 198.506 30.000 198.466 30.000 H 195.346 C 195.306 30.000 195.346 30.040 195.346 30.000 V 12.040 C 195.346 11.682 195.252 11.330 195.073 11.020 C 194.894 10.710 194.636 10.452 194.326 10.273 C 194.016 10.094 193.664 10.000 193.306 10.000 H 180.163 C 179.804 10.000 179.453 10.094 179.143 10.273 C 178.832 10.452 178.575 10.710 178.396 11.020 C 178.217 11.330 178.123 11.682 178.123 12.040 V 30.000 C 178.123 30.040 178.163 30.000 178.123 30.000 H 175.003 C 174.963 30.000 175.003 30.040 175.003 30.000 V 12.040 C 175.003 11.682 174.908 11.330 174.729 11.020 C 174.550 10.710 174.293 10.452 173.983 10.273 C 173.672 10.094 173.321 10.000 172.963 10.000 H 158.104 C 157.746 10.000 157.394 10.094 157.084 10.273 C 156.774 10.452 156.517 10.710 156.338 11.020 C 156.159 11.330 156.064 11.682 156.064 12.040 V 30.000 C 156.064 30.040 156.104 30.000 156.064 30.000 H 152.944 C 152.904 30.000 152.944 30.040 152.944 30.000 V 12.040 C 152.944 11.682 152.850 11.330 152.671 11.020 C 152.492 10.710 152.234 10.452 151.924 10.273 C 151.614 10.094 151.262 10.000 150.904 10.000 H 136.046 C 135.688 10.000 135.336 10.094 135.026 10.273 C 134.716 10.452 134.458 10.710 134.279 11.020 C 134.100 11.330 134.006 11.682 134.006 12.040 V 30.000 C 134.006 30.040 134.046 30.000 134.006 30.000 H 130.886 C 130.846 30.000 130.886 30.040 130.886 30.000 V 12.040 C 130.886 11.682 130.792 11.330 130.613 11.020 C 130.434 10.710 130.176 10.452 129.866 10.273 C 129.556 10.094 129.204 10.000 128.846 10.000 H 115.274 C 114.916 10.000 114.564 10.094 114.254 10.273 C 113.944 10.452 113.686 10.710 113.507 11.020 C 113.328 11.330 113.234 11.682 113.234 12.040 V 30.000 C 113.234 30.040 113.274 30.000 113.234 30.000 H 110.114 C 110.074 30.000 110.114 30.040 110.114 30.000 V 12.040 C 110.114 11.682 110.019 11.330 109.840 11.020 C 109.661 10.710 109.404 10.452 109.094 10.273 C 108.784 10.094 108.432 10.000 108.074 10.000 H 90.644 C 90.286 10.000 89.934 10.094 89.624 10.273 C 89.314 10.452 89.056 10.710 88.877 11.020 C 88.698 11.330 88.604 11.682 88.604 12.040 V 30.000 C 88.604 30.040 88.644 30.000 88.604 30.000 H 85.484 C 85.444 30.000 85.484 30.040 85.484 30.000 V 12.040 C 85.484 11.682 85.390 11.330 85.211 11.020 C 85.031 10.710 84.774 10.452 84.464 10.273 C 84.154 10.094 83.802 10.000 83.444 10.000 H 66.014 C 65.656 10.000 65.304 10.094 64.994 10.273 C 64.684 10.452 64.426 10.710 64.247 11.020 C 64.068 11.330 63.974 11.682 63.974 12.040 V 30.000 C 63.974 30.040 64.014 30.000 63.974 30.000 H 60.854 C 60.814 30.000 60.854 30.040 60.854 30.000 V 12.040 C 60.854 11.682 60.760 11.330 60.581 11.020 C 60.402 10.710 60.144 10.452 59.834 10.273 C 59.524 10.094 59.172 10.000 58.814 10.000 H 40.527 C 40.169 10.000 39.817 10.094 39.507 10.273 C 39.197 10.452 38.939 10.710 38.760 11.020 C 38.581 11.330 38.487 11.682 38.487 12.040 V 30.000 C 38.487 30.040 38.527 30.000 38.487 30.000 H 35.367 C 35.327 30.000 35.367 30.040 35.367 30.000 V 12.040 C 35.367 11.682 35.273 11.330 35.094 11.020 C 34.915 10.710 34.657 10.452 34.347 10.273 C 34.037 10.094 33.685 10.000 33.327 10.000 H 13.040 C 13.018 10.000 13.000 10.018 13.000 10.040 V 17.500 C 13.000 17.540 13.040 17.500 13.000 17.500 H 10.040 C 10.018 17.500 10.000 17.518 10.000 17.540 V 23.540 C 10.000 23.562 10.018 23.580 10.040 23.580 H 13.000 C 13.040 23.580 13.000 23.540 13.000 23.580 V 29.500 C 13.000 29.540 13.040 29.500 13.000 29.500 H 10.040 C 10.018 29.500 10.000 29.518 10.000 29.540 V 35.540 C 10.000 35.562 10.018 35.580 10.040 35.580 H 13.000 C 13.040 35.580 13.000 35.540 13.000 35.580 V 41.500 C 13.000 41.540 13.040 41.500 13.000 41.500 H 10.040 C 10.018 41.500 10.000 41.518 10.000 41.540 V 47.540 C 10.000 47.562 10.018 47.580 10.040 47.580 H 13.000 C 13.040 47.580 13.000 47.540 13.000 47.580 V 55.040 C 13.000 55.062 13.018 55.080 13.040 55.080 Z" />
  </g>
  <g
     style="fill:none;stroke-linecap:round;stroke-linejoin:round;"
     id="p-6">
    <path
       id="path117"
       stroke-width="0.08"
       stroke="rgb(0,0,0)"
       d="M 300.120 287.980 H 303.120 H 332.240 C 332.423 287.980 332.602 287.932 332.760 287.841 C 332.919 287.749 333.050 287.618 333.141 287.460 C 333.232 287.302 333.280 287.123 333.280 286.940 V 282.940 C 333.280 282.420 333.417 281.910 333.677 281.460 C 333.937 281.010 334.310 280.636 334.760 280.377 C 335.210 280.117 335.721 279.980 336.240 279.980 H 365.361 C 365.880 279.980 366.391 280.117 366.841 280.377 C 367.291 280.636 367.665 281.010 367.924 281.460 C 368.184 281.910 368.321 282.420 368.321 282.940 V 286.940 C 368.321 287.123 368.369 287.302 368.460 287.460 C 368.552 287.618 368.683 287.749 368.841 287.841 C 368.999 287.932 369.178 287.980 369.361 287.980 H 398.481 H 401.481 C 401.503 287.980 401.521 287.962 401.521 287.940 V 267.940 C 401.521 267.918 401.503 267.900 401.481 267.900 H 398.521 C 398.481 267.900 398.521 267.940 398.521 267.900 V 249.940 C 398.521 249.918 398.503 249.900 398.481 249.900 H 303.120 C 303.098 249.900 303.080 249.918 303.080 249.940 V 267.900 C 303.080 267.940 303.120 267.900 303.080 267.900 H 300.120 C 300.098 267.900 300.080 267.918 300.080 267.940 V 287.940" />
  </g>
  <g
     style="fill:none;stroke-linecap:round;stroke-linejoin:round;"
     id="p-7">
    <path
       id="path120"
       stroke-width="0.08"
       stroke="rgb(0,0,0)"
       d="M 300.120 248.400 H 303.120 H 329.046 C 329.228 248.400 329.408 248.352 329.566 248.261 C 329.724 248.169 329.855 248.038 329.946 247.880 C 330.038 247.722 330.086 247.543 330.086 247.360 V 243.360 C 330.086 242.840 330.223 242.330 330.482 241.880 C 330.742 241.430 331.116 241.056 331.566 240.797 C 332.016 240.537 332.526 240.400 333.046 240.400 H 358.972 C 359.491 240.400 360.002 240.537 360.452 240.797 C 360.902 241.056 361.275 241.430 361.535 241.880 C 361.795 242.330 361.932 242.840 361.932 243.360 V 247.360 C 361.932 247.543 361.980 247.722 362.071 247.880 C 362.162 248.038 362.293 248.169 362.452 248.261 C 362.610 248.352 362.789 248.400 362.972 248.400 H 388.897 H 391.897 C 391.919 248.400 391.937 248.382 391.937 248.360 V 228.360 C 391.937 228.338 391.919 228.320 391.897 228.320 H 388.937 C 388.897 228.320 388.937 228.360 388.937 228.320 V 210.360 C 388.937 210.338 388.919 210.320 388.897 210.320 H 303.120 C 303.098 210.320 303.080 210.338 303.080 210.360 V 228.320 C 303.080 228.360 303.120 228.320 303.080 228.320 H 300.120 C 300.098 228.320 300.080 228.338 300.080 228.360 V 248.360" />
  </g>
  <g
     style="fill:none;stroke-linecap:round;stroke-linejoin:round;"
     id="p-8">
    <path
       id="path123"
       stroke-width="0.08"
       stroke="rgb(0,0,0)"
       d="M 300.120 208.820 H 303.120 H 332.240 C 332.423 208.820 332.602 208.772 332.760 208.681 C 332.919 208.589 333.050 208.458 333.141 208.300 C 333.232 208.142 333.280 207.963 333.280 207.780 V 203.780 C 333.280 203.260 333.417 202.750 333.677 202.300 C 333.937 201.850 334.310 201.476 334.760 201.217 C 335.210 200.957 335.721 200.820 336.240 200.820 H 365.361 C 365.880 200.820 366.391 200.957 366.841 201.217 C 367.291 201.476 367.665 201.850 367.924 202.300 C 368.184 202.750 368.321 203.260 368.321 203.780 V 207.780 C 368.321 207.963 368.369 208.142 368.460 208.300 C 368.552 208.458 368.683 208.589 368.841 208.681 C 368.999 208.772 369.178 208.820 369.361 208.820 H 398.481 H 401.481 C 401.503 208.820 401.521 208.802 401.521 208.780 V 188.780 C 401.521 188.758 401.503 188.740 401.481 188.740 H 398.521 C 398.481 188.740 398.521 188.780 398.521 188.740 V 170.780 C 398.521 170.758 398.503 170.740 398.481 170.740 H 303.120 C 303.098 170.740 303.080 170.758 303.080 170.780 V 188.740 C 303.080 188.780 303.120 188.740 303.080 188.740 H 300.120 C 300.098 188.740 300.080 188.758 300.080 188.780 V 208.780" />
  </g>
</svg>
