<?xml version="1.0" encoding="UTF-8" standalone="no"?>
<svg
   xmlns:dc="http://purl.org/dc/elements/1.1/"
   xmlns:cc="http://creativecommons.org/ns#"
   xmlns:rdf="http://www.w3.org/1999/02/22-rdf-syntax-ns#"
   xmlns:svg="http://www.w3.org/2000/svg"
   xmlns="http://www.w3.org/2000/svg"
   xmlns:sodipodi="http://sodipodi.sourceforge.net/DTD/sodipodi-0.dtd"
   xmlns:inkscape="http://www.inkscape.org/namespaces/inkscape"
   width="20in"
   height="12in"
   viewBox="0 0 508 304.80001"
   version="1.1"
   id="svg8"
   inkscape:version="1.0 (4035a4fb49, 2020-05-01)"
   sodipodi:docname="TotalSusan.svg">
  <defs
     id="defs2">
    <inkscape:path-effect
       hide_knots="false"
       only_selected="true"
       apply_with_radius="true"
       apply_no_radius="true"
       use_knot_distance="true"
       flexible="false"
       chamfer_steps="1"
       radius="12"
       mode="F"
       method="auto"
       unit="px"
       satellites_param="F,0,1,1,0,3.175,0,1 @ F,0,0,1,0,0,0,1 @ F,0,0,1,0,0,0,1 @ F,0,1,1,0,3.175,0,1 @ F,0,0,1,0,0,0,1 @ F,0,0,1,0,0,0,1 @ F,0,0,1,0,0,0,1 @ F,0,0,1,0,0,0,1 @ F,0,0,1,0,0,0,1 @ F,0,0,1,0,0,0,1 @ F,0,0,1,0,0,0,1 @ F,0,0,1,0,0,0,1 @ F,0,0,1,0,0,0,1 @ F,0,0,1,0,0,0,1 @ F,0,0,1,0,0,0,1 @ F,0,0,1,0,0,0,1 @ F,0,0,1,0,0,0,1 @ F,0,0,1,0,0,0,1 @ F,0,0,1,0,0,0,1 @ F,0,0,1,0,0,0,1 @ F,0,0,1,0,0,0,1 @ F,0,0,1,0,0,0,1 @ F,0,0,1,0,0,0,1 @ F,0,0,1,0,0,0,1 @ F,0,0,1,0,0,0,1 @ F,0,0,1,0,0,0,1 @ F,0,0,1,0,0,0,1 @ F,0,0,1,0,0,0,1"
       lpeversion="1"
       is_visible="true"
       id="path-effect92"
       effect="fillet_chamfer" />
    <inkscape:path-effect
       hide_knots="false"
       only_selected="true"
       apply_with_radius="true"
       apply_no_radius="true"
       use_knot_distance="true"
       flexible="false"
       chamfer_steps="1"
       radius="12"
       mode="F"
       method="auto"
       unit="px"
       satellites_param="F,0,0,1,0,0,0,1 @ F,0,0,1,0,0,0,1 @ F,0,0,1,0,0,0,1 @ F,0,0,1,0,0,0,1 @ F,0,0,1,0,0,0,1 @ F,0,0,1,0,0,0,1 @ F,0,0,1,0,0,0,1 @ F,0,0,1,0,0,0,1 @ F,0,0,1,0,0,0,1 @ F,0,0,1,0,0,0,1 @ F,0,1,1,0,3.175,0,1 @ F,0,1,1,0,3.175,0,1 @ F,0,0,1,0,0,0,1 @ F,0,0,1,0,0,0,1 @ F,0,0,1,0,0,0,1 @ F,0,0,1,0,0,0,1 @ F,0,1,1,0,3.175,0,1 @ F,0,1,1,0,3.175,0,1 @ F,0,0,1,0,0,0,1 @ F,0,0,1,0,0,0,1 @ F,0,0,1,0,0,0,1 @ F,0,0,1,0,0,0,1 @ F,0,0,1,0,0,0,1 @ F,0,0,1,0,0,0,1"
       lpeversion="1"
       is_visible="true"
       id="path-effect90"
       effect="fillet_chamfer" />
    <inkscape:path-effect
       hide_knots="false"
       only_selected="true"
       apply_with_radius="true"
       apply_no_radius="true"
       use_knot_distance="true"
       flexible="false"
       chamfer_steps="1"
       radius="12"
       mode="F"
       method="auto"
       unit="px"
       satellites_param="F,0,0,1,0,0,0,1 @ F,0,0,1,0,0,0,1 @ F,0,0,1,0,0,0,1 @ F,0,0,1,0,0,0,1 @ F,0,0,1,0,0,0,1 @ F,0,0,1,0,0,0,1 @ F,0,0,1,0,3.175,0,1 @ F,0,0,1,0,3.175,0,1 @ F,0,1,1,0,0,0,1 @ F,0,1,1,0,0,0,1 @ F,0,0,1,0,0,0,1 @ F,0,0,1,0,0,0,1 @ F,0,0,1,0,0,0,1 @ F,0,0,1,0,0,0,1 @ F,0,1,1,0,0,0,1 @ F,0,1,1,0,0,0,1 @ F,0,0,1,0,3.175,0,1 @ F,0,0,1,0,3.175,0,1 @ F,0,0,1,0,0,0,1 @ F,0,0,1,0,0,0,1"
       lpeversion="1"
       is_visible="true"
       id="path-effect88"
       effect="fillet_chamfer" />
    <inkscape:path-effect
       hide_knots="false"
       only_selected="true"
       apply_with_radius="true"
       apply_no_radius="true"
       use_knot_distance="true"
       flexible="false"
       chamfer_steps="1"
       radius="12"
       mode="F"
       method="auto"
       unit="px"
       satellites_param="F,0,1,1,0,3.175,0,1 @ F,0,0,1,0,0,0,1 @ F,0,0,1,0,0,0,1 @ F,0,1,1,0,3.175,0,1 @ F,0,0,1,0,0,0,1 @ F,0,0,1,0,0,0,1 @ F,0,0,1,0,0,0,1 @ F,0,0,1,0,0,0,1 @ F,0,0,1,0,0,0,1 @ F,0,0,1,0,0,0,1 @ F,0,0,1,0,0,0,1 @ F,0,0,1,0,0,0,1 @ F,0,0,1,0,0,0,1 @ F,0,0,1,0,0,0,1 @ F,0,0,1,0,0,0,1 @ F,0,0,1,0,0,0,1 @ F,0,0,1,0,0,0,1 @ F,0,0,1,0,0,0,1 @ F,0,0,1,0,0,0,1 @ F,0,0,1,0,0,0,1 @ F,0,0,1,0,0,0,1 @ F,0,0,1,0,0,0,1 @ F,0,0,1,0,0,0,1 @ F,0,0,1,0,0,0,1 @ F,0,0,1,0,0,0,1 @ F,0,0,1,0,0,0,1 @ F,0,0,1,0,0,0,1 @ F,0,0,1,0,0,0,1"
       lpeversion="1"
       is_visible="true"
       id="path-effect248"
       effect="fillet_chamfer" />
    <inkscape:path-effect
       hide_knots="false"
       only_selected="true"
       apply_with_radius="true"
       apply_no_radius="true"
       use_knot_distance="true"
       flexible="false"
       chamfer_steps="1"
       radius="12"
       mode="F"
       method="auto"
       unit="px"
       satellites_param="F,0,0,1,0,0,0,1 @ F,0,0,1,0,0,0,1 @ F,0,0,1,0,0,0,1 @ F,0,0,1,0,0,0,1 @ F,0,0,1,0,0,0,1 @ F,0,0,1,0,0,0,1 @ F,0,0,1,0,0,0,1 @ F,0,0,1,0,0,0,1 @ F,0,0,1,0,0,0,1 @ F,0,0,1,0,0,0,1 @ F,0,1,1,0,3.175,0,1 @ F,0,1,1,0,3.175,0,1 @ F,0,0,1,0,0,0,1 @ F,0,0,1,0,0,0,1 @ F,0,0,1,0,0,0,1 @ F,0,0,1,0,0,0,1 @ F,0,1,1,0,3.175,0,1 @ F,0,1,1,0,3.175,0,1 @ F,0,0,1,0,0,0,1 @ F,0,0,1,0,0,0,1 @ F,0,0,1,0,0,0,1 @ F,0,0,1,0,0,0,1 @ F,0,0,1,0,0,0,1 @ F,0,0,1,0,0,0,1"
       lpeversion="1"
       is_visible="true"
       id="path-effect246"
       effect="fillet_chamfer" />
    <inkscape:path-effect
       hide_knots="false"
       only_selected="true"
       apply_with_radius="true"
       apply_no_radius="true"
       use_knot_distance="true"
       flexible="false"
       chamfer_steps="1"
       radius="12"
       mode="F"
       method="auto"
       unit="px"
       satellites_param="F,0,0,1,0,0,0,1 @ F,0,0,1,0,0,0,1 @ F,0,0,1,0,0,0,1 @ F,0,0,1,0,0,0,1 @ F,0,0,1,0,0,0,1 @ F,0,0,1,0,0,0,1 @ F,0,0,1,0,3.175,0,1 @ F,0,0,1,0,3.175,0,1 @ F,0,1,1,0,0,0,1 @ F,0,1,1,0,0,0,1 @ F,0,0,1,0,0,0,1 @ F,0,0,1,0,0,0,1 @ F,0,0,1,0,0,0,1 @ F,0,0,1,0,0,0,1 @ F,0,1,1,0,0,0,1 @ F,0,1,1,0,0,0,1 @ F,0,0,1,0,3.175,0,1 @ F,0,0,1,0,3.175,0,1 @ F,0,0,1,0,0,0,1 @ F,0,0,1,0,0,0,1"
       lpeversion="1"
       is_visible="true"
       id="path-effect244"
       effect="fillet_chamfer" />
    <inkscape:path-effect
       hide_knots="false"
       only_selected="true"
       apply_with_radius="true"
       apply_no_radius="true"
       use_knot_distance="true"
       flexible="false"
       chamfer_steps="1"
       radius="12"
       mode="F"
       method="auto"
       unit="px"
       satellites_param="F,0,1,1,0,3.175,0,1 @ F,0,0,1,0,0,0,1 @ F,0,0,1,0,0,0,1 @ F,0,1,1,0,3.175,0,1 @ F,0,0,1,0,0,0,1 @ F,0,0,1,0,0,0,1 @ F,0,0,1,0,0,0,1 @ F,0,0,1,0,0,0,1 @ F,0,0,1,0,0,0,1 @ F,0,0,1,0,0,0,1 @ F,0,0,1,0,0,0,1 @ F,0,0,1,0,0,0,1 @ F,0,0,1,0,0,0,1 @ F,0,0,1,0,0,0,1 @ F,0,0,1,0,0,0,1 @ F,0,0,1,0,0,0,1 @ F,0,0,1,0,0,0,1 @ F,0,0,1,0,0,0,1 @ F,0,0,1,0,0,0,1 @ F,0,0,1,0,0,0,1 @ F,0,0,1,0,0,0,1 @ F,0,0,1,0,0,0,1 @ F,0,0,1,0,0,0,1 @ F,0,0,1,0,0,0,1 @ F,0,0,1,0,0,0,1 @ F,0,0,1,0,0,0,1 @ F,0,0,1,0,0,0,1 @ F,0,0,1,0,0,0,1"
       lpeversion="1"
       is_visible="true"
       id="path-effect166"
       effect="fillet_chamfer" />
    <inkscape:path-effect
       hide_knots="false"
       only_selected="true"
       apply_with_radius="true"
       apply_no_radius="true"
       use_knot_distance="true"
       flexible="false"
       chamfer_steps="1"
       radius="12"
       mode="F"
       method="auto"
       unit="px"
       satellites_param="F,0,0,1,0,0,0,1 @ F,0,0,1,0,0,0,1 @ F,0,0,1,0,0,0,1 @ F,0,0,1,0,0,0,1 @ F,0,0,1,0,0,0,1 @ F,0,0,1,0,0,0,1 @ F,0,0,1,0,0,0,1 @ F,0,0,1,0,0,0,1 @ F,0,0,1,0,0,0,1 @ F,0,0,1,0,0,0,1 @ F,0,1,1,0,3.175,0,1 @ F,0,1,1,0,3.175,0,1 @ F,0,0,1,0,0,0,1 @ F,0,0,1,0,0,0,1 @ F,0,0,1,0,0,0,1 @ F,0,0,1,0,0,0,1 @ F,0,1,1,0,3.175,0,1 @ F,0,1,1,0,3.175,0,1 @ F,0,0,1,0,0,0,1 @ F,0,0,1,0,0,0,1 @ F,0,0,1,0,0,0,1 @ F,0,0,1,0,0,0,1 @ F,0,0,1,0,0,0,1 @ F,0,0,1,0,0,0,1"
       lpeversion="1"
       is_visible="true"
       id="path-effect164"
       effect="fillet_chamfer" />
    <inkscape:path-effect
       hide_knots="false"
       only_selected="true"
       apply_with_radius="true"
       apply_no_radius="true"
       use_knot_distance="true"
       flexible="false"
       chamfer_steps="1"
       radius="12"
       mode="F"
       method="auto"
       unit="px"
       satellites_param="F,0,0,1,0,0,0,1 @ F,0,0,1,0,0,0,1 @ F,0,0,1,0,0,0,1 @ F,0,0,1,0,0,0,1 @ F,0,0,1,0,0,0,1 @ F,0,0,1,0,0,0,1 @ F,0,0,1,0,3.175,0,1 @ F,0,0,1,0,3.175,0,1 @ F,0,1,1,0,0,0,1 @ F,0,1,1,0,0,0,1 @ F,0,0,1,0,0,0,1 @ F,0,0,1,0,0,0,1 @ F,0,0,1,0,0,0,1 @ F,0,0,1,0,0,0,1 @ F,0,1,1,0,0,0,1 @ F,0,1,1,0,0,0,1 @ F,0,0,1,0,3.175,0,1 @ F,0,0,1,0,3.175,0,1 @ F,0,0,1,0,0,0,1 @ F,0,0,1,0,0,0,1"
       lpeversion="1"
       is_visible="true"
       id="path-effect162"
       effect="fillet_chamfer" />
    <inkscape:path-effect
       effect="fillet_chamfer"
       id="path-effect139"
       is_visible="true"
       lpeversion="1"
       satellites_param="F,0,1,1,0,3.175,0,1 @ F,0,0,1,0,0,0,1 @ F,0,0,1,0,0,0,1 @ F,0,1,1,0,3.175,0,1 @ F,0,0,1,0,0,0,1 @ F,0,0,1,0,0,0,1 @ F,0,0,1,0,0,0,1 @ F,0,0,1,0,0,0,1 @ F,0,0,1,0,0,0,1 @ F,0,0,1,0,0,0,1 @ F,0,0,1,0,0,0,1 @ F,0,0,1,0,0,0,1 @ F,0,0,1,0,0,0,1 @ F,0,0,1,0,0,0,1 @ F,0,0,1,0,0,0,1 @ F,0,0,1,0,0,0,1 @ F,0,0,1,0,0,0,1 @ F,0,0,1,0,0,0,1 @ F,0,0,1,0,0,0,1 @ F,0,0,1,0,0,0,1 @ F,0,0,1,0,0,0,1 @ F,0,0,1,0,0,0,1 @ F,0,0,1,0,0,0,1 @ F,0,0,1,0,0,0,1 @ F,0,0,1,0,0,0,1 @ F,0,0,1,0,0,0,1 @ F,0,0,1,0,0,0,1 @ F,0,0,1,0,0,0,1"
       unit="px"
       method="auto"
       mode="F"
       radius="12"
       chamfer_steps="1"
       flexible="false"
       use_knot_distance="true"
       apply_no_radius="true"
       apply_with_radius="true"
       only_selected="true"
       hide_knots="false" />
    <inkscape:path-effect
       effect="fillet_chamfer"
       id="path-effect137"
       is_visible="true"
       lpeversion="1"
       satellites_param="F,0,0,1,0,0,0,1 @ F,0,0,1,0,0,0,1 @ F,0,0,1,0,0,0,1 @ F,0,0,1,0,0,0,1 @ F,0,0,1,0,0,0,1 @ F,0,0,1,0,0,0,1 @ F,0,0,1,0,0,0,1 @ F,0,0,1,0,0,0,1 @ F,0,0,1,0,0,0,1 @ F,0,0,1,0,0,0,1 @ F,0,1,1,0,3.175,0,1 @ F,0,1,1,0,3.175,0,1 @ F,0,0,1,0,0,0,1 @ F,0,0,1,0,0,0,1 @ F,0,0,1,0,0,0,1 @ F,0,0,1,0,0,0,1 @ F,0,1,1,0,3.175,0,1 @ F,0,1,1,0,3.175,0,1 @ F,0,0,1,0,0,0,1 @ F,0,0,1,0,0,0,1 @ F,0,0,1,0,0,0,1 @ F,0,0,1,0,0,0,1 @ F,0,0,1,0,0,0,1 @ F,0,0,1,0,0,0,1"
       unit="px"
       method="auto"
       mode="F"
       radius="12"
       chamfer_steps="1"
       flexible="false"
       use_knot_distance="true"
       apply_no_radius="true"
       apply_with_radius="true"
       only_selected="true"
       hide_knots="false" />
    <inkscape:path-effect
       effect="fillet_chamfer"
       id="path-effect135"
       is_visible="true"
       lpeversion="1"
       satellites_param="F,0,0,1,0,0,0,1 @ F,0,0,1,0,0,0,1 @ F,0,0,1,0,0,0,1 @ F,0,0,1,0,0,0,1 @ F,0,0,1,0,0,0,1 @ F,0,0,1,0,0,0,1 @ F,0,0,1,0,3.175,0,1 @ F,0,0,1,0,3.175,0,1 @ F,0,1,1,0,0,0,1 @ F,0,1,1,0,0,0,1 @ F,0,0,1,0,0,0,1 @ F,0,0,1,0,0,0,1 @ F,0,0,1,0,0,0,1 @ F,0,0,1,0,0,0,1 @ F,0,1,1,0,0,0,1 @ F,0,1,1,0,0,0,1 @ F,0,0,1,0,3.175,0,1 @ F,0,0,1,0,3.175,0,1 @ F,0,0,1,0,0,0,1 @ F,0,0,1,0,0,0,1"
       unit="px"
       method="auto"
       mode="F"
       radius="12"
       chamfer_steps="1"
       flexible="false"
       use_knot_distance="true"
       apply_no_radius="true"
       apply_with_radius="true"
       only_selected="true"
       hide_knots="false" />
    <inkscape:path-effect
       effect="fillet_chamfer"
       id="path-effect133"
       is_visible="true"
       lpeversion="1"
       satellites_param="F,0,0,1,0,0,0,1 @ F,0,0,1,0,0,0,1 @ F,0,0,1,0,0,0,1 @ F,0,0,1,0,0,0,1 @ F,0,0,1,0,0,0,1 @ F,0,0,1,0,0,0,1 @ F,0,0,1,0,0,0,1 @ F,0,0,1,0,0,0,1 @ F,0,0,1,0,0,0,1 @ F,0,0,1,0,0,0,1 @ F,0,0,1,0,0,0,1 @ F,0,0,1,0,0,0,1 @ F,0,0,1,0,0,0,1 @ F,0,0,1,0,0,0,1 @ F,0,0,1,0,0,0,1 @ F,0,0,1,0,0,0,1 @ F,0,0,1,0,0,0,1 @ F,0,0,1,0,3.175,0,1 @ F,0,0,1,0,0,0,1 @ F,0,0,1,0,0,0,1"
       unit="px"
       method="auto"
       mode="F"
       radius="12"
       chamfer_steps="1"
       flexible="false"
       use_knot_distance="true"
       apply_no_radius="true"
       apply_with_radius="true"
       only_selected="true"
       hide_knots="false" />
    <inkscape:path-effect
       effect="fillet_chamfer"
       id="path-effect131"
       is_visible="true"
       lpeversion="1"
       satellites_param="F,0,0,1,0,0,0,1 @ F,0,0,1,0,0,0,1 @ F,0,0,1,0,0,0,1 @ F,0,0,1,0,0,0,1 @ F,0,0,1,0,0,0,1 @ F,0,0,1,0,0,0,1 @ F,0,0,1,0,0,0,1 @ F,0,0,1,0,0,0,1 @ F,0,0,1,0,0,0,1 @ F,0,0,1,0,0,0,1 @ F,0,0,1,0,0,0,1 @ F,0,0,1,0,0,0,1 @ F,0,0,1,0,0,0,1 @ F,0,0,1,0,0,0,1 @ F,0,0,1,0,0,0,1 @ F,0,0,1,0,0,0,1 @ F,0,0,1,0,0,0,1 @ F,0,0,1,0,0,0,1 @ F,0,0,1,0,0,0,1 @ F,0,0,1,0,0,0,1"
       unit="px"
       method="auto"
       mode="F"
       radius="12"
       chamfer_steps="1"
       flexible="false"
       use_knot_distance="true"
       apply_no_radius="true"
       apply_with_radius="true"
       only_selected="true"
       hide_knots="false" />
    <inkscape:path-effect
       effect="fillet_chamfer"
       id="path-effect129"
       is_visible="true"
       lpeversion="1"
       satellites_param="F,0,0,1,0,0,0,1 @ F,0,0,1,0,0,0,1 @ F,0,0,1,0,0,0,1 @ F,0,0,1,0,0,0,1 @ F,0,0,1,0,0,0,1 @ F,0,0,1,0,0,0,1 @ F,0,0,1,0,0,0,1 @ F,0,0,1,0,0,0,1 @ F,0,1,1,0,0,0,1 @ F,0,0,1,0,0,0,1 @ F,0,0,1,0,0,0,1 @ F,0,0,1,0,0,0,1 @ F,0,0,1,0,0,0,1 @ F,0,0,1,0,0,0,1 @ F,0,0,1,0,0,0,1 @ F,0,1,1,0,0,0,1 @ F,0,0,1,0,0,0,1 @ F,0,0,1,0,0,0,1 @ F,0,0,1,0,0,0,1 @ F,0,0,1,0,0,0,1"
       unit="px"
       method="auto"
       mode="F"
       radius="12"
       chamfer_steps="1"
       flexible="false"
       use_knot_distance="true"
       apply_no_radius="true"
       apply_with_radius="true"
       only_selected="true"
       hide_knots="false" />
    <inkscape:path-effect
       effect="fillet_chamfer"
       id="path-effect77"
       is_visible="true"
       lpeversion="1"
       satellites_param="F,0,0,1,0,0,0,1 @ F,0,0,1,0,0,0,1 @ F,0,0,1,0,0,0,1 @ F,0,0,1,0,0,0,1 @ F,0,0,1,0,0,0,1 @ F,0,0,1,0,0,0,1 @ F,0,0,1,0,0,0,1 @ F,0,0,1,0,0,0,1 @ F,0,0,1,0,0,0,1 @ F,0,0,1,0,0,0,1 @ F,0,0,1,0,0,0,1 @ F,0,0,1,0,0,0,1 @ F,0,0,1,0,0,0,1 @ F,0,0,1,0,0,0,1 @ F,0,0,1,0,0,0,1 @ F,0,0,1,0,0,0,1"
       unit="px"
       method="auto"
       mode="F"
       radius="12"
       chamfer_steps="1"
       flexible="false"
       use_knot_distance="true"
       apply_no_radius="true"
       apply_with_radius="true"
       only_selected="true"
       hide_knots="false" />
    <inkscape:path-effect
       effect="fillet_chamfer"
       id="path-effect75"
       is_visible="true"
       lpeversion="1"
       satellites_param="F,0,0,1,0,0,0,1 @ F,0,0,1,0,0,0,1 @ F,0,0,1,0,0,0,1 @ F,0,0,1,0,0,0,1 @ F,0,0,1,0,3.175,0,1 @ F,0,1,1,0,0,0,1 @ F,0,1,1,0,0,0,1 @ F,0,1,1,0,0,0,1 @ F,0,1,1,0,0,0,1 @ F,0,1,1,0,0,0,1 | F,0,1,1,0,0,0,1 @ F,0,1,1,0,0,0,1 @ F,0,0,1,0,0,0,1 @ F,0,0,1,0,0,0,1"
       unit="px"
       method="auto"
       mode="F"
       radius="12"
       chamfer_steps="1"
       flexible="false"
       use_knot_distance="true"
       apply_no_radius="true"
       apply_with_radius="true"
       only_selected="true"
       hide_knots="false" />
    <inkscape:path-effect
       effect="fillet_chamfer"
       id="path-effect73"
       is_visible="true"
       lpeversion="1"
       satellites_param="F,0,0,1,0,0,0,1 @ F,0,0,1,0,0,0,1 @ F,0,0,1,0,0,0,1 @ F,0,0,1,0,0,0,1 @ F,0,0,1,0,0,0,1 @ F,0,0,1,0,0,0,1 @ C,0,1,1,0,0,0,1 @ C,0,1,1,0,0,0,1 @ F,0,0,1,0,0,0,1 @ F,0,0,1,0,0,0,1 @ F,0,0,1,0,0,0,1 @ F,0,0,1,0,0,0,1 @ F,0,0,1,0,0,0,1 @ F,0,0,1,0,0,0,1 @ C,0,1,1,0,0,0,1 @ C,0,1,1,0,0,0,1"
       unit="px"
       method="auto"
       mode="F"
       radius="12"
       chamfer_steps="1"
       flexible="false"
       use_knot_distance="true"
       apply_no_radius="true"
       apply_with_radius="true"
       only_selected="true"
       hide_knots="false" />
    <inkscape:path-effect
       effect="fillet_chamfer"
       id="path-effect71"
       is_visible="true"
       lpeversion="1"
       satellites_param="F,0,0,1,0,0,0,1 @ F,0,0,1,0,0,0,1 @ F,0,0,1,0,0,0,1 @ F,0,0,1,0,0,0,1 @ F,0,0,1,0,0,0,1 @ F,0,0,1,0,0,0,1 @ C,0,0,1,0,0,0,1 @ C,0,0,1,0,0,0,1 @ F,0,0,1,0,0,0,1 @ F,0,0,1,0,0,0,1 @ F,0,0,1,0,0,0,1 @ F,0,0,1,0,0,0,1 @ F,0,0,1,0,0,0,1 @ F,0,0,1,0,0,0,1 @ C,0,0,1,0,0,0,1 @ C,0,0,1,0,0,0,1"
       unit="px"
       method="auto"
       mode="F"
       radius="12"
       chamfer_steps="1"
       flexible="false"
       use_knot_distance="true"
       apply_no_radius="true"
       apply_with_radius="true"
       only_selected="true"
       hide_knots="false" />
    <inkscape:path-effect
       effect="fillet_chamfer"
       id="path-effect69"
       is_visible="true"
       lpeversion="1"
       satellites_param="F,0,0,1,0,0,0,1 @ F,0,0,1,0,0,0,1 @ F,0,0,1,0,0,0,1 @ F,0,0,1,0,0,0,1 @ F,0,0,1,0,0,0,1 @ F,0,0,1,0,0,0,1 @ F,0,0,1,0,0,0,1 @ F,0,0,1,0,0,0,1 @ F,0,0,1,0,0,0,1 @ F,0,0,1,0,0,0,1 @ F,0,0,1,0,0,0,1 @ F,0,0,1,0,0,0,1 @ F,0,0,1,0,0,0,1 @ F,0,0,1,0,0,0,1 @ F,0,0,1,0,0,0,1 @ F,0,0,1,0,0,0,1"
       unit="px"
       method="auto"
       mode="F"
       radius="12"
       chamfer_steps="1"
       flexible="false"
       use_knot_distance="true"
       apply_no_radius="true"
       apply_with_radius="true"
       only_selected="true"
       hide_knots="false" />
    <inkscape:path-effect
       effect="fillet_chamfer"
       id="path-effect505"
       is_visible="true"
       lpeversion="1"
       satellites_param="F,0,0,1,0,0,0,1 @ F,0,0,1,0,0,0,1 | F,0,0,1,0,0,0,1 @ F,0,0,1,0,3.175,0,1 @ F,0,0,1,0,0,0,1 | F,0,0,1,0,0,0,1 @ F,0,0,1,0,0,0,1 | F,0,0,1,0,0,0,1 @ F,0,0,1,0,0,0,1 | F,0,0,1,0,0,0,1 @ F,0,0,1,0,3.175,0,1 @ F,0,0,1,0,0,0,1"
       unit="px"
       method="auto"
       mode="F"
       radius="12"
       chamfer_steps="1"
       flexible="false"
       use_knot_distance="true"
       apply_no_radius="true"
       apply_with_radius="true"
       only_selected="false"
       hide_knots="false" />
    <inkscape:path-effect
       hide_knots="false"
       only_selected="true"
       apply_with_radius="true"
       apply_no_radius="false"
       use_knot_distance="false"
       flexible="false"
       chamfer_steps="1"
       radius="12"
       mode="F"
       method="auto"
       unit="px"
       satellites_param="F,0,0,1,0,0,0,1 @ F,0,0,1,0,0,0,1 | F,0,0,1,0,0,0,1 @ F,0,0,1,0,0,0,1 | F,0,0,1,0,0,0,1 @ F,0,0,1,0,3.175,0,1 @ F,0,0,1,0,3.175,0,1 @ F,0,0,1,0,0,0,1 | C,0,1,1,0,0,0,1 @ F,0,0,1,0,0,0,1 | F,0,0,1,0,0,0,1 @ F,0,0,1,0,0,0,1 | F,0,0,1,0,0,0,1 @ C,0,1,1,0,0,0,1 | F,0,0,1,0,0,0,1 @ F,0,0,1,0,0,0,1 | F,0,0,1,0,0,0,1 @ F,0,0,1,0,3.175,0,1 @ F,0,0,1,0,3.175,0,1 @ F,0,0,1,0,0,0,1"
       lpeversion="1"
       is_visible="true"
       id="path-effect486"
       effect="fillet_chamfer" />
    <inkscape:path-effect
       hide_knots="false"
       only_selected="true"
       apply_with_radius="true"
       apply_no_radius="true"
       use_knot_distance="true"
       flexible="false"
       chamfer_steps="1"
       radius="0"
       mode="F"
       method="auto"
       unit="px"
       satellites_param="F,0,0,1,0,0,0,1 @ F,0,0,1,0,0,0,1 @ F,0,0,1,0,0,0,1 @ F,0,0,1,0,0,0,1 @ F,0,0,1,0,0,0,1 @ F,0,0,1,0,0,0,1 @ F,0,0,1,0,0,0,1 @ F,0,0,1,0,0,0,1 @ F,0,0,1,0,0,0,1 @ F,0,1,1,0,0,0,1 | F,0,0,1,0,0,0,1 @ F,0,0,1,0,0,0,1 @ F,0,0,1,0,0,0,1 @ F,0,0,1,0,0,0,1 @ F,0,0,1,0,0,0,1 @ F,0,0,1,0,0,0,1 @ F,0,0,1,0,0,0,1 @ F,0,0,1,0,0,0,1 @ F,0,0,1,0,0,0,1 @ F,0,0,1,0,0,0,1 @ F,0,0,1,0,0,0,1 @ F,0,0,1,0,0,0,1 @ F,0,0,1,0,0,0,1 @ F,0,0,1,0,0,0,1 @ F,0,0,1,0,0,0,1 @ F,0,1,1,0,0,0,1 @ F,0,1,1,0,0,0,1"
       lpeversion="1"
       is_visible="true"
       id="path-effect478"
       effect="fillet_chamfer" />
    <inkscape:path-effect
       hide_knots="false"
       only_selected="false"
       apply_with_radius="true"
       apply_no_radius="true"
       use_knot_distance="true"
       flexible="false"
       chamfer_steps="1"
       radius="12"
       mode="F"
       method="auto"
       unit="px"
       satellites_param="F,0,0,1,0,0,0,1 @ F,0,0,1,0,3.175,0,1 @ F,0,0,1,0,3.175,0,1 @ F,0,0,1,0,3.175,0,1 @ F,0,0,1,0,3.175,0,1 @ F,0,0,1,0,3.175,0,1 @ F,0,0,1,0,3.175,0,1 @ F,0,0,1,0,3.175,0,1 @ F,0,0,1,0,3.175,0,1 @ F,0,0,1,0,3.175,0,1 @ F,0,0,1,0,3.175,0,1 | F,0,0,1,0,0,0,1 @ F,0,0,1,0,3.175,0,1 @ F,0,0,1,0,3.175,0,1 @ F,0,0,1,0,3.175,0,1 @ F,0,0,1,0,3.175,0,1 @ F,0,0,1,0,3.175,0,1 @ F,0,0,1,0,3.175,0,1"
       lpeversion="1"
       is_visible="true"
       id="path-effect474"
       effect="fillet_chamfer" />
    <inkscape:path-effect
       hide_knots="false"
       only_selected="false"
       apply_with_radius="true"
       apply_no_radius="true"
       use_knot_distance="true"
       flexible="false"
       chamfer_steps="1"
       radius="12"
       mode="F"
       method="auto"
       unit="px"
       satellites_param="F,0,0,1,0,0,0,1 @ F,0,0,1,0,0,0,1 @ F,0,0,1,0,0,0,1 @ F,0,0,1,0,0,0,1 @ F,0,0,1,0,0,0,1 @ F,0,0,1,0,0,0,1 @ F,0,0,1,0,0,0,1 @ F,0,0,1,0,0,0,1 @ F,0,0,1,0,0,0,1 @ F,0,0,1,0,0,0,1 @ F,0,0,1,0,0,0,1 | F,0,0,1,0,0,0,1 @ F,0,0,1,0,0,0,1 @ F,0,0,1,0,0,0,1 @ F,0,0,1,0,0,0,1 @ F,0,0,1,0,0,0,1 @ F,0,0,1,0,0,0,1 @ F,0,0,1,0,0,0,1"
       lpeversion="1"
       is_visible="true"
       id="path-effect471"
       effect="fillet_chamfer" />
    <inkscape:path-effect
       effect="fillet_chamfer"
       id="path-effect714"
       is_visible="true"
       lpeversion="1"
       satellites_param="F,0,0,1,0,0,0,1 @ F,0,0,1,0,3.175,0,1 @ F,0,0,1,0,3.175,0,1 @ F,0,0,1,0,3.175,0,1 @ F,0,0,1,0,3.175,0,1 @ F,0,1,1,0,0,0,1 @ F,0,0,1,0,0,0,1 | F,0,0,1,0,0,0,1 @ F,0,0,1,0,3.175,0,1 @ F,0,0,1,0,3.175,0,1 @ F,0,0,1,0,0,0,1 @ F,0,0,1,0,0,0,1"
       unit="px"
       method="auto"
       mode="F"
       radius="12"
       chamfer_steps="1"
       flexible="false"
       use_knot_distance="true"
       apply_no_radius="true"
       apply_with_radius="true"
       only_selected="true"
       hide_knots="false" />
    <inkscape:path-effect
       hide_knots="false"
       only_selected="false"
       apply_with_radius="true"
       apply_no_radius="true"
       use_knot_distance="true"
       flexible="false"
       chamfer_steps="1"
       radius="12"
       mode="C"
       method="auto"
       unit="px"
       satellites_param="F,0,0,1,0,0,0,1 @ F,0,0,1,0,0,0,1 | F,0,0,1,0,0,0,1 @ F,0,0,1,0,0,0,1 | F,0,0,1,0,0,0,1 @ F,0,0,1,0,0,0,1 | F,0,0,1,0,0,0,1 @ F,0,0,1,0,0,0,1 | F,0,0,1,0,0,0,1 @ F,0,0,1,0,0,0,1 | F,0,0,1,0,0,0,1 @ F,0,0,1,0,0,0,1 | F,0,0,1,0,0,0,1 @ F,0,0,1,0,0,0,1 | F,0,0,1,0,0,0,1 @ F,0,0,1,0,0,0,1 | F,0,0,1,0,0,0,1 @ F,0,0,1,0,0,0,1 | F,0,0,1,0,0,0,1 @ F,0,0,1,0,0,0,1 | F,0,0,1,0,0,0,1 @ F,0,0,1,0,0,0,1 | F,0,0,1,0,0,0,1 @ F,0,0,1,0,0,0,1 | F,0,0,1,0,0,0,1 @ F,0,0,1,0,0,0,1 | F,0,0,1,0,0,0,1 @ F,0,0,1,0,0,0,1 | F,0,0,1,0,0,0,1 @ F,0,0,1,0,0,0,1 | F,0,0,1,0,0,0,1 @ F,0,0,1,0,0,0,1 | F,0,0,1,0,0,0,1 @ F,0,0,1,0,0,0,1 | F,0,0,1,0,0,0,1 @ F,0,0,1,0,0,0,1 | F,0,0,1,0,0,0,1 @ F,0,0,1,0,0,0,1 | F,0,0,1,0,0,0,1 @ F,0,0,1,0,0,0,1 @ C,0,0,1,0,0,0,1 | F,0,0,1,0,0,0,1 @ F,0,0,1,0,0,0,1 @ C,0,0,1,0,0,0,1"
       lpeversion="1"
       is_visible="true"
       id="path-effect427"
       effect="fillet_chamfer" />
    <inkscape:path-effect
       hide_knots="false"
       only_selected="true"
       apply_with_radius="true"
       apply_no_radius="true"
       use_knot_distance="true"
       flexible="false"
       chamfer_steps="1"
       radius="12"
       mode="F"
       method="auto"
       unit="px"
       satellites_param="F,0,0,1,0,0,0,1 @ F,0,0,1,0,2.4737246,0,1 @ F,0,0,1,0,1.8346307,0,1 @ F,0,0,1,0,3.175,0,1 @ F,0,0,1,0,3.175,0,1 @ F,0,0,1,0,0,0,1 | F,0,0,1,0,0,0,1 @ F,0,0,1,0,0,0,1 | F,0,0,1,0,0,0,1 @ F,0,0,1,0,0,0,1 | F,0,0,1,0,0,0,1 @ F,0,0,1,0,3.175,0,1 @ F,0,0,1,0,3.175,0,1 @ F,0,0,1,0,0,0,1 | F,0,0,1,0,0,0,1 @ F,0,0,1,0,3.175,0,1 @ F,0,0,1,0,3.175,0,1 @ F,0,0,1,0,0,0,1 | F,0,0,1,0,0,0,1 @ F,0,0,1,0,3.175,0,1 @ F,0,0,1,0,3.175,0,1 @ F,0,0,1,0,0,0,1 | F,0,0,1,0,0,0,1 @ F,0,0,1,0,3.175,0,1 @ F,0,0,1,0,3.175,0,1 @ F,0,0,1,0,0,0,1 | F,0,0,1,0,0,0,1 @ F,0,0,1,0,1.91806,0,1 @ F,0,0,1,0,2.0872204,0,1 @ F,0,0,1,0,3.175,0,1 @ F,0,0,1,0,3.175,0,1 @ F,0,0,1,0,0,0,1 | F,0,0,1,0,0,0,1 @ F,0,0,1,0,0,0,1 | F,0,0,1,0,0,0,1 @ F,0,0,1,0,0,0,1"
       lpeversion="1"
       is_visible="true"
       id="path-effect46"
       effect="fillet_chamfer" />
    <inkscape:path-effect
       hide_knots="false"
       only_selected="true"
       apply_with_radius="true"
       apply_no_radius="true"
       use_knot_distance="true"
       flexible="false"
       chamfer_steps="1"
       radius="12"
       mode="F"
       method="auto"
       unit="px"
       satellites_param="F,0,0,1,0,0,0,1 @ F,0,0,1,0,0,0,1 @ F,0,0,1,0,0,0,1 @ F,0,0,1,0,0,0,1 @ F,0,0,1,0,0,0,1 @ F,0,0,1,0,0,0,1 | F,0,0,1,0,0,0,1 @ F,0,0,1,0,0,0,1 | F,0,0,1,0,0,0,1 @ F,0,0,1,0,0,0,1 | F,0,0,1,0,0,0,1 @ F,0,0,1,0,0,0,1 @ F,0,0,1,0,0,0,1 @ F,0,0,1,0,0,0,1 | F,0,0,1,0,0,0,1 @ F,0,0,1,0,0,0,1 @ F,0,0,1,0,0,0,1 @ F,0,0,1,0,0,0,1 | F,0,0,1,0,0,0,1 @ F,0,0,1,0,0,0,1 @ F,0,0,1,0,0,0,1 @ F,0,0,1,0,0,0,1 | F,0,0,1,0,0,0,1 @ F,0,0,1,0,0,0,1 @ F,0,0,1,0,0,0,1 @ F,0,0,1,0,0,0,1 | F,0,0,1,0,0,0,1 @ F,0,0,1,0,0,0,1 @ F,0,0,1,0,0,0,1 @ F,0,0,1,0,0,0,1 @ F,0,0,1,0,0,0,1 @ F,0,0,1,0,0,0,1 | F,0,0,1,0,0,0,1 @ F,0,0,1,0,0,0,1 | F,0,0,1,0,0,0,1 @ F,0,0,1,0,0,0,1"
       lpeversion="1"
       is_visible="true"
       id="path-effect44"
       effect="fillet_chamfer" />
    <filter
       height="1.0002675"
       y="-1.5329246e-06"
       width="0.99495608"
       x="-9.8588328e-07"
       id="filter587"
       style="color-interpolation-filters:sRGB"
       inkscape:collect="always">
      <feGaussianBlur
         id="feGaussianBlur589"
         stdDeviation="0.00014212771"
         inkscape:collect="always" />
    </filter>
  </defs>
  <sodipodi:namedview
     id="base"
     pagecolor="#ffffff"
     bordercolor="#666666"
     borderopacity="1.0"
     inkscape:pageopacity="0.0"
     inkscape:pageshadow="2"
     inkscape:zoom="0.98994949"
     inkscape:cx="1138.0949"
     inkscape:cy="877.3956"
     inkscape:document-units="mm"
     inkscape:current-layer="layer1"
     inkscape:document-rotation="0"
     showgrid="false"
     showguides="true"
     inkscape:snap-object-midpoints="false"
     units="in"
     inkscape:window-width="1920"
     inkscape:window-height="1057"
     inkscape:window-x="-8"
     inkscape:window-y="-8"
     inkscape:window-maximized="1" />
  <metadata
     id="metadata5">
    <rdf:RDF>
      <cc:Work
         rdf:about="">
        <dc:format>image/svg+xml</dc:format>
        <dc:type
           rdf:resource="http://purl.org/dc/dcmitype/StillImage" />
        <dc:title></dc:title>
      </cc:Work>
    </rdf:RDF>
  </metadata>
  <g
     style="display:none"
     inkscape:groupmode="layer"
     id="layer3"
     inkscape:label="Layer 3">
    <path
       inkscape:original-d="m 204.70459,7.1515308 -20.82315,0.1758501 -0.0668,285.6666191 22.83617,0.0335 c 7.23948,0.006 7.34677,-16.22016 17.33516,-16.27397 10.14778,0 10.19481,16.33178 17.09767,16.29493 m 39.8658,-285.9670991 -20.91351,0.20793 m 97.1142,-0.09967 -20.86936,0.0295 m -76.24483,0.07017 -17.95855,-0.11693 c -7.23948,-0.006 -7.34677,16.2201591 -17.33516,16.2739691 -10.14778,0 -10.19483,-16.3316491 -17.09769,-16.2947991 m 128.63623,0.06759 -20.89848,-0.11693 c -7.23948,-0.006 -6.70427,16.2166891 -17.33517,16.2739691 -10.57015,0 -10.19482,-16.3316491 -17.09768,-16.2947991 m 55.24388,285.8673491 19.02758,0.11693 c 7.23948,0.006 7.25228,-16.22016 17.24067,-16.27397 10.14778,0 9.67511,15.95363 17.19218,16.29476 m -129.70525,-0.0676 20.89848,0.11693 c 7.23947,0.006 6.70426,-16.21669 17.33516,-16.27397 10.57015,0 10.19482,16.33165 17.09768,16.2948 m 74.37393,-0.0702 22.8277,-0.009 V 7.3273809 l -20.89848,-0.11693 c -7.23947,-0.006 -7.34677,16.2201591 -17.33516,16.2739691 -10.14778,0 -10.19482,-16.3316491 -17.09768,-16.2947991 M 315.2798,293.15667 l 20.9135,-0.20791 m -95.10966,0.0997 18.86484,-0.0295"
       inkscape:path-effect="#path-effect46"
       sodipodi:nodetypes="cccccccccccccccccccccccccccccccccccc"
       d="m 204.70459,7.1515308 -18.34951,0.1549604 a 2.4952867,2.4952867 134.76478 0 0 -2.47422,2.4946142 l -0.0658,281.3582646 a 1.8368944,1.8368944 45.048725 0 0 1.8342,1.83732 l 17.82654,0.0261 c 1.75351,0.003 4.75137,0.0102 6.10357,-1.05193 3.9567,-3.10785 5.53392,-12.15362 11.31361,-14.60091 1.60394,-0.67916 4.57974,-0.68817 6.19263,-0.0291 7.1478,2.92089 7.88146,15.74019 13.99802,15.70754 m 39.8658,-285.9670991 -20.91351,0.20793 m 97.1142,-0.09967 -20.86936,0.0295 m -76.24483,0.07017 -14.78362,-0.096258 c -1.75346,-0.011417 -4.7513,-0.026193 -6.1035,1.0359145 -3.9567,3.1078546 -5.53392,12.1536216 -11.31361,14.6009106 -1.60394,0.679157 -4.57974,0.688169 -6.19263,0.02908 -7.1478,-2.920863 -7.88148,-15.7400619 -13.99804,-15.7074094 m 128.63623,0.06759 -17.72353,-0.099166 c -1.75348,-0.00981 -4.76207,-0.026528 -6.09126,1.0607526 -3.85706,3.1550648 -5.13802,12.2922938 -11.31031,14.6403178 -1.63001,0.620078 -4.58837,0.628148 -6.21808,0.0079 C 287.47165,19.987565 287.0945,7.0484487 280.94943,7.0812533 m 55.24388,285.8673467 15.85264,0.0974 c 1.75347,0.0108 4.75302,0.0256 6.10164,-1.04046 3.9347,-3.11048 5.46041,-12.1479 11.22139,-14.59622 1.60298,-0.68123 4.57992,-0.69368 6.19333,-0.0358 7.04371,2.87233 7.43656,15.41074 14.09143,15.71274 m -129.70525,-0.0676 17.72353,0.0992 c 1.75348,0.01 4.76207,0.0265 6.09126,-1.06076 3.85705,-3.15507 5.13802,-12.29229 11.3103,-14.64032 1.63001,-0.62007 4.58837,-0.62814 6.21808,-0.008 7.46593,2.84129 7.84308,15.7804 13.98815,15.7476 m 74.37393,-0.0702 20.90964,-0.008 a 1.9188164,1.9188164 134.98871 0 0 1.91806,-1.91882 V 9.4146013 a 2.0989314,2.0989314 45.160287 0 0 -2.08719,-2.0988985 l -15.63634,-0.087488 c -1.75348,-0.00981 -4.75132,-0.023284 -6.10352,1.0388244 -3.9567,3.1078558 -5.53391,12.1536208 -11.31361,14.6009088 -1.60394,0.679157 -4.57974,0.688169 -6.19263,0.02908 -7.1478,-2.920863 -7.88147,-15.740062 -13.99803,-15.7074095 M 315.2798,293.15667 l 20.9135,-0.20791 m -95.10966,0.0997 18.86484,-0.0295"
       style="fill:none;stroke:#000000;stroke-width:0.264583px;stroke-linecap:butt;stroke-linejoin:miter;stroke-opacity:1"
       id="path109" />
    <path
       sodipodi:nodetypes="cssssssscccccssscssscssssc"
       d="m 434.65897,7.210736 c 5.2664,-0.028114 6.54229,9.471262 11.35761,13.976873 1.27319,1.191302 4.01601,2.227838 5.75934,2.21774 1.72147,-0.01 4.43203,-1.075142 5.69366,-2.279011 2.8873,-2.755105 4.52779,-7.316132 6.6155,-10.456569 0.9665,-1.4538552 3.35112,-3.1307634 5.07419,-3.3133696 1.70771,-0.1809748 4.52896,-0.097968 6.28245,-0.089308 l 12.88552,0.063637 c 1.16578,0.00576 1.66304,0.6804438 1.66303,1.6336124 L 489.98827,291.3035 M 434.65895,7.210736 416.71291,7.3329627 c -3.01592,0 -2.8786,1.9387793 -2.8786,1.9387793 l -0.0638,279.982798 c -4e-4,1.7535 0.0435,2.38477 1.4559,3.29705 0.83083,0.53662 3.13911,0.50901 4.89262,0.51183 l 8.13166,0.0131 c 1.75351,0.003 4.60429,0.0782 6.34583,-0.11765 1.68837,-0.18988 4.04479,-1.85689 5.01143,-3.31113 2.08762,-3.14065 3.72818,-7.70162 6.61567,-10.45643 1.26144,-1.20348 3.9898,-2.27434 5.73292,-2.27852 1.72166,-0.004 4.44635,1.02668 5.71956,2.21805 3.79194,3.54822 5.389,10.19314 8.46843,12.84332 1.2991,1.11801 4.3105,1.13341 6.064,1.13341 h 15.97601 c 1.43386,0 1.80373,-0.97613 1.80373,-1.80407"
       style="display:inline;fill:none;stroke:#000000;stroke-width:0.264583px;stroke-linecap:butt;stroke-linejoin:miter;stroke-opacity:1"
       id="path109-1" />
    <path
       id="path109-1-6"
       style="display:inline;fill:none;stroke:#000000;stroke-width:0.264583px;stroke-linecap:butt;stroke-linejoin:miter;stroke-opacity:1"
       d="m 162.97523,293.09479 c -5.2664,0.0281 -6.54231,-9.34579 -11.35763,-13.85141 -1.27319,-1.19131 -4.01601,-2.22784 -5.75934,-2.21774 -1.72147,0.01 -4.43203,1.07514 -5.69366,2.27901 -2.8873,2.7551 -4.52779,7.42471 -6.6155,10.56515 -0.9665,1.45385 -3.35112,2.89671 -5.07419,3.07931 -1.70771,0.18098 -41.743339,0.14027 -41.743339,0.14027 -5.2664,0.0281 -6.54229,-9.23721 -11.3576,-13.74282 -1.2732,-1.1913 -4.01602,-2.22784 -5.75935,-2.21774 -1.72147,0.01 -4.43203,1.07514 -5.69365,2.27901 -2.8873,2.75511 -4.5278,7.31613 -6.61551,10.45657 -0.9665,1.45385 -3.35112,2.89671 -5.07419,3.07932 -1.70771,0.18097 -4.528942,0.0893 -6.28245,0.0893 H 34.28583 c -0.894594,0 -1.231839,-0.44283 -1.231829,-1.39599 l 0.002,-282.4063187 M 162.97523,293.09479 l 18.64762,-0.12223 c 2.28093,0 2.17702,-2.04756 2.17702,-2.04756 l 0.0638,-281.2602823 c 0,-1.4368624 -0.73315,-2.2971164 -2.34783,-2.2971164 l -12.13235,-0.013 c -1.75351,-0.003 -4.60429,-0.0782 -6.34583,0.11763 -1.68837,0.18989 -4.04479,1.8569 -5.01143,3.3111297 -2.08762,3.14066 -3.72818,7.70162 -6.61567,10.45644 -1.26144,1.20348 -3.9898,2.27433 -5.73292,2.27851 -1.72166,0.004 -4.44635,-1.02666 -5.71956,-2.21806 -3.79194,-3.54822 -5.389,-10.19312 -8.46843,-12.8432897 -1.2991,-1.11803 -4.3105,-1.13343 -6.064,-1.13343 l -32.285799,0.0161 c -1.75351,-0.003 -4.60429,-0.0782 -6.34583,0.11763 -1.68837,0.18989 -4.04479,1.97502 -5.01143,3.4292497 -2.08762,3.14066 -3.72818,7.70162 -6.61567,10.45644 -1.26144,1.20348 -3.9898,2.27433 -5.73292,2.27851 -1.72166,0.004 -4.44635,-1.02666 -5.71956,-2.21806 -3.79194,-3.54822 -5.389,-10.19312 -8.46843,-12.8432897 -1.2991,-1.11803 -4.3105,-1.21611 -6.064,-1.21611 h -14.32228 c -1.43386,0 -1.80373,1.05881 -1.80373,1.88675"
       sodipodi:nodetypes="cssssccsssssscccccccccssscssccssscssssc" />
  </g>
  <g
     style="display:inline;filter:url(#filter587)"
     inkscape:label="Layer 4"
     id="layer1"
     inkscape:groupmode="layer">
    <path
       d="m 412.48538,40.064448 4e-5,219.519132 M 281.36534,87.89065 c 1.18601,0 1.33444,0.74545 1.33444,1.375039 0,40.054111 31.67255,40.448371 31.67255,0.232241 0,-0.94225 0.43239,-1.60728 1.75279,-1.60728 m -74.72327,123.34966 13.53847,-0.061 v 74.90588 c 0,8.60473 13.28297,8.63148 13.11845,0 l 0.0893,-74.81626 11.97938,0.061 m -73.48538,-0.0896 -11.7904,-0.061 0.14005,74.9955 c 0,3.08655 -6.51429,4.98456 -11.17372,4.98456 m 57.58385,-79.91908 c -1.18601,0 -1.33444,-0.74546 -1.33444,-1.37504 0,-40.05411 -31.67253,-40.44837 -31.67253,-0.23224 0,0.94224 -0.4324,1.60728 -1.75281,1.60728 m 108.24516,0.0896 c -1.18601,0 -1.33444,-0.74545 -1.33444,-1.37504 0,-40.05411 -31.67255,-40.44837 -31.67255,-0.23224 0,0.94225 -0.43239,1.60728 -1.75279,1.60728 m 108.77065,-2e-5 12.5382,-0.061 4e-5,74.90592 c 0.0474,3.23928 7.32257,4.77821 11.03586,5.0164 0.3662,0.0235 -0.29476,-0.0318 0.0132,-0.0318 m -59.34736,-79.8295 -11.7904,-0.061 v 74.9059 c 0,8.63305 -13.111,8.60471 -13.111,-2e-5 l 4e-5,-74.90584 -13.34947,0.061 m 74.01087,-4e-5 c -1.18601,0 -1.95672,-0.7927 -1.95672,-1.42229 0,-40.0541 -32.05053,-40.40112 -32.05053,-0.18499 0,0.94225 -0.43239,1.60726 -1.75279,1.60726 m 1.61591,-123.439266 -13.34725,0.06101 V 14.399161 c 0,-8.6047296 -13.47498,-8.6314796 -13.31046,0 V 87.95165 l -11.97114,-0.061 m 73.38863,-4.6e-5 11.84996,0.06101 V 15.401422 c 0.057,-3.894701 7.69067,-5.9868207 11.12167,-5.9868207 M 354.75397,87.890604 c 1.18601,0 1.33444,0.745457 1.33444,1.375045 0,40.054111 31.67255,40.448371 31.67255,0.232237 0,-0.942245 0.43239,-1.607282 1.75279,-1.607282 m -183.12065,0.03679 c 1.18601,0 2.33418,0.745456 2.33418,1.375045 0,40.054111 31.67254,40.448371 31.67254,0.232237 0,-0.942245 0.4324,-1.607283 1.75279,-1.607283 m 0,0 12.74608,0.02422 V 14.39916 c 0.0693,-8.6648887 13.21442,-8.6654795 13.21442,-0.06076 m -73.23542,1.1006 c 0,-3.604943 -7.63642,-6.0244039 -11.06742,-6.0244039 m 228.67515,0.2672696 4e-5,281.4774943 M 183.81027,9.4146013 183.81797,291.15937 M 194.87769,15.439 v 72.512653 l 11.51541,-0.02426 m 61.72001,-73.588989 v 73.552493 l 13.44126,-2.33e-4"
       style="fill:none;stroke:#000000;stroke-width:0.264583px;stroke-linecap:butt;stroke-linejoin:miter;stroke-opacity:1"
       id="path482"
       sodipodi:nodetypes="cccssccccccccccccssccssccccscccsccccssccccccccccccssccssccccccccccccccccc" />
    <path
       id="path94"
       d="m 412.48536,9.4146012 3e-5,281.7447988"
       style="fill:none;stroke:#000000;stroke-width:0.264583px;stroke-linecap:butt;stroke-linejoin:miter;stroke-opacity:1" />
  </g>
  <g
     style="display:none"
     inkscape:label="Layer 7"
     id="layer5"
     inkscape:groupmode="layer">
    <path
       d="m 413.79509,9.3999363 -0.0104,281.7446537 m 76.20092,0.104 0.0531,-282.6132727 M 433.7659,211.40259 l -9.84705,-0.061 m 0,0 v 74.21326 c 0,4.67985 -6.65063,5.58973 -10.13408,5.58973 m 54.74091,-79.742 15.79391,-0.061 m -15.79391,0.061 c -1.18601,0 -1.33444,-0.74546 -1.33444,-1.37505 0,-40.05411 -31.67255,-40.44837 -31.67255,-0.23224 0,0.94225 -0.43239,1.60729 -1.75279,1.60729 m 50.55369,75.12674 c 0.0521,3.55873 2.23506,4.71927 5.66606,4.71927 m -5.66606,-4.71927 2.7e-4,-75.18774 m -12.79405,-123.510926 12.79405,0.06099 m 0,0 V 14.22505 c 0,-4.6798517 2.23542,-5.5897317 5.71887,-5.5897317 m -53.27271,79.1953557 -12.84735,0.06099 m 12.84735,-0.06099 c 1.186,0 1.33443,0.745457 1.33443,1.375044 0,40.054102 31.67255,40.448362 31.67255,0.232238 0,-0.942245 0.4324,-1.607282 1.75279,-1.607282 M 423.91867,14.384496 c -0.0521,-3.55873 -6.69258,-4.9845597 -10.12358,-4.9845597 m 10.12358,4.9845597 1.8e-4,73.507167"
       style="fill:none;stroke:#000000;stroke-width:0.264583px;stroke-linecap:butt;stroke-linejoin:miter;stroke-opacity:1"
       id="path467"
       sodipodi:nodetypes="cccccccsccccssccccccccsccccssccccc" />
    <path
       id="path467-3-5"
       style="display:inline;fill:none;stroke:#000000;stroke-width:0.264583px;stroke-linecap:butt;stroke-linejoin:miter;stroke-opacity:1"
       d="M 33.066561,9.1397576 33.013491,291.52331 m 56.27282,-202.336169 9.84705,0.061 m 0,-0.0305 v -75.80324 c 0,-7.7323499 13.142309,-7.6967699 13.142309,0 l -2.7e-4,75.80323 m -57.748869,-0.0305 -15.79391,0.061 m 15.79391,-0.061 c 1.18602,0 1.33444,0.74546 1.33444,1.37505 0,40.054109 31.67255,40.448369 31.67255,0.23224 0,-0.94225 0.43239,-1.60729 1.75279,-1.60729 m -50.55369,-74.39263 c -0.0521,-3.55875 -2.23506,-5.6547434 -5.66606,-5.6547434 m 5.66606,5.6547434 -2.6e-4,74.45363 m 12.79386,123.480509 -12.79405,-0.061 m 0,0 1.9e-4,74.43112 c 1e-5,3.97827 -2.970411,4.42455 -5.71887,4.42455 m 53.27251,-78.79469 12.84736,-0.061 m -12.84736,0.061 c -1.186,0 -1.33443,-0.74546 -1.33443,-1.37505 0,-40.05409 -31.67254,-40.44835 -31.67254,-0.23224 0,0.94225 -0.43241,1.60729 -1.7528,1.60729 m 132.273639,78.43064 0.0104,-281.7446587 m -20.98091,79.7420097 9.84705,0.061 m 0,0 V 15.439 c 0,-4.67985 7.65033,-6.0243687 11.13378,-6.0243687 m -55.74061,79.7419897 -15.79391,0.061 m 15.79391,-0.061 c 1.18601,0 1.33444,0.74546 1.33444,1.37505 0,40.054109 31.67255,40.448369 31.67255,0.23224 0,-0.94225 0.43239,-1.60729 1.75279,-1.60729 m -37.7599,123.571919 -12.79406,-0.061 m 0,8e-5 v 74.083 c 0,8.09485 -13.141849,8.38191 -13.141849,0 l -1.9e-4,-74.083 m 60.695889,0.0609 12.84735,-0.061 v 73.50718 c 0.0521,3.55873 7.69227,4.98455 11.12327,4.98455 m -23.97062,-78.43073 c -1.18601,0 -1.33443,-0.74546 -1.33443,-1.37505 0,-40.05409 -31.67255,-40.44835 -31.67255,-0.23224 0,0.94225 -0.4324,1.60729 -1.75279,1.60729"
       sodipodi:nodetypes="cccccccccccssccccccccsccccssccccccsccccssccccccccccccssc" />
  </g>
  <g
     style="display:none"
     inkscape:label="Layer 5"
     id="layer2"
     inkscape:groupmode="layer">
    <a
       id="a66"
       transform="translate(0.5655135,-6.000372)" />
    <path
       id="path79"
       style="fill:none;stroke:#000000;stroke-width:0.264583px;stroke-linecap:butt;stroke-linejoin:miter;stroke-opacity:1"
       d="m 610.97921,-29.465463 v -78.624667 c 0,-7.93023 -13.12698,-8.29619 -13.12698,0.10023 v 78.524474 a 3.1909418,3.1909418 134.85652 0 1 -3.17496,3.190902 l -4.89534,0.02452 c -1.7535,0 -3.175,1.421496 -3.175,3.175 v 1.09794 c 0,1.753504 1.4215,3.175 3.175,3.175 h 4.8953 c 1.7535,0 3.175,1.421496 3.175,3.175 l 0,86.254423 c 0,1.753504 -1.4215,3.175 -3.175,3.175 h -4.8953 c -1.7535,0 -3.175,1.421496 -3.175,3.175 v 1.33813 c 0,1.7535 1.4215,3.175 3.175,3.175 h 28.57655 c 1.7535,0 3.175,-1.4215 3.175,-3.175 l 0,-1.34254 c 0,-1.753504 -1.4215,-3.175 -3.175,-3.175 h -4.2042 c -1.7535,0 -3.175,-1.421496 -3.175,-3.175 v -86.254013 c 0,-1.753504 1.4215,-3.175 3.175,-3.175 h 4.20427 c 1.7535,0 3.17498,-1.421504 3.17495,-3.175 l -2e-5,-1.093934 c -3e-5,-1.753504 -1.4215,-3.175 -3.175,-3.175 l -4.20432,-0.02305 a 3.1924573,3.1924573 45.157084 0 1 -3.17495,-3.192409 z"
       sodipodi:nodetypes="cssccsccccssssccccscc"
       inkscape:path-effect="#path-effect135;#path-effect137;#path-effect139"
       inkscape:original-d="m 610.97921,-26.290463 v -81.799667 c 0,-7.93023 -13.12698,-8.29619 -13.12698,0.10023 v 81.699474 l -8.0703,0.04042 c -1.7535,0 -3.175,1.421496 -3.175,3.175 v 4.27294 h 11.2453 v 92.604423 h -11.2453 v 4.51313 c 0,1.7535 1.4215,3.175 3.175,3.175 h 28.57655 c 1.7535,0 3.175,-1.4215 3.175,-3.175 v -4.51754 h -10.5542 v -92.604013 h 10.55427 l -7e-5,-4.268934 c -3e-5,-1.753504 -1.4215,-3.175 -3.175,-3.175 z" />
    <path
       id="path168"
       style="fill:none;stroke:#000000;stroke-width:0.264583px;stroke-linecap:butt;stroke-linejoin:miter;stroke-opacity:1"
       d="M 554.13827,85.051873 V 280.85534 M 565.20184,169.86783 V 91.243173 c 0,-7.93024 -22.1262,-8.29619 -22.1262,0.10022 v 78.524477 c 0,1.75606 -1.4189,3.1821 -3.17496,3.19089 l -4.89533,0.0245 c -1.7535,0 -3.17501,1.4215 -3.17501,3.175 v 1.09794 c 0,1.7535 1.42151,3.175 3.17501,3.175 h 4.8953 c 1.7535,0 3.17499,1.42149 3.17499,3.17499 v 86.25443 c 0,1.7535 -1.42149,3.175 -3.17499,3.175 h -4.8953 c -1.7535,0 -3.17501,1.4215 -3.17501,3.175 v 1.33813 c 0,1.7535 1.42151,3.175 3.17501,3.175 h 37.57576 c 1.7535,0 3.175,-1.4215 3.175,-3.175 v -1.34254 c 0,-1.7535 -1.42149,-3.175 -3.175,-3.175 h -4.2042 c -1.7535,0 -3.175,-1.4215 -3.175,-3.175 V 183.7022 c 0,-1.7535 1.4215,-3.17499 3.175,-3.17499 h 4.20428 c 1.75349,0 3.17498,-1.4215 3.17495,-3.175 l -3e-5,-1.09393 c -3e-5,-1.75351 -1.42148,-3.175 -3.175,-3.175 l -4.20432,-0.023 c -1.75628,-0.01 -3.17509,-0.25234 -3.17494,-3.1924 z"
       sodipodi:nodetypes="cccsscscsssssssssssssssssssssscscc" />
    <path
       inkscape:original-d="M 718.63849,111.14357 V 29.343903 c 0,-7.93023 -14.12678,-8.296187 -14.12678,0.100227 v 81.69948 l -8.0703,0.0404 c -1.7535,0 -3.175,1.42149 -3.175,3.175 v 4.27293 h 11.2453 v 92.60443 h -11.2453 v 4.51313 c 0,1.7535 1.4215,3.175 3.175,3.175 h 29.57635 c 1.7535,0 3.175,-1.4215 3.175,-3.175 v -4.51754 h -10.5542 v -92.60402 h 10.55427 l -7e-5,-4.26893 c -3e-5,-1.7535 -1.4215,-3.175 -3.175,-3.175 z"
       inkscape:path-effect="#path-effect244;#path-effect246;#path-effect248"
       sodipodi:nodetypes="cssccsccccssssccccscc"
       d="M 718.63849,107.96857 V 29.343903 c 0,-7.93023 -14.12678,-8.296187 -14.12678,0.100227 v 78.52448 a 3.1909339,3.1909339 134.85659 0 1 -3.17496,3.19089 l -4.89534,0.0245 c -1.7535,0 -3.175,1.42149 -3.175,3.175 l 0,1.09793 c 0,1.7535 1.4215,3.175 3.175,3.175 h 4.8953 c 1.7535,0 3.175,1.4215 3.175,3.175 l 0,86.25443 c 0,1.7535 -1.4215,3.175 -3.175,3.175 l -4.8953,0 c -1.7535,0 -3.175,1.4215 -3.175,3.175 v 1.33813 c 0,1.7535 1.4215,3.175 3.175,3.175 h 29.57635 c 1.7535,0 3.175,-1.4215 3.175,-3.175 v -1.34254 c 0,-1.7535 -1.4215,-3.175 -3.175,-3.175 h -4.2042 c -1.7535,0 -3.175,-1.4215 -3.175,-3.175 v -86.25402 c 0,-1.7535 1.4215,-3.175 3.175,-3.175 h 4.20427 c 1.7535,0 3.17498,-1.4215 3.17495,-3.175 l -2e-5,-1.09393 c -3e-5,-1.7535 -1.4215,-3.175 -3.175,-3.175 l -4.20432,-0.023 a 3.1924474,3.1924474 45.156995 0 1 -3.17495,-3.1924 z"
       style="display:inline;fill:none;stroke:#000000;stroke-width:0.264583px;stroke-linecap:butt;stroke-linejoin:miter;stroke-opacity:1"
       id="path79-4" />
  </g>
  <g
     style="display:none"
     inkscape:label="Layer 6"
     id="layer4"
     inkscape:groupmode="layer">
    <path
       id="path115-1-1"
       d="M 475.37245,43.749886 V 81.788294"
       style="display:inline;fill:none;stroke:#000000;stroke-width:0.264583px;stroke-linecap:butt;stroke-linejoin:miter;stroke-opacity:1;filter:url(#filter587)" />
  </g>
</svg>
