<?xml version="1.0" encoding="UTF-8" standalone="no"?>
<svg
   xmlns:dc="http://purl.org/dc/elements/1.1/"
   xmlns:cc="http://creativecommons.org/ns#"
   xmlns:rdf="http://www.w3.org/1999/02/22-rdf-syntax-ns#"
   xmlns:svg="http://www.w3.org/2000/svg"
   xmlns="http://www.w3.org/2000/svg"
   id="svg477"
   version="1.1"
   width="384.40mm"
   viewBox="0.0 0.0 384.40 345.40"
   height="345.40mm">
  <defs
     id="defs481" />
  <!--
DividerTray - Divider tray - rows and dividers

Created with Boxes.py (https://festi.info/boxes.py)
Creation date: 2021-04-10 19:23:32
Command line (remove spaces between dashes): boxes DividerTray - -FingerJoint_angle=90.0 - -FingerJoint_style=rectangular - -FingerJoint_surroundingspaces=2.0 - -FingerJoint_edge_width=1.0 - -FingerJoint_finger=2.0 - -FingerJoint_play=0.0 - -FingerJoint_space=2.0 - -FingerJoint_width=1.0 - -sx=288.2/4 - -sy=288.2/7 - -h=45 - -outside=0 - -outside=1 - -slot_depth=20 - -slot_angle=0 - -slot_radius=2 - -slot_extra_slack=0.2 - -divider_bottom_margin=15 - -divider_upper_notch_radius=1 - -divider_lower_notch_radius=8 - -divider_notch_depth=10 - -left_wall=0 - -left_wall=1 - -right_wall=0 - -right_wall=1 - -bottom=0 - -thickness=3.0 - -format=svg - -tabs=0.0 - -debug=0 - -reference=0 - -burn=0.1
Url: http://www.festi.info/DividerTray?FingerJoint_angle=90.0&FingerJoint_style=rectangular&FingerJoint_surroundingspaces=2.0&FingerJoint_edge_width=1.0&FingerJoint_finger=2.0&FingerJoint_play=0.0&FingerJoint_space=2.0&FingerJoint_width=1.0&sx=288.2%2F4&sy=288.2%2F7&h=45&outside=0&outside=1&slot_depth=20&slot_angle=0&slot_radius=2&slot_extra_slack=0.2&divider_bottom_margin=15&divider_upper_notch_radius=1&divider_lower_notch_radius=8&divider_notch_depth=10&left_wall=0&left_wall=1&right_wall=0&right_wall=1&bottom=0&thickness=3.0&format=svg&tabs=0.0&debug=0&reference=0&burn=0.1&render=1
SettingsUrl: http://www.festi.info/DividerTray?FingerJoint_angle=90.0&FingerJoint_style=rectangular&FingerJoint_surroundingspaces=2.0&FingerJoint_edge_width=1.0&FingerJoint_finger=2.0&FingerJoint_play=0.0&FingerJoint_space=2.0&FingerJoint_width=1.0&sx=288.2%2F4&sy=288.2%2F7&h=45&outside=0&outside=1&slot_depth=20&slot_angle=0&slot_radius=2&slot_extra_slack=0.2&divider_bottom_margin=15&divider_upper_notch_radius=1&divider_lower_notch_radius=8&divider_notch_depth=10&left_wall=0&left_wall=1&right_wall=0&right_wall=1&bottom=0&thickness=3.0&format=svg&tabs=0.0&debug=0&reference=0&burn=0.1
-->
  <title
     id="title404">DividerTray</title>
  <metadata
     id="metadata406">
    <rdf:RDF>
      <cc:Work>
        <dc:title>DividerTray</dc:title>
        <dc:date>2021-04-10 19:23:32</dc:date>
        <dc:source>http://www.festi.info/DividerTray?FingerJoint_angle=90.0&amp;FingerJoint_style=rectangular&amp;FingerJoint_surroundingspaces=2.0&amp;FingerJoint_edge_width=1.0&amp;FingerJoint_finger=2.0&amp;FingerJoint_play=0.0&amp;FingerJoint_space=2.0&amp;FingerJoint_width=1.0&amp;sx=288.2%2F4&amp;sy=288.2%2F7&amp;h=45&amp;outside=0&amp;outside=1&amp;slot_depth=20&amp;slot_angle=0&amp;slot_radius=2&amp;slot_extra_slack=0.2&amp;divider_bottom_margin=15&amp;divider_upper_notch_radius=1&amp;divider_lower_notch_radius=8&amp;divider_notch_depth=10&amp;left_wall=0&amp;left_wall=1&amp;right_wall=0&amp;right_wall=1&amp;bottom=0&amp;thickness=3.0&amp;format=svg&amp;tabs=0.0&amp;debug=0&amp;reference=0&amp;burn=0.1&amp;render=1</dc:source>
        <dc:description>Divider tray - rows and dividers

Created with Boxes.py (https://festi.info/boxes.py)
Command line: boxes DividerTray --FingerJoint_angle=90.0 --FingerJoint_style=rectangular --FingerJoint_surroundingspaces=2.0 --FingerJoint_edge_width=1.0 --FingerJoint_finger=2.0 --FingerJoint_play=0.0 --FingerJoint_space=2.0 --FingerJoint_width=1.0 --sx=288.2/4 --sy=288.2/7 --h=45 --outside=0 --outside=1 --slot_depth=20 --slot_angle=0 --slot_radius=2 --slot_extra_slack=0.2 --divider_bottom_margin=15 --divider_upper_notch_radius=1 --divider_lower_notch_radius=8 --divider_notch_depth=10 --left_wall=0 --left_wall=1 --right_wall=0 --right_wall=1 --bottom=0 --thickness=3.0 --format=svg --tabs=0.0 --debug=0 --reference=0 --burn=0.1
Url: http://www.festi.info/DividerTray?FingerJoint_angle=90.0&amp;FingerJoint_style=rectangular&amp;FingerJoint_surroundingspaces=2.0&amp;FingerJoint_edge_width=1.0&amp;FingerJoint_finger=2.0&amp;FingerJoint_play=0.0&amp;FingerJoint_space=2.0&amp;FingerJoint_width=1.0&amp;sx=288.2%2F4&amp;sy=288.2%2F7&amp;h=45&amp;outside=0&amp;outside=1&amp;slot_depth=20&amp;slot_angle=0&amp;slot_radius=2&amp;slot_extra_slack=0.2&amp;divider_bottom_margin=15&amp;divider_upper_notch_radius=1&amp;divider_lower_notch_radius=8&amp;divider_notch_depth=10&amp;left_wall=0&amp;left_wall=1&amp;right_wall=0&amp;right_wall=1&amp;bottom=0&amp;thickness=3.0&amp;format=svg&amp;tabs=0.0&amp;debug=0&amp;reference=0&amp;burn=0.1&amp;render=1
SettingsUrl: http://www.festi.info/DividerTray?FingerJoint_angle=90.0&amp;FingerJoint_style=rectangular&amp;FingerJoint_surroundingspaces=2.0&amp;FingerJoint_edge_width=1.0&amp;FingerJoint_finger=2.0&amp;FingerJoint_play=0.0&amp;FingerJoint_space=2.0&amp;FingerJoint_width=1.0&amp;sx=288.2%2F4&amp;sy=288.2%2F7&amp;h=45&amp;outside=0&amp;outside=1&amp;slot_depth=20&amp;slot_angle=0&amp;slot_radius=2&amp;slot_extra_slack=0.2&amp;divider_bottom_margin=15&amp;divider_upper_notch_radius=1&amp;divider_lower_notch_radius=8&amp;divider_notch_depth=10&amp;left_wall=0&amp;left_wall=1&amp;right_wall=0&amp;right_wall=1&amp;bottom=0&amp;thickness=3.0&amp;format=svg&amp;tabs=0.0&amp;debug=0&amp;reference=0&amp;burn=0.1
</dc:description>
        <dc:format>image/svg+xml</dc:format>
        <dc:type
           rdf:resource="http://purl.org/dc/dcmitype/StillImage" />
      </cc:Work>
    </rdf:RDF>
  </metadata>
  <g
     style="fill:none;stroke-linecap:round;stroke-linejoin:round;"
     id="p-0">
    <path
       id="path408"
       stroke-width="0.20"
       stroke="rgb(0,0,255)"
       d="M 84.300 324.800 V 327.700 C 84.300 327.800 84.400 327.700 84.300 327.700 H 81.500 C 81.400 327.700 81.500 327.800 81.500 327.700 V 321.900 C 81.500 321.800 81.400 321.900 81.500 321.900 H 84.300 C 84.400 321.900 84.300 321.800 84.300 321.900 V 324.800 Z" />
    <path
       id="path410"
       stroke-width="0.20"
       stroke="rgb(0,0,255)"
       d="M 84.300 312.800 V 315.700 C 84.300 315.800 84.400 315.700 84.300 315.700 H 81.500 C 81.400 315.700 81.500 315.800 81.500 315.700 V 309.900 C 81.500 309.800 81.400 309.900 81.500 309.900 H 84.300 C 84.400 309.900 84.300 309.800 84.300 309.900 V 312.800 Z" />
    <path
       id="path412"
       stroke-width="0.20"
       stroke="rgb(0,0,255)"
       d="M 84.300 300.800 V 303.700 C 84.300 303.800 84.400 303.700 84.300 303.700 H 81.500 C 81.400 303.700 81.500 303.800 81.500 303.700 V 297.900 C 81.500 297.800 81.400 297.900 81.500 297.900 H 84.300 C 84.400 297.900 84.300 297.800 84.300 297.900 V 300.800 Z" />
    <path
       id="path414"
       stroke-width="0.20"
       stroke="rgb(0,0,255)"
       d="M 155.600 324.800 V 327.700 C 155.600 327.800 155.700 327.700 155.600 327.700 H 152.800 C 152.700 327.700 152.800 327.800 152.800 327.700 V 321.900 C 152.800 321.800 152.700 321.900 152.800 321.900 H 155.600 C 155.700 321.900 155.600 321.800 155.600 321.900 V 324.800 Z" />
    <path
       id="path416"
       stroke-width="0.20"
       stroke="rgb(0,0,255)"
       d="M 155.600 312.800 V 315.700 C 155.600 315.800 155.700 315.700 155.600 315.700 H 152.800 C 152.700 315.700 152.800 315.800 152.800 315.700 V 309.900 C 152.800 309.800 152.700 309.900 152.800 309.900 H 155.600 C 155.700 309.900 155.600 309.800 155.600 309.900 V 312.800 Z" />
    <path
       id="path418"
       stroke-width="0.20"
       stroke="rgb(0,0,255)"
       d="M 155.600 300.800 V 303.700 C 155.600 303.800 155.700 303.700 155.600 303.700 H 152.800 C 152.700 303.700 152.800 303.800 152.800 303.700 V 297.900 C 152.800 297.800 152.700 297.900 152.800 297.900 H 155.600 C 155.700 297.900 155.600 297.800 155.600 297.900 V 300.800 Z" />
    <path
       id="path420"
       stroke-width="0.20"
       stroke="rgb(0,0,255)"
       d="M 226.900 324.800 V 327.700 C 226.900 327.800 227.000 327.700 226.900 327.700 H 224.100 C 224.000 327.700 224.100 327.800 224.100 327.700 V 321.900 C 224.100 321.800 224.000 321.900 224.100 321.900 H 226.900 C 227.000 321.900 226.900 321.800 226.900 321.900 V 324.800 Z" />
    <path
       id="path422"
       stroke-width="0.20"
       stroke="rgb(0,0,255)"
       d="M 226.900 312.800 V 315.700 C 226.900 315.800 227.000 315.700 226.900 315.700 H 224.100 C 224.000 315.700 224.100 315.800 224.100 315.700 V 309.900 C 224.100 309.800 224.000 309.900 224.100 309.900 H 226.900 C 227.000 309.900 226.900 309.800 226.900 309.900 V 312.800 Z" />
    <path
       id="path424"
       stroke-width="0.20"
       stroke="rgb(0,0,255)"
       d="M 226.900 300.800 V 303.700 C 226.900 303.800 227.000 303.700 226.900 303.700 H 224.100 C 224.000 303.700 224.100 303.800 224.100 303.700 V 297.900 C 224.100 297.800 224.000 297.900 224.100 297.900 H 226.900 C 227.000 297.900 226.900 297.800 226.900 297.900 V 300.800 Z" />
    <path
       id="path426"
       stroke-width="0.20"
       stroke="rgb(0,0,0)"
       d="M 13.100 335.400 H 295.300 H 298.300 C 298.355 335.400 298.400 335.355 298.400 335.300 V 327.800 C 298.400 327.745 298.355 327.700 298.300 327.700 H 295.400 C 295.300 327.700 295.400 327.800 295.400 327.700 V 321.900 C 295.400 321.800 295.300 321.900 295.400 321.900 H 298.300 C 298.355 321.900 298.400 321.855 298.400 321.800 V 315.800 C 298.400 315.745 298.355 315.700 298.300 315.700 H 295.400 C 295.300 315.700 295.400 315.800 295.400 315.700 V 309.900 C 295.400 309.800 295.300 309.900 295.400 309.900 H 298.300 C 298.355 309.900 298.400 309.855 298.400 309.800 V 303.800 C 298.400 303.745 298.355 303.700 298.300 303.700 H 295.400 C 295.300 303.700 295.400 303.800 295.400 303.700 V 297.900 C 295.400 297.800 295.300 297.900 295.400 297.900 H 298.300 C 298.355 297.900 298.400 297.855 298.400 297.800 V 290.300 C 298.400 290.245 298.355 290.200 298.300 290.200 H 295.300 H 13.100 H 10.100 C 10.045 290.200 10.000 290.245 10.000 290.300 V 297.800 C 10.000 297.855 10.045 297.900 10.100 297.900 H 13.000 C 13.100 297.900 13.000 297.800 13.000 297.900 V 303.700 C 13.000 303.800 13.100 303.700 13.000 303.700 H 10.100 C 10.045 303.700 10.000 303.745 10.000 303.800 V 309.800 C 10.000 309.855 10.045 309.900 10.100 309.900 H 13.000 C 13.100 309.900 13.000 309.800 13.000 309.900 V 315.700 C 13.000 315.800 13.100 315.700 13.000 315.700 H 10.100 C 10.045 315.700 10.000 315.745 10.000 315.800 V 321.800 C 10.000 321.855 10.045 321.900 10.100 321.900 H 13.000 C 13.100 321.900 13.000 321.800 13.000 321.900 V 327.700 C 13.000 327.800 13.100 327.700 13.000 327.700 H 10.100 C 10.045 327.700 10.000 327.745 10.000 327.800 V 335.300 C 10.000 335.355 10.045 335.400 10.100 335.400 H 13.100 Z" />
  </g>
  <g
     style="fill:none;stroke-linecap:round;stroke-linejoin:round;"
     id="p-1">
    <path
       id="path429"
       stroke-width="0.20"
       stroke="rgb(0,0,255)"
       d="M 84.300 278.100 V 281.000 C 84.300 281.100 84.400 281.000 84.300 281.000 H 81.500 C 81.400 281.000 81.500 281.100 81.500 281.000 V 275.200 C 81.500 275.100 81.400 275.200 81.500 275.200 H 84.300 C 84.400 275.200 84.300 275.100 84.300 275.200 V 278.100 Z" />
    <path
       id="path431"
       stroke-width="0.20"
       stroke="rgb(0,0,255)"
       d="M 84.300 266.100 V 269.000 C 84.300 269.100 84.400 269.000 84.300 269.000 H 81.500 C 81.400 269.000 81.500 269.100 81.500 269.000 V 263.200 C 81.500 263.100 81.400 263.200 81.500 263.200 H 84.300 C 84.400 263.200 84.300 263.100 84.300 263.200 V 266.100 Z" />
    <path
       id="path433"
       stroke-width="0.20"
       stroke="rgb(0,0,255)"
       d="M 84.300 254.100 V 257.000 C 84.300 257.100 84.400 257.000 84.300 257.000 H 81.500 C 81.400 257.000 81.500 257.100 81.500 257.000 V 251.200 C 81.500 251.100 81.400 251.200 81.500 251.200 H 84.300 C 84.400 251.200 84.300 251.100 84.300 251.200 V 254.100 Z" />
    <path
       id="path435"
       stroke-width="0.20"
       stroke="rgb(0,0,255)"
       d="M 155.600 278.100 V 281.000 C 155.600 281.100 155.700 281.000 155.600 281.000 H 152.800 C 152.700 281.000 152.800 281.100 152.800 281.000 V 275.200 C 152.800 275.100 152.700 275.200 152.800 275.200 H 155.600 C 155.700 275.200 155.600 275.100 155.600 275.200 V 278.100 Z" />
    <path
       id="path437"
       stroke-width="0.20"
       stroke="rgb(0,0,255)"
       d="M 155.600 266.100 V 269.000 C 155.600 269.100 155.700 269.000 155.600 269.000 H 152.800 C 152.700 269.000 152.800 269.100 152.800 269.000 V 263.200 C 152.800 263.100 152.700 263.200 152.800 263.200 H 155.600 C 155.700 263.200 155.600 263.100 155.600 263.200 V 266.100 Z" />
    <path
       id="path439"
       stroke-width="0.20"
       stroke="rgb(0,0,255)"
       d="M 155.600 254.100 V 257.000 C 155.600 257.100 155.700 257.000 155.600 257.000 H 152.800 C 152.700 257.000 152.800 257.100 152.800 257.000 V 251.200 C 152.800 251.100 152.700 251.200 152.800 251.200 H 155.600 C 155.700 251.200 155.600 251.100 155.600 251.200 V 254.100 Z" />
    <path
       id="path441"
       stroke-width="0.20"
       stroke="rgb(0,0,255)"
       d="M 226.900 278.100 V 281.000 C 226.900 281.100 227.000 281.000 226.900 281.000 H 224.100 C 224.000 281.000 224.100 281.100 224.100 281.000 V 275.200 C 224.100 275.100 224.000 275.200 224.100 275.200 H 226.900 C 227.000 275.200 226.900 275.100 226.900 275.200 V 278.100 Z" />
    <path
       id="path443"
       stroke-width="0.20"
       stroke="rgb(0,0,255)"
       d="M 226.900 266.100 V 269.000 C 226.900 269.100 227.000 269.000 226.900 269.000 H 224.100 C 224.000 269.000 224.100 269.100 224.100 269.000 V 263.200 C 224.100 263.100 224.000 263.200 224.100 263.200 H 226.900 C 227.000 263.200 226.900 263.100 226.900 263.200 V 266.100 Z" />
    <path
       id="path445"
       stroke-width="0.20"
       stroke="rgb(0,0,255)"
       d="M 226.900 254.100 V 257.000 C 226.900 257.100 227.000 257.000 226.900 257.000 H 224.100 C 224.000 257.000 224.100 257.100 224.100 257.000 V 251.200 C 224.100 251.100 224.000 251.200 224.100 251.200 H 226.900 C 227.000 251.200 226.900 251.100 226.900 251.200 V 254.100 Z" />
    <path
       id="path447"
       stroke-width="0.20"
       stroke="rgb(0,0,0)"
       d="M 13.100 288.700 H 295.300 H 298.300 C 298.355 288.700 298.400 288.655 298.400 288.600 V 281.100 C 298.400 281.045 298.355 281.000 298.300 281.000 H 295.400 C 295.300 281.000 295.400 281.100 295.400 281.000 V 275.200 C 295.400 275.100 295.300 275.200 295.400 275.200 H 298.300 C 298.355 275.200 298.400 275.155 298.400 275.100 V 269.100 C 298.400 269.045 298.355 269.000 298.300 269.000 H 295.400 C 295.300 269.000 295.400 269.100 295.400 269.000 V 263.200 C 295.400 263.100 295.300 263.200 295.400 263.200 H 298.300 C 298.355 263.200 298.400 263.155 298.400 263.100 V 257.100 C 298.400 257.045 298.355 257.000 298.300 257.000 H 295.400 C 295.300 257.000 295.400 257.100 295.400 257.000 V 251.200 C 295.400 251.100 295.300 251.200 295.400 251.200 H 298.300 C 298.355 251.200 298.400 251.155 298.400 251.100 V 243.600 C 298.400 243.545 298.355 243.500 298.300 243.500 H 295.300 H 13.100 H 10.100 C 10.045 243.500 10.000 243.545 10.000 243.600 V 251.100 C 10.000 251.155 10.045 251.200 10.100 251.200 H 13.000 C 13.100 251.200 13.000 251.100 13.000 251.200 V 257.000 C 13.000 257.100 13.100 257.000 13.000 257.000 H 10.100 C 10.045 257.000 10.000 257.045 10.000 257.100 V 263.100 C 10.000 263.155 10.045 263.200 10.100 263.200 H 13.000 C 13.100 263.200 13.000 263.100 13.000 263.200 V 269.000 C 13.000 269.100 13.100 269.000 13.000 269.000 H 10.100 C 10.045 269.000 10.000 269.045 10.000 269.100 V 275.100 C 10.000 275.155 10.045 275.200 10.100 275.200 H 13.000 C 13.100 275.200 13.000 275.100 13.000 275.200 V 281.000 C 13.000 281.100 13.100 281.000 13.000 281.000 H 10.100 C 10.045 281.000 10.000 281.045 10.000 281.100 V 288.600 C 10.000 288.655 10.045 288.700 10.100 288.700 H 13.100 Z" />
  </g>
  <g
     style="fill:none;stroke-linecap:round;stroke-linejoin:round;"
     id="p-2">
    <path
       id="path450"
       stroke-width="0.20"
       stroke="rgb(0,0,0)"
       d="M 13.100 242.000 H 295.300 C 295.355 242.000 295.400 241.955 295.400 241.900 V 234.500 C 295.400 234.400 295.300 234.500 295.400 234.500 H 298.300 C 298.355 234.500 298.400 234.455 298.400 234.400 V 228.400 C 298.400 228.345 298.355 228.300 298.300 228.300 H 295.400 C 295.300 228.300 295.400 228.400 295.400 228.300 V 222.500 C 295.400 222.400 295.300 222.500 295.400 222.500 H 298.300 C 298.355 222.500 298.400 222.455 298.400 222.400 V 216.400 C 298.400 216.345 298.355 216.300 298.300 216.300 H 295.400 C 295.300 216.300 295.400 216.400 295.400 216.300 V 210.500 C 295.400 210.400 295.300 210.500 295.400 210.500 H 298.300 C 298.355 210.500 298.400 210.455 298.400 210.400 V 204.400 C 298.400 204.345 298.355 204.300 298.300 204.300 H 295.400 C 295.300 204.300 295.400 204.400 295.400 204.300 V 196.900 C 295.400 196.845 295.355 196.800 295.300 196.800 H 259.729 C 259.360 196.800 258.998 196.897 258.679 197.081 C 258.359 197.266 258.094 197.531 257.910 197.850 C 257.726 198.169 257.629 198.531 257.629 198.900 V 216.800 C 257.629 216.900 257.729 216.800 257.629 216.800 H 254.629 C 254.529 216.800 254.629 216.900 254.629 216.800 V 198.900 C 254.629 198.531 254.532 198.169 254.347 197.850 C 254.163 197.531 253.898 197.266 253.579 197.081 C 253.259 196.897 252.897 196.800 252.529 196.800 H 218.957 C 218.589 196.800 218.226 196.897 217.907 197.081 C 217.588 197.266 217.323 197.531 217.138 197.850 C 216.954 198.169 216.857 198.531 216.857 198.900 V 216.800 C 216.857 216.900 216.957 216.800 216.857 216.800 H 213.857 C 213.757 216.800 213.857 216.900 213.857 216.800 V 198.900 C 213.857 198.531 213.760 198.169 213.576 197.850 C 213.391 197.531 213.126 197.266 212.807 197.081 C 212.488 196.897 212.126 196.800 211.757 196.800 H 178.186 C 177.817 196.800 177.455 196.897 177.136 197.081 C 176.816 197.266 176.551 197.531 176.367 197.850 C 176.183 198.169 176.086 198.531 176.086 198.900 V 216.800 C 176.086 216.900 176.186 216.800 176.086 216.800 H 173.086 C 172.986 216.800 173.086 216.900 173.086 216.800 V 198.900 C 173.086 198.531 172.989 198.169 172.804 197.850 C 172.620 197.531 172.355 197.266 172.036 197.081 C 171.716 196.897 171.354 196.800 170.986 196.800 H 137.414 C 137.046 196.800 136.684 196.897 136.364 197.081 C 136.045 197.266 135.780 197.531 135.596 197.850 C 135.411 198.169 135.314 198.531 135.314 198.900 V 216.800 C 135.314 216.900 135.414 216.800 135.314 216.800 H 132.314 C 132.214 216.800 132.314 216.900 132.314 216.800 V 198.900 C 132.314 198.531 132.217 198.169 132.033 197.850 C 131.849 197.531 131.584 197.266 131.264 197.081 C 130.945 196.897 130.583 196.800 130.214 196.800 H 96.643 C 96.274 196.800 95.912 196.897 95.593 197.081 C 95.274 197.266 95.009 197.531 94.824 197.850 C 94.640 198.169 94.543 198.531 94.543 198.900 V 216.800 C 94.543 216.900 94.643 216.800 94.543 216.800 H 91.543 C 91.443 216.800 91.543 216.900 91.543 216.800 V 198.900 C 91.543 198.531 91.446 198.169 91.262 197.850 C 91.077 197.531 90.812 197.266 90.493 197.081 C 90.174 196.897 89.811 196.800 89.443 196.800 H 55.871 C 55.503 196.800 55.141 196.897 54.821 197.081 C 54.502 197.266 54.237 197.531 54.053 197.850 C 53.868 198.169 53.771 198.531 53.771 198.900 V 216.800 C 53.771 216.900 53.871 216.800 53.771 216.800 H 50.771 C 50.671 216.800 50.771 216.900 50.771 216.800 V 198.900 C 50.771 198.531 50.674 198.169 50.490 197.850 C 50.306 197.531 50.041 197.266 49.721 197.081 C 49.402 196.897 49.040 196.800 48.671 196.800 H 13.100 C 13.045 196.800 13.000 196.845 13.000 196.900 V 204.300 C 13.000 204.400 13.100 204.300 13.000 204.300 H 10.100 C 10.045 204.300 10.000 204.345 10.000 204.400 V 210.400 C 10.000 210.455 10.045 210.500 10.100 210.500 H 13.000 C 13.100 210.500 13.000 210.400 13.000 210.500 V 216.300 C 13.000 216.400 13.100 216.300 13.000 216.300 H 10.100 C 10.045 216.300 10.000 216.345 10.000 216.400 V 222.400 C 10.000 222.455 10.045 222.500 10.100 222.500 H 13.000 C 13.100 222.500 13.000 222.400 13.000 222.500 V 228.300 C 13.000 228.400 13.100 228.300 13.000 228.300 H 10.100 C 10.045 228.300 10.000 228.345 10.000 228.400 V 234.400 C 10.000 234.455 10.045 234.500 10.100 234.500 H 13.000 C 13.100 234.500 13.000 234.400 13.000 234.500 V 241.900 C 13.000 241.955 13.045 242.000 13.100 242.000 Z" />
  </g>
  <g
     style="fill:none;stroke-linecap:round;stroke-linejoin:round;"
     id="p-3">
    <path
       id="path453"
       stroke-width="0.20"
       stroke="rgb(0,0,0)"
       d="M 13.100 195.300 H 295.300 C 295.355 195.300 295.400 195.255 295.400 195.200 V 187.800 C 295.400 187.700 295.300 187.800 295.400 187.800 H 298.300 C 298.355 187.800 298.400 187.755 298.400 187.700 V 181.700 C 298.400 181.645 298.355 181.600 298.300 181.600 H 295.400 C 295.300 181.600 295.400 181.700 295.400 181.600 V 175.800 C 295.400 175.700 295.300 175.800 295.400 175.800 H 298.300 C 298.355 175.800 298.400 175.755 298.400 175.700 V 169.700 C 298.400 169.645 298.355 169.600 298.300 169.600 H 295.400 C 295.300 169.600 295.400 169.700 295.400 169.600 V 163.800 C 295.400 163.700 295.300 163.800 295.400 163.800 H 298.300 C 298.355 163.800 298.400 163.755 298.400 163.700 V 157.700 C 298.400 157.645 298.355 157.600 298.300 157.600 H 295.400 C 295.300 157.600 295.400 157.700 295.400 157.600 V 150.200 C 295.400 150.145 295.355 150.100 295.300 150.100 H 259.729 C 259.360 150.100 258.998 150.197 258.679 150.381 C 258.359 150.566 258.094 150.831 257.910 151.150 C 257.726 151.469 257.629 151.831 257.629 152.200 V 170.100 C 257.629 170.200 257.729 170.100 257.629 170.100 H 254.629 C 254.529 170.100 254.629 170.200 254.629 170.100 V 152.200 C 254.629 151.831 254.532 151.469 254.347 151.150 C 254.163 150.831 253.898 150.566 253.579 150.381 C 253.259 150.197 252.897 150.100 252.529 150.100 H 218.957 C 218.589 150.100 218.226 150.197 217.907 150.381 C 217.588 150.566 217.323 150.831 217.138 151.150 C 216.954 151.469 216.857 151.831 216.857 152.200 V 170.100 C 216.857 170.200 216.957 170.100 216.857 170.100 H 213.857 C 213.757 170.100 213.857 170.200 213.857 170.100 V 152.200 C 213.857 151.831 213.760 151.469 213.576 151.150 C 213.391 150.831 213.126 150.566 212.807 150.381 C 212.488 150.197 212.126 150.100 211.757 150.100 H 178.186 C 177.817 150.100 177.455 150.197 177.136 150.381 C 176.816 150.566 176.551 150.831 176.367 151.150 C 176.183 151.469 176.086 151.831 176.086 152.200 V 170.100 C 176.086 170.200 176.186 170.100 176.086 170.100 H 173.086 C 172.986 170.100 173.086 170.200 173.086 170.100 V 152.200 C 173.086 151.831 172.989 151.469 172.804 151.150 C 172.620 150.831 172.355 150.566 172.036 150.381 C 171.716 150.197 171.354 150.100 170.986 150.100 H 137.414 C 137.046 150.100 136.684 150.197 136.364 150.381 C 136.045 150.566 135.780 150.831 135.596 151.150 C 135.411 151.469 135.314 151.831 135.314 152.200 V 170.100 C 135.314 170.200 135.414 170.100 135.314 170.100 H 132.314 C 132.214 170.100 132.314 170.200 132.314 170.100 V 152.200 C 132.314 151.831 132.217 151.469 132.033 151.150 C 131.849 150.831 131.584 150.566 131.264 150.381 C 130.945 150.197 130.583 150.100 130.214 150.100 H 96.643 C 96.274 150.100 95.912 150.197 95.593 150.381 C 95.274 150.566 95.009 150.831 94.824 151.150 C 94.640 151.469 94.543 151.831 94.543 152.200 V 170.100 C 94.543 170.200 94.643 170.100 94.543 170.100 H 91.543 C 91.443 170.100 91.543 170.200 91.543 170.100 V 152.200 C 91.543 151.831 91.446 151.469 91.262 151.150 C 91.077 150.831 90.812 150.566 90.493 150.381 C 90.174 150.197 89.811 150.100 89.443 150.100 H 55.871 C 55.503 150.100 55.141 150.197 54.821 150.381 C 54.502 150.566 54.237 150.831 54.053 151.150 C 53.868 151.469 53.771 151.831 53.771 152.200 V 170.100 C 53.771 170.200 53.871 170.100 53.771 170.100 H 50.771 C 50.671 170.100 50.771 170.200 50.771 170.100 V 152.200 C 50.771 151.831 50.674 151.469 50.490 151.150 C 50.306 150.831 50.041 150.566 49.721 150.381 C 49.402 150.197 49.040 150.100 48.671 150.100 H 13.100 C 13.045 150.100 13.000 150.145 13.000 150.200 V 157.600 C 13.000 157.700 13.100 157.600 13.000 157.600 H 10.100 C 10.045 157.600 10.000 157.645 10.000 157.700 V 163.700 C 10.000 163.755 10.045 163.800 10.100 163.800 H 13.000 C 13.100 163.800 13.000 163.700 13.000 163.800 V 169.600 C 13.000 169.700 13.100 169.600 13.000 169.600 H 10.100 C 10.045 169.600 10.000 169.645 10.000 169.700 V 175.700 C 10.000 175.755 10.045 175.800 10.100 175.800 H 13.000 C 13.100 175.800 13.000 175.700 13.000 175.800 V 181.600 C 13.000 181.700 13.100 181.600 13.000 181.600 H 10.100 C 10.045 181.600 10.000 181.645 10.000 181.700 V 187.700 C 10.000 187.755 10.045 187.800 10.100 187.800 H 13.000 C 13.100 187.800 13.000 187.700 13.000 187.800 V 195.200 C 13.000 195.255 13.045 195.300 13.100 195.300 Z" />
  </g>
  <g
     style="fill:none;stroke-linecap:round;stroke-linejoin:round;"
     id="p-4">
    <path
       id="path456"
       stroke-width="0.20"
       stroke="rgb(0,0,0)"
       d="M 13.100 148.600 H 295.300 C 295.355 148.600 295.400 148.555 295.400 148.500 V 141.100 C 295.400 141.000 295.300 141.100 295.400 141.100 H 298.300 C 298.355 141.100 298.400 141.055 298.400 141.000 V 135.000 C 298.400 134.945 298.355 134.900 298.300 134.900 H 295.400 C 295.300 134.900 295.400 135.000 295.400 134.900 V 129.100 C 295.400 129.000 295.300 129.100 295.400 129.100 H 298.300 C 298.355 129.100 298.400 129.055 298.400 129.000 V 123.000 C 298.400 122.945 298.355 122.900 298.300 122.900 H 295.400 C 295.300 122.900 295.400 123.000 295.400 122.900 V 117.100 C 295.400 117.000 295.300 117.100 295.400 117.100 H 298.300 C 298.355 117.100 298.400 117.055 298.400 117.000 V 111.000 C 298.400 110.945 298.355 110.900 298.300 110.900 H 295.400 C 295.300 110.900 295.400 111.000 295.400 110.900 V 103.500 C 295.400 103.445 295.355 103.400 295.300 103.400 H 259.729 C 259.360 103.400 258.998 103.497 258.679 103.681 C 258.359 103.866 258.094 104.131 257.910 104.450 C 257.726 104.769 257.629 105.131 257.629 105.500 V 123.400 C 257.629 123.500 257.729 123.400 257.629 123.400 H 254.629 C 254.529 123.400 254.629 123.500 254.629 123.400 V 105.500 C 254.629 105.131 254.532 104.769 254.347 104.450 C 254.163 104.131 253.898 103.866 253.579 103.681 C 253.259 103.497 252.897 103.400 252.529 103.400 H 218.957 C 218.589 103.400 218.226 103.497 217.907 103.681 C 217.588 103.866 217.323 104.131 217.138 104.450 C 216.954 104.769 216.857 105.131 216.857 105.500 V 123.400 C 216.857 123.500 216.957 123.400 216.857 123.400 H 213.857 C 213.757 123.400 213.857 123.500 213.857 123.400 V 105.500 C 213.857 105.131 213.760 104.769 213.576 104.450 C 213.391 104.131 213.126 103.866 212.807 103.681 C 212.488 103.497 212.126 103.400 211.757 103.400 H 178.186 C 177.817 103.400 177.455 103.497 177.136 103.681 C 176.816 103.866 176.551 104.131 176.367 104.450 C 176.183 104.769 176.086 105.131 176.086 105.500 V 123.400 C 176.086 123.500 176.186 123.400 176.086 123.400 H 173.086 C 172.986 123.400 173.086 123.500 173.086 123.400 V 105.500 C 173.086 105.131 172.989 104.769 172.804 104.450 C 172.620 104.131 172.355 103.866 172.036 103.681 C 171.716 103.497 171.354 103.400 170.986 103.400 H 137.414 C 137.046 103.400 136.684 103.497 136.364 103.681 C 136.045 103.866 135.780 104.131 135.596 104.450 C 135.411 104.769 135.314 105.131 135.314 105.500 V 123.400 C 135.314 123.500 135.414 123.400 135.314 123.400 H 132.314 C 132.214 123.400 132.314 123.500 132.314 123.400 V 105.500 C 132.314 105.131 132.217 104.769 132.033 104.450 C 131.849 104.131 131.584 103.866 131.264 103.681 C 130.945 103.497 130.583 103.400 130.214 103.400 H 96.643 C 96.274 103.400 95.912 103.497 95.593 103.681 C 95.274 103.866 95.009 104.131 94.824 104.450 C 94.640 104.769 94.543 105.131 94.543 105.500 V 123.400 C 94.543 123.500 94.643 123.400 94.543 123.400 H 91.543 C 91.443 123.400 91.543 123.500 91.543 123.400 V 105.500 C 91.543 105.131 91.446 104.769 91.262 104.450 C 91.077 104.131 90.812 103.866 90.493 103.681 C 90.174 103.497 89.811 103.400 89.443 103.400 H 55.871 C 55.503 103.400 55.141 103.497 54.821 103.681 C 54.502 103.866 54.237 104.131 54.053 104.450 C 53.868 104.769 53.771 105.131 53.771 105.500 V 123.400 C 53.771 123.500 53.871 123.400 53.771 123.400 H 50.771 C 50.671 123.400 50.771 123.500 50.771 123.400 V 105.500 C 50.771 105.131 50.674 104.769 50.490 104.450 C 50.306 104.131 50.041 103.866 49.721 103.681 C 49.402 103.497 49.040 103.400 48.671 103.400 H 13.100 C 13.045 103.400 13.000 103.445 13.000 103.500 V 110.900 C 13.000 111.000 13.100 110.900 13.000 110.900 H 10.100 C 10.045 110.900 10.000 110.945 10.000 111.000 V 117.000 C 10.000 117.055 10.045 117.100 10.100 117.100 H 13.000 C 13.100 117.100 13.000 117.000 13.000 117.100 V 122.900 C 13.000 123.000 13.100 122.900 13.000 122.900 H 10.100 C 10.045 122.900 10.000 122.945 10.000 123.000 V 129.000 C 10.000 129.055 10.045 129.100 10.100 129.100 H 13.000 C 13.100 129.100 13.000 129.000 13.000 129.100 V 134.900 C 13.000 135.000 13.100 134.900 13.000 134.900 H 10.100 C 10.045 134.900 10.000 134.945 10.000 135.000 V 141.000 C 10.000 141.055 10.045 141.100 10.100 141.100 H 13.000 C 13.100 141.100 13.000 141.000 13.000 141.100 V 148.500 C 13.000 148.555 13.045 148.600 13.100 148.600 Z" />
  </g>
  <g
     style="fill:none;stroke-linecap:round;stroke-linejoin:round;"
     id="p-5">
    <path
       id="path459"
       stroke-width="0.20"
       stroke="rgb(0,0,0)"
       d="M 13.100 101.900 H 295.300 C 295.355 101.900 295.400 101.855 295.400 101.800 V 94.400 C 295.400 94.300 295.300 94.400 295.400 94.400 H 298.300 C 298.355 94.400 298.400 94.355 298.400 94.300 V 88.300 C 298.400 88.245 298.355 88.200 298.300 88.200 H 295.400 C 295.300 88.200 295.400 88.300 295.400 88.200 V 82.400 C 295.400 82.300 295.300 82.400 295.400 82.400 H 298.300 C 298.355 82.400 298.400 82.355 298.400 82.300 V 76.300 C 298.400 76.245 298.355 76.200 298.300 76.200 H 295.400 C 295.300 76.200 295.400 76.300 295.400 76.200 V 70.400 C 295.400 70.300 295.300 70.400 295.400 70.400 H 298.300 C 298.355 70.400 298.400 70.355 298.400 70.300 V 64.300 C 298.400 64.245 298.355 64.200 298.300 64.200 H 295.400 C 295.300 64.200 295.400 64.300 295.400 64.200 V 56.800 C 295.400 56.745 295.355 56.700 295.300 56.700 H 259.729 C 259.360 56.700 258.998 56.797 258.679 56.981 C 258.359 57.166 258.094 57.431 257.910 57.750 C 257.726 58.069 257.629 58.431 257.629 58.800 V 76.700 C 257.629 76.800 257.729 76.700 257.629 76.700 H 254.629 C 254.529 76.700 254.629 76.800 254.629 76.700 V 58.800 C 254.629 58.431 254.532 58.069 254.347 57.750 C 254.163 57.431 253.898 57.166 253.579 56.981 C 253.259 56.797 252.897 56.700 252.529 56.700 H 218.957 C 218.589 56.700 218.226 56.797 217.907 56.981 C 217.588 57.166 217.323 57.431 217.138 57.750 C 216.954 58.069 216.857 58.431 216.857 58.800 V 76.700 C 216.857 76.800 216.957 76.700 216.857 76.700 H 213.857 C 213.757 76.700 213.857 76.800 213.857 76.700 V 58.800 C 213.857 58.431 213.760 58.069 213.576 57.750 C 213.391 57.431 213.126 57.166 212.807 56.981 C 212.488 56.797 212.126 56.700 211.757 56.700 H 178.186 C 177.817 56.700 177.455 56.797 177.136 56.981 C 176.816 57.166 176.551 57.431 176.367 57.750 C 176.183 58.069 176.086 58.431 176.086 58.800 V 76.700 C 176.086 76.800 176.186 76.700 176.086 76.700 H 173.086 C 172.986 76.700 173.086 76.800 173.086 76.700 V 58.800 C 173.086 58.431 172.989 58.069 172.804 57.750 C 172.620 57.431 172.355 57.166 172.036 56.981 C 171.716 56.797 171.354 56.700 170.986 56.700 H 137.414 C 137.046 56.700 136.684 56.797 136.364 56.981 C 136.045 57.166 135.780 57.431 135.596 57.750 C 135.411 58.069 135.314 58.431 135.314 58.800 V 76.700 C 135.314 76.800 135.414 76.700 135.314 76.700 H 132.314 C 132.214 76.700 132.314 76.800 132.314 76.700 V 58.800 C 132.314 58.431 132.217 58.069 132.033 57.750 C 131.849 57.431 131.584 57.166 131.264 56.981 C 130.945 56.797 130.583 56.700 130.214 56.700 H 96.643 C 96.274 56.700 95.912 56.797 95.593 56.981 C 95.274 57.166 95.009 57.431 94.824 57.750 C 94.640 58.069 94.543 58.431 94.543 58.800 V 76.700 C 94.543 76.800 94.643 76.700 94.543 76.700 H 91.543 C 91.443 76.700 91.543 76.800 91.543 76.700 V 58.800 C 91.543 58.431 91.446 58.069 91.262 57.750 C 91.077 57.431 90.812 57.166 90.493 56.981 C 90.174 56.797 89.811 56.700 89.443 56.700 H 55.871 C 55.503 56.700 55.141 56.797 54.821 56.981 C 54.502 57.166 54.237 57.431 54.053 57.750 C 53.868 58.069 53.771 58.431 53.771 58.800 V 76.700 C 53.771 76.800 53.871 76.700 53.771 76.700 H 50.771 C 50.671 76.700 50.771 76.800 50.771 76.700 V 58.800 C 50.771 58.431 50.674 58.069 50.490 57.750 C 50.306 57.431 50.041 57.166 49.721 56.981 C 49.402 56.797 49.040 56.700 48.671 56.700 H 13.100 C 13.045 56.700 13.000 56.745 13.000 56.800 V 64.200 C 13.000 64.300 13.100 64.200 13.000 64.200 H 10.100 C 10.045 64.200 10.000 64.245 10.000 64.300 V 70.300 C 10.000 70.355 10.045 70.400 10.100 70.400 H 13.000 C 13.100 70.400 13.000 70.300 13.000 70.400 V 76.200 C 13.000 76.300 13.100 76.200 13.000 76.200 H 10.100 C 10.045 76.200 10.000 76.245 10.000 76.300 V 82.300 C 10.000 82.355 10.045 82.400 10.100 82.400 H 13.000 C 13.100 82.400 13.000 82.300 13.000 82.400 V 88.200 C 13.000 88.300 13.100 88.200 13.000 88.200 H 10.100 C 10.045 88.200 10.000 88.245 10.000 88.300 V 94.300 C 10.000 94.355 10.045 94.400 10.100 94.400 H 13.000 C 13.100 94.400 13.000 94.300 13.000 94.400 V 101.800 C 13.000 101.855 13.045 101.900 13.100 101.900 Z" />
  </g>
  <g
     style="fill:none;stroke-linecap:round;stroke-linejoin:round;"
     id="p-6">
    <path
       id="path462"
       stroke-width="0.20"
       stroke="rgb(0,0,0)"
       d="M 13.100 55.200 H 295.300 C 295.355 55.200 295.400 55.155 295.400 55.100 V 47.700 C 295.400 47.600 295.300 47.700 295.400 47.700 H 298.300 C 298.355 47.700 298.400 47.655 298.400 47.600 V 41.600 C 298.400 41.545 298.355 41.500 298.300 41.500 H 295.400 C 295.300 41.500 295.400 41.600 295.400 41.500 V 35.700 C 295.400 35.600 295.300 35.700 295.400 35.700 H 298.300 C 298.355 35.700 298.400 35.655 298.400 35.600 V 29.600 C 298.400 29.545 298.355 29.500 298.300 29.500 H 295.400 C 295.300 29.500 295.400 29.600 295.400 29.500 V 23.700 C 295.400 23.600 295.300 23.700 295.400 23.700 H 298.300 C 298.355 23.700 298.400 23.655 298.400 23.600 V 17.600 C 298.400 17.545 298.355 17.500 298.300 17.500 H 295.400 C 295.300 17.500 295.400 17.600 295.400 17.500 V 10.100 C 295.400 10.045 295.355 10.000 295.300 10.000 H 259.729 C 259.360 10.000 258.998 10.097 258.679 10.281 C 258.359 10.466 258.094 10.731 257.910 11.050 C 257.726 11.369 257.629 11.731 257.629 12.100 V 30.000 C 257.629 30.100 257.729 30.000 257.629 30.000 H 254.629 C 254.529 30.000 254.629 30.100 254.629 30.000 V 12.100 C 254.629 11.731 254.532 11.369 254.347 11.050 C 254.163 10.731 253.898 10.466 253.579 10.281 C 253.259 10.097 252.897 10.000 252.529 10.000 H 218.957 C 218.589 10.000 218.226 10.097 217.907 10.281 C 217.588 10.466 217.323 10.731 217.138 11.050 C 216.954 11.369 216.857 11.731 216.857 12.100 V 30.000 C 216.857 30.100 216.957 30.000 216.857 30.000 H 213.857 C 213.757 30.000 213.857 30.100 213.857 30.000 V 12.100 C 213.857 11.731 213.760 11.369 213.576 11.050 C 213.391 10.731 213.126 10.466 212.807 10.281 C 212.488 10.097 212.126 10.000 211.757 10.000 H 178.186 C 177.817 10.000 177.455 10.097 177.136 10.281 C 176.816 10.466 176.551 10.731 176.367 11.050 C 176.183 11.369 176.086 11.731 176.086 12.100 V 30.000 C 176.086 30.100 176.186 30.000 176.086 30.000 H 173.086 C 172.986 30.000 173.086 30.100 173.086 30.000 V 12.100 C 173.086 11.731 172.989 11.369 172.804 11.050 C 172.620 10.731 172.355 10.466 172.036 10.281 C 171.716 10.097 171.354 10.000 170.986 10.000 H 137.414 C 137.046 10.000 136.684 10.097 136.364 10.281 C 136.045 10.466 135.780 10.731 135.596 11.050 C 135.411 11.369 135.314 11.731 135.314 12.100 V 30.000 C 135.314 30.100 135.414 30.000 135.314 30.000 H 132.314 C 132.214 30.000 132.314 30.100 132.314 30.000 V 12.100 C 132.314 11.731 132.217 11.369 132.033 11.050 C 131.849 10.731 131.584 10.466 131.264 10.281 C 130.945 10.097 130.583 10.000 130.214 10.000 H 96.643 C 96.274 10.000 95.912 10.097 95.593 10.281 C 95.274 10.466 95.009 10.731 94.824 11.050 C 94.640 11.369 94.543 11.731 94.543 12.100 V 30.000 C 94.543 30.100 94.643 30.000 94.543 30.000 H 91.543 C 91.443 30.000 91.543 30.100 91.543 30.000 V 12.100 C 91.543 11.731 91.446 11.369 91.262 11.050 C 91.077 10.731 90.812 10.466 90.493 10.281 C 90.174 10.097 89.811 10.000 89.443 10.000 H 55.871 C 55.503 10.000 55.141 10.097 54.821 10.281 C 54.502 10.466 54.237 10.731 54.053 11.050 C 53.868 11.369 53.771 11.731 53.771 12.100 V 30.000 C 53.771 30.100 53.871 30.000 53.771 30.000 H 50.771 C 50.671 30.000 50.771 30.100 50.771 30.000 V 12.100 C 50.771 11.731 50.674 11.369 50.490 11.050 C 50.306 10.731 50.041 10.466 49.721 10.281 C 49.402 10.097 49.040 10.000 48.671 10.000 H 13.100 C 13.045 10.000 13.000 10.045 13.000 10.100 V 17.500 C 13.000 17.600 13.100 17.500 13.000 17.500 H 10.100 C 10.045 17.500 10.000 17.545 10.000 17.600 V 23.600 C 10.000 23.655 10.045 23.700 10.100 23.700 H 13.000 C 13.100 23.700 13.000 23.600 13.000 23.700 V 29.500 C 13.000 29.600 13.100 29.500 13.000 29.500 H 10.100 C 10.045 29.500 10.000 29.545 10.000 29.600 V 35.600 C 10.000 35.655 10.045 35.700 10.100 35.700 H 13.000 C 13.100 35.700 13.000 35.600 13.000 35.700 V 41.500 C 13.000 41.600 13.100 41.500 13.000 41.500 H 10.100 C 10.045 41.500 10.000 41.545 10.000 41.600 V 47.600 C 10.000 47.655 10.045 47.700 10.100 47.700 H 13.000 C 13.100 47.700 13.000 47.600 13.000 47.700 V 55.100 C 13.000 55.155 13.045 55.200 13.100 55.200 Z" />
  </g>
  <g
     style="fill:none;stroke-linecap:round;stroke-linejoin:round;"
     id="p-7">
    <path
       id="path465"
       stroke-width="0.20"
       stroke="rgb(0,0,0)"
       d="M 300.000 335.400 H 303.000 H 319.767 C 319.960 335.400 320.149 335.349 320.317 335.253 C 320.484 335.156 320.623 335.017 320.719 334.850 C 320.816 334.683 320.867 334.493 320.867 334.300 V 333.300 C 320.867 331.913 321.232 330.551 321.925 329.350 C 322.618 328.149 323.616 327.152 324.817 326.458 C 326.018 325.765 327.380 325.400 328.767 325.400 H 345.533 C 346.920 325.400 348.282 325.765 349.483 326.458 C 350.684 327.152 351.682 328.149 352.375 329.350 C 353.068 330.551 353.433 331.913 353.433 333.300 V 334.300 C 353.433 334.493 353.484 334.683 353.581 334.850 C 353.677 335.017 353.816 335.156 353.983 335.253 C 354.151 335.349 354.340 335.400 354.533 335.400 H 371.300 H 374.300 C 374.355 335.400 374.400 335.355 374.400 335.300 V 315.300 C 374.400 315.245 374.355 315.200 374.300 315.200 H 371.400 C 371.300 315.200 371.400 315.300 371.400 315.200 V 305.300 C 371.400 305.245 371.355 305.200 371.300 305.200 H 303.000 C 302.945 305.200 302.900 305.245 302.900 305.300 V 315.200 C 302.900 315.300 303.000 315.200 302.900 315.200 H 300.000 C 299.945 315.200 299.900 315.245 299.900 315.300 V 335.300" />
  </g>
  <g
     style="fill:none;stroke-linecap:round;stroke-linejoin:round;"
     id="p-8">
    <path
       id="path468"
       stroke-width="0.20"
       stroke="rgb(0,0,0)"
       d="M 300.000 303.700 H 303.000 H 319.767 C 319.960 303.700 320.149 303.649 320.317 303.553 C 320.484 303.456 320.623 303.317 320.719 303.150 C 320.816 302.983 320.867 302.793 320.867 302.600 V 301.600 C 320.867 300.213 321.232 298.851 321.925 297.650 C 322.618 296.449 323.616 295.452 324.817 294.758 C 326.018 294.065 327.380 293.700 328.767 293.700 H 345.533 C 346.920 293.700 348.282 294.065 349.483 294.758 C 350.684 295.452 351.682 296.449 352.375 297.650 C 353.068 298.851 353.433 300.213 353.433 301.600 V 302.600 C 353.433 302.793 353.484 302.983 353.581 303.150 C 353.677 303.317 353.816 303.456 353.983 303.553 C 354.151 303.649 354.340 303.700 354.533 303.700 H 371.300 H 374.300 C 374.355 303.700 374.400 303.655 374.400 303.600 V 283.600 C 374.400 283.545 374.355 283.500 374.300 283.500 H 371.400 C 371.300 283.500 371.400 283.600 371.400 283.500 V 273.600 C 371.400 273.545 371.355 273.500 371.300 273.500 H 303.000 C 302.945 273.500 302.900 273.545 302.900 273.600 V 283.500 C 302.900 283.600 303.000 283.500 302.900 283.500 H 300.000 C 299.945 283.500 299.900 283.545 299.900 283.600 V 303.600" />
  </g>
  <g
     style="fill:none;stroke-linecap:round;stroke-linejoin:round;"
     id="p-9">
    <path
       id="path471"
       stroke-width="0.20"
       stroke="rgb(0,0,0)"
       d="M 300.000 272.000 H 303.000 H 319.767 C 319.960 272.000 320.149 271.949 320.317 271.853 C 320.484 271.756 320.623 271.617 320.719 271.450 C 320.816 271.283 320.867 271.093 320.867 270.900 V 269.900 C 320.867 268.513 321.232 267.151 321.925 265.950 C 322.618 264.749 323.616 263.752 324.817 263.058 C 326.018 262.365 327.380 262.000 328.767 262.000 H 345.533 C 346.920 262.000 348.282 262.365 349.483 263.058 C 350.684 263.752 351.682 264.749 352.375 265.950 C 353.068 267.151 353.433 268.513 353.433 269.900 V 270.900 C 353.433 271.093 353.484 271.283 353.581 271.450 C 353.677 271.617 353.816 271.756 353.983 271.853 C 354.151 271.949 354.340 272.000 354.533 272.000 H 371.300 H 374.300 C 374.355 272.000 374.400 271.955 374.400 271.900 V 251.900 C 374.400 251.845 374.355 251.800 374.300 251.800 H 371.400 C 371.300 251.800 371.400 251.900 371.400 251.800 V 241.900 C 371.400 241.845 371.355 241.800 371.300 241.800 H 303.000 C 302.945 241.800 302.900 241.845 302.900 241.900 V 251.800 C 302.900 251.900 303.000 251.800 302.900 251.800 H 300.000 C 299.945 251.800 299.900 251.845 299.900 251.900 V 271.900" />
  </g>
  <g
     style="fill:none;stroke-linecap:round;stroke-linejoin:round;"
     id="p-10">
    <path
       id="path474"
       stroke-width="0.20"
       stroke="rgb(0,0,0)"
       d="M 300.000 240.300 H 303.000 H 319.767 C 319.960 240.300 320.149 240.249 320.317 240.153 C 320.484 240.056 320.623 239.917 320.719 239.750 C 320.816 239.583 320.867 239.393 320.867 239.200 V 238.200 C 320.867 236.813 321.232 235.451 321.925 234.250 C 322.618 233.049 323.616 232.052 324.817 231.358 C 326.018 230.665 327.380 230.300 328.767 230.300 H 345.533 C 346.920 230.300 348.282 230.665 349.483 231.358 C 350.684 232.052 351.682 233.049 352.375 234.250 C 353.068 235.451 353.433 236.813 353.433 238.200 V 239.200 C 353.433 239.393 353.484 239.583 353.581 239.750 C 353.677 239.917 353.816 240.056 353.983 240.153 C 354.151 240.249 354.340 240.300 354.533 240.300 H 371.300 H 374.300 C 374.355 240.300 374.400 240.255 374.400 240.200 V 220.200 C 374.400 220.145 374.355 220.100 374.300 220.100 H 371.400 C 371.300 220.100 371.400 220.200 371.400 220.100 V 210.200 C 371.400 210.145 371.355 210.100 371.300 210.100 H 303.000 C 302.945 210.100 302.900 210.145 302.900 210.200 V 220.100 C 302.900 220.200 303.000 220.100 302.900 220.100 H 300.000 C 299.945 220.100 299.900 220.145 299.900 220.200 V 240.200" />
  </g>
</svg>
